%TF.GenerationSoftware,KiCad,Pcbnew,7.0.8*%
%TF.CreationDate,2024-01-19T17:30:03-07:00*%
%TF.ProjectId,Remote,52656d6f-7465-42e6-9b69-6361645f7063,rev?*%
%TF.SameCoordinates,Original*%
%TF.FileFunction,Legend,Bot*%
%TF.FilePolarity,Positive*%
%FSLAX46Y46*%
G04 Gerber Fmt 4.6, Leading zero omitted, Abs format (unit mm)*
G04 Created by KiCad (PCBNEW 7.0.8) date 2024-01-19 17:30:03*
%MOMM*%
%LPD*%
G01*
G04 APERTURE LIST*
%ADD10C,0.150000*%
%ADD11C,0.300000*%
%ADD12C,0.508000*%
%ADD13C,0.127000*%
%ADD14C,0.200000*%
G04 APERTURE END LIST*
D10*
X132380000Y-88340000D02*
X167390000Y-88340000D01*
X167390000Y-58380000D01*
X132380000Y-58380000D01*
X132380000Y-88340000D01*
D11*
X168790828Y-67880225D02*
X168790828Y-68165939D01*
X168790828Y-68165939D02*
X168862257Y-68308796D01*
X168862257Y-68308796D02*
X169005114Y-68451653D01*
X169005114Y-68451653D02*
X169290828Y-68523082D01*
X169290828Y-68523082D02*
X169790828Y-68523082D01*
X169790828Y-68523082D02*
X170076542Y-68451653D01*
X170076542Y-68451653D02*
X170219400Y-68308796D01*
X170219400Y-68308796D02*
X170290828Y-68165939D01*
X170290828Y-68165939D02*
X170290828Y-67880225D01*
X170290828Y-67880225D02*
X170219400Y-67737368D01*
X170219400Y-67737368D02*
X170076542Y-67594510D01*
X170076542Y-67594510D02*
X169790828Y-67523082D01*
X169790828Y-67523082D02*
X169290828Y-67523082D01*
X169290828Y-67523082D02*
X169005114Y-67594510D01*
X169005114Y-67594510D02*
X168862257Y-67737368D01*
X168862257Y-67737368D02*
X168790828Y-67880225D01*
X169505114Y-69665939D02*
X169505114Y-69165939D01*
X170290828Y-69165939D02*
X168790828Y-69165939D01*
X168790828Y-69165939D02*
X168790828Y-69880225D01*
X169505114Y-70951653D02*
X169505114Y-70451653D01*
X170290828Y-70451653D02*
X168790828Y-70451653D01*
X168790828Y-70451653D02*
X168790828Y-71165939D01*
D10*
X152009819Y-72207142D02*
X152009819Y-71635714D01*
X152009819Y-71921428D02*
X151009819Y-71921428D01*
X151009819Y-71921428D02*
X151152676Y-71826190D01*
X151152676Y-71826190D02*
X151247914Y-71730952D01*
X151247914Y-71730952D02*
X151295533Y-71635714D01*
X151009819Y-73111904D02*
X151009819Y-72635714D01*
X151009819Y-72635714D02*
X151486009Y-72588095D01*
X151486009Y-72588095D02*
X151438390Y-72635714D01*
X151438390Y-72635714D02*
X151390771Y-72730952D01*
X151390771Y-72730952D02*
X151390771Y-72969047D01*
X151390771Y-72969047D02*
X151438390Y-73064285D01*
X151438390Y-73064285D02*
X151486009Y-73111904D01*
X151486009Y-73111904D02*
X151581247Y-73159523D01*
X151581247Y-73159523D02*
X151819342Y-73159523D01*
X151819342Y-73159523D02*
X151914580Y-73111904D01*
X151914580Y-73111904D02*
X151962200Y-73064285D01*
X151962200Y-73064285D02*
X152009819Y-72969047D01*
X152009819Y-72969047D02*
X152009819Y-72730952D01*
X152009819Y-72730952D02*
X151962200Y-72635714D01*
X151962200Y-72635714D02*
X151914580Y-72588095D01*
X151009819Y-73492857D02*
X151009819Y-74159523D01*
X151009819Y-74159523D02*
X152009819Y-73730952D01*
X151438390Y-74683333D02*
X151390771Y-74588095D01*
X151390771Y-74588095D02*
X151343152Y-74540476D01*
X151343152Y-74540476D02*
X151247914Y-74492857D01*
X151247914Y-74492857D02*
X151200295Y-74492857D01*
X151200295Y-74492857D02*
X151105057Y-74540476D01*
X151105057Y-74540476D02*
X151057438Y-74588095D01*
X151057438Y-74588095D02*
X151009819Y-74683333D01*
X151009819Y-74683333D02*
X151009819Y-74873809D01*
X151009819Y-74873809D02*
X151057438Y-74969047D01*
X151057438Y-74969047D02*
X151105057Y-75016666D01*
X151105057Y-75016666D02*
X151200295Y-75064285D01*
X151200295Y-75064285D02*
X151247914Y-75064285D01*
X151247914Y-75064285D02*
X151343152Y-75016666D01*
X151343152Y-75016666D02*
X151390771Y-74969047D01*
X151390771Y-74969047D02*
X151438390Y-74873809D01*
X151438390Y-74873809D02*
X151438390Y-74683333D01*
X151438390Y-74683333D02*
X151486009Y-74588095D01*
X151486009Y-74588095D02*
X151533628Y-74540476D01*
X151533628Y-74540476D02*
X151628866Y-74492857D01*
X151628866Y-74492857D02*
X151819342Y-74492857D01*
X151819342Y-74492857D02*
X151914580Y-74540476D01*
X151914580Y-74540476D02*
X151962200Y-74588095D01*
X151962200Y-74588095D02*
X152009819Y-74683333D01*
X152009819Y-74683333D02*
X152009819Y-74873809D01*
X152009819Y-74873809D02*
X151962200Y-74969047D01*
X151962200Y-74969047D02*
X151914580Y-75016666D01*
X151914580Y-75016666D02*
X151819342Y-75064285D01*
X151819342Y-75064285D02*
X151628866Y-75064285D01*
X151628866Y-75064285D02*
X151533628Y-75016666D01*
X151533628Y-75016666D02*
X151486009Y-74969047D01*
X151486009Y-74969047D02*
X151438390Y-74873809D01*
X152619819Y-71088095D02*
X152619819Y-70611905D01*
X152619819Y-70611905D02*
X153096009Y-70564286D01*
X153096009Y-70564286D02*
X153048390Y-70611905D01*
X153048390Y-70611905D02*
X153000771Y-70707143D01*
X153000771Y-70707143D02*
X153000771Y-70945238D01*
X153000771Y-70945238D02*
X153048390Y-71040476D01*
X153048390Y-71040476D02*
X153096009Y-71088095D01*
X153096009Y-71088095D02*
X153191247Y-71135714D01*
X153191247Y-71135714D02*
X153429342Y-71135714D01*
X153429342Y-71135714D02*
X153524580Y-71088095D01*
X153524580Y-71088095D02*
X153572200Y-71040476D01*
X153572200Y-71040476D02*
X153619819Y-70945238D01*
X153619819Y-70945238D02*
X153619819Y-70707143D01*
X153619819Y-70707143D02*
X153572200Y-70611905D01*
X153572200Y-70611905D02*
X153524580Y-70564286D01*
X152619819Y-71754762D02*
X152619819Y-71850000D01*
X152619819Y-71850000D02*
X152667438Y-71945238D01*
X152667438Y-71945238D02*
X152715057Y-71992857D01*
X152715057Y-71992857D02*
X152810295Y-72040476D01*
X152810295Y-72040476D02*
X153000771Y-72088095D01*
X153000771Y-72088095D02*
X153238866Y-72088095D01*
X153238866Y-72088095D02*
X153429342Y-72040476D01*
X153429342Y-72040476D02*
X153524580Y-71992857D01*
X153524580Y-71992857D02*
X153572200Y-71945238D01*
X153572200Y-71945238D02*
X153619819Y-71850000D01*
X153619819Y-71850000D02*
X153619819Y-71754762D01*
X153619819Y-71754762D02*
X153572200Y-71659524D01*
X153572200Y-71659524D02*
X153524580Y-71611905D01*
X153524580Y-71611905D02*
X153429342Y-71564286D01*
X153429342Y-71564286D02*
X153238866Y-71516667D01*
X153238866Y-71516667D02*
X153000771Y-71516667D01*
X153000771Y-71516667D02*
X152810295Y-71564286D01*
X152810295Y-71564286D02*
X152715057Y-71611905D01*
X152715057Y-71611905D02*
X152667438Y-71659524D01*
X152667438Y-71659524D02*
X152619819Y-71754762D01*
X152619819Y-72707143D02*
X152619819Y-72802381D01*
X152619819Y-72802381D02*
X152667438Y-72897619D01*
X152667438Y-72897619D02*
X152715057Y-72945238D01*
X152715057Y-72945238D02*
X152810295Y-72992857D01*
X152810295Y-72992857D02*
X153000771Y-73040476D01*
X153000771Y-73040476D02*
X153238866Y-73040476D01*
X153238866Y-73040476D02*
X153429342Y-72992857D01*
X153429342Y-72992857D02*
X153524580Y-72945238D01*
X153524580Y-72945238D02*
X153572200Y-72897619D01*
X153572200Y-72897619D02*
X153619819Y-72802381D01*
X153619819Y-72802381D02*
X153619819Y-72707143D01*
X153619819Y-72707143D02*
X153572200Y-72611905D01*
X153572200Y-72611905D02*
X153524580Y-72564286D01*
X153524580Y-72564286D02*
X153429342Y-72516667D01*
X153429342Y-72516667D02*
X153238866Y-72469048D01*
X153238866Y-72469048D02*
X153000771Y-72469048D01*
X153000771Y-72469048D02*
X152810295Y-72516667D01*
X152810295Y-72516667D02*
X152715057Y-72564286D01*
X152715057Y-72564286D02*
X152667438Y-72611905D01*
X152667438Y-72611905D02*
X152619819Y-72707143D01*
X153619819Y-73469048D02*
X152953152Y-73469048D01*
X153048390Y-73469048D02*
X153000771Y-73516667D01*
X153000771Y-73516667D02*
X152953152Y-73611905D01*
X152953152Y-73611905D02*
X152953152Y-73754762D01*
X152953152Y-73754762D02*
X153000771Y-73850000D01*
X153000771Y-73850000D02*
X153096009Y-73897619D01*
X153096009Y-73897619D02*
X153619819Y-73897619D01*
X153096009Y-73897619D02*
X153000771Y-73945238D01*
X153000771Y-73945238D02*
X152953152Y-74040476D01*
X152953152Y-74040476D02*
X152953152Y-74183333D01*
X152953152Y-74183333D02*
X153000771Y-74278572D01*
X153000771Y-74278572D02*
X153096009Y-74326191D01*
X153096009Y-74326191D02*
X153619819Y-74326191D01*
X153334104Y-74754762D02*
X153334104Y-75230952D01*
X153619819Y-74659524D02*
X152619819Y-74992857D01*
X152619819Y-74992857D02*
X153619819Y-75326190D01*
X153619819Y-75659524D02*
X152619819Y-75659524D01*
X153619819Y-76088095D02*
X153096009Y-76088095D01*
X153096009Y-76088095D02*
X153000771Y-76040476D01*
X153000771Y-76040476D02*
X152953152Y-75945238D01*
X152953152Y-75945238D02*
X152953152Y-75802381D01*
X152953152Y-75802381D02*
X153000771Y-75707143D01*
X153000771Y-75707143D02*
X153048390Y-75659524D01*
D11*
X168790828Y-59740225D02*
X168790828Y-60025939D01*
X168790828Y-60025939D02*
X168862257Y-60168796D01*
X168862257Y-60168796D02*
X169005114Y-60311653D01*
X169005114Y-60311653D02*
X169290828Y-60383082D01*
X169290828Y-60383082D02*
X169790828Y-60383082D01*
X169790828Y-60383082D02*
X170076542Y-60311653D01*
X170076542Y-60311653D02*
X170219400Y-60168796D01*
X170219400Y-60168796D02*
X170290828Y-60025939D01*
X170290828Y-60025939D02*
X170290828Y-59740225D01*
X170290828Y-59740225D02*
X170219400Y-59597368D01*
X170219400Y-59597368D02*
X170076542Y-59454510D01*
X170076542Y-59454510D02*
X169790828Y-59383082D01*
X169790828Y-59383082D02*
X169290828Y-59383082D01*
X169290828Y-59383082D02*
X169005114Y-59454510D01*
X169005114Y-59454510D02*
X168862257Y-59597368D01*
X168862257Y-59597368D02*
X168790828Y-59740225D01*
X170290828Y-61025939D02*
X168790828Y-61025939D01*
X168790828Y-61025939D02*
X170290828Y-61883082D01*
X170290828Y-61883082D02*
X168790828Y-61883082D01*
D10*
X115712773Y-79202039D02*
X114712773Y-79202039D01*
X114712773Y-79202039D02*
X114712773Y-79440134D01*
X114712773Y-79440134D02*
X114760392Y-79582991D01*
X114760392Y-79582991D02*
X114855630Y-79678229D01*
X114855630Y-79678229D02*
X114950868Y-79725848D01*
X114950868Y-79725848D02*
X115141344Y-79773467D01*
X115141344Y-79773467D02*
X115284201Y-79773467D01*
X115284201Y-79773467D02*
X115474677Y-79725848D01*
X115474677Y-79725848D02*
X115569915Y-79678229D01*
X115569915Y-79678229D02*
X115665154Y-79582991D01*
X115665154Y-79582991D02*
X115712773Y-79440134D01*
X115712773Y-79440134D02*
X115712773Y-79202039D01*
X115617534Y-80773467D02*
X115665154Y-80725848D01*
X115665154Y-80725848D02*
X115712773Y-80582991D01*
X115712773Y-80582991D02*
X115712773Y-80487753D01*
X115712773Y-80487753D02*
X115665154Y-80344896D01*
X115665154Y-80344896D02*
X115569915Y-80249658D01*
X115569915Y-80249658D02*
X115474677Y-80202039D01*
X115474677Y-80202039D02*
X115284201Y-80154420D01*
X115284201Y-80154420D02*
X115141344Y-80154420D01*
X115141344Y-80154420D02*
X114950868Y-80202039D01*
X114950868Y-80202039D02*
X114855630Y-80249658D01*
X114855630Y-80249658D02*
X114760392Y-80344896D01*
X114760392Y-80344896D02*
X114712773Y-80487753D01*
X114712773Y-80487753D02*
X114712773Y-80582991D01*
X114712773Y-80582991D02*
X114760392Y-80725848D01*
X114760392Y-80725848D02*
X114808011Y-80773467D01*
X170427200Y-64273095D02*
X170474819Y-64415952D01*
X170474819Y-64415952D02*
X170474819Y-64654047D01*
X170474819Y-64654047D02*
X170427200Y-64749285D01*
X170427200Y-64749285D02*
X170379580Y-64796904D01*
X170379580Y-64796904D02*
X170284342Y-64844523D01*
X170284342Y-64844523D02*
X170189104Y-64844523D01*
X170189104Y-64844523D02*
X170093866Y-64796904D01*
X170093866Y-64796904D02*
X170046247Y-64749285D01*
X170046247Y-64749285D02*
X169998628Y-64654047D01*
X169998628Y-64654047D02*
X169951009Y-64463571D01*
X169951009Y-64463571D02*
X169903390Y-64368333D01*
X169903390Y-64368333D02*
X169855771Y-64320714D01*
X169855771Y-64320714D02*
X169760533Y-64273095D01*
X169760533Y-64273095D02*
X169665295Y-64273095D01*
X169665295Y-64273095D02*
X169570057Y-64320714D01*
X169570057Y-64320714D02*
X169522438Y-64368333D01*
X169522438Y-64368333D02*
X169474819Y-64463571D01*
X169474819Y-64463571D02*
X169474819Y-64701666D01*
X169474819Y-64701666D02*
X169522438Y-64844523D01*
X170474819Y-65796904D02*
X170474819Y-65225476D01*
X170474819Y-65511190D02*
X169474819Y-65511190D01*
X169474819Y-65511190D02*
X169617676Y-65415952D01*
X169617676Y-65415952D02*
X169712914Y-65320714D01*
X169712914Y-65320714D02*
X169760533Y-65225476D01*
X122840963Y-83869166D02*
X122538582Y-83657499D01*
X122840963Y-83506309D02*
X122205963Y-83506309D01*
X122205963Y-83506309D02*
X122205963Y-83748214D01*
X122205963Y-83748214D02*
X122236201Y-83808690D01*
X122236201Y-83808690D02*
X122266439Y-83838928D01*
X122266439Y-83838928D02*
X122326915Y-83869166D01*
X122326915Y-83869166D02*
X122417629Y-83869166D01*
X122417629Y-83869166D02*
X122478105Y-83838928D01*
X122478105Y-83838928D02*
X122508344Y-83808690D01*
X122508344Y-83808690D02*
X122538582Y-83748214D01*
X122538582Y-83748214D02*
X122538582Y-83506309D01*
X122205963Y-84443690D02*
X122205963Y-84141309D01*
X122205963Y-84141309D02*
X122508344Y-84111071D01*
X122508344Y-84111071D02*
X122478105Y-84141309D01*
X122478105Y-84141309D02*
X122447867Y-84201785D01*
X122447867Y-84201785D02*
X122447867Y-84352976D01*
X122447867Y-84352976D02*
X122478105Y-84413452D01*
X122478105Y-84413452D02*
X122508344Y-84443690D01*
X122508344Y-84443690D02*
X122568820Y-84473928D01*
X122568820Y-84473928D02*
X122720010Y-84473928D01*
X122720010Y-84473928D02*
X122780486Y-84443690D01*
X122780486Y-84443690D02*
X122810725Y-84413452D01*
X122810725Y-84413452D02*
X122840963Y-84352976D01*
X122840963Y-84352976D02*
X122840963Y-84201785D01*
X122840963Y-84201785D02*
X122810725Y-84141309D01*
X122810725Y-84141309D02*
X122780486Y-84111071D01*
X115712773Y-70057121D02*
X114712773Y-70057121D01*
X114712773Y-70057121D02*
X114712773Y-70295216D01*
X114712773Y-70295216D02*
X114760392Y-70438073D01*
X114760392Y-70438073D02*
X114855630Y-70533311D01*
X114855630Y-70533311D02*
X114950868Y-70580930D01*
X114950868Y-70580930D02*
X115141344Y-70628549D01*
X115141344Y-70628549D02*
X115284201Y-70628549D01*
X115284201Y-70628549D02*
X115474677Y-70580930D01*
X115474677Y-70580930D02*
X115569915Y-70533311D01*
X115569915Y-70533311D02*
X115665154Y-70438073D01*
X115665154Y-70438073D02*
X115712773Y-70295216D01*
X115712773Y-70295216D02*
X115712773Y-70057121D01*
X115712773Y-71057121D02*
X114712773Y-71057121D01*
X115712773Y-71533311D02*
X114712773Y-71533311D01*
X114712773Y-71533311D02*
X115712773Y-72104739D01*
X115712773Y-72104739D02*
X114712773Y-72104739D01*
X117148200Y-81102095D02*
X117195819Y-81244952D01*
X117195819Y-81244952D02*
X117195819Y-81483047D01*
X117195819Y-81483047D02*
X117148200Y-81578285D01*
X117148200Y-81578285D02*
X117100580Y-81625904D01*
X117100580Y-81625904D02*
X117005342Y-81673523D01*
X117005342Y-81673523D02*
X116910104Y-81673523D01*
X116910104Y-81673523D02*
X116814866Y-81625904D01*
X116814866Y-81625904D02*
X116767247Y-81578285D01*
X116767247Y-81578285D02*
X116719628Y-81483047D01*
X116719628Y-81483047D02*
X116672009Y-81292571D01*
X116672009Y-81292571D02*
X116624390Y-81197333D01*
X116624390Y-81197333D02*
X116576771Y-81149714D01*
X116576771Y-81149714D02*
X116481533Y-81102095D01*
X116481533Y-81102095D02*
X116386295Y-81102095D01*
X116386295Y-81102095D02*
X116291057Y-81149714D01*
X116291057Y-81149714D02*
X116243438Y-81197333D01*
X116243438Y-81197333D02*
X116195819Y-81292571D01*
X116195819Y-81292571D02*
X116195819Y-81530666D01*
X116195819Y-81530666D02*
X116243438Y-81673523D01*
X116291057Y-82054476D02*
X116243438Y-82102095D01*
X116243438Y-82102095D02*
X116195819Y-82197333D01*
X116195819Y-82197333D02*
X116195819Y-82435428D01*
X116195819Y-82435428D02*
X116243438Y-82530666D01*
X116243438Y-82530666D02*
X116291057Y-82578285D01*
X116291057Y-82578285D02*
X116386295Y-82625904D01*
X116386295Y-82625904D02*
X116481533Y-82625904D01*
X116481533Y-82625904D02*
X116624390Y-82578285D01*
X116624390Y-82578285D02*
X117195819Y-82006857D01*
X117195819Y-82006857D02*
X117195819Y-82625904D01*
X114760392Y-91071665D02*
X114712773Y-90976427D01*
X114712773Y-90976427D02*
X114712773Y-90833570D01*
X114712773Y-90833570D02*
X114760392Y-90690713D01*
X114760392Y-90690713D02*
X114855630Y-90595475D01*
X114855630Y-90595475D02*
X114950868Y-90547856D01*
X114950868Y-90547856D02*
X115141344Y-90500237D01*
X115141344Y-90500237D02*
X115284201Y-90500237D01*
X115284201Y-90500237D02*
X115474677Y-90547856D01*
X115474677Y-90547856D02*
X115569915Y-90595475D01*
X115569915Y-90595475D02*
X115665154Y-90690713D01*
X115665154Y-90690713D02*
X115712773Y-90833570D01*
X115712773Y-90833570D02*
X115712773Y-90928808D01*
X115712773Y-90928808D02*
X115665154Y-91071665D01*
X115665154Y-91071665D02*
X115617534Y-91119284D01*
X115617534Y-91119284D02*
X115284201Y-91119284D01*
X115284201Y-91119284D02*
X115284201Y-90928808D01*
X115712773Y-91547856D02*
X114712773Y-91547856D01*
X114712773Y-91547856D02*
X115712773Y-92119284D01*
X115712773Y-92119284D02*
X114712773Y-92119284D01*
X115712773Y-92595475D02*
X114712773Y-92595475D01*
X114712773Y-92595475D02*
X114712773Y-92833570D01*
X114712773Y-92833570D02*
X114760392Y-92976427D01*
X114760392Y-92976427D02*
X114855630Y-93071665D01*
X114855630Y-93071665D02*
X114950868Y-93119284D01*
X114950868Y-93119284D02*
X115141344Y-93166903D01*
X115141344Y-93166903D02*
X115284201Y-93166903D01*
X115284201Y-93166903D02*
X115474677Y-93119284D01*
X115474677Y-93119284D02*
X115569915Y-93071665D01*
X115569915Y-93071665D02*
X115665154Y-92976427D01*
X115665154Y-92976427D02*
X115712773Y-92833570D01*
X115712773Y-92833570D02*
X115712773Y-92595475D01*
X127732302Y-76317129D02*
X127097302Y-76317129D01*
X127097302Y-76317129D02*
X127097302Y-76468319D01*
X127097302Y-76468319D02*
X127127540Y-76559034D01*
X127127540Y-76559034D02*
X127188016Y-76619510D01*
X127188016Y-76619510D02*
X127248492Y-76649748D01*
X127248492Y-76649748D02*
X127369444Y-76679986D01*
X127369444Y-76679986D02*
X127460159Y-76679986D01*
X127460159Y-76679986D02*
X127581111Y-76649748D01*
X127581111Y-76649748D02*
X127641587Y-76619510D01*
X127641587Y-76619510D02*
X127702064Y-76559034D01*
X127702064Y-76559034D02*
X127732302Y-76468319D01*
X127732302Y-76468319D02*
X127732302Y-76317129D01*
X127097302Y-76891653D02*
X127097302Y-77284748D01*
X127097302Y-77284748D02*
X127339206Y-77073081D01*
X127339206Y-77073081D02*
X127339206Y-77163796D01*
X127339206Y-77163796D02*
X127369444Y-77224272D01*
X127369444Y-77224272D02*
X127399683Y-77254510D01*
X127399683Y-77254510D02*
X127460159Y-77284748D01*
X127460159Y-77284748D02*
X127611349Y-77284748D01*
X127611349Y-77284748D02*
X127671825Y-77254510D01*
X127671825Y-77254510D02*
X127702064Y-77224272D01*
X127702064Y-77224272D02*
X127732302Y-77163796D01*
X127732302Y-77163796D02*
X127732302Y-76982367D01*
X127732302Y-76982367D02*
X127702064Y-76921891D01*
X127702064Y-76921891D02*
X127671825Y-76891653D01*
X115617534Y-85847491D02*
X115665154Y-85799872D01*
X115665154Y-85799872D02*
X115712773Y-85657015D01*
X115712773Y-85657015D02*
X115712773Y-85561777D01*
X115712773Y-85561777D02*
X115665154Y-85418920D01*
X115665154Y-85418920D02*
X115569915Y-85323682D01*
X115569915Y-85323682D02*
X115474677Y-85276063D01*
X115474677Y-85276063D02*
X115284201Y-85228444D01*
X115284201Y-85228444D02*
X115141344Y-85228444D01*
X115141344Y-85228444D02*
X114950868Y-85276063D01*
X114950868Y-85276063D02*
X114855630Y-85323682D01*
X114855630Y-85323682D02*
X114760392Y-85418920D01*
X114760392Y-85418920D02*
X114712773Y-85561777D01*
X114712773Y-85561777D02*
X114712773Y-85657015D01*
X114712773Y-85657015D02*
X114760392Y-85799872D01*
X114760392Y-85799872D02*
X114808011Y-85847491D01*
X115665154Y-86228444D02*
X115712773Y-86371301D01*
X115712773Y-86371301D02*
X115712773Y-86609396D01*
X115712773Y-86609396D02*
X115665154Y-86704634D01*
X115665154Y-86704634D02*
X115617534Y-86752253D01*
X115617534Y-86752253D02*
X115522296Y-86799872D01*
X115522296Y-86799872D02*
X115427058Y-86799872D01*
X115427058Y-86799872D02*
X115331820Y-86752253D01*
X115331820Y-86752253D02*
X115284201Y-86704634D01*
X115284201Y-86704634D02*
X115236582Y-86609396D01*
X115236582Y-86609396D02*
X115188963Y-86418920D01*
X115188963Y-86418920D02*
X115141344Y-86323682D01*
X115141344Y-86323682D02*
X115093725Y-86276063D01*
X115093725Y-86276063D02*
X114998487Y-86228444D01*
X114998487Y-86228444D02*
X114903249Y-86228444D01*
X114903249Y-86228444D02*
X114808011Y-86276063D01*
X114808011Y-86276063D02*
X114760392Y-86323682D01*
X114760392Y-86323682D02*
X114712773Y-86418920D01*
X114712773Y-86418920D02*
X114712773Y-86657015D01*
X114712773Y-86657015D02*
X114760392Y-86799872D01*
X127790963Y-80224166D02*
X127488582Y-80012499D01*
X127790963Y-79861309D02*
X127155963Y-79861309D01*
X127155963Y-79861309D02*
X127155963Y-80103214D01*
X127155963Y-80103214D02*
X127186201Y-80163690D01*
X127186201Y-80163690D02*
X127216439Y-80193928D01*
X127216439Y-80193928D02*
X127276915Y-80224166D01*
X127276915Y-80224166D02*
X127367629Y-80224166D01*
X127367629Y-80224166D02*
X127428105Y-80193928D01*
X127428105Y-80193928D02*
X127458344Y-80163690D01*
X127458344Y-80163690D02*
X127488582Y-80103214D01*
X127488582Y-80103214D02*
X127488582Y-79861309D01*
X127367629Y-80768452D02*
X127790963Y-80768452D01*
X127125725Y-80617261D02*
X127579296Y-80466071D01*
X127579296Y-80466071D02*
X127579296Y-80859166D01*
X115617534Y-76425691D02*
X115665154Y-76378072D01*
X115665154Y-76378072D02*
X115712773Y-76235215D01*
X115712773Y-76235215D02*
X115712773Y-76139977D01*
X115712773Y-76139977D02*
X115665154Y-75997120D01*
X115665154Y-75997120D02*
X115569915Y-75901882D01*
X115569915Y-75901882D02*
X115474677Y-75854263D01*
X115474677Y-75854263D02*
X115284201Y-75806644D01*
X115284201Y-75806644D02*
X115141344Y-75806644D01*
X115141344Y-75806644D02*
X114950868Y-75854263D01*
X114950868Y-75854263D02*
X114855630Y-75901882D01*
X114855630Y-75901882D02*
X114760392Y-75997120D01*
X114760392Y-75997120D02*
X114712773Y-76139977D01*
X114712773Y-76139977D02*
X114712773Y-76235215D01*
X114712773Y-76235215D02*
X114760392Y-76378072D01*
X114760392Y-76378072D02*
X114808011Y-76425691D01*
X115712773Y-77330453D02*
X115712773Y-76854263D01*
X115712773Y-76854263D02*
X114712773Y-76854263D01*
X115712773Y-77663787D02*
X114712773Y-77663787D01*
X115712773Y-78235215D02*
X115141344Y-77806644D01*
X114712773Y-78235215D02*
X115284201Y-77663787D01*
X115188963Y-82907596D02*
X115236582Y-83050453D01*
X115236582Y-83050453D02*
X115284201Y-83098072D01*
X115284201Y-83098072D02*
X115379439Y-83145691D01*
X115379439Y-83145691D02*
X115522296Y-83145691D01*
X115522296Y-83145691D02*
X115617534Y-83098072D01*
X115617534Y-83098072D02*
X115665154Y-83050453D01*
X115665154Y-83050453D02*
X115712773Y-82955215D01*
X115712773Y-82955215D02*
X115712773Y-82574263D01*
X115712773Y-82574263D02*
X114712773Y-82574263D01*
X114712773Y-82574263D02*
X114712773Y-82907596D01*
X114712773Y-82907596D02*
X114760392Y-83002834D01*
X114760392Y-83002834D02*
X114808011Y-83050453D01*
X114808011Y-83050453D02*
X114903249Y-83098072D01*
X114903249Y-83098072D02*
X114998487Y-83098072D01*
X114998487Y-83098072D02*
X115093725Y-83050453D01*
X115093725Y-83050453D02*
X115141344Y-83002834D01*
X115141344Y-83002834D02*
X115188963Y-82907596D01*
X115188963Y-82907596D02*
X115188963Y-82574263D01*
X115712773Y-84050453D02*
X115712773Y-83574263D01*
X115712773Y-83574263D02*
X114712773Y-83574263D01*
X115712773Y-73554092D02*
X115236582Y-73220759D01*
X115712773Y-72982664D02*
X114712773Y-72982664D01*
X114712773Y-72982664D02*
X114712773Y-73363616D01*
X114712773Y-73363616D02*
X114760392Y-73458854D01*
X114760392Y-73458854D02*
X114808011Y-73506473D01*
X114808011Y-73506473D02*
X114903249Y-73554092D01*
X114903249Y-73554092D02*
X115046106Y-73554092D01*
X115046106Y-73554092D02*
X115141344Y-73506473D01*
X115141344Y-73506473D02*
X115188963Y-73458854D01*
X115188963Y-73458854D02*
X115236582Y-73363616D01*
X115236582Y-73363616D02*
X115236582Y-72982664D01*
X115665154Y-73935045D02*
X115712773Y-74077902D01*
X115712773Y-74077902D02*
X115712773Y-74315997D01*
X115712773Y-74315997D02*
X115665154Y-74411235D01*
X115665154Y-74411235D02*
X115617534Y-74458854D01*
X115617534Y-74458854D02*
X115522296Y-74506473D01*
X115522296Y-74506473D02*
X115427058Y-74506473D01*
X115427058Y-74506473D02*
X115331820Y-74458854D01*
X115331820Y-74458854D02*
X115284201Y-74411235D01*
X115284201Y-74411235D02*
X115236582Y-74315997D01*
X115236582Y-74315997D02*
X115188963Y-74125521D01*
X115188963Y-74125521D02*
X115141344Y-74030283D01*
X115141344Y-74030283D02*
X115093725Y-73982664D01*
X115093725Y-73982664D02*
X114998487Y-73935045D01*
X114998487Y-73935045D02*
X114903249Y-73935045D01*
X114903249Y-73935045D02*
X114808011Y-73982664D01*
X114808011Y-73982664D02*
X114760392Y-74030283D01*
X114760392Y-74030283D02*
X114712773Y-74125521D01*
X114712773Y-74125521D02*
X114712773Y-74363616D01*
X114712773Y-74363616D02*
X114760392Y-74506473D01*
X114712773Y-74792188D02*
X114712773Y-75363616D01*
X115712773Y-75077902D02*
X114712773Y-75077902D01*
X114712773Y-87501257D02*
X115712773Y-87834590D01*
X115712773Y-87834590D02*
X114712773Y-88167923D01*
X115617534Y-89072685D02*
X115665154Y-89025066D01*
X115665154Y-89025066D02*
X115712773Y-88882209D01*
X115712773Y-88882209D02*
X115712773Y-88786971D01*
X115712773Y-88786971D02*
X115665154Y-88644114D01*
X115665154Y-88644114D02*
X115569915Y-88548876D01*
X115569915Y-88548876D02*
X115474677Y-88501257D01*
X115474677Y-88501257D02*
X115284201Y-88453638D01*
X115284201Y-88453638D02*
X115141344Y-88453638D01*
X115141344Y-88453638D02*
X114950868Y-88501257D01*
X114950868Y-88501257D02*
X114855630Y-88548876D01*
X114855630Y-88548876D02*
X114760392Y-88644114D01*
X114760392Y-88644114D02*
X114712773Y-88786971D01*
X114712773Y-88786971D02*
X114712773Y-88882209D01*
X114712773Y-88882209D02*
X114760392Y-89025066D01*
X114760392Y-89025066D02*
X114808011Y-89072685D01*
X115617534Y-90072685D02*
X115665154Y-90025066D01*
X115665154Y-90025066D02*
X115712773Y-89882209D01*
X115712773Y-89882209D02*
X115712773Y-89786971D01*
X115712773Y-89786971D02*
X115665154Y-89644114D01*
X115665154Y-89644114D02*
X115569915Y-89548876D01*
X115569915Y-89548876D02*
X115474677Y-89501257D01*
X115474677Y-89501257D02*
X115284201Y-89453638D01*
X115284201Y-89453638D02*
X115141344Y-89453638D01*
X115141344Y-89453638D02*
X114950868Y-89501257D01*
X114950868Y-89501257D02*
X114855630Y-89548876D01*
X114855630Y-89548876D02*
X114760392Y-89644114D01*
X114760392Y-89644114D02*
X114712773Y-89786971D01*
X114712773Y-89786971D02*
X114712773Y-89882209D01*
X114712773Y-89882209D02*
X114760392Y-90025066D01*
X114760392Y-90025066D02*
X114808011Y-90072685D01*
D12*
%TO.C,J4*%
X130481000Y-71271800D02*
G75*
G03*
X130481000Y-71271800I-381000J0D01*
G01*
%TO.C,J3*%
X133676000Y-94730000D02*
G75*
G03*
X133676000Y-94730000I-381000J0D01*
G01*
D13*
%TO.C,S1*%
X174975000Y-59315000D02*
X170975000Y-59315000D01*
X170975000Y-59315000D02*
X170975000Y-70915000D01*
X174975000Y-70915000D02*
X174975000Y-59315000D01*
X170975000Y-70915000D02*
X174975000Y-70915000D01*
D14*
X175575000Y-62615000D02*
G75*
G03*
X175575000Y-62615000I-100000J0D01*
G01*
D13*
%TO.C,S2*%
X120197500Y-75429000D02*
X122562500Y-75429000D01*
X124380000Y-76246500D02*
X124380000Y-80611500D01*
X118380000Y-76246500D02*
X118380000Y-80611500D01*
X120197500Y-81429000D02*
X122562500Y-81429000D01*
D14*
X123730000Y-73679000D02*
G75*
G03*
X123730000Y-73679000I-100000J0D01*
G01*
D13*
%TO.C,D3*%
X128350000Y-77653500D02*
X128350000Y-77823500D01*
X129250000Y-77823500D02*
X129250000Y-77653500D01*
D14*
X128900000Y-75738500D02*
G75*
G03*
X128900000Y-75738500I-100000J0D01*
G01*
D13*
%TO.C,R4*%
X129835000Y-81050000D02*
X129595000Y-81050000D01*
X129835000Y-79690000D02*
X129595000Y-79690000D01*
%TD*%
M02*
