%TF.GenerationSoftware,KiCad,Pcbnew,7.0.8*%
%TF.CreationDate,2024-01-19T17:30:04-07:00*%
%TF.ProjectId,Remote,52656d6f-7465-42e6-9b69-6361645f7063,rev?*%
%TF.SameCoordinates,Original*%
%TF.FileFunction,Soldermask,Bot*%
%TF.FilePolarity,Negative*%
%FSLAX46Y46*%
G04 Gerber Fmt 4.6, Leading zero omitted, Abs format (unit mm)*
G04 Created by KiCad (PCBNEW 7.0.8) date 2024-01-19 17:30:04*
%MOMM*%
%LPD*%
G01*
G04 APERTURE LIST*
G04 Aperture macros list*
%AMRoundRect*
0 Rectangle with rounded corners*
0 $1 Rounding radius*
0 $2 $3 $4 $5 $6 $7 $8 $9 X,Y pos of 4 corners*
0 Add a 4 corners polygon primitive as box body*
4,1,4,$2,$3,$4,$5,$6,$7,$8,$9,$2,$3,0*
0 Add four circle primitives for the rounded corners*
1,1,$1+$1,$2,$3*
1,1,$1+$1,$4,$5*
1,1,$1+$1,$6,$7*
1,1,$1+$1,$8,$9*
0 Add four rect primitives between the rounded corners*
20,1,$1+$1,$2,$3,$4,$5,0*
20,1,$1+$1,$4,$5,$6,$7,0*
20,1,$1+$1,$6,$7,$8,$9,0*
20,1,$1+$1,$8,$9,$2,$3,0*%
G04 Aperture macros list end*
%ADD10C,0.010000*%
%ADD11R,1.700000X1.700000*%
%ADD12C,1.700000*%
%ADD13C,1.998980*%
%ADD14C,4.064000*%
%ADD15C,1.422400*%
%ADD16C,1.651000*%
%ADD17RoundRect,0.102000X0.787500X-0.787500X0.787500X0.787500X-0.787500X0.787500X-0.787500X-0.787500X0*%
%ADD18C,1.779000*%
%ADD19C,1.712000*%
%ADD20RoundRect,0.102000X-0.300000X0.270000X-0.300000X-0.270000X0.300000X-0.270000X0.300000X0.270000X0*%
%ADD21RoundRect,0.102000X-0.754000X0.754000X-0.754000X-0.754000X0.754000X-0.754000X0.754000X0.754000X0*%
%ADD22RoundRect,0.102000X-0.465000X0.405000X-0.465000X-0.405000X0.465000X-0.405000X0.465000X0.405000X0*%
%ADD23RoundRect,0.102000X0.485000X0.690000X-0.485000X0.690000X-0.485000X-0.690000X0.485000X-0.690000X0*%
G04 APERTURE END LIST*
%TO.C,J1*%
D10*
X172469000Y-81554500D02*
X172503000Y-81557500D01*
X172537000Y-81561500D01*
X172570000Y-81567500D01*
X172603000Y-81575500D01*
X172636000Y-81585500D01*
X172668000Y-81596500D01*
X172699000Y-81609500D01*
X172730000Y-81624500D01*
X172760000Y-81640500D01*
X172789000Y-81658500D01*
X172817000Y-81677500D01*
X172844000Y-81698500D01*
X172870000Y-81720500D01*
X172895000Y-81743500D01*
X172918000Y-81768500D01*
X172940000Y-81794500D01*
X172961000Y-81821500D01*
X172980000Y-81849500D01*
X172998000Y-81878500D01*
X173014000Y-81908500D01*
X173029000Y-81939500D01*
X173042000Y-81970500D01*
X173053000Y-82002500D01*
X173063000Y-82035500D01*
X173071000Y-82068500D01*
X173077000Y-82101500D01*
X173081000Y-82135500D01*
X173084000Y-82169500D01*
X173085000Y-82203500D01*
X173084000Y-82237500D01*
X173081000Y-82271500D01*
X173077000Y-82305500D01*
X173071000Y-82338500D01*
X173063000Y-82371500D01*
X173053000Y-82404500D01*
X173042000Y-82436500D01*
X173029000Y-82467500D01*
X173014000Y-82498500D01*
X172998000Y-82528500D01*
X172980000Y-82557500D01*
X172961000Y-82585500D01*
X172940000Y-82612500D01*
X172918000Y-82638500D01*
X172895000Y-82663500D01*
X172870000Y-82686500D01*
X172844000Y-82708500D01*
X172817000Y-82729500D01*
X172789000Y-82748500D01*
X172760000Y-82766500D01*
X172730000Y-82782500D01*
X172699000Y-82797500D01*
X172668000Y-82810500D01*
X172636000Y-82821500D01*
X172603000Y-82831500D01*
X172570000Y-82839500D01*
X172537000Y-82845500D01*
X172503000Y-82849500D01*
X172469000Y-82852500D01*
X172435000Y-82853500D01*
X171835000Y-82853500D01*
X171801000Y-82852500D01*
X171767000Y-82849500D01*
X171733000Y-82845500D01*
X171700000Y-82839500D01*
X171667000Y-82831500D01*
X171634000Y-82821500D01*
X171602000Y-82810500D01*
X171571000Y-82797500D01*
X171540000Y-82782500D01*
X171510000Y-82766500D01*
X171481000Y-82748500D01*
X171453000Y-82729500D01*
X171426000Y-82708500D01*
X171400000Y-82686500D01*
X171375000Y-82663500D01*
X171352000Y-82638500D01*
X171330000Y-82612500D01*
X171309000Y-82585500D01*
X171290000Y-82557500D01*
X171272000Y-82528500D01*
X171256000Y-82498500D01*
X171241000Y-82467500D01*
X171228000Y-82436500D01*
X171217000Y-82404500D01*
X171207000Y-82371500D01*
X171199000Y-82338500D01*
X171193000Y-82305500D01*
X171189000Y-82271500D01*
X171186000Y-82237500D01*
X171185000Y-82203500D01*
X171186000Y-82169500D01*
X171189000Y-82135500D01*
X171193000Y-82101500D01*
X171199000Y-82068500D01*
X171207000Y-82035500D01*
X171217000Y-82002500D01*
X171228000Y-81970500D01*
X171241000Y-81939500D01*
X171256000Y-81908500D01*
X171272000Y-81878500D01*
X171290000Y-81849500D01*
X171309000Y-81821500D01*
X171330000Y-81794500D01*
X171352000Y-81768500D01*
X171375000Y-81743500D01*
X171400000Y-81720500D01*
X171426000Y-81698500D01*
X171453000Y-81677500D01*
X171481000Y-81658500D01*
X171510000Y-81640500D01*
X171540000Y-81624500D01*
X171571000Y-81609500D01*
X171602000Y-81596500D01*
X171634000Y-81585500D01*
X171667000Y-81575500D01*
X171700000Y-81567500D01*
X171733000Y-81561500D01*
X171767000Y-81557500D01*
X171801000Y-81554500D01*
X171835000Y-81553500D01*
X172435000Y-81553500D01*
X172469000Y-81554500D01*
G36*
X172469000Y-81554500D02*
G01*
X172503000Y-81557500D01*
X172537000Y-81561500D01*
X172570000Y-81567500D01*
X172603000Y-81575500D01*
X172636000Y-81585500D01*
X172668000Y-81596500D01*
X172699000Y-81609500D01*
X172730000Y-81624500D01*
X172760000Y-81640500D01*
X172789000Y-81658500D01*
X172817000Y-81677500D01*
X172844000Y-81698500D01*
X172870000Y-81720500D01*
X172895000Y-81743500D01*
X172918000Y-81768500D01*
X172940000Y-81794500D01*
X172961000Y-81821500D01*
X172980000Y-81849500D01*
X172998000Y-81878500D01*
X173014000Y-81908500D01*
X173029000Y-81939500D01*
X173042000Y-81970500D01*
X173053000Y-82002500D01*
X173063000Y-82035500D01*
X173071000Y-82068500D01*
X173077000Y-82101500D01*
X173081000Y-82135500D01*
X173084000Y-82169500D01*
X173085000Y-82203500D01*
X173084000Y-82237500D01*
X173081000Y-82271500D01*
X173077000Y-82305500D01*
X173071000Y-82338500D01*
X173063000Y-82371500D01*
X173053000Y-82404500D01*
X173042000Y-82436500D01*
X173029000Y-82467500D01*
X173014000Y-82498500D01*
X172998000Y-82528500D01*
X172980000Y-82557500D01*
X172961000Y-82585500D01*
X172940000Y-82612500D01*
X172918000Y-82638500D01*
X172895000Y-82663500D01*
X172870000Y-82686500D01*
X172844000Y-82708500D01*
X172817000Y-82729500D01*
X172789000Y-82748500D01*
X172760000Y-82766500D01*
X172730000Y-82782500D01*
X172699000Y-82797500D01*
X172668000Y-82810500D01*
X172636000Y-82821500D01*
X172603000Y-82831500D01*
X172570000Y-82839500D01*
X172537000Y-82845500D01*
X172503000Y-82849500D01*
X172469000Y-82852500D01*
X172435000Y-82853500D01*
X171835000Y-82853500D01*
X171801000Y-82852500D01*
X171767000Y-82849500D01*
X171733000Y-82845500D01*
X171700000Y-82839500D01*
X171667000Y-82831500D01*
X171634000Y-82821500D01*
X171602000Y-82810500D01*
X171571000Y-82797500D01*
X171540000Y-82782500D01*
X171510000Y-82766500D01*
X171481000Y-82748500D01*
X171453000Y-82729500D01*
X171426000Y-82708500D01*
X171400000Y-82686500D01*
X171375000Y-82663500D01*
X171352000Y-82638500D01*
X171330000Y-82612500D01*
X171309000Y-82585500D01*
X171290000Y-82557500D01*
X171272000Y-82528500D01*
X171256000Y-82498500D01*
X171241000Y-82467500D01*
X171228000Y-82436500D01*
X171217000Y-82404500D01*
X171207000Y-82371500D01*
X171199000Y-82338500D01*
X171193000Y-82305500D01*
X171189000Y-82271500D01*
X171186000Y-82237500D01*
X171185000Y-82203500D01*
X171186000Y-82169500D01*
X171189000Y-82135500D01*
X171193000Y-82101500D01*
X171199000Y-82068500D01*
X171207000Y-82035500D01*
X171217000Y-82002500D01*
X171228000Y-81970500D01*
X171241000Y-81939500D01*
X171256000Y-81908500D01*
X171272000Y-81878500D01*
X171290000Y-81849500D01*
X171309000Y-81821500D01*
X171330000Y-81794500D01*
X171352000Y-81768500D01*
X171375000Y-81743500D01*
X171400000Y-81720500D01*
X171426000Y-81698500D01*
X171453000Y-81677500D01*
X171481000Y-81658500D01*
X171510000Y-81640500D01*
X171540000Y-81624500D01*
X171571000Y-81609500D01*
X171602000Y-81596500D01*
X171634000Y-81585500D01*
X171667000Y-81575500D01*
X171700000Y-81567500D01*
X171733000Y-81561500D01*
X171767000Y-81557500D01*
X171801000Y-81554500D01*
X171835000Y-81553500D01*
X172435000Y-81553500D01*
X172469000Y-81554500D01*
G37*
X176269000Y-81554500D02*
X176303000Y-81557500D01*
X176337000Y-81561500D01*
X176370000Y-81567500D01*
X176403000Y-81575500D01*
X176436000Y-81585500D01*
X176468000Y-81596500D01*
X176499000Y-81609500D01*
X176530000Y-81624500D01*
X176560000Y-81640500D01*
X176589000Y-81658500D01*
X176617000Y-81677500D01*
X176644000Y-81698500D01*
X176670000Y-81720500D01*
X176695000Y-81743500D01*
X176718000Y-81768500D01*
X176740000Y-81794500D01*
X176761000Y-81821500D01*
X176780000Y-81849500D01*
X176798000Y-81878500D01*
X176814000Y-81908500D01*
X176829000Y-81939500D01*
X176842000Y-81970500D01*
X176853000Y-82002500D01*
X176863000Y-82035500D01*
X176871000Y-82068500D01*
X176877000Y-82101500D01*
X176881000Y-82135500D01*
X176884000Y-82169500D01*
X176885000Y-82203500D01*
X176884000Y-82237500D01*
X176881000Y-82271500D01*
X176877000Y-82305500D01*
X176871000Y-82338500D01*
X176863000Y-82371500D01*
X176853000Y-82404500D01*
X176842000Y-82436500D01*
X176829000Y-82467500D01*
X176814000Y-82498500D01*
X176798000Y-82528500D01*
X176780000Y-82557500D01*
X176761000Y-82585500D01*
X176740000Y-82612500D01*
X176718000Y-82638500D01*
X176695000Y-82663500D01*
X176670000Y-82686500D01*
X176644000Y-82708500D01*
X176617000Y-82729500D01*
X176589000Y-82748500D01*
X176560000Y-82766500D01*
X176530000Y-82782500D01*
X176499000Y-82797500D01*
X176468000Y-82810500D01*
X176436000Y-82821500D01*
X176403000Y-82831500D01*
X176370000Y-82839500D01*
X176337000Y-82845500D01*
X176303000Y-82849500D01*
X176269000Y-82852500D01*
X176235000Y-82853500D01*
X175635000Y-82853500D01*
X175601000Y-82852500D01*
X175567000Y-82849500D01*
X175533000Y-82845500D01*
X175500000Y-82839500D01*
X175467000Y-82831500D01*
X175434000Y-82821500D01*
X175402000Y-82810500D01*
X175371000Y-82797500D01*
X175340000Y-82782500D01*
X175310000Y-82766500D01*
X175281000Y-82748500D01*
X175253000Y-82729500D01*
X175226000Y-82708500D01*
X175200000Y-82686500D01*
X175175000Y-82663500D01*
X175152000Y-82638500D01*
X175130000Y-82612500D01*
X175109000Y-82585500D01*
X175090000Y-82557500D01*
X175072000Y-82528500D01*
X175056000Y-82498500D01*
X175041000Y-82467500D01*
X175028000Y-82436500D01*
X175017000Y-82404500D01*
X175007000Y-82371500D01*
X174999000Y-82338500D01*
X174993000Y-82305500D01*
X174989000Y-82271500D01*
X174986000Y-82237500D01*
X174985000Y-82203500D01*
X174986000Y-82169500D01*
X174989000Y-82135500D01*
X174993000Y-82101500D01*
X174999000Y-82068500D01*
X175007000Y-82035500D01*
X175017000Y-82002500D01*
X175028000Y-81970500D01*
X175041000Y-81939500D01*
X175056000Y-81908500D01*
X175072000Y-81878500D01*
X175090000Y-81849500D01*
X175109000Y-81821500D01*
X175130000Y-81794500D01*
X175152000Y-81768500D01*
X175175000Y-81743500D01*
X175200000Y-81720500D01*
X175226000Y-81698500D01*
X175253000Y-81677500D01*
X175281000Y-81658500D01*
X175310000Y-81640500D01*
X175340000Y-81624500D01*
X175371000Y-81609500D01*
X175402000Y-81596500D01*
X175434000Y-81585500D01*
X175467000Y-81575500D01*
X175500000Y-81567500D01*
X175533000Y-81561500D01*
X175567000Y-81557500D01*
X175601000Y-81554500D01*
X175635000Y-81553500D01*
X176235000Y-81553500D01*
X176269000Y-81554500D01*
G36*
X176269000Y-81554500D02*
G01*
X176303000Y-81557500D01*
X176337000Y-81561500D01*
X176370000Y-81567500D01*
X176403000Y-81575500D01*
X176436000Y-81585500D01*
X176468000Y-81596500D01*
X176499000Y-81609500D01*
X176530000Y-81624500D01*
X176560000Y-81640500D01*
X176589000Y-81658500D01*
X176617000Y-81677500D01*
X176644000Y-81698500D01*
X176670000Y-81720500D01*
X176695000Y-81743500D01*
X176718000Y-81768500D01*
X176740000Y-81794500D01*
X176761000Y-81821500D01*
X176780000Y-81849500D01*
X176798000Y-81878500D01*
X176814000Y-81908500D01*
X176829000Y-81939500D01*
X176842000Y-81970500D01*
X176853000Y-82002500D01*
X176863000Y-82035500D01*
X176871000Y-82068500D01*
X176877000Y-82101500D01*
X176881000Y-82135500D01*
X176884000Y-82169500D01*
X176885000Y-82203500D01*
X176884000Y-82237500D01*
X176881000Y-82271500D01*
X176877000Y-82305500D01*
X176871000Y-82338500D01*
X176863000Y-82371500D01*
X176853000Y-82404500D01*
X176842000Y-82436500D01*
X176829000Y-82467500D01*
X176814000Y-82498500D01*
X176798000Y-82528500D01*
X176780000Y-82557500D01*
X176761000Y-82585500D01*
X176740000Y-82612500D01*
X176718000Y-82638500D01*
X176695000Y-82663500D01*
X176670000Y-82686500D01*
X176644000Y-82708500D01*
X176617000Y-82729500D01*
X176589000Y-82748500D01*
X176560000Y-82766500D01*
X176530000Y-82782500D01*
X176499000Y-82797500D01*
X176468000Y-82810500D01*
X176436000Y-82821500D01*
X176403000Y-82831500D01*
X176370000Y-82839500D01*
X176337000Y-82845500D01*
X176303000Y-82849500D01*
X176269000Y-82852500D01*
X176235000Y-82853500D01*
X175635000Y-82853500D01*
X175601000Y-82852500D01*
X175567000Y-82849500D01*
X175533000Y-82845500D01*
X175500000Y-82839500D01*
X175467000Y-82831500D01*
X175434000Y-82821500D01*
X175402000Y-82810500D01*
X175371000Y-82797500D01*
X175340000Y-82782500D01*
X175310000Y-82766500D01*
X175281000Y-82748500D01*
X175253000Y-82729500D01*
X175226000Y-82708500D01*
X175200000Y-82686500D01*
X175175000Y-82663500D01*
X175152000Y-82638500D01*
X175130000Y-82612500D01*
X175109000Y-82585500D01*
X175090000Y-82557500D01*
X175072000Y-82528500D01*
X175056000Y-82498500D01*
X175041000Y-82467500D01*
X175028000Y-82436500D01*
X175017000Y-82404500D01*
X175007000Y-82371500D01*
X174999000Y-82338500D01*
X174993000Y-82305500D01*
X174989000Y-82271500D01*
X174986000Y-82237500D01*
X174985000Y-82203500D01*
X174986000Y-82169500D01*
X174989000Y-82135500D01*
X174993000Y-82101500D01*
X174999000Y-82068500D01*
X175007000Y-82035500D01*
X175017000Y-82002500D01*
X175028000Y-81970500D01*
X175041000Y-81939500D01*
X175056000Y-81908500D01*
X175072000Y-81878500D01*
X175090000Y-81849500D01*
X175109000Y-81821500D01*
X175130000Y-81794500D01*
X175152000Y-81768500D01*
X175175000Y-81743500D01*
X175200000Y-81720500D01*
X175226000Y-81698500D01*
X175253000Y-81677500D01*
X175281000Y-81658500D01*
X175310000Y-81640500D01*
X175340000Y-81624500D01*
X175371000Y-81609500D01*
X175402000Y-81596500D01*
X175434000Y-81585500D01*
X175467000Y-81575500D01*
X175500000Y-81567500D01*
X175533000Y-81561500D01*
X175567000Y-81557500D01*
X175601000Y-81554500D01*
X175635000Y-81553500D01*
X176235000Y-81553500D01*
X176269000Y-81554500D01*
G37*
X172469000Y-72914500D02*
X172503000Y-72917500D01*
X172537000Y-72921500D01*
X172570000Y-72927500D01*
X172603000Y-72935500D01*
X172636000Y-72945500D01*
X172668000Y-72956500D01*
X172699000Y-72969500D01*
X172730000Y-72984500D01*
X172760000Y-73000500D01*
X172789000Y-73018500D01*
X172817000Y-73037500D01*
X172844000Y-73058500D01*
X172870000Y-73080500D01*
X172895000Y-73103500D01*
X172918000Y-73128500D01*
X172940000Y-73154500D01*
X172961000Y-73181500D01*
X172980000Y-73209500D01*
X172998000Y-73238500D01*
X173014000Y-73268500D01*
X173029000Y-73299500D01*
X173042000Y-73330500D01*
X173053000Y-73362500D01*
X173063000Y-73395500D01*
X173071000Y-73428500D01*
X173077000Y-73461500D01*
X173081000Y-73495500D01*
X173084000Y-73529500D01*
X173085000Y-73563500D01*
X173084000Y-73597500D01*
X173081000Y-73631500D01*
X173077000Y-73665500D01*
X173071000Y-73698500D01*
X173063000Y-73731500D01*
X173053000Y-73764500D01*
X173042000Y-73796500D01*
X173029000Y-73827500D01*
X173014000Y-73858500D01*
X172998000Y-73888500D01*
X172980000Y-73917500D01*
X172961000Y-73945500D01*
X172940000Y-73972500D01*
X172918000Y-73998500D01*
X172895000Y-74023500D01*
X172870000Y-74046500D01*
X172844000Y-74068500D01*
X172817000Y-74089500D01*
X172789000Y-74108500D01*
X172760000Y-74126500D01*
X172730000Y-74142500D01*
X172699000Y-74157500D01*
X172668000Y-74170500D01*
X172636000Y-74181500D01*
X172603000Y-74191500D01*
X172570000Y-74199500D01*
X172537000Y-74205500D01*
X172503000Y-74209500D01*
X172469000Y-74212500D01*
X172435000Y-74213500D01*
X171835000Y-74213500D01*
X171801000Y-74212500D01*
X171767000Y-74209500D01*
X171733000Y-74205500D01*
X171700000Y-74199500D01*
X171667000Y-74191500D01*
X171634000Y-74181500D01*
X171602000Y-74170500D01*
X171571000Y-74157500D01*
X171540000Y-74142500D01*
X171510000Y-74126500D01*
X171481000Y-74108500D01*
X171453000Y-74089500D01*
X171426000Y-74068500D01*
X171400000Y-74046500D01*
X171375000Y-74023500D01*
X171352000Y-73998500D01*
X171330000Y-73972500D01*
X171309000Y-73945500D01*
X171290000Y-73917500D01*
X171272000Y-73888500D01*
X171256000Y-73858500D01*
X171241000Y-73827500D01*
X171228000Y-73796500D01*
X171217000Y-73764500D01*
X171207000Y-73731500D01*
X171199000Y-73698500D01*
X171193000Y-73665500D01*
X171189000Y-73631500D01*
X171186000Y-73597500D01*
X171185000Y-73563500D01*
X171186000Y-73529500D01*
X171189000Y-73495500D01*
X171193000Y-73461500D01*
X171199000Y-73428500D01*
X171207000Y-73395500D01*
X171217000Y-73362500D01*
X171228000Y-73330500D01*
X171241000Y-73299500D01*
X171256000Y-73268500D01*
X171272000Y-73238500D01*
X171290000Y-73209500D01*
X171309000Y-73181500D01*
X171330000Y-73154500D01*
X171352000Y-73128500D01*
X171375000Y-73103500D01*
X171400000Y-73080500D01*
X171426000Y-73058500D01*
X171453000Y-73037500D01*
X171481000Y-73018500D01*
X171510000Y-73000500D01*
X171540000Y-72984500D01*
X171571000Y-72969500D01*
X171602000Y-72956500D01*
X171634000Y-72945500D01*
X171667000Y-72935500D01*
X171700000Y-72927500D01*
X171733000Y-72921500D01*
X171767000Y-72917500D01*
X171801000Y-72914500D01*
X171835000Y-72913500D01*
X172435000Y-72913500D01*
X172469000Y-72914500D01*
G36*
X172469000Y-72914500D02*
G01*
X172503000Y-72917500D01*
X172537000Y-72921500D01*
X172570000Y-72927500D01*
X172603000Y-72935500D01*
X172636000Y-72945500D01*
X172668000Y-72956500D01*
X172699000Y-72969500D01*
X172730000Y-72984500D01*
X172760000Y-73000500D01*
X172789000Y-73018500D01*
X172817000Y-73037500D01*
X172844000Y-73058500D01*
X172870000Y-73080500D01*
X172895000Y-73103500D01*
X172918000Y-73128500D01*
X172940000Y-73154500D01*
X172961000Y-73181500D01*
X172980000Y-73209500D01*
X172998000Y-73238500D01*
X173014000Y-73268500D01*
X173029000Y-73299500D01*
X173042000Y-73330500D01*
X173053000Y-73362500D01*
X173063000Y-73395500D01*
X173071000Y-73428500D01*
X173077000Y-73461500D01*
X173081000Y-73495500D01*
X173084000Y-73529500D01*
X173085000Y-73563500D01*
X173084000Y-73597500D01*
X173081000Y-73631500D01*
X173077000Y-73665500D01*
X173071000Y-73698500D01*
X173063000Y-73731500D01*
X173053000Y-73764500D01*
X173042000Y-73796500D01*
X173029000Y-73827500D01*
X173014000Y-73858500D01*
X172998000Y-73888500D01*
X172980000Y-73917500D01*
X172961000Y-73945500D01*
X172940000Y-73972500D01*
X172918000Y-73998500D01*
X172895000Y-74023500D01*
X172870000Y-74046500D01*
X172844000Y-74068500D01*
X172817000Y-74089500D01*
X172789000Y-74108500D01*
X172760000Y-74126500D01*
X172730000Y-74142500D01*
X172699000Y-74157500D01*
X172668000Y-74170500D01*
X172636000Y-74181500D01*
X172603000Y-74191500D01*
X172570000Y-74199500D01*
X172537000Y-74205500D01*
X172503000Y-74209500D01*
X172469000Y-74212500D01*
X172435000Y-74213500D01*
X171835000Y-74213500D01*
X171801000Y-74212500D01*
X171767000Y-74209500D01*
X171733000Y-74205500D01*
X171700000Y-74199500D01*
X171667000Y-74191500D01*
X171634000Y-74181500D01*
X171602000Y-74170500D01*
X171571000Y-74157500D01*
X171540000Y-74142500D01*
X171510000Y-74126500D01*
X171481000Y-74108500D01*
X171453000Y-74089500D01*
X171426000Y-74068500D01*
X171400000Y-74046500D01*
X171375000Y-74023500D01*
X171352000Y-73998500D01*
X171330000Y-73972500D01*
X171309000Y-73945500D01*
X171290000Y-73917500D01*
X171272000Y-73888500D01*
X171256000Y-73858500D01*
X171241000Y-73827500D01*
X171228000Y-73796500D01*
X171217000Y-73764500D01*
X171207000Y-73731500D01*
X171199000Y-73698500D01*
X171193000Y-73665500D01*
X171189000Y-73631500D01*
X171186000Y-73597500D01*
X171185000Y-73563500D01*
X171186000Y-73529500D01*
X171189000Y-73495500D01*
X171193000Y-73461500D01*
X171199000Y-73428500D01*
X171207000Y-73395500D01*
X171217000Y-73362500D01*
X171228000Y-73330500D01*
X171241000Y-73299500D01*
X171256000Y-73268500D01*
X171272000Y-73238500D01*
X171290000Y-73209500D01*
X171309000Y-73181500D01*
X171330000Y-73154500D01*
X171352000Y-73128500D01*
X171375000Y-73103500D01*
X171400000Y-73080500D01*
X171426000Y-73058500D01*
X171453000Y-73037500D01*
X171481000Y-73018500D01*
X171510000Y-73000500D01*
X171540000Y-72984500D01*
X171571000Y-72969500D01*
X171602000Y-72956500D01*
X171634000Y-72945500D01*
X171667000Y-72935500D01*
X171700000Y-72927500D01*
X171733000Y-72921500D01*
X171767000Y-72917500D01*
X171801000Y-72914500D01*
X171835000Y-72913500D01*
X172435000Y-72913500D01*
X172469000Y-72914500D01*
G37*
X176269000Y-72914500D02*
X176303000Y-72917500D01*
X176337000Y-72921500D01*
X176370000Y-72927500D01*
X176403000Y-72935500D01*
X176436000Y-72945500D01*
X176468000Y-72956500D01*
X176499000Y-72969500D01*
X176530000Y-72984500D01*
X176560000Y-73000500D01*
X176589000Y-73018500D01*
X176617000Y-73037500D01*
X176644000Y-73058500D01*
X176670000Y-73080500D01*
X176695000Y-73103500D01*
X176718000Y-73128500D01*
X176740000Y-73154500D01*
X176761000Y-73181500D01*
X176780000Y-73209500D01*
X176798000Y-73238500D01*
X176814000Y-73268500D01*
X176829000Y-73299500D01*
X176842000Y-73330500D01*
X176853000Y-73362500D01*
X176863000Y-73395500D01*
X176871000Y-73428500D01*
X176877000Y-73461500D01*
X176881000Y-73495500D01*
X176884000Y-73529500D01*
X176885000Y-73563500D01*
X176884000Y-73597500D01*
X176881000Y-73631500D01*
X176877000Y-73665500D01*
X176871000Y-73698500D01*
X176863000Y-73731500D01*
X176853000Y-73764500D01*
X176842000Y-73796500D01*
X176829000Y-73827500D01*
X176814000Y-73858500D01*
X176798000Y-73888500D01*
X176780000Y-73917500D01*
X176761000Y-73945500D01*
X176740000Y-73972500D01*
X176718000Y-73998500D01*
X176695000Y-74023500D01*
X176670000Y-74046500D01*
X176644000Y-74068500D01*
X176617000Y-74089500D01*
X176589000Y-74108500D01*
X176560000Y-74126500D01*
X176530000Y-74142500D01*
X176499000Y-74157500D01*
X176468000Y-74170500D01*
X176436000Y-74181500D01*
X176403000Y-74191500D01*
X176370000Y-74199500D01*
X176337000Y-74205500D01*
X176303000Y-74209500D01*
X176269000Y-74212500D01*
X176235000Y-74213500D01*
X175635000Y-74213500D01*
X175601000Y-74212500D01*
X175567000Y-74209500D01*
X175533000Y-74205500D01*
X175500000Y-74199500D01*
X175467000Y-74191500D01*
X175434000Y-74181500D01*
X175402000Y-74170500D01*
X175371000Y-74157500D01*
X175340000Y-74142500D01*
X175310000Y-74126500D01*
X175281000Y-74108500D01*
X175253000Y-74089500D01*
X175226000Y-74068500D01*
X175200000Y-74046500D01*
X175175000Y-74023500D01*
X175152000Y-73998500D01*
X175130000Y-73972500D01*
X175109000Y-73945500D01*
X175090000Y-73917500D01*
X175072000Y-73888500D01*
X175056000Y-73858500D01*
X175041000Y-73827500D01*
X175028000Y-73796500D01*
X175017000Y-73764500D01*
X175007000Y-73731500D01*
X174999000Y-73698500D01*
X174993000Y-73665500D01*
X174989000Y-73631500D01*
X174986000Y-73597500D01*
X174985000Y-73563500D01*
X174986000Y-73529500D01*
X174989000Y-73495500D01*
X174993000Y-73461500D01*
X174999000Y-73428500D01*
X175007000Y-73395500D01*
X175017000Y-73362500D01*
X175028000Y-73330500D01*
X175041000Y-73299500D01*
X175056000Y-73268500D01*
X175072000Y-73238500D01*
X175090000Y-73209500D01*
X175109000Y-73181500D01*
X175130000Y-73154500D01*
X175152000Y-73128500D01*
X175175000Y-73103500D01*
X175200000Y-73080500D01*
X175226000Y-73058500D01*
X175253000Y-73037500D01*
X175281000Y-73018500D01*
X175310000Y-73000500D01*
X175340000Y-72984500D01*
X175371000Y-72969500D01*
X175402000Y-72956500D01*
X175434000Y-72945500D01*
X175467000Y-72935500D01*
X175500000Y-72927500D01*
X175533000Y-72921500D01*
X175567000Y-72917500D01*
X175601000Y-72914500D01*
X175635000Y-72913500D01*
X176235000Y-72913500D01*
X176269000Y-72914500D01*
G36*
X176269000Y-72914500D02*
G01*
X176303000Y-72917500D01*
X176337000Y-72921500D01*
X176370000Y-72927500D01*
X176403000Y-72935500D01*
X176436000Y-72945500D01*
X176468000Y-72956500D01*
X176499000Y-72969500D01*
X176530000Y-72984500D01*
X176560000Y-73000500D01*
X176589000Y-73018500D01*
X176617000Y-73037500D01*
X176644000Y-73058500D01*
X176670000Y-73080500D01*
X176695000Y-73103500D01*
X176718000Y-73128500D01*
X176740000Y-73154500D01*
X176761000Y-73181500D01*
X176780000Y-73209500D01*
X176798000Y-73238500D01*
X176814000Y-73268500D01*
X176829000Y-73299500D01*
X176842000Y-73330500D01*
X176853000Y-73362500D01*
X176863000Y-73395500D01*
X176871000Y-73428500D01*
X176877000Y-73461500D01*
X176881000Y-73495500D01*
X176884000Y-73529500D01*
X176885000Y-73563500D01*
X176884000Y-73597500D01*
X176881000Y-73631500D01*
X176877000Y-73665500D01*
X176871000Y-73698500D01*
X176863000Y-73731500D01*
X176853000Y-73764500D01*
X176842000Y-73796500D01*
X176829000Y-73827500D01*
X176814000Y-73858500D01*
X176798000Y-73888500D01*
X176780000Y-73917500D01*
X176761000Y-73945500D01*
X176740000Y-73972500D01*
X176718000Y-73998500D01*
X176695000Y-74023500D01*
X176670000Y-74046500D01*
X176644000Y-74068500D01*
X176617000Y-74089500D01*
X176589000Y-74108500D01*
X176560000Y-74126500D01*
X176530000Y-74142500D01*
X176499000Y-74157500D01*
X176468000Y-74170500D01*
X176436000Y-74181500D01*
X176403000Y-74191500D01*
X176370000Y-74199500D01*
X176337000Y-74205500D01*
X176303000Y-74209500D01*
X176269000Y-74212500D01*
X176235000Y-74213500D01*
X175635000Y-74213500D01*
X175601000Y-74212500D01*
X175567000Y-74209500D01*
X175533000Y-74205500D01*
X175500000Y-74199500D01*
X175467000Y-74191500D01*
X175434000Y-74181500D01*
X175402000Y-74170500D01*
X175371000Y-74157500D01*
X175340000Y-74142500D01*
X175310000Y-74126500D01*
X175281000Y-74108500D01*
X175253000Y-74089500D01*
X175226000Y-74068500D01*
X175200000Y-74046500D01*
X175175000Y-74023500D01*
X175152000Y-73998500D01*
X175130000Y-73972500D01*
X175109000Y-73945500D01*
X175090000Y-73917500D01*
X175072000Y-73888500D01*
X175056000Y-73858500D01*
X175041000Y-73827500D01*
X175028000Y-73796500D01*
X175017000Y-73764500D01*
X175007000Y-73731500D01*
X174999000Y-73698500D01*
X174993000Y-73665500D01*
X174989000Y-73631500D01*
X174986000Y-73597500D01*
X174985000Y-73563500D01*
X174986000Y-73529500D01*
X174989000Y-73495500D01*
X174993000Y-73461500D01*
X174999000Y-73428500D01*
X175007000Y-73395500D01*
X175017000Y-73362500D01*
X175028000Y-73330500D01*
X175041000Y-73299500D01*
X175056000Y-73268500D01*
X175072000Y-73238500D01*
X175090000Y-73209500D01*
X175109000Y-73181500D01*
X175130000Y-73154500D01*
X175152000Y-73128500D01*
X175175000Y-73103500D01*
X175200000Y-73080500D01*
X175226000Y-73058500D01*
X175253000Y-73037500D01*
X175281000Y-73018500D01*
X175310000Y-73000500D01*
X175340000Y-72984500D01*
X175371000Y-72969500D01*
X175402000Y-72956500D01*
X175434000Y-72945500D01*
X175467000Y-72935500D01*
X175500000Y-72927500D01*
X175533000Y-72921500D01*
X175567000Y-72917500D01*
X175601000Y-72914500D01*
X175635000Y-72913500D01*
X176235000Y-72913500D01*
X176269000Y-72914500D01*
G37*
%TD*%
D11*
%TO.C,U4*%
X146645000Y-63945000D03*
D12*
X146645000Y-66485000D03*
X144105000Y-63945000D03*
X144105000Y-66485000D03*
X141565000Y-63945000D03*
X141565000Y-66485000D03*
X139025000Y-63945000D03*
X139025000Y-66485000D03*
%TD*%
D13*
%TO.C,U7*%
X120669490Y-64012550D03*
%TD*%
D14*
%TO.C,*%
X110450000Y-98350000D03*
%TD*%
D15*
%TO.C,J4*%
X130100000Y-68985800D03*
X130100000Y-66445800D03*
%TD*%
D16*
%TO.C,J3*%
X136470000Y-94730000D03*
X139010000Y-94730000D03*
X141550000Y-94730000D03*
X144090000Y-94730000D03*
X146630000Y-94730000D03*
%TD*%
D17*
%TO.C,J2*%
X164035000Y-93765000D03*
D18*
X164035000Y-96265000D03*
%TD*%
D14*
%TO.C,*%
X110450000Y-59410000D03*
%TD*%
D13*
%TO.C,U6*%
X120669490Y-67011530D03*
%TD*%
D14*
%TO.C,*%
X173570000Y-98350000D03*
%TD*%
D13*
%TO.C,U5*%
X120669490Y-70010510D03*
%TD*%
%TO.C,U13*%
X113230930Y-79963944D03*
%TD*%
D19*
%TO.C,S1*%
X172975000Y-62615000D03*
X172975000Y-65115000D03*
X172975000Y-67615000D03*
%TD*%
D20*
%TO.C,R5*%
X123815000Y-83413000D03*
X123815000Y-84277000D03*
%TD*%
D13*
%TO.C,U10*%
X113230930Y-71108250D03*
%TD*%
D21*
%TO.C,S2*%
X123630000Y-75179000D03*
D19*
X123630000Y-81679000D03*
X119130000Y-75179000D03*
X119130000Y-81679000D03*
%TD*%
D13*
%TO.C,U9*%
X113259490Y-91833570D03*
%TD*%
D22*
%TO.C,D3*%
X128800000Y-78548500D03*
X128800000Y-76928500D03*
%TD*%
D13*
%TO.C,U12*%
X113259070Y-86014158D03*
%TD*%
D23*
%TO.C,R4*%
X130645000Y-80370000D03*
X128785000Y-80370000D03*
%TD*%
D13*
%TO.C,U11*%
X113230930Y-77012046D03*
%TD*%
%TO.C,U15*%
X113259070Y-83062260D03*
%TD*%
%TO.C,U14*%
X113230930Y-74080930D03*
%TD*%
%TO.C,U8*%
X113259490Y-88834590D03*
%TD*%
M02*
