M48
; DRILL file {KiCad 7.0.8} date Fri Jan 19 17:30:12 2024
; FORMAT={-:-/ absolute / inch / decimal}
; #@! TF.CreationDate,2024-01-19T17:30:12-07:00
; #@! TF.GenerationSoftware,Kicad,Pcbnew,7.0.8
; #@! TF.FileFunction,MixedPlating,1,2
FMAT,2
INCH
; #@! TA.AperFunction,Plated,PTH,ComponentDrill
T1C0.0236
; #@! TA.AperFunction,Plated,PTH,ViaDrill
T2C0.0276
; #@! TA.AperFunction,Plated,PTH,ComponentDrill
T3C0.0360
; #@! TA.AperFunction,Plated,PTH,ComponentDrill
T4C0.0394
; #@! TA.AperFunction,Plated,PTH,ComponentDrill
T5C0.0413
; #@! TA.AperFunction,Plated,PTH,ComponentDrill
T6C0.0450
; #@! TA.AperFunction,Plated,PTH,ComponentDrill
T7C0.0591
; #@! TA.AperFunction,Plated,PTH,ComponentDrill
T8C0.1200
%
G90
G05
T2
X5.0697Y-2.9165
X5.3891Y-2.9589
X5.4787Y-3.1397
X5.4972Y-2.9165
X5.5768Y-2.6913
X5.5965Y-2.7611
X5.6004Y-2.8897
X5.6059Y-2.987
X5.6409Y-3.3831
X5.6585Y-3.1748
X5.687Y-2.8854
X5.7075Y-3.1327
X5.8461Y-3.1472
X6.3862Y-3.1213
X6.6024Y-3.2591
X6.6161Y-2.9559
X6.6713Y-2.8815
X6.6886Y-3.1953
T3
X5.122Y-2.616
X5.122Y-2.716
T4
X4.6902Y-2.9598
X4.6902Y-3.2157
X4.8673Y-2.9598
X4.8673Y-3.2157
X5.4734Y-2.5175
X5.4734Y-2.6175
X5.5734Y-2.5175
X5.5734Y-2.6175
X5.6734Y-2.5175
X5.6734Y-2.6175
X5.7734Y-2.5175
X5.7734Y-2.6175
X6.81Y-2.4652
X6.81Y-2.5636
X6.81Y-2.662
T5
X6.4581Y-3.6915
X6.4581Y-3.79
T6
X5.3728Y-3.7295
X5.4728Y-3.7295
X5.5728Y-3.7295
X5.6728Y-3.7295
X5.7728Y-3.7295
T7
X4.4579Y-2.7995
X4.4579Y-2.9166
X4.4579Y-3.032
X4.4579Y-3.1482
X4.459Y-3.2702
X4.459Y-3.3864
X4.459Y-3.4974
X4.459Y-3.6155
X4.7508Y-2.5202
X4.7508Y-2.6382
X4.7508Y-2.7563
T8
X4.3484Y-2.339
X4.3484Y-3.872
X6.8335Y-3.872
T1
G00X6.7652Y-2.8962
M15
G01X6.7888Y-2.8962
M16
G05
G00X6.7652Y-3.2364
M15
G01X6.7888Y-3.2364
M16
G05
G00X6.9148Y-2.8962
M15
G01X6.9384Y-2.8962
M16
G05
G00X6.9148Y-3.2364
M15
G01X6.9384Y-3.2364
M16
G05
T0
M30
