M48
; DRILL file {KiCad 7.0.8} date Fri Dec 22 14:09:51 2023
; FORMAT={-:-/ absolute / inch / decimal}
; #@! TF.CreationDate,2023-12-22T14:09:51-07:00
; #@! TF.GenerationSoftware,Kicad,Pcbnew,7.0.8
; #@! TF.FileFunction,Plated,1,4,PTH
FMAT,2
INCH
; #@! TA.AperFunction,Plated,PTH,ViaDrill
T1C0.0118
; #@! TA.AperFunction,Plated,PTH,ViaDrill
T2C0.0150
; #@! TA.AperFunction,Plated,PTH,ViaDrill
T3C0.0157
; #@! TA.AperFunction,Plated,PTH,ComponentDrill
T4C0.0413
; #@! TA.AperFunction,Plated,PTH,ComponentDrill
T5C0.1200
%
G90
G05
T1
X6.3248Y-3.0051
X6.3811Y-2.9374
X6.4114Y-4.2445
X6.4339Y-4.5539
X6.4484Y-2.9563
X6.4503Y-2.8809
X6.6335Y-2.4594
X6.6846Y-4.2854
X6.7079Y-4.4984
X6.7173Y-4.222
X6.8028Y-3.0988
X6.813Y-4.1957
X6.8134Y-4.3051
X6.8339Y-4.7413
X6.8488Y-3.0059
X6.8583Y-4.0984
X6.9661Y-5.235
X6.9915Y-2.8921
X7.0209Y-2.9335
X7.113Y-4.4594
X7.1181Y-4.3783
X7.1496Y-5.5217
X7.1681Y-4.065
X7.1823Y-4.6445
X7.2429Y-5.6583
X7.2528Y-2.6512
X7.2623Y-5.4108
X7.2654Y-4.7677
X7.2685Y-5.3384
X7.2705Y-4.9917
X7.289Y-5.0571
X7.2909Y-4.1677
X7.2937Y-4.0386
X7.2992Y-2.7992
X7.3154Y-4.8524
X7.3319Y-4.9976
X7.339Y-5.3193
X7.3642Y-4.865
X7.365Y-5.6681
X7.3815Y-2.8469
X7.3878Y-3.0827
X7.4059Y-4.8512
X7.4287Y-4.552
X7.4386Y-4.2862
X7.4665Y-4.322
X7.474Y-4.614
X7.4945Y-2.8957
X7.4963Y-2.9732
X7.5287Y-5.2732
X7.5374Y-4.9664
X7.5823Y-5.4906
X7.6071Y-5.2543
X7.672Y-5.05
X7.6961Y-2.6445
X7.7047Y-4.9323
X7.825Y-4.3732
X7.8413Y-5.4386
X7.8665Y-5.874
X7.8839Y-3.1252
X7.8862Y-3.8217
X7.9324Y-3.7825
X7.9343Y-3.5969
X7.9469Y-4.3858
X8.0028Y-5.3987
X8.0669Y-4.222
X8.0958Y-3.4993
X8.1118Y-4.7819
X8.1571Y-4.3508
X8.229Y-5.1357
X8.2551Y-5.3728
X8.3252Y-3.4331
X8.3382Y-5.3906
X8.4016Y-3.3425
X8.4161Y-3.7894
X8.4472Y-5.1817
X8.4598Y-4.1783
X8.4665Y-3.3646
X8.5052Y-5.172
X8.5323Y-3.8823
X8.5531Y-5.3783
X8.5634Y-3.8382
X8.578Y-4.2122
X8.7882Y-5.1524
X8.7972Y-4.8681
X8.8217Y-5.4209
X9.0409Y-5.1075
X9.1984Y-4.7898
T2
X7.7835Y-3.8067
T3
X6.1134Y-2.2087
X6.1165Y-2.1701
X6.1272Y-2.6598
X6.1283Y-2.115
X6.1303Y-2.6213
X6.1315Y-2.0303
X6.1327Y-1.9634
X6.1374Y-2.2685
X6.1421Y-2.5661
X6.1453Y-2.4815
X6.1465Y-2.4146
X6.1512Y-2.7197
X6.1702Y-2.2087
X6.1728Y-2.1701
X6.1792Y-1.9634
X6.1814Y-2.115
X6.184Y-2.6598
X6.186Y-2.0303
X6.1866Y-2.6213
X6.189Y-2.2685
X6.193Y-2.4146
X6.1952Y-2.5661
X6.1998Y-2.4815
X6.2028Y-2.7197
X6.2258Y-1.9634
X6.227Y-2.2087
X6.2291Y-2.1701
X6.2345Y-2.115
X6.2396Y-2.4146
X6.2406Y-2.0303
X6.2406Y-2.2685
X6.2408Y-2.6598
X6.2429Y-2.6213
X6.2483Y-2.5661
X6.2543Y-2.4815
X6.2543Y-2.7197
X6.2724Y-1.9634
X6.2839Y-2.2087
X6.2854Y-2.1701
X6.2862Y-2.4146
X6.2876Y-2.115
X6.2921Y-2.2685
X6.2951Y-2.0303
X6.2976Y-2.6598
X6.2992Y-2.6213
X6.3014Y-2.5661
X6.3059Y-2.7197
X6.3089Y-2.4815
X6.319Y-1.9634
X6.3327Y-2.4146
X6.3407Y-2.115
X6.3407Y-2.2087
X6.3417Y-2.1701
X6.3437Y-2.2685
X6.3496Y-2.0303
X6.3545Y-2.5661
X6.3545Y-2.6598
X6.3555Y-2.6213
X6.3575Y-2.7197
X6.3634Y-2.4815
X6.3655Y-1.9634
X6.3793Y-2.4146
X6.3938Y-2.115
X6.3953Y-2.2685
X6.3975Y-2.2087
X6.398Y-2.1701
X6.398Y-3.3724
X6.4012Y-3.3339
X6.4041Y-2.0303
X6.4075Y-2.5661
X6.4091Y-2.7197
X6.4113Y-2.6598
X6.4118Y-2.6213
X6.4121Y-1.9634
X6.413Y-3.2787
X6.4161Y-3.1941
X6.4173Y-3.1272
X6.4179Y-2.4815
X6.422Y-3.4323
X6.4259Y-2.4146
X6.4469Y-2.115
X6.4469Y-2.2685
X6.4543Y-2.1701
X6.4543Y-2.2087
X6.4549Y-3.3724
X6.4575Y-3.3339
X6.4587Y-1.9634
X6.4587Y-2.0303
X6.4606Y-2.5661
X6.4606Y-2.7197
X6.4639Y-3.1272
X6.4661Y-3.2787
X6.4681Y-2.6213
X6.4681Y-2.6598
X6.4707Y-3.1941
X6.4724Y-2.4146
X6.4724Y-2.4815
X6.4736Y-3.4323
X6.5105Y-3.1272
X6.5117Y-3.3724
X6.5138Y-3.3339
X6.5192Y-3.2787
X6.5252Y-3.1941
X6.5252Y-3.4323
X6.5543Y-2.613
X6.5567Y-2.5732
X6.557Y-3.1272
X6.5594Y-2.5343
X6.5602Y-4.0437
X6.5685Y-3.3724
X6.5701Y-3.3339
X6.5722Y-3.2787
X6.5768Y-3.4323
X6.5797Y-3.1941
X6.6Y-2.5768
X6.6036Y-3.1272
X6.6253Y-3.2787
X6.6253Y-3.3724
X6.6264Y-3.3339
X6.6283Y-3.4323
X6.6343Y-3.1941
X6.6502Y-3.1272
X6.6799Y-3.3701
X6.6831Y-3.2602
X6.6882Y-3.2067
X6.689Y-3.4449
X6.6921Y-3.3177
X6.7012Y-3.1504
X6.7496Y-3.235
X6.7496Y-3.2815
X6.7508Y-3.1602
X6.7528Y-3.3409
X6.7547Y-3.3874
X6.7555Y-3.4327
X6.8748Y-2.6591
X6.9142Y-3.3831
X6.9173Y-3.3445
X6.9291Y-3.2894
X6.9323Y-3.2047
X6.9335Y-3.1378
X6.9382Y-3.4429
X6.9449Y-2.5248
X6.9449Y-2.6047
X6.9476Y-2.5657
X6.971Y-3.3831
X6.9736Y-3.3445
X6.98Y-3.1378
X6.9822Y-3.2894
X6.9868Y-3.2047
X6.9886Y-2.5398
X6.9898Y-3.4429
X6.9925Y-2.4972
X6.9925Y-2.5787
X6.9933Y-2.6146
X7.0266Y-3.1378
X7.0278Y-3.3831
X7.0299Y-3.3445
X7.0353Y-3.2894
X7.0413Y-3.2047
X7.0413Y-3.4429
X7.0732Y-3.1378
X7.0846Y-3.9364
X7.0907Y-4.1378
X7.1415Y-3.2894
X7.1415Y-3.3831
X7.1425Y-3.3445
X7.1445Y-3.4429
X7.1504Y-3.2047
X7.1946Y-3.2894
X7.1961Y-3.4429
X7.1983Y-3.3831
X7.1988Y-3.3445
X7.2049Y-3.2047
X7.2094Y-3.537
X7.2129Y-3.1378
X7.2476Y-3.2894
X7.2476Y-3.4429
X7.2476Y-4.3587
X7.2531Y-4.1054
X7.2551Y-3.3445
X7.2551Y-3.3831
X7.2594Y-3.1378
X7.2594Y-3.2047
X7.2634Y-4.4587
X7.2795Y-2.8563
X7.3256Y-5.1331
X7.3299Y-2.5374
X7.3299Y-2.5748
X7.3343Y-2.4965
X7.3358Y-2.6157
X7.3768Y-2.5917
X7.3776Y-2.4846
X7.3795Y-2.5374
X7.4465Y-3.3724
X7.4496Y-3.3339
X7.4614Y-3.2787
X7.4646Y-3.1941
X7.4657Y-3.1272
X7.4705Y-3.4323
X7.4898Y-3.9665
X7.5033Y-3.3724
X7.5059Y-3.3339
X7.5123Y-3.1272
X7.5145Y-3.2787
X7.5191Y-3.1941
X7.522Y-3.4323
X7.5589Y-3.1272
X7.5601Y-3.3724
X7.5622Y-3.3339
X7.5646Y-4.7122
X7.5676Y-3.2787
X7.5736Y-3.1941
X7.5736Y-3.4323
X7.652Y-3.1272
X7.6563Y-5.863
X7.6738Y-3.2787
X7.6738Y-3.3724
X7.6748Y-3.3339
X7.6768Y-3.4323
X7.6827Y-3.1941
X7.6986Y-3.1272
X7.7118Y-4.8039
X7.7268Y-3.2787
X7.7283Y-3.4323
X7.7295Y-5.2811
X7.7306Y-3.3724
X7.7311Y-3.3339
X7.7372Y-3.1941
X7.7386Y-5.6366
X7.7452Y-3.1272
X7.7724Y-5.9209
X7.7799Y-3.2787
X7.7799Y-3.4323
X7.7866Y-4.4248
X7.7874Y-3.3339
X7.7874Y-3.3724
X7.7917Y-3.1272
X7.7917Y-3.1941
X7.8083Y-5.2708
X7.811Y-5.2138
X7.8116Y-4.9938
X7.8128Y-4.8083
X7.8191Y-4.5665
X7.8419Y-5.2423
X7.853Y-4.8661
X7.863Y-3.8898
X7.886Y-4.8184
X7.8864Y-4.3106
X7.8866Y-3.2476
X7.8866Y-3.9764
X7.915Y-2.9169
X7.9252Y-3.4252
X7.9311Y-3.0425
X7.9477Y-2.773
X7.9514Y-5.0108
X7.9647Y-3.7271
X7.9732Y-4.6909
X7.9837Y-4.9001
X7.9907Y-3.4563
X7.9909Y-5.0732
X7.9969Y-4.0382
X8.002Y-4.6016
X8.0164Y-5.3235
X8.0291Y-2.6976
X8.0303Y-4.8657
X8.0339Y-3.8638
X8.0551Y-4.9276
X8.0608Y-4.5254
X8.063Y-4.7039
X8.0842Y-5.2153
X8.1067Y-4.5157
X8.1102Y-5.002
X8.1173Y-5.1858
X8.1192Y-3.893
X8.1367Y-4.8355
X8.1503Y-3.534
X8.1563Y-3.1508
X8.1594Y-3.7177
X8.1634Y-4.7083
X8.1793Y-4.5116
X8.1915Y-4.8652
X8.1988Y-5.3555
X8.2138Y-3.7138
X8.2232Y-3.4947
X8.2283Y-5.9047
X8.2535Y-3.0654
X8.2579Y-3.715
X8.2635Y-3.4947
X8.2704Y-5.1002
X8.2727Y-3.5992
X8.2787Y-4.5518
X8.3023Y-3.5014
X8.3024Y-4.4697
X8.3114Y-3.7157
X8.3277Y-5.0507
X8.3372Y-4.7283
X8.3406Y-4.413
X8.3483Y-4.8575
X8.35Y-3.5016
X8.365Y-5.2418
X8.3679Y-4.6159
X8.3681Y-5.1768
X8.3841Y-3.5984
X8.3931Y-4.8275
X8.3963Y-3.8848
X8.4053Y-4.8664
X8.4217Y-4.5488
X8.4256Y-4.4579
X8.435Y-3.5642
X8.458Y-4.9737
X8.498Y-3.5933
X8.5575Y-5.1555
X8.5874Y-5.3382
X8.6524Y-5.3638
X8.7067Y-5.4193
X8.7382Y-4.9142
X8.7512Y-5.1965
X8.7713Y-5.2626
X8.7872Y-3.8527
X8.822Y-3.7736
X8.8724Y-5.1614
X9.0224Y-3.3697
X9.0307Y-5.3398
X9.2732Y-5.2339
X9.2764Y-5.8004
T4
X8.0783Y-1.7459
X8.0783Y-1.9427
X8.0799Y-2.3132
X8.0799Y-2.51
T5
X6.0799Y-5.6661
X6.7077Y-1.6772
X7.3167Y-1.6772
X8.8551Y-2.9689
T0
M30
