%TF.GenerationSoftware,KiCad,Pcbnew,7.0.8*%
%TF.CreationDate,2023-12-22T14:09:35-07:00*%
%TF.ProjectId,VESC-6-MK5,56455343-2d36-42d4-9d4b-352e6b696361,rev?*%
%TF.SameCoordinates,Original*%
%TF.FileFunction,Copper,L1,Top*%
%TF.FilePolarity,Positive*%
%FSLAX46Y46*%
G04 Gerber Fmt 4.6, Leading zero omitted, Abs format (unit mm)*
G04 Created by KiCad (PCBNEW 7.0.8) date 2023-12-22 14:09:35*
%MOMM*%
%LPD*%
G01*
G04 APERTURE LIST*
G04 Aperture macros list*
%AMRoundRect*
0 Rectangle with rounded corners*
0 $1 Rounding radius*
0 $2 $3 $4 $5 $6 $7 $8 $9 X,Y pos of 4 corners*
0 Add a 4 corners polygon primitive as box body*
4,1,4,$2,$3,$4,$5,$6,$7,$8,$9,$2,$3,0*
0 Add four circle primitives for the rounded corners*
1,1,$1+$1,$2,$3*
1,1,$1+$1,$4,$5*
1,1,$1+$1,$6,$7*
1,1,$1+$1,$8,$9*
0 Add four rect primitives between the rounded corners*
20,1,$1+$1,$2,$3,$4,$5,0*
20,1,$1+$1,$4,$5,$6,$7,0*
20,1,$1+$1,$6,$7,$8,$9,0*
20,1,$1+$1,$8,$9,$2,$3,0*%
%AMRotRect*
0 Rectangle, with rotation*
0 The origin of the aperture is its center*
0 $1 length*
0 $2 width*
0 $3 Rotation angle, in degrees counterclockwise*
0 Add horizontal line*
21,1,$1,$2,0,0,$3*%
G04 Aperture macros list end*
%TA.AperFunction,SMDPad,CuDef*%
%ADD10R,0.870000X0.930000*%
%TD*%
%TA.AperFunction,SMDPad,CuDef*%
%ADD11R,1.010000X0.930000*%
%TD*%
%TA.AperFunction,SMDPad,CuDef*%
%ADD12R,0.930000X1.010000*%
%TD*%
%TA.AperFunction,SMDPad,CuDef*%
%ADD13RotRect,1.010000X0.930000X225.000000*%
%TD*%
%TA.AperFunction,SMDPad,CuDef*%
%ADD14R,0.930000X0.870000*%
%TD*%
%TA.AperFunction,SMDPad,CuDef*%
%ADD15R,1.160000X1.470000*%
%TD*%
%TA.AperFunction,SMDPad,CuDef*%
%ADD16R,1.370000X1.910000*%
%TD*%
%TA.AperFunction,SMDPad,CuDef*%
%ADD17R,0.863600X1.346200*%
%TD*%
%TA.AperFunction,SMDPad,CuDef*%
%ADD18R,1.170000X1.770000*%
%TD*%
%TA.AperFunction,SMDPad,CuDef*%
%ADD19RoundRect,0.011200X0.128800X-0.773800X0.128800X0.773800X-0.128800X0.773800X-0.128800X-0.773800X0*%
%TD*%
%TA.AperFunction,SMDPad,CuDef*%
%ADD20R,6.350000X3.235000*%
%TD*%
%TA.AperFunction,SMDPad,CuDef*%
%ADD21R,0.812800X1.041400*%
%TD*%
%TA.AperFunction,ComponentPad*%
%ADD22R,1.400000X1.400000*%
%TD*%
%TA.AperFunction,ComponentPad*%
%ADD23C,1.400000*%
%TD*%
%TA.AperFunction,SMDPad,CuDef*%
%ADD24RoundRect,0.075000X-0.441942X-0.548008X0.548008X0.441942X0.441942X0.548008X-0.548008X-0.441942X0*%
%TD*%
%TA.AperFunction,SMDPad,CuDef*%
%ADD25RoundRect,0.075000X0.441942X-0.548008X0.548008X-0.441942X-0.441942X0.548008X-0.548008X0.441942X0*%
%TD*%
%TA.AperFunction,SMDPad,CuDef*%
%ADD26R,5.600000X2.440000*%
%TD*%
%TA.AperFunction,SMDPad,CuDef*%
%ADD27R,0.890000X2.440000*%
%TD*%
%TA.AperFunction,SMDPad,CuDef*%
%ADD28R,1.799996X1.305598*%
%TD*%
%TA.AperFunction,SMDPad,CuDef*%
%ADD29R,0.355600X0.558800*%
%TD*%
%TA.AperFunction,ComponentPad*%
%ADD30C,4.064000*%
%TD*%
%TA.AperFunction,SMDPad,CuDef*%
%ADD31R,1.701800X1.092200*%
%TD*%
%TA.AperFunction,SMDPad,CuDef*%
%ADD32R,1.295400X0.711200*%
%TD*%
%TA.AperFunction,SMDPad,CuDef*%
%ADD33R,0.838200X1.092200*%
%TD*%
%TA.AperFunction,SMDPad,CuDef*%
%ADD34R,3.505200X0.990600*%
%TD*%
%TA.AperFunction,SMDPad,CuDef*%
%ADD35R,1.600200X3.505200*%
%TD*%
%TA.AperFunction,SMDPad,CuDef*%
%ADD36R,0.863600X0.965200*%
%TD*%
%TA.AperFunction,SMDPad,CuDef*%
%ADD37R,0.650000X0.350000*%
%TD*%
%TA.AperFunction,SMDPad,CuDef*%
%ADD38R,1.550000X2.400000*%
%TD*%
%TA.AperFunction,SMDPad,CuDef*%
%ADD39R,0.609600X0.609600*%
%TD*%
%TA.AperFunction,SMDPad,CuDef*%
%ADD40R,1.200000X1.800000*%
%TD*%
%TA.AperFunction,SMDPad,CuDef*%
%ADD41R,0.960000X1.380000*%
%TD*%
%TA.AperFunction,SMDPad,CuDef*%
%ADD42R,0.675000X0.250000*%
%TD*%
%TA.AperFunction,SMDPad,CuDef*%
%ADD43R,0.250000X0.675000*%
%TD*%
%TA.AperFunction,SMDPad,CuDef*%
%ADD44RotRect,1.010000X0.930000X315.000000*%
%TD*%
%TA.AperFunction,SMDPad,CuDef*%
%ADD45R,1.500000X0.700000*%
%TD*%
%TA.AperFunction,SMDPad,CuDef*%
%ADD46R,0.800000X1.000000*%
%TD*%
%TA.AperFunction,SMDPad,CuDef*%
%ADD47R,1.050000X4.050000*%
%TD*%
%TA.AperFunction,SMDPad,CuDef*%
%ADD48R,10.750000X8.200000*%
%TD*%
%TA.AperFunction,SMDPad,CuDef*%
%ADD49R,1.230000X1.770000*%
%TD*%
%TA.AperFunction,SMDPad,CuDef*%
%ADD50R,5.500000X1.000000*%
%TD*%
%TA.AperFunction,SMDPad,CuDef*%
%ADD51R,3.000000X1.600000*%
%TD*%
%TA.AperFunction,SMDPad,CuDef*%
%ADD52R,5.511800X0.990600*%
%TD*%
%TA.AperFunction,SMDPad,CuDef*%
%ADD53R,3.098800X1.701800*%
%TD*%
%TA.AperFunction,SMDPad,CuDef*%
%ADD54RotRect,1.230000X1.770000X315.000000*%
%TD*%
%TA.AperFunction,SMDPad,CuDef*%
%ADD55R,1.497552X2.413000*%
%TD*%
%TA.AperFunction,SMDPad,CuDef*%
%ADD56R,1.910000X1.370000*%
%TD*%
%TA.AperFunction,SMDPad,CuDef*%
%ADD57R,1.000000X5.500000*%
%TD*%
%TA.AperFunction,SMDPad,CuDef*%
%ADD58R,1.600000X3.000000*%
%TD*%
%TA.AperFunction,SMDPad,CuDef*%
%ADD59R,0.503199X0.549999*%
%TD*%
%TA.AperFunction,SMDPad,CuDef*%
%ADD60R,1.770000X1.230000*%
%TD*%
%TA.AperFunction,SMDPad,CuDef*%
%ADD61R,1.500000X2.120000*%
%TD*%
%TA.AperFunction,SMDPad,CuDef*%
%ADD62R,0.965200X0.863600*%
%TD*%
%TA.AperFunction,SMDPad,CuDef*%
%ADD63R,1.770000X1.170000*%
%TD*%
%TA.AperFunction,SMDPad,CuDef*%
%ADD64R,1.117600X1.447800*%
%TD*%
%TA.AperFunction,ViaPad*%
%ADD65C,0.800000*%
%TD*%
%TA.AperFunction,ViaPad*%
%ADD66C,0.500000*%
%TD*%
%TA.AperFunction,ViaPad*%
%ADD67C,0.787400*%
%TD*%
%TA.AperFunction,Conductor*%
%ADD68C,0.250000*%
%TD*%
%TA.AperFunction,Conductor*%
%ADD69C,0.381000*%
%TD*%
%TA.AperFunction,Conductor*%
%ADD70C,2.540000*%
%TD*%
%TA.AperFunction,Conductor*%
%ADD71C,0.508000*%
%TD*%
%TA.AperFunction,Conductor*%
%ADD72C,0.241300*%
%TD*%
%TA.AperFunction,Conductor*%
%ADD73C,0.304800*%
%TD*%
%TA.AperFunction,Conductor*%
%ADD74C,1.016000*%
%TD*%
%TA.AperFunction,Conductor*%
%ADD75C,1.270000*%
%TD*%
%TA.AperFunction,Conductor*%
%ADD76C,0.762000*%
%TD*%
%TA.AperFunction,Conductor*%
%ADD77C,3.810000*%
%TD*%
G04 APERTURE END LIST*
D10*
%TO.P,R13,1*%
%TO.N,GND*%
X198600000Y-99865000D03*
%TO.P,R13,2*%
%TO.N,Net-(U3-DTC)*%
X200160000Y-99865000D03*
%TD*%
%TO.P,R1,1*%
%TO.N,Net-(P1-VBUS)*%
X227090602Y-96426000D03*
%TO.P,R1,2*%
%TO.N,+5V*%
X225530602Y-96426000D03*
%TD*%
D11*
%TO.P,C25,1*%
%TO.N,Net-(U3-BST_C)*%
X211661000Y-90240000D03*
%TO.P,C25,2*%
%TO.N,/DRV8301/SH_C*%
X213079000Y-90240000D03*
%TD*%
D12*
%TO.P,C17,1*%
%TO.N,Net-(U3-DVDD)*%
X213070000Y-103211000D03*
%TO.P,C17,2*%
%TO.N,GND*%
X213070000Y-104629000D03*
%TD*%
D13*
%TO.P,C15,1*%
%TO.N,Net-(U3-GVDD)*%
X206031339Y-103878661D03*
%TO.P,C15,2*%
%TO.N,GND*%
X205028661Y-104881339D03*
%TD*%
D11*
%TO.P,C33,1*%
%TO.N,+5V*%
X192881000Y-125520000D03*
%TO.P,C33,2*%
%TO.N,GND*%
X194299000Y-125520000D03*
%TD*%
D14*
%TO.P,R33,1*%
%TO.N,/DRV8301/GH_C*%
X208121000Y-85510000D03*
%TO.P,R33,2*%
%TO.N,Net-(Q5-G)*%
X208121000Y-83950000D03*
%TD*%
D11*
%TO.P,C64,1*%
%TO.N,VCC*%
X165791000Y-108860000D03*
%TO.P,C64,2*%
%TO.N,GND*%
X167209000Y-108860000D03*
%TD*%
D15*
%TO.P,C1,1*%
%TO.N,/MCU/SERVO*%
X185118000Y-115198000D03*
%TO.P,C1,2*%
%TO.N,GND*%
X186868000Y-115198000D03*
%TD*%
D16*
%TO.P,C27,1*%
%TO.N,SUPPLY*%
X202621000Y-89740000D03*
%TO.P,C27,2*%
%TO.N,GND*%
X199779000Y-89740000D03*
%TD*%
D17*
%TO.P,R6,1*%
%TO.N,Net-(P6-Pad3)*%
X181042400Y-115163300D03*
%TO.P,R6,2*%
%TO.N,/MCU/SERVO*%
X183099800Y-115163300D03*
%TD*%
D18*
%TO.P,R47,1*%
%TO.N,Net-(D7-A)*%
X202690000Y-147530000D03*
%TO.P,R47,2*%
%TO.N,/SHUTDOWN*%
X199702000Y-147530000D03*
%TD*%
D19*
%TO.P,U3,1,RT_CLK*%
%TO.N,Net-(U3-RT_CLK)*%
X201626000Y-100385000D03*
%TO.P,U3,2,COMP*%
%TO.N,Net-(U3-COMP)*%
X202126000Y-100385000D03*
%TO.P,U3,3,VSENSE*%
%TO.N,Net-(U3-VSENSE)*%
X202626000Y-100385000D03*
%TO.P,U3,4,PWRGD*%
%TO.N,unconnected-(U3-PWRGD-Pad4)*%
X203126000Y-100385000D03*
%TO.P,U3,5,~{OCTW}*%
%TO.N,unconnected-(U3-~{OCTW}-Pad5)*%
X203626000Y-100385000D03*
%TO.P,U3,6,~{FAULT}*%
%TO.N,/DRV8301/FAULT*%
X204126000Y-100385000D03*
%TO.P,U3,7,DTC*%
%TO.N,Net-(U3-DTC)*%
X204626000Y-100385000D03*
%TO.P,U3,8,~{SCS}*%
%TO.N,/DRV8301/CS*%
X205126000Y-100385000D03*
%TO.P,U3,9,SDI*%
%TO.N,/DRV8301/SDI*%
X205626000Y-100385000D03*
%TO.P,U3,10,SDO*%
%TO.N,/DRV8301/SDO*%
X206126000Y-100385000D03*
%TO.P,U3,11,SCLK*%
%TO.N,/DRV8301/SCLK*%
X206626000Y-100385000D03*
%TO.P,U3,12,DC_CAL*%
%TO.N,unconnected-(U3-DC_CAL-Pad12)*%
X207126000Y-100385000D03*
%TO.P,U3,13,GVDD*%
%TO.N,Net-(U3-GVDD)*%
X207626000Y-100385000D03*
%TO.P,U3,14,CP1*%
%TO.N,Net-(U3-CP1)*%
X208126000Y-100385000D03*
%TO.P,U3,15,CP2*%
%TO.N,Net-(U3-CP2)*%
X208626000Y-100385000D03*
%TO.P,U3,16,EN_GATE*%
%TO.N,/DRV8301/EN_GATE*%
X209126000Y-100385000D03*
%TO.P,U3,17,INH_A*%
%TO.N,/DRV8301/INH_A*%
X209626000Y-100385000D03*
%TO.P,U3,18,INL_A*%
%TO.N,/DRV8301/INL_A*%
X210126000Y-100385000D03*
%TO.P,U3,19,INH_B*%
%TO.N,/DRV8301/INH_B*%
X210626000Y-100385000D03*
%TO.P,U3,20,INL_B*%
%TO.N,/DRV8301/INL_B*%
X211126000Y-100385000D03*
%TO.P,U3,21,INH_C*%
%TO.N,/DRV8301/INH_C*%
X211626000Y-100385000D03*
%TO.P,U3,22,INL_C*%
%TO.N,/DRV8301/INL_C*%
X212126000Y-100385000D03*
%TO.P,U3,23,DVDD*%
%TO.N,Net-(U3-DVDD)*%
X212626000Y-100385000D03*
%TO.P,U3,24,REF*%
%TO.N,Net-(U3-AVDD)*%
X213126000Y-100385000D03*
%TO.P,U3,25,SO1*%
%TO.N,unconnected-(U3-SO1-Pad25)*%
X213626000Y-100385000D03*
%TO.P,U3,26,SO2*%
%TO.N,unconnected-(U3-SO2-Pad26)*%
X214126000Y-100385000D03*
%TO.P,U3,27,AVDD*%
%TO.N,Net-(U3-AVDD)*%
X214626000Y-100385000D03*
%TO.P,U3,28,AGND*%
%TO.N,GND*%
X215126000Y-100385000D03*
%TO.P,U3,29,PVDD1*%
%TO.N,SUPPLY*%
X215126000Y-92945000D03*
%TO.P,U3,30,SP2*%
%TO.N,GND*%
X214626000Y-92945000D03*
%TO.P,U3,31,SN2*%
X214126000Y-92945000D03*
%TO.P,U3,32,SP1*%
X213626000Y-92945000D03*
%TO.P,U3,33,SN1*%
X213126000Y-92945000D03*
%TO.P,U3,34,SL_C*%
X212626000Y-92945000D03*
%TO.P,U3,35,GL_C*%
%TO.N,/DRV8301/GL_C*%
X212126000Y-92945000D03*
%TO.P,U3,36,SH_C*%
%TO.N,/DRV8301/SH_C*%
X211626000Y-92945000D03*
%TO.P,U3,37,GH_C*%
%TO.N,/DRV8301/GH_C*%
X211126000Y-92945000D03*
%TO.P,U3,38,BST_C*%
%TO.N,Net-(U3-BST_C)*%
X210626000Y-92945000D03*
%TO.P,U3,39,SL_B*%
%TO.N,GND*%
X210126000Y-92945000D03*
%TO.P,U3,40,GL_B*%
%TO.N,/DRV8301/GL_B*%
X209626000Y-92945000D03*
%TO.P,U3,41,SH_B*%
%TO.N,/DRV8301/SH_B*%
X209126000Y-92945000D03*
%TO.P,U3,42,GH_B*%
%TO.N,/DRV8301/GH_B*%
X208626000Y-92945000D03*
%TO.P,U3,43,BST_B*%
%TO.N,Net-(U3-BST_B)*%
X208126000Y-92945000D03*
%TO.P,U3,44,SL_A*%
%TO.N,GND*%
X207626000Y-92945000D03*
%TO.P,U3,45,GL_A*%
%TO.N,/DRV8301/GL_A*%
X207126000Y-92945000D03*
%TO.P,U3,46,SH_A*%
%TO.N,/SH_A*%
X206626000Y-92945000D03*
%TO.P,U3,47,GH_A*%
%TO.N,/DRV8301/GH_A*%
X206126000Y-92945000D03*
%TO.P,U3,48,BST_A*%
%TO.N,Net-(U3-BST_A)*%
X205626000Y-92945000D03*
%TO.P,U3,49,VDD_SPI*%
%TO.N,VCC*%
X205126000Y-92945000D03*
%TO.P,U3,50,PH*%
%TO.N,Net-(D4-K)*%
X204626000Y-92945000D03*
%TO.P,U3,51,PH__1*%
X204126000Y-92945000D03*
%TO.P,U3,52,BST_BK*%
%TO.N,Net-(U3-BST_BK)*%
X203626000Y-92945000D03*
%TO.P,U3,53,PVDD2*%
%TO.N,SUPPLY*%
X203126000Y-92945000D03*
%TO.P,U3,54,PVDD2__1*%
X202626000Y-92945000D03*
%TO.P,U3,55,EN_BUCK*%
%TO.N,/EN_BUCK*%
X202126000Y-92945000D03*
%TO.P,U3,56,SS_TR*%
%TO.N,Net-(U3-SS_TR)*%
X201626000Y-92945000D03*
D20*
%TO.P,U3,57,GND*%
%TO.N,GND*%
X208376000Y-96665000D03*
%TD*%
D11*
%TO.P,C12,1*%
%TO.N,VCC*%
X197689000Y-128240000D03*
%TO.P,C12,2*%
%TO.N,GND*%
X196271000Y-128240000D03*
%TD*%
D21*
%TO.P,D9,1,K*%
%TO.N,Net-(D7-A)*%
X204476600Y-147533500D03*
%TO.P,D9,2,A*%
%TO.N,GND*%
X207778600Y-147533500D03*
%TD*%
D11*
%TO.P,C36,1*%
%TO.N,/MCU/ADC_TEMP*%
X206789000Y-136030000D03*
%TO.P,C36,2*%
%TO.N,GND*%
X205371000Y-136030000D03*
%TD*%
D22*
%TO.P,C47,1*%
%TO.N,SUPPLY*%
X205230000Y-63755000D03*
D23*
%TO.P,C47,2*%
%TO.N,GND*%
X205230000Y-58755000D03*
%TD*%
D21*
%TO.P,D8,1,K*%
%TO.N,Net-(D8-K)*%
X198966600Y-144848100D03*
%TO.P,D8,2,A*%
%TO.N,/SH_A*%
X202268600Y-144848100D03*
%TD*%
D24*
%TO.P,U1,1,VBAT*%
%TO.N,VCC*%
X199430519Y-128796181D03*
%TO.P,U1,2,PC13*%
%TO.N,/DRV8301/SENS_FILTERED*%
X199784072Y-129149734D03*
%TO.P,U1,3,PC14*%
%TO.N,unconnected-(U1-PC14-Pad3)*%
X200137625Y-129503287D03*
%TO.P,U1,4,PC15*%
%TO.N,unconnected-(U1-PC15-Pad4)*%
X200491179Y-129856841D03*
%TO.P,U1,5,PH0*%
%TO.N,Net-(U1-PH0)*%
X200844732Y-130210394D03*
%TO.P,U1,6,PH1*%
%TO.N,Net-(U1-PH1)*%
X201198286Y-130563948D03*
%TO.P,U1,7,NRST*%
%TO.N,/MCU/NRST*%
X201551839Y-130917501D03*
%TO.P,U1,8,PC0*%
%TO.N,/MCU/CURRENT_1*%
X201905392Y-131271054D03*
%TO.P,U1,9,PC1*%
%TO.N,/MCU/CURRENT_2*%
X202258946Y-131624608D03*
%TO.P,U1,10,PC2*%
%TO.N,/MCU/CURRENT_3*%
X202612499Y-131978161D03*
%TO.P,U1,11,PC3*%
%TO.N,/DRV8301/SENS_SUPPLY*%
X202966052Y-132331714D03*
%TO.P,U1,12,VSSA*%
%TO.N,GND*%
X203319606Y-132685268D03*
%TO.P,U1,13,VDDA*%
%TO.N,VCC*%
X203673159Y-133038821D03*
%TO.P,U1,14,PA0*%
%TO.N,/DRV8301/SENS_A*%
X204026713Y-133392375D03*
%TO.P,U1,15,PA1*%
%TO.N,/DRV8301/SENS_B*%
X204380266Y-133745928D03*
%TO.P,U1,16,PA2*%
%TO.N,/DRV8301/SENS_C*%
X204733819Y-134099481D03*
D25*
%TO.P,U1,17,PA3*%
%TO.N,/MCU/ADC_TEMP*%
X207456181Y-134099481D03*
%TO.P,U1,18,VSS*%
%TO.N,GND*%
X207809734Y-133745928D03*
%TO.P,U1,19,VDD*%
%TO.N,VCC*%
X208163287Y-133392375D03*
%TO.P,U1,20,PA4*%
%TO.N,/MCU/NRF_SWCLK*%
X208516841Y-133038821D03*
%TO.P,U1,21,PA5*%
%TO.N,/MCU/SCK_ADC_EXT*%
X208870394Y-132685268D03*
%TO.P,U1,22,PA6*%
%TO.N,/MCU/MISO_ADC_EXT2*%
X209223948Y-132331714D03*
%TO.P,U1,23,PA7*%
%TO.N,/MCU/TX_SCL_MOSI*%
X209577501Y-131978161D03*
%TO.P,U1,24,PC4*%
%TO.N,/MCU/TEMP_MOTOR*%
X209931054Y-131624608D03*
%TO.P,U1,25,PC5*%
%TO.N,/SHUTDOWN*%
X210284608Y-131271054D03*
%TO.P,U1,26,PB0*%
%TO.N,/MCU/LED_GREEN*%
X210638161Y-130917501D03*
%TO.P,U1,27,PB1*%
%TO.N,/MCU/LED_RED*%
X210991714Y-130563948D03*
%TO.P,U1,28,PB2*%
%TO.N,/BMI160/SDA*%
X211345268Y-130210394D03*
%TO.P,U1,29,PB10*%
%TO.N,/MCU/TX_SCL_MOSI*%
X211698821Y-129856841D03*
%TO.P,U1,30,PB11*%
%TO.N,/MCU/RX_SDA_NSS*%
X212052375Y-129503287D03*
%TO.P,U1,31,VCAP_1*%
%TO.N,Net-(U1-VCAP_1)*%
X212405928Y-129149734D03*
%TO.P,U1,32,VDD*%
%TO.N,VCC*%
X212759481Y-128796181D03*
D24*
%TO.P,U1,33,PB12*%
%TO.N,/MCU/NRF_SWDIO*%
X212759481Y-126073819D03*
%TO.P,U1,34,PB13*%
%TO.N,/DRV8301/INL_A*%
X212405928Y-125720266D03*
%TO.P,U1,35,PB14*%
%TO.N,/DRV8301/INL_B*%
X212052375Y-125366713D03*
%TO.P,U1,36,PB15*%
%TO.N,/DRV8301/INL_C*%
X211698821Y-125013159D03*
%TO.P,U1,37,PC6*%
%TO.N,/MCU/HALL_1*%
X211345268Y-124659606D03*
%TO.P,U1,38,PC7*%
%TO.N,/MCU/HALL_2*%
X210991714Y-124306052D03*
%TO.P,U1,39,PC8*%
%TO.N,/MCU/HALL_3*%
X210638161Y-123952499D03*
%TO.P,U1,40,PC9*%
%TO.N,/DRV8301/CS*%
X210284608Y-123598946D03*
%TO.P,U1,41,PA8*%
%TO.N,/DRV8301/INH_A*%
X209931054Y-123245392D03*
%TO.P,U1,42,PA9*%
%TO.N,/DRV8301/INH_B*%
X209577501Y-122891839D03*
%TO.P,U1,43,PA10*%
%TO.N,/DRV8301/INH_C*%
X209223948Y-122538286D03*
%TO.P,U1,44,PA11*%
%TO.N,/MCU/USB_DM*%
X208870394Y-122184732D03*
%TO.P,U1,45,PA12*%
%TO.N,/MCU/USB_DP*%
X208516841Y-121831179D03*
%TO.P,U1,46,PA13*%
%TO.N,/MCU/SWDIO*%
X208163287Y-121477625D03*
%TO.P,U1,47,VCAP_2*%
%TO.N,Net-(U1-VCAP_2)*%
X207809734Y-121124072D03*
%TO.P,U1,48,VDD*%
%TO.N,VCC*%
X207456181Y-120770519D03*
D25*
%TO.P,U1,49,PA14*%
%TO.N,/MCU/SWCLK*%
X204733819Y-120770519D03*
%TO.P,U1,50,PA15*%
%TO.N,/BMI160/SCL*%
X204380266Y-121124072D03*
%TO.P,U1,51,PC10*%
%TO.N,/DRV8301/SCLK*%
X204026713Y-121477625D03*
%TO.P,U1,52,PC11*%
%TO.N,/MCU/PC10_TX*%
X203673159Y-121831179D03*
%TO.P,U1,53,PC12*%
%TO.N,/MCU/PC11_RX*%
X203319606Y-122184732D03*
%TO.P,U1,54,PD2*%
%TO.N,/MCU/CURR_FILTER_ON*%
X202966052Y-122538286D03*
%TO.P,U1,55,PB3*%
%TO.N,/DRV8301/SDO*%
X202612499Y-122891839D03*
%TO.P,U1,56,PB4*%
%TO.N,/DRV8301/SDI*%
X202258946Y-123245392D03*
%TO.P,U1,57,PB5*%
%TO.N,/DRV8301/EN_GATE*%
X201905392Y-123598946D03*
%TO.P,U1,58,PB6*%
%TO.N,/MCU/SERVO*%
X201551839Y-123952499D03*
%TO.P,U1,59,PB7*%
%TO.N,/DRV8301/FAULT*%
X201198286Y-124306052D03*
%TO.P,U1,60,BOOT0*%
%TO.N,GND*%
X200844732Y-124659606D03*
%TO.P,U1,61,PB8*%
%TO.N,/CAN/RX*%
X200491179Y-125013159D03*
%TO.P,U1,62,PB9*%
%TO.N,/CAN/TX*%
X200137625Y-125366713D03*
%TO.P,U1,63,VSS*%
%TO.N,GND*%
X199784072Y-125720266D03*
%TO.P,U1,64,VDD*%
%TO.N,VCC*%
X199430519Y-126073819D03*
%TD*%
D26*
%TO.P,R32,1,1*%
%TO.N,Net-(P10-Pin_1)*%
X193655000Y-76711000D03*
%TO.P,R32,2,2*%
%TO.N,/DRV8301/SH_C*%
X193655000Y-71751000D03*
D27*
%TO.P,R32,3,3*%
%TO.N,Net-(U7-IN-)*%
X189520000Y-76711000D03*
%TO.P,R32,4,4*%
%TO.N,Net-(U7-IN+)*%
X189520000Y-71751000D03*
%TD*%
D28*
%TO.P,C22,1*%
%TO.N,Net-(U3-SS_TR)*%
X199725797Y-92267400D03*
%TO.P,C22,2*%
%TO.N,GND*%
X199725797Y-95072996D03*
%TD*%
D14*
%TO.P,R10,1*%
%TO.N,GND*%
X189630000Y-103805000D03*
%TO.P,R10,2*%
%TO.N,Net-(U3-VSENSE)*%
X189630000Y-105365000D03*
%TD*%
D29*
%TO.P,D10,1,K*%
%TO.N,/EN_BUCK*%
X196464200Y-148845000D03*
%TO.P,D10,2,A*%
%TO.N,GND*%
X196997600Y-148845000D03*
%TD*%
D11*
%TO.P,C56,1*%
%TO.N,Net-(D7-A)*%
X205351000Y-149930000D03*
%TO.P,C56,2*%
%TO.N,GND*%
X206769000Y-149930000D03*
%TD*%
D30*
%TO.P,,1*%
%TO.N,N/C*%
X154430000Y-143920000D03*
%TD*%
D31*
%TO.P,Q2,1,D*%
%TO.N,/SH_A*%
X173199001Y-60517499D03*
X170999000Y-60517499D03*
X168798999Y-60517499D03*
X173199001Y-69222501D03*
X170999000Y-69222501D03*
X168798999Y-69222501D03*
D32*
%TO.P,Q2,7,G*%
%TO.N,Net-(Q2-G)*%
X170999000Y-62767499D03*
D33*
%TO.P,Q2,8,S*%
%TO.N,GND*%
X172724000Y-64167499D03*
X171574000Y-64167499D03*
X170424000Y-64167499D03*
X169274000Y-64167499D03*
X172724000Y-66967499D03*
X171574000Y-66967499D03*
X170424000Y-66967499D03*
X169274000Y-66967499D03*
%TD*%
D34*
%TO.P,P4,1,1*%
%TO.N,GND*%
X236649902Y-121463300D03*
%TO.P,P4,2,2*%
%TO.N,/MCU/HALL_3*%
X236649902Y-123463301D03*
%TO.P,P4,3,3*%
%TO.N,/MCU/HALL_2*%
X236649902Y-125463302D03*
%TO.P,P4,4,4*%
%TO.N,/MCU/HALL_1*%
X236649902Y-127463300D03*
%TO.P,P4,5,5*%
%TO.N,/MCU/TEMP_MOTOR*%
X236649902Y-129463301D03*
%TO.P,P4,6,6*%
%TO.N,Net-(P4-Pad6)*%
X236649902Y-131463300D03*
D35*
%TO.P,P4,7*%
%TO.N,N/C*%
X230899901Y-141138302D03*
%TO.P,P4,8*%
X230899901Y-126438301D03*
%TO.P,P4,9*%
X230899901Y-111738300D03*
%TD*%
D36*
%TO.P,C55,1*%
%TO.N,/EN_BUCK*%
X195832000Y-147202800D03*
%TO.P,C55,2*%
%TO.N,GND*%
X197432200Y-147202800D03*
%TD*%
D10*
%TO.P,R12,1*%
%TO.N,Net-(C16-Pad2)*%
X191420000Y-103055000D03*
%TO.P,R12,2*%
%TO.N,Net-(U3-COMP)*%
X192980000Y-103055000D03*
%TD*%
D37*
%TO.P,U4,1,TXD*%
%TO.N,/CAN/TX*%
X190385000Y-126720000D03*
%TO.P,U4,2,GND*%
%TO.N,GND*%
X190385000Y-126070000D03*
%TO.P,U4,3,VCC*%
%TO.N,+5V*%
X190385000Y-125420000D03*
%TO.P,U4,4,RXD*%
%TO.N,/CAN/RX*%
X190385000Y-124770000D03*
%TO.P,U4,5,VIO*%
%TO.N,VCC*%
X187285000Y-124770000D03*
%TO.P,U4,6,CANL*%
%TO.N,/CAN/CANL*%
X187285000Y-125420000D03*
%TO.P,U4,7,CANH*%
%TO.N,/CAN/CANH*%
X187285000Y-126070000D03*
%TO.P,U4,8,S*%
%TO.N,GND*%
X187285000Y-126720000D03*
D38*
%TO.P,U4,9,GND*%
X188835000Y-125745000D03*
%TD*%
D39*
%TO.P,C2,1*%
%TO.N,GND*%
X185463400Y-132003400D03*
%TO.P,C2,2*%
%TO.N,Net-(U1-PH0)*%
X186352400Y-132003400D03*
%TD*%
D40*
%TO.P,Y1,1,1*%
%TO.N,Net-(U1-PH0)*%
X188650000Y-132095000D03*
%TO.P,Y1,2,2*%
%TO.N,GND*%
X188650000Y-136095000D03*
%TO.P,Y1,3,3*%
%TO.N,Net-(U1-PH1)*%
X191050000Y-136095000D03*
%TO.P,Y1,4,4*%
%TO.N,GND*%
X191050000Y-132095000D03*
%TD*%
D30*
%TO.P,,1*%
%TO.N,N/C*%
X224920000Y-75410000D03*
%TD*%
D10*
%TO.P,R46,1*%
%TO.N,Net-(R45-Pad2)*%
X200760000Y-139215000D03*
%TO.P,R46,2*%
%TO.N,/CONN_SW*%
X202320000Y-139215000D03*
%TD*%
%TO.P,R41,1*%
%TO.N,/EN_BUCK*%
X195670000Y-144875000D03*
%TO.P,R41,2*%
%TO.N,Net-(D8-K)*%
X197230000Y-144875000D03*
%TD*%
D41*
%TO.P,R44,1*%
%TO.N,Net-(P4-Pad6)*%
X224445000Y-125505000D03*
%TO.P,R44,2*%
%TO.N,/MCU/HALL_3*%
X226401000Y-125505000D03*
%TD*%
D42*
%TO.P,U9,1,SDO*%
%TO.N,GND*%
X204517500Y-117665000D03*
%TO.P,U9,2,ASDx*%
%TO.N,unconnected-(U9-ASDx-Pad2)*%
X204517500Y-117165000D03*
%TO.P,U9,3,ASCx*%
%TO.N,unconnected-(U9-ASCx-Pad3)*%
X204517500Y-116665000D03*
%TO.P,U9,4,INT1*%
%TO.N,unconnected-(U9-INT1-Pad4)*%
X204517500Y-116165000D03*
D43*
%TO.P,U9,5,VDDIO*%
%TO.N,VCC*%
X203755000Y-115902500D03*
%TO.P,U9,6,GNDIO*%
%TO.N,GND*%
X203255000Y-115902500D03*
%TO.P,U9,7,GND*%
X202755000Y-115902500D03*
D42*
%TO.P,U9,8,VDD*%
%TO.N,VCC*%
X201992500Y-116165000D03*
%TO.P,U9,9,INT2*%
%TO.N,unconnected-(U9-INT2-Pad9)*%
X201992500Y-116665000D03*
%TO.P,U9,10,OCSB*%
%TO.N,unconnected-(U9-OCSB-Pad10)*%
X201992500Y-117165000D03*
%TO.P,U9,11,OSDO*%
%TO.N,unconnected-(U9-OSDO-Pad11)*%
X201992500Y-117665000D03*
D43*
%TO.P,U9,12,CSB*%
%TO.N,VCC*%
X202755000Y-117927500D03*
%TO.P,U9,13,SCx*%
%TO.N,/BMI160/SCL*%
X203255000Y-117927500D03*
%TO.P,U9,14,SDx*%
%TO.N,/BMI160/SDA*%
X203755000Y-117927500D03*
%TD*%
D44*
%TO.P,C9,1*%
%TO.N,VCC*%
X209908661Y-135048661D03*
%TO.P,C9,2*%
%TO.N,GND*%
X210911339Y-136051339D03*
%TD*%
D45*
%TO.P,U11,1*%
%TO.N,VCC*%
X221715000Y-126205000D03*
%TO.P,U11,2*%
%TO.N,Net-(P4-Pad6)*%
X221715000Y-129205000D03*
%TO.P,U11,3*%
%TO.N,+5V*%
X221715000Y-130705000D03*
D46*
%TO.P,U11,S1,SHIELD*%
%TO.N,GND*%
X220930000Y-124805000D03*
%TO.P,U11,S2,SHIELD__1*%
X219000000Y-124805000D03*
%TO.P,U11,S3,SHIELD__2*%
X219000000Y-132105000D03*
%TO.P,U11,S4,SHIELD__3*%
X220930000Y-132105000D03*
%TD*%
D14*
%TO.P,R11,1*%
%TO.N,Net-(U3-VSENSE)*%
X188060000Y-105335000D03*
%TO.P,R11,2*%
%TO.N,+5V*%
X188060000Y-103775000D03*
%TD*%
D11*
%TO.P,C34,1*%
%TO.N,VCC*%
X185689000Y-124420000D03*
%TO.P,C34,2*%
%TO.N,GND*%
X184271000Y-124420000D03*
%TD*%
D14*
%TO.P,R31,1*%
%TO.N,/DRV8301/GL_B*%
X206587000Y-85510000D03*
%TO.P,R31,2*%
%TO.N,Net-(Q4-G)*%
X206587000Y-83950000D03*
%TD*%
D34*
%TO.P,P1,1,VBUS*%
%TO.N,Net-(P1-VBUS)*%
X232050700Y-95680501D03*
%TO.P,P1,2,D-*%
%TO.N,Net-(P1-D-)*%
X232050700Y-93680500D03*
%TO.P,P1,3,D+*%
%TO.N,Net-(P1-D+)*%
X232050700Y-91680499D03*
%TO.P,P1,4,ID*%
%TO.N,unconnected-(P1-ID-Pad4)*%
X232050700Y-89680501D03*
%TO.P,P1,5,GND*%
%TO.N,GND*%
X232050700Y-87680500D03*
%TO.P,P1,6,Shield*%
X232050700Y-85680501D03*
D35*
%TO.P,P1,7*%
%TO.N,N/C*%
X237800701Y-76005499D03*
%TO.P,P1,8*%
X237800701Y-90705500D03*
%TO.P,P1,9*%
X237800701Y-105405501D03*
%TD*%
D47*
%TO.P,U8,1,GND*%
%TO.N,GND*%
X167835000Y-112285000D03*
%TO.P,U8,2,VOUT*%
%TO.N,VCC*%
X165295000Y-112285000D03*
%TO.P,U8,3,VIN*%
%TO.N,+5V*%
X162755000Y-112285000D03*
D48*
%TO.P,U8,4,VOUT__1*%
%TO.N,VCC*%
X165295000Y-122735000D03*
%TD*%
D31*
%TO.P,Q6,1,D*%
%TO.N,/DRV8301/SH_C*%
X193249001Y-60336099D03*
X191049000Y-60336099D03*
X188848999Y-60336099D03*
X193249001Y-69041101D03*
X191049000Y-69041101D03*
X188848999Y-69041101D03*
D32*
%TO.P,Q6,7,G*%
%TO.N,Net-(Q6-G)*%
X191049000Y-62586099D03*
D33*
%TO.P,Q6,8,S*%
%TO.N,GND*%
X192774000Y-63986099D03*
X191624000Y-63986099D03*
X190474000Y-63986099D03*
X189324000Y-63986099D03*
X192774000Y-66786099D03*
X191624000Y-66786099D03*
X190474000Y-66786099D03*
X189324000Y-66786099D03*
%TD*%
D11*
%TO.P,C51,1*%
%TO.N,VCC*%
X202191000Y-114440000D03*
%TO.P,C51,2*%
%TO.N,GND*%
X203609000Y-114440000D03*
%TD*%
D14*
%TO.P,R39,1*%
%TO.N,/MCU/TEMP_MOTOR*%
X228000000Y-130885000D03*
%TO.P,R39,2*%
%TO.N,VCC*%
X228000000Y-129325000D03*
%TD*%
%TO.P,R25,1*%
%TO.N,/DRV8301/GH_A*%
X200855000Y-85530000D03*
%TO.P,R25,2*%
%TO.N,Net-(Q1-G)*%
X200855000Y-83970000D03*
%TD*%
%TO.P,R34,1*%
%TO.N,/DRV8301/GL_C*%
X209585000Y-85490000D03*
%TO.P,R34,2*%
%TO.N,Net-(Q6-G)*%
X209585000Y-83930000D03*
%TD*%
D49*
%TO.P,R3,1*%
%TO.N,Net-(P1-D+)*%
X227780602Y-90661000D03*
%TO.P,R3,2*%
%TO.N,/MCU/USB_DP*%
X224848602Y-90661000D03*
%TD*%
D50*
%TO.P,P2,1,1*%
%TO.N,GND*%
X174695000Y-122745000D03*
%TO.P,P2,2,2*%
%TO.N,/CAN/CANL*%
X174695000Y-124745000D03*
%TO.P,P2,3,3*%
%TO.N,/CAN/CANH*%
X174695000Y-126745000D03*
%TO.P,P2,4,4*%
%TO.N,+5V*%
X174695000Y-128745000D03*
D51*
%TO.P,P2,SH1,SHIELD*%
%TO.N,GND*%
X176945000Y-120345000D03*
%TO.P,P2,SH2,SHIELD__1*%
X176945000Y-131145000D03*
%TD*%
D41*
%TO.P,R43,1*%
%TO.N,Net-(P4-Pad6)*%
X224395000Y-127545000D03*
%TO.P,R43,2*%
%TO.N,/MCU/HALL_2*%
X226351000Y-127545000D03*
%TD*%
D36*
%TO.P,C7,1*%
%TO.N,/MCU/NRST*%
X196382200Y-132472800D03*
%TO.P,C7,2*%
%TO.N,GND*%
X194782000Y-132472800D03*
%TD*%
D11*
%TO.P,C10,1*%
%TO.N,VCC*%
X214581000Y-129880000D03*
%TO.P,C10,2*%
%TO.N,GND*%
X215999000Y-129880000D03*
%TD*%
D31*
%TO.P,Q4,1,D*%
%TO.N,/DRV8301/SH_B*%
X183449001Y-60413699D03*
X181249000Y-60413699D03*
X179048999Y-60413699D03*
X183449001Y-69118701D03*
X181249000Y-69118701D03*
X179048999Y-69118701D03*
D32*
%TO.P,Q4,7,G*%
%TO.N,Net-(Q4-G)*%
X181249000Y-62663699D03*
D33*
%TO.P,Q4,8,S*%
%TO.N,GND*%
X182974000Y-64063699D03*
X181824000Y-64063699D03*
X180674000Y-64063699D03*
X179524000Y-64063699D03*
X182974000Y-66863699D03*
X181824000Y-66863699D03*
X180674000Y-66863699D03*
X179524000Y-66863699D03*
%TD*%
D52*
%TO.P,P7,1,1*%
%TO.N,/MCU/NRST*%
X193320000Y-118040000D03*
%TO.P,P7,2,2*%
%TO.N,/MCU/SWDIO*%
X193320000Y-116040001D03*
%TO.P,P7,3,3*%
%TO.N,GND*%
X193320000Y-114040000D03*
%TO.P,P7,4,4*%
%TO.N,/MCU/SWCLK*%
X193320000Y-112039999D03*
%TO.P,P7,5,5*%
%TO.N,VCC*%
X193320000Y-110040001D03*
D53*
%TO.P,P7,6*%
%TO.N,N/C*%
X195526500Y-120440000D03*
%TO.P,P7,7*%
X195526500Y-107640000D03*
%TD*%
D13*
%TO.P,C14,1*%
%TO.N,Net-(U3-GVDD)*%
X207091339Y-104948661D03*
%TO.P,C14,2*%
%TO.N,GND*%
X206088661Y-105951339D03*
%TD*%
D54*
%TO.P,R38,1*%
%TO.N,/BMI160/SDA*%
X213943381Y-133387381D03*
%TO.P,R38,2*%
%TO.N,VCC*%
X216016619Y-135460619D03*
%TD*%
D11*
%TO.P,C4,1*%
%TO.N,GND*%
X207511000Y-116910000D03*
%TO.P,C4,2*%
%TO.N,Net-(U1-VCAP_2)*%
X208929000Y-116910000D03*
%TD*%
D30*
%TO.P,,1*%
%TO.N,N/C*%
X185844000Y-42600000D03*
%TD*%
D39*
%TO.P,C8,1*%
%TO.N,GND*%
X192548600Y-138137400D03*
%TO.P,C8,2*%
%TO.N,Net-(U1-PH1)*%
X191659600Y-138137400D03*
%TD*%
D41*
%TO.P,R42,1*%
%TO.N,Net-(P4-Pad6)*%
X224455000Y-129595000D03*
%TO.P,R42,2*%
%TO.N,/MCU/HALL_1*%
X226411000Y-129595000D03*
%TD*%
D11*
%TO.P,C23,1*%
%TO.N,Net-(U3-BST_A)*%
X204831000Y-90770000D03*
%TO.P,C23,2*%
%TO.N,/SH_A*%
X206249000Y-90770000D03*
%TD*%
%TO.P,C50,1*%
%TO.N,VCC*%
X202161000Y-112680000D03*
%TO.P,C50,2*%
%TO.N,GND*%
X203579000Y-112680000D03*
%TD*%
D52*
%TO.P,P6,1,1*%
%TO.N,GND*%
X174713800Y-111105399D03*
%TO.P,P6,2,2*%
%TO.N,+5V*%
X174713800Y-113105400D03*
%TO.P,P6,3,3*%
%TO.N,Net-(P6-Pad3)*%
X174713800Y-115105401D03*
D53*
%TO.P,P6,4*%
%TO.N,N/C*%
X176963801Y-108705401D03*
%TO.P,P6,5*%
X176963801Y-117505399D03*
%TD*%
D55*
%TO.P,C21,1*%
%TO.N,VCC*%
X165203376Y-105666800D03*
%TO.P,C21,2*%
%TO.N,GND*%
X167719024Y-105666800D03*
%TD*%
D56*
%TO.P,C26,1*%
%TO.N,SUPPLY*%
X217180000Y-92939000D03*
%TO.P,C26,2*%
%TO.N,GND*%
X217180000Y-95781000D03*
%TD*%
D10*
%TO.P,R40,1*%
%TO.N,/EN_BUCK*%
X196010000Y-141465000D03*
%TO.P,R40,2*%
%TO.N,Net-(D7-K)*%
X197570000Y-141465000D03*
%TD*%
D14*
%TO.P,R26,1*%
%TO.N,/DRV8301/GL_A*%
X203499000Y-85510000D03*
%TO.P,R26,2*%
%TO.N,Net-(Q2-G)*%
X203499000Y-83950000D03*
%TD*%
D57*
%TO.P,P5,1,1*%
%TO.N,+5V*%
X226155000Y-141215000D03*
%TO.P,P5,2,2*%
%TO.N,VCC*%
X224155000Y-141215000D03*
%TO.P,P5,3,3*%
%TO.N,GND*%
X222155000Y-141215000D03*
%TO.P,P5,4,4*%
%TO.N,/MCU/SCK_ADC_EXT*%
X220155000Y-141215000D03*
%TO.P,P5,5,5*%
%TO.N,/MCU/RX_SDA_NSS*%
X218155000Y-141215000D03*
%TO.P,P5,6,6*%
%TO.N,/MCU/TX_SCL_MOSI*%
X216155000Y-141215000D03*
%TO.P,P5,7,7*%
%TO.N,/MCU/MISO_ADC_EXT2*%
X214155000Y-141215000D03*
%TO.P,P5,8,8*%
%TO.N,/CONN_SW*%
X212155000Y-141215000D03*
D58*
%TO.P,P5,S1*%
%TO.N,N/C*%
X228555000Y-143465000D03*
%TO.P,P5,S2*%
X209755000Y-143465000D03*
%TD*%
D36*
%TO.P,C18,1*%
%TO.N,GND*%
X191442000Y-105052800D03*
%TO.P,C18,2*%
%TO.N,Net-(U3-COMP)*%
X193042200Y-105052800D03*
%TD*%
D59*
%TO.P,C19,1*%
%TO.N,Net-(U3-CP2)*%
X208163398Y-108473599D03*
%TO.P,C19,2*%
%TO.N,Net-(U3-CP1)*%
X207210200Y-108473599D03*
%TD*%
D11*
%TO.P,C3,1*%
%TO.N,GND*%
X207501000Y-118410000D03*
%TO.P,C3,2*%
%TO.N,Net-(U1-VCAP_1)*%
X208919000Y-118410000D03*
%TD*%
D10*
%TO.P,R28,1*%
%TO.N,/MCU/ADC_TEMP*%
X206870000Y-137625000D03*
%TO.P,R28,2*%
%TO.N,GND*%
X205310000Y-137625000D03*
%TD*%
D12*
%TO.P,C11,1*%
%TO.N,VCC*%
X205930000Y-118969000D03*
%TO.P,C11,2*%
%TO.N,GND*%
X205930000Y-117551000D03*
%TD*%
D11*
%TO.P,C5,1*%
%TO.N,VCC*%
X202139000Y-137730000D03*
%TO.P,C5,2*%
%TO.N,GND*%
X200721000Y-137730000D03*
%TD*%
D10*
%TO.P,R27,1*%
%TO.N,VCC*%
X205290000Y-139205000D03*
%TO.P,R27,2*%
%TO.N,/MCU/ADC_TEMP*%
X206850000Y-139205000D03*
%TD*%
D60*
%TO.P,R5,1*%
%TO.N,/BMI160/SCL*%
X205646000Y-113336000D03*
%TO.P,R5,2*%
%TO.N,VCC*%
X205646000Y-110404000D03*
%TD*%
D11*
%TO.P,C6,1*%
%TO.N,VCC*%
X202069000Y-135700000D03*
%TO.P,C6,2*%
%TO.N,GND*%
X200651000Y-135700000D03*
%TD*%
D26*
%TO.P,R29,1,1*%
%TO.N,Net-(P9-Pin_1)*%
X180825000Y-76721000D03*
%TO.P,R29,2,2*%
%TO.N,/DRV8301/SH_B*%
X180825000Y-71761000D03*
D27*
%TO.P,R29,3,3*%
%TO.N,Net-(U6-IN-)*%
X176690000Y-76721000D03*
%TO.P,R29,4,4*%
%TO.N,Net-(U6-IN+)*%
X176690000Y-71761000D03*
%TD*%
D61*
%TO.P,D5,1,K*%
%TO.N,+5V*%
X218090000Y-104650000D03*
%TO.P,D5,2,A*%
%TO.N,GND*%
X218090000Y-100420000D03*
%TD*%
D62*
%TO.P,C58,1*%
%TO.N,/MCU/TEMP_MOTOR*%
X227958400Y-133217800D03*
%TO.P,C58,2*%
%TO.N,GND*%
X227958400Y-134818000D03*
%TD*%
D10*
%TO.P,R45,1*%
%TO.N,Net-(D7-K)*%
X197600000Y-139255000D03*
%TO.P,R45,2*%
%TO.N,Net-(R45-Pad2)*%
X199160000Y-139255000D03*
%TD*%
D30*
%TO.P,,1*%
%TO.N,N/C*%
X170376000Y-42600000D03*
%TD*%
D21*
%TO.P,D7,1,K*%
%TO.N,Net-(D7-K)*%
X199266600Y-141452700D03*
%TO.P,D7,2,A*%
%TO.N,Net-(D7-A)*%
X202568600Y-141452700D03*
%TD*%
D11*
%TO.P,C24,1*%
%TO.N,Net-(U3-BST_B)*%
X208651000Y-90260000D03*
%TO.P,C24,2*%
%TO.N,/DRV8301/SH_B*%
X210069000Y-90260000D03*
%TD*%
D22*
%TO.P,C46,1*%
%TO.N,SUPPLY*%
X205190000Y-49345000D03*
D23*
%TO.P,C46,2*%
%TO.N,GND*%
X205190000Y-44345000D03*
%TD*%
D10*
%TO.P,R14,1*%
%TO.N,GND*%
X191370000Y-101355000D03*
%TO.P,R14,2*%
%TO.N,Net-(U3-RT_CLK)*%
X192930000Y-101355000D03*
%TD*%
D26*
%TO.P,R24,1,1*%
%TO.N,Net-(P8-Pin_1)*%
X167075000Y-76811000D03*
%TO.P,R24,2,2*%
%TO.N,/SH_A*%
X167075000Y-71851000D03*
D27*
%TO.P,R24,3,3*%
%TO.N,Net-(U5-IN-)*%
X162940000Y-76811000D03*
%TO.P,R24,4,4*%
%TO.N,Net-(U5-IN+)*%
X162940000Y-71851000D03*
%TD*%
D63*
%TO.P,R23,1*%
%TO.N,/CAN/CANH*%
X181620000Y-127400000D03*
%TO.P,R23,2*%
%TO.N,/CAN/CANL*%
X181620000Y-124412000D03*
%TD*%
D11*
%TO.P,C13,1*%
%TO.N,+5V*%
X161421000Y-105690000D03*
%TO.P,C13,2*%
%TO.N,GND*%
X162839000Y-105690000D03*
%TD*%
D14*
%TO.P,R30,1*%
%TO.N,/DRV8301/GH_B*%
X205053000Y-85490000D03*
%TO.P,R30,2*%
%TO.N,Net-(Q3-G)*%
X205053000Y-83930000D03*
%TD*%
D49*
%TO.P,R2,1*%
%TO.N,Net-(P1-D-)*%
X227780602Y-93731000D03*
%TO.P,R2,2*%
%TO.N,/MCU/USB_DM*%
X224848602Y-93731000D03*
%TD*%
D12*
%TO.P,C20,1*%
%TO.N,Net-(U3-AVDD)*%
X214590000Y-103191000D03*
%TO.P,C20,2*%
%TO.N,GND*%
X214590000Y-104609000D03*
%TD*%
D64*
%TO.P,C16,1*%
%TO.N,GND*%
X187349400Y-101754100D03*
%TO.P,C16,2*%
%TO.N,Net-(C16-Pad2)*%
X189152800Y-101754100D03*
%TD*%
D65*
%TO.N,/MCU/SERVO*%
X200303416Y-122386584D03*
X199465394Y-123597758D03*
%TO.N,GND*%
X207250000Y-94430000D03*
X157008333Y-53720000D03*
X159820000Y-57620000D03*
X190240697Y-100748318D03*
D66*
X168490000Y-62470000D03*
X199170000Y-138140000D03*
X204900000Y-107240000D03*
D65*
X158510000Y-57620000D03*
X204744551Y-114945449D03*
D66*
X215050000Y-85460000D03*
D65*
X162401665Y-53720000D03*
X163750000Y-53720000D03*
D66*
X162850000Y-107810000D03*
D65*
X161130000Y-57620000D03*
X206000000Y-127050000D03*
X158510000Y-51570000D03*
X159609999Y-56100000D03*
D66*
X184220000Y-67340000D03*
D65*
X162867142Y-49870000D03*
X162496665Y-56100000D03*
D66*
X192590000Y-139460000D03*
D65*
X164050000Y-49870000D03*
X162665000Y-51570000D03*
X229380000Y-135630000D03*
D66*
X173960000Y-76350000D03*
D65*
X155360000Y-55120000D03*
D66*
X180800000Y-111210000D03*
X194870000Y-128270000D03*
X185140000Y-128450000D03*
X173060000Y-109350000D03*
D65*
X164050000Y-51570000D03*
X209000000Y-149980000D03*
X155280000Y-56100000D03*
X203250000Y-116880000D03*
D66*
X184620000Y-135594500D03*
D65*
X156723333Y-56100000D03*
D66*
X186230000Y-126940000D03*
X173580000Y-120430000D03*
D65*
X156952857Y-49870000D03*
X155740000Y-51570000D03*
X155660000Y-53720000D03*
X217360000Y-130950000D03*
D66*
X191230000Y-133940000D03*
D65*
X221150000Y-137650000D03*
X159650000Y-55120000D03*
X210126678Y-91420000D03*
X198413500Y-126841459D03*
D66*
X217510000Y-97490000D03*
D65*
X155890000Y-57620000D03*
D66*
X176940000Y-132970000D03*
D65*
X162510000Y-55120000D03*
X161053332Y-56100000D03*
X235620000Y-147330000D03*
X157125000Y-51570000D03*
X166630000Y-102710000D03*
D66*
X213770000Y-96250000D03*
D65*
X158166666Y-56100000D03*
D66*
X188690000Y-115620000D03*
D65*
X161053332Y-53720000D03*
D66*
X201530000Y-91360000D03*
X214880000Y-106130000D03*
D65*
X158356666Y-53720000D03*
D66*
X195700000Y-125280000D03*
X193220000Y-133460000D03*
D65*
X199719491Y-98800525D03*
X163940000Y-56100000D03*
D66*
X186410000Y-135110000D03*
X233640000Y-121660000D03*
D65*
X163750000Y-57620000D03*
X160501428Y-49870000D03*
X159704999Y-53720000D03*
D66*
X183970000Y-143720000D03*
D65*
X163940000Y-55120000D03*
X158220000Y-55120000D03*
D66*
X160650000Y-76330000D03*
D65*
X157200000Y-57620000D03*
X161280000Y-51570000D03*
X161080000Y-55120000D03*
X158135714Y-49870000D03*
X221950000Y-124820000D03*
X215850000Y-91270000D03*
D66*
X203270000Y-137128100D03*
X200310000Y-97070000D03*
X188940000Y-108870000D03*
D65*
X159318571Y-49870000D03*
D66*
X169790000Y-108850000D03*
D65*
X212955220Y-91399999D03*
D66*
X189840000Y-117195500D03*
D65*
X159895000Y-51570000D03*
D66*
X216720000Y-98610000D03*
D65*
X229170000Y-85590000D03*
X197420000Y-150390000D03*
D66*
X195480000Y-67170000D03*
D65*
X161684285Y-49870000D03*
X155770000Y-49870000D03*
D66*
X185810000Y-123250000D03*
X187070000Y-143970000D03*
X211790000Y-136920000D03*
D65*
X208250000Y-136030000D03*
D66*
X184540000Y-121100000D03*
D65*
X162440000Y-57620000D03*
D66*
X187650000Y-78300000D03*
X173050000Y-106570000D03*
X188110000Y-123220000D03*
D65*
X156790000Y-55120000D03*
%TO.N,Net-(U1-VCAP_1)*%
X207350000Y-119590000D03*
X211522543Y-128286529D03*
D66*
%TO.N,VCC*%
X206040000Y-121460000D03*
X189650000Y-109780000D03*
X217250000Y-136610000D03*
X201850000Y-111400000D03*
X214560000Y-131614500D03*
X216031233Y-131368767D03*
X207190000Y-110510000D03*
X229640000Y-129730000D03*
X198755500Y-111080000D03*
X209680000Y-136470000D03*
X184462397Y-137434617D03*
D65*
X179950000Y-99985588D03*
D66*
X223450000Y-123650000D03*
X182430000Y-117970000D03*
X162080000Y-74610000D03*
X224070000Y-137690000D03*
X184670000Y-126788006D03*
X201483812Y-96074760D03*
X187050000Y-123570000D03*
D65*
%TO.N,/MCU/NRST*%
X196330000Y-134140000D03*
X192140000Y-119690000D03*
D66*
%TO.N,+5V*%
X191450000Y-126145500D03*
X223220000Y-130870000D03*
D65*
X222280000Y-131990000D03*
D66*
X170620000Y-107240000D03*
X180670000Y-113270000D03*
X213400000Y-84900000D03*
X217880000Y-106990000D03*
D65*
X222790000Y-133670000D03*
D66*
X185190000Y-105860000D03*
X170380000Y-114260000D03*
X163420000Y-115670000D03*
D65*
%TO.N,/SH_A*%
X167640000Y-65450000D03*
X166480000Y-66370000D03*
D66*
X172790000Y-78710000D03*
D65*
X207018100Y-89763333D03*
X166540000Y-65360000D03*
X196560000Y-143170000D03*
X166610000Y-64370000D03*
%TO.N,/DRV8301/SH_B*%
X177610000Y-65500000D03*
X208870000Y-88764992D03*
X176400000Y-64130000D03*
D66*
X182070000Y-103250000D03*
D65*
X177610000Y-63430000D03*
X177630000Y-66410000D03*
X177510000Y-64510000D03*
D66*
X185400000Y-71100000D03*
X205632376Y-88882376D03*
D65*
X176400000Y-66160000D03*
D66*
X200250000Y-79380000D03*
D65*
X176470000Y-65170000D03*
D66*
X185260000Y-102580000D03*
D67*
%TO.N,/DRV8301/SH_C*%
X197700000Y-96690000D03*
D65*
X186180000Y-64450000D03*
X212090000Y-88940000D03*
X184230000Y-104277500D03*
X187440000Y-64450000D03*
X186330000Y-66440000D03*
X187390000Y-63110000D03*
X186290000Y-63410000D03*
X186180000Y-65400000D03*
X187370000Y-65830000D03*
%TO.N,SUPPLY*%
X160851428Y-61330000D03*
X160000000Y-66580000D03*
X156120000Y-61330000D03*
X162846665Y-67560000D03*
X156240000Y-69080000D03*
X156010000Y-65180000D03*
X164100000Y-65180000D03*
X156090000Y-63030000D03*
X157073333Y-67560000D03*
X155710000Y-66580000D03*
D66*
X211460000Y-87200000D03*
D65*
X163015000Y-63030000D03*
X162860000Y-66580000D03*
X157550000Y-69080000D03*
X161403332Y-67560000D03*
X157475000Y-63030000D03*
X161630000Y-63030000D03*
X163217142Y-61330000D03*
X159668571Y-61330000D03*
X157358333Y-65180000D03*
X162751665Y-65180000D03*
X164100000Y-69080000D03*
X158516666Y-67560000D03*
X158706666Y-65180000D03*
X158570000Y-66580000D03*
X161480000Y-69080000D03*
X160170000Y-69080000D03*
X162790000Y-69080000D03*
X201300000Y-87000000D03*
X164400000Y-63030000D03*
X157140000Y-66580000D03*
X158860000Y-63030000D03*
X159959999Y-67560000D03*
X160054999Y-65180000D03*
X164290000Y-67560000D03*
X155630000Y-67560000D03*
X162034285Y-61330000D03*
X160245000Y-63030000D03*
X161430000Y-66580000D03*
X157302857Y-61330000D03*
X164290000Y-66580000D03*
X161403332Y-65180000D03*
X158860000Y-69080000D03*
X164400000Y-61330000D03*
X158485714Y-61330000D03*
%TO.N,Net-(U3-BST_BK)*%
X202304079Y-94669579D03*
%TO.N,Net-(D4-K)*%
X202964902Y-87790000D03*
%TO.N,/MCU/CURRENT_1*%
X198400000Y-132429349D03*
%TO.N,/MCU/CURRENT_2*%
X199184559Y-133153849D03*
%TO.N,/MCU/CURRENT_3*%
X198331726Y-133878349D03*
%TO.N,/DRV8301/SENS_A*%
X203616650Y-135216650D03*
%TO.N,/EN_BUCK*%
X204060000Y-98140000D03*
X194470000Y-148920000D03*
X213267230Y-98672770D03*
X206226500Y-98882000D03*
%TO.N,/DRV8301/SENS_B*%
X205339351Y-132469351D03*
%TO.N,/DRV8301/SENS_C*%
X206180000Y-131720000D03*
%TO.N,/MCU/LED_RED*%
X212472157Y-133141041D03*
%TO.N,/MCU/LED_GREEN*%
X210067812Y-129544012D03*
%TO.N,/MCU/HALL_3*%
X212046298Y-123379311D03*
X214833023Y-126333023D03*
%TO.N,Net-(P4-Pad6)*%
X225360000Y-131100000D03*
X235540000Y-132940000D03*
%TO.N,/MCU/RX_SDA_NSS*%
X218120000Y-135590000D03*
X219770000Y-136240000D03*
%TO.N,/MCU/SWDIO*%
X198605500Y-115990000D03*
X204600000Y-125160000D03*
%TO.N,/MCU/SWCLK*%
X197780000Y-112390000D03*
X201965500Y-127274500D03*
%TO.N,Net-(Q1-G)*%
X174620000Y-67540000D03*
X183120000Y-89840000D03*
X200319500Y-82490000D03*
%TO.N,Net-(Q2-G)*%
X201450000Y-77280000D03*
X203940000Y-68520000D03*
%TO.N,Net-(Q3-G)*%
X201040000Y-74090000D03*
%TO.N,Net-(Q4-G)*%
X207170000Y-80030000D03*
X209640000Y-77860000D03*
%TO.N,Net-(Q5-G)*%
X201872032Y-70433999D03*
D66*
%TO.N,/DRV8301/SENS_SUPPLY*%
X181600000Y-140250000D03*
D65*
%TO.N,/MCU/USB_DM*%
X208063695Y-123576305D03*
X224080000Y-95850000D03*
%TO.N,/MCU/USB_DP*%
X223194500Y-97858912D03*
X206672796Y-122821802D03*
%TO.N,/BMI160/SCL*%
X202520000Y-119150000D03*
X205910000Y-114700000D03*
%TO.N,Net-(U3-DTC)*%
X200320000Y-101000000D03*
X203120000Y-102570000D03*
%TO.N,Net-(P8-Pin_1)*%
X168283332Y-85660000D03*
X167731428Y-79430000D03*
X169670000Y-85600000D03*
X165740000Y-81130000D03*
X164182857Y-79430000D03*
X171570000Y-86040000D03*
X166839999Y-85660000D03*
X164020000Y-84680000D03*
X166934999Y-83280000D03*
X168914285Y-79430000D03*
X168360000Y-87180000D03*
X163120000Y-87180000D03*
X167125000Y-81130000D03*
X162890000Y-83280000D03*
X170210000Y-80020000D03*
X169880000Y-81450000D03*
X169750000Y-82810000D03*
X167050000Y-87180000D03*
X165396666Y-85660000D03*
X166880000Y-84680000D03*
X168283332Y-83280000D03*
X163953333Y-85660000D03*
X164355000Y-81130000D03*
X164430000Y-87180000D03*
X171440000Y-83350000D03*
X165450000Y-84680000D03*
X169900000Y-87500000D03*
X166548571Y-79430000D03*
X165740000Y-87180000D03*
X169980000Y-84270000D03*
X168510000Y-81130000D03*
X165586666Y-83280000D03*
X171470000Y-80270000D03*
X164238333Y-83280000D03*
X162970000Y-81130000D03*
X162590000Y-84680000D03*
X171440000Y-82170000D03*
X168310000Y-84680000D03*
X163000000Y-79430000D03*
X165365714Y-79430000D03*
X171590000Y-87190000D03*
X171520000Y-84860000D03*
X162510000Y-85660000D03*
D66*
%TO.N,Net-(U5-IN-)*%
X163790000Y-75090000D03*
%TO.N,Net-(U5-IN+)*%
X163837768Y-73175304D03*
D65*
%TO.N,Net-(P9-Pin_1)*%
X184390000Y-79700000D03*
X183207142Y-79700000D03*
X176080000Y-81400000D03*
X177063333Y-85930000D03*
X177292857Y-79700000D03*
X178850000Y-81400000D03*
X184280000Y-84950000D03*
X183005000Y-81400000D03*
X176230000Y-87450000D03*
X182780000Y-87450000D03*
X181620000Y-81400000D03*
X178560000Y-84950000D03*
X177130000Y-84950000D03*
X179658571Y-79700000D03*
X175620000Y-85930000D03*
X181420000Y-84950000D03*
X181393332Y-83550000D03*
X178850000Y-87450000D03*
X178696666Y-83550000D03*
X178506666Y-85930000D03*
X176110000Y-79700000D03*
X181470000Y-87450000D03*
X184090000Y-83550000D03*
X176000000Y-83550000D03*
X184090000Y-87450000D03*
X184390000Y-81400000D03*
X182741665Y-83550000D03*
X184280000Y-85930000D03*
X178475714Y-79700000D03*
X177465000Y-81400000D03*
X177348333Y-83550000D03*
X177540000Y-87450000D03*
X175700000Y-84950000D03*
X182836665Y-85930000D03*
X181393332Y-85930000D03*
X182850000Y-84950000D03*
D66*
%TO.N,Net-(U6-IN-)*%
X178330000Y-74510000D03*
%TO.N,Net-(U6-IN+)*%
X177584381Y-73459913D03*
D65*
%TO.N,/DRV8301/GH_B*%
X209893783Y-88764777D03*
X208630000Y-94330000D03*
%TO.N,/DRV8301/GL_B*%
X210878578Y-88935611D03*
X209750000Y-94360000D03*
%TO.N,Net-(P10-Pin_1)*%
X189750000Y-87180000D03*
X192216666Y-83280000D03*
X190812857Y-79430000D03*
X196525000Y-81130000D03*
X194940000Y-84680000D03*
X196370000Y-84680000D03*
X192370000Y-81130000D03*
X190583333Y-85660000D03*
X197610000Y-83280000D03*
X197610000Y-87180000D03*
X196261665Y-83280000D03*
X194913332Y-85660000D03*
X194990000Y-87180000D03*
X189220000Y-84680000D03*
X196356665Y-85660000D03*
X189630000Y-79430000D03*
X196727142Y-79430000D03*
X190650000Y-84680000D03*
X189140000Y-85660000D03*
X192080000Y-84680000D03*
X195544285Y-79430000D03*
X190868333Y-83280000D03*
X195140000Y-81130000D03*
X197800000Y-84680000D03*
X189520000Y-83280000D03*
X196300000Y-87180000D03*
X191995714Y-79430000D03*
X197910000Y-81130000D03*
X190985000Y-81130000D03*
X194361428Y-79430000D03*
X192370000Y-87180000D03*
X189600000Y-81130000D03*
X191060000Y-87180000D03*
X192026666Y-85660000D03*
X194913332Y-83280000D03*
X197800000Y-85660000D03*
X197910000Y-79430000D03*
D66*
%TO.N,Net-(U7-IN-)*%
X190405500Y-75520000D03*
%TO.N,Net-(U7-IN+)*%
X190360000Y-73550000D03*
D65*
%TO.N,/DRV8301/GH_C*%
X211110000Y-94380000D03*
X214250000Y-90530000D03*
%TO.N,/Power/C_A*%
X180104695Y-105100000D03*
D66*
X174200000Y-104100000D03*
D65*
%TO.N,/Power/C_B*%
X184900000Y-72550000D03*
X184090000Y-110710000D03*
D66*
%TO.N,/Power/C_C*%
X187490000Y-72310000D03*
D65*
X184490000Y-113250000D03*
%TO.N,/BMI160/SDA*%
X212550000Y-131490000D03*
X204800000Y-119480000D03*
D66*
%TO.N,/SHUTDOWN*%
X209017086Y-130446424D03*
X199810000Y-149200000D03*
D65*
%TO.N,/DRV8301/EN_GATE*%
X202787049Y-124462375D03*
X202970000Y-128860000D03*
X207755000Y-114595000D03*
%TO.N,/DRV8301/SENS_FILTERED*%
X186070000Y-130379904D03*
%TO.N,/DRV8301/INL_B*%
X213910000Y-115540000D03*
X213495798Y-123605798D03*
%TO.N,/DRV8301/INL_C*%
X214010000Y-113230000D03*
X213185500Y-122618174D03*
%TO.N,/DRV8301/CS*%
X200313700Y-109490000D03*
X212544061Y-117243264D03*
%TO.N,/DRV8301/INH_B*%
X211765500Y-120100000D03*
X210880247Y-113530253D03*
%TO.N,/DRV8301/INH_C*%
X210279951Y-115615549D03*
X211850500Y-112090000D03*
%TO.N,/MCU/CURR_FILTER_ON*%
X195880500Y-122020000D03*
X198444500Y-122130000D03*
X203969500Y-123590000D03*
%TD*%
D68*
%TO.N,/MCU/SERVO*%
X183099800Y-115163300D02*
X185083300Y-115163300D01*
X185118000Y-115198000D02*
X185118000Y-115353000D01*
X185118000Y-115353000D02*
X193362758Y-123597758D01*
X200303416Y-122704076D02*
X201551839Y-123952499D01*
X193362758Y-123597758D02*
X199465394Y-123597758D01*
X185083300Y-115163300D02*
X185118000Y-115198000D01*
X200303416Y-122386584D02*
X200303416Y-122704076D01*
D69*
%TO.N,GND*%
X174713800Y-111105399D02*
X174713800Y-111003800D01*
X199580000Y-137730000D02*
X200721000Y-137730000D01*
X187285000Y-126720000D02*
X186450000Y-126720000D01*
X174695000Y-122745000D02*
X174695000Y-121545000D01*
X173050000Y-106570000D02*
X169090000Y-106570000D01*
D68*
X210126678Y-91420000D02*
X210126000Y-91420678D01*
D70*
X172724000Y-64167499D02*
X172724000Y-66482501D01*
D69*
X183630000Y-114040000D02*
X180800000Y-111210000D01*
X188765500Y-117195500D02*
X186868000Y-115298000D01*
D68*
X199569974Y-127490000D02*
X199062041Y-127490000D01*
D70*
X189324000Y-63986099D02*
X191092902Y-65755001D01*
D68*
X207809734Y-133745928D02*
X208404189Y-134340383D01*
D70*
X192774000Y-65914000D02*
X192860000Y-66000000D01*
D69*
X176945000Y-131145000D02*
X176945000Y-132965000D01*
D68*
X215305000Y-104609000D02*
X215380000Y-104534000D01*
D69*
X189840000Y-115320000D02*
X189840000Y-117195500D01*
D68*
X229960200Y-85590000D02*
X232050700Y-87680500D01*
X198655016Y-99865000D02*
X199719491Y-98800525D01*
X208376000Y-96665000D02*
X213355000Y-96665000D01*
D69*
X167760000Y-112210000D02*
X167835000Y-112285000D01*
D70*
X191092902Y-65755001D02*
X191092902Y-66301101D01*
D69*
X196271000Y-128240000D02*
X194900000Y-128240000D01*
X191050000Y-133760000D02*
X191230000Y-133940000D01*
X192548600Y-139418600D02*
X192590000Y-139460000D01*
D68*
X214590000Y-104609000D02*
X215305000Y-104609000D01*
X217360000Y-130950000D02*
X217845000Y-130950000D01*
D70*
X170310000Y-64760000D02*
X170557499Y-65007499D01*
X170557499Y-65007499D02*
X170557499Y-66482501D01*
D68*
X204744551Y-114945449D02*
X205180000Y-115380898D01*
D69*
X195460000Y-125520000D02*
X195700000Y-125280000D01*
D68*
X208404189Y-134340383D02*
X208404189Y-135875811D01*
D69*
X167835000Y-112285000D02*
X169790000Y-110330000D01*
X184271000Y-124420000D02*
X184271000Y-123955000D01*
X199779000Y-89740000D02*
X199910000Y-89740000D01*
D68*
X203250000Y-116880000D02*
X203250000Y-116397500D01*
D69*
X162850000Y-107810000D02*
X162850000Y-105701000D01*
D68*
X200651000Y-135353874D02*
X200651000Y-135700000D01*
X222155000Y-141215000D02*
X221150000Y-140210000D01*
X203609000Y-114440000D02*
X203609000Y-112710000D01*
D70*
X181833799Y-65750000D02*
X181833799Y-66378701D01*
D69*
X186868000Y-114463000D02*
X186445000Y-114040000D01*
D68*
X189670000Y-103845000D02*
X192045000Y-103845000D01*
D69*
X208950000Y-149930000D02*
X209000000Y-149980000D01*
D71*
X182974000Y-65980000D02*
X182974000Y-66094000D01*
D68*
X215380000Y-104534000D02*
X215380000Y-100639000D01*
X205130000Y-117665000D02*
X204517500Y-117665000D01*
X205180000Y-117615000D02*
X205130000Y-117665000D01*
X203609000Y-114440000D02*
X204239102Y-114440000D01*
X212626000Y-91729219D02*
X212955220Y-91399999D01*
X213070000Y-104629000D02*
X214570000Y-104629000D01*
D69*
X188650000Y-136095000D02*
X187395000Y-136095000D01*
D71*
X195096099Y-66786099D02*
X195480000Y-67170000D01*
D68*
X200400200Y-126336394D02*
X200400200Y-126659774D01*
D69*
X205028661Y-104891339D02*
X206088661Y-105951339D01*
D71*
X182974000Y-65980000D02*
X182974000Y-66863699D01*
D69*
X174713800Y-111003800D02*
X173060000Y-109350000D01*
X206088661Y-106051339D02*
X204900000Y-107240000D01*
X210921339Y-136051339D02*
X211790000Y-136920000D01*
X174695000Y-121545000D02*
X173580000Y-120430000D01*
D68*
X203250000Y-115907500D02*
X203255000Y-115902500D01*
D69*
X185463400Y-134163400D02*
X185463400Y-132003400D01*
X206769000Y-149930000D02*
X208950000Y-149930000D01*
X233836700Y-121463300D02*
X233640000Y-121660000D01*
D68*
X190847379Y-101355000D02*
X190240697Y-100748318D01*
D69*
X186445000Y-114040000D02*
X183630000Y-114040000D01*
D72*
X180695399Y-111105399D02*
X180800000Y-111210000D01*
D69*
X199170000Y-138140000D02*
X199580000Y-137730000D01*
X187860000Y-126720000D02*
X188835000Y-125745000D01*
X236649902Y-121463300D02*
X233836700Y-121463300D01*
X206769000Y-149930000D02*
X207778600Y-148920400D01*
D68*
X199062041Y-127490000D02*
X198413500Y-126841459D01*
X207626000Y-94054000D02*
X207250000Y-94430000D01*
D69*
X197432200Y-150377800D02*
X197420000Y-150390000D01*
D68*
X192192690Y-102177690D02*
X191370000Y-101355000D01*
D69*
X207778600Y-148920400D02*
X207778600Y-147533500D01*
D68*
X187349400Y-101030200D02*
X187991600Y-100388000D01*
X214626000Y-92945000D02*
X214626000Y-92066940D01*
D69*
X218090000Y-99980000D02*
X216720000Y-98610000D01*
D68*
X221935000Y-124805000D02*
X221950000Y-124820000D01*
D73*
X207511000Y-118400000D02*
X207501000Y-118410000D01*
D69*
X197432200Y-148445300D02*
X197032500Y-148845000D01*
D68*
X215999000Y-129880000D02*
X216290000Y-129880000D01*
D69*
X187395000Y-136095000D02*
X186410000Y-135110000D01*
D68*
X214590000Y-104609000D02*
X214590000Y-105840000D01*
D72*
X186868000Y-115198000D02*
X186868000Y-114463000D01*
D68*
X190877800Y-105052800D02*
X189630000Y-103805000D01*
X229170000Y-85590000D02*
X229960200Y-85590000D01*
D69*
X210911339Y-136051339D02*
X210921339Y-136051339D01*
D72*
X193320000Y-114040000D02*
X191120000Y-114040000D01*
D69*
X168467800Y-107601200D02*
X167209000Y-108860000D01*
D71*
X180674000Y-64063699D02*
X181824000Y-64063699D01*
D68*
X219000000Y-132105000D02*
X220930000Y-132105000D01*
D69*
X169274000Y-63254000D02*
X168490000Y-62470000D01*
D68*
X227958400Y-134818000D02*
X228568000Y-134818000D01*
X214570000Y-104629000D02*
X214590000Y-104609000D01*
D69*
X217180000Y-95781000D02*
X217180000Y-97160000D01*
D73*
X207511000Y-116910000D02*
X207511000Y-118400000D01*
D69*
X173665000Y-120345000D02*
X173580000Y-120430000D01*
D68*
X201439187Y-125620787D02*
X199569974Y-127490000D01*
X212284059Y-96665000D02*
X208376000Y-96665000D01*
X205028661Y-104881339D02*
X205028661Y-104891339D01*
X198600000Y-99865000D02*
X198655016Y-99865000D01*
D71*
X182974000Y-64063699D02*
X182974000Y-65980000D01*
D69*
X205371000Y-136030000D02*
X205371000Y-137564000D01*
D68*
X189630000Y-103805000D02*
X189670000Y-103845000D01*
D73*
X206571000Y-116910000D02*
X205930000Y-117551000D01*
D69*
X217180000Y-97160000D02*
X217510000Y-97490000D01*
X162850000Y-105701000D02*
X162839000Y-105690000D01*
D68*
X187349400Y-101754100D02*
X187349400Y-101030200D01*
D69*
X199725797Y-96485797D02*
X200310000Y-97070000D01*
D68*
X206088661Y-105951339D02*
X206088661Y-106051339D01*
X210126000Y-91420678D02*
X210126000Y-92945000D01*
D69*
X197432200Y-147202800D02*
X197432200Y-150377800D01*
D68*
X200651000Y-137660000D02*
X200721000Y-137730000D01*
D69*
X204272900Y-137128100D02*
X205371000Y-136030000D01*
X168186800Y-105666800D02*
X167719024Y-105666800D01*
D68*
X219000000Y-124805000D02*
X220930000Y-124805000D01*
D69*
X192548600Y-138137400D02*
X192548600Y-139418600D01*
X190385000Y-126070000D02*
X189160000Y-126070000D01*
D68*
X201439187Y-125254061D02*
X201439187Y-125620787D01*
X214626000Y-92066940D02*
X215422940Y-91270000D01*
D69*
X176945000Y-120345000D02*
X173665000Y-120345000D01*
D68*
X215126000Y-100385000D02*
X215126000Y-99506941D01*
D69*
X189840000Y-117195500D02*
X188765500Y-117195500D01*
D68*
X215422940Y-91270000D02*
X215850000Y-91270000D01*
X213126000Y-92945000D02*
X214626000Y-92945000D01*
X215380000Y-100639000D02*
X215126000Y-100385000D01*
D69*
X203270000Y-137128100D02*
X204272900Y-137128100D01*
D68*
X217845000Y-130950000D02*
X219000000Y-132105000D01*
D69*
X174713800Y-111105399D02*
X180695399Y-111105399D01*
X167760000Y-109411000D02*
X167760000Y-112210000D01*
X187285000Y-126720000D02*
X187860000Y-126720000D01*
X191120000Y-114040000D02*
X189840000Y-115320000D01*
X199910000Y-89740000D02*
X201530000Y-91360000D01*
X169090000Y-106570000D02*
X168186800Y-105666800D01*
D68*
X213355000Y-96665000D02*
X213770000Y-96250000D01*
X205180000Y-115380898D02*
X205180000Y-117615000D01*
X212626000Y-92945000D02*
X212626000Y-91729219D01*
D69*
X218090000Y-100420000D02*
X218090000Y-99980000D01*
X169274000Y-64167499D02*
X169274000Y-63254000D01*
D68*
X232050700Y-85680501D02*
X229260501Y-85680501D01*
D69*
X167719024Y-105666800D02*
X168467800Y-106415576D01*
X205371000Y-137564000D02*
X205310000Y-137625000D01*
D68*
X192045000Y-103845000D02*
X192192690Y-103697310D01*
X200400200Y-126659774D02*
X199569974Y-127490000D01*
X208404189Y-135875811D02*
X208250000Y-136030000D01*
D69*
X186450000Y-126720000D02*
X186230000Y-126940000D01*
D68*
X187991600Y-100388000D02*
X189880379Y-100388000D01*
D69*
X197432200Y-147202800D02*
X197432200Y-148445300D01*
D68*
X220930000Y-124805000D02*
X221935000Y-124805000D01*
D70*
X181833799Y-66378701D02*
X181824000Y-66378701D01*
D69*
X184976000Y-123250000D02*
X185810000Y-123250000D01*
D70*
X191092902Y-66301101D02*
X189324000Y-66301101D01*
D69*
X186410000Y-135110000D02*
X185463400Y-134163400D01*
D73*
X205816000Y-117665000D02*
X204517500Y-117665000D01*
D68*
X191442000Y-105052800D02*
X190877800Y-105052800D01*
D69*
X191050000Y-132095000D02*
X191050000Y-133760000D01*
D68*
X200651000Y-135700000D02*
X200651000Y-137660000D01*
D69*
X176945000Y-132965000D02*
X176940000Y-132970000D01*
D73*
X207511000Y-116910000D02*
X206571000Y-116910000D01*
X205930000Y-117551000D02*
X205816000Y-117665000D01*
D68*
X189880379Y-100388000D02*
X190240697Y-100748318D01*
X192192690Y-103697310D02*
X192192690Y-102177690D01*
X221150000Y-140210000D02*
X221150000Y-137650000D01*
D69*
X168467800Y-106415576D02*
X168467800Y-107601200D01*
X167209000Y-108860000D02*
X167760000Y-109411000D01*
D68*
X203319606Y-132685268D02*
X200651000Y-135353874D01*
X229260501Y-85680501D02*
X229170000Y-85590000D01*
X191370000Y-101355000D02*
X190847379Y-101355000D01*
X203609000Y-112710000D02*
X203579000Y-112680000D01*
X207626000Y-92945000D02*
X207626000Y-94054000D01*
X203250000Y-116880000D02*
X203250000Y-115907500D01*
D69*
X194782000Y-132472800D02*
X194207200Y-132472800D01*
D68*
X214590000Y-105840000D02*
X214880000Y-106130000D01*
X204239102Y-114440000D02*
X204744551Y-114945449D01*
D69*
X194900000Y-128240000D02*
X194870000Y-128270000D01*
X194299000Y-125520000D02*
X195460000Y-125520000D01*
D68*
X199784072Y-125720266D02*
X200400200Y-126336394D01*
D69*
X189160000Y-126070000D02*
X188835000Y-125745000D01*
D70*
X192774000Y-63986099D02*
X192774000Y-65914000D01*
D71*
X181824000Y-64063699D02*
X182974000Y-64063699D01*
D68*
X200844732Y-124659606D02*
X201439187Y-125254061D01*
D69*
X194207200Y-132472800D02*
X193220000Y-133460000D01*
D68*
X228568000Y-134818000D02*
X229380000Y-135630000D01*
X203250000Y-116397500D02*
X202755000Y-115902500D01*
D71*
X192774000Y-66786099D02*
X195096099Y-66786099D01*
D68*
X215126000Y-99506941D02*
X212284059Y-96665000D01*
D69*
X184271000Y-123955000D02*
X184976000Y-123250000D01*
D71*
X182974000Y-66094000D02*
X184220000Y-67340000D01*
X181824000Y-66863699D02*
X181824000Y-64063699D01*
D69*
X199725797Y-95072996D02*
X199725797Y-96485797D01*
D70*
X179524000Y-64063699D02*
X179524000Y-66378701D01*
D69*
X169790000Y-110330000D02*
X169790000Y-108850000D01*
X186868000Y-115298000D02*
X186868000Y-115198000D01*
D68*
X216290000Y-129880000D02*
X217360000Y-130950000D01*
%TO.N,Net-(U1-PH0)*%
X186352400Y-132003400D02*
X188558400Y-132003400D01*
X189940151Y-130804849D02*
X200250277Y-130804849D01*
X188558400Y-132003400D02*
X188650000Y-132095000D01*
X188650000Y-132095000D02*
X189940151Y-130804849D01*
X200250277Y-130804849D02*
X200844732Y-130210394D01*
%TO.N,Net-(U1-VCAP_1)*%
X211522543Y-128286529D02*
X211542723Y-128286529D01*
X208919000Y-118410000D02*
X208919000Y-119125000D01*
X208454000Y-119590000D02*
X207350000Y-119590000D01*
X211542723Y-128286529D02*
X212405928Y-129149734D01*
X208919000Y-119125000D02*
X208454000Y-119590000D01*
%TO.N,Net-(U1-VCAP_2)*%
X208929000Y-116910000D02*
X209749000Y-117730000D01*
X209749000Y-119184806D02*
X207809734Y-121124072D01*
X209749000Y-117730000D02*
X209749000Y-119184806D01*
D69*
%TO.N,VCC*%
X165295000Y-126835000D02*
X172200000Y-133740000D01*
D73*
X185222400Y-135344977D02*
X185222400Y-136674614D01*
D69*
X214581000Y-129984250D02*
X215965517Y-131368767D01*
D71*
X164403800Y-104867224D02*
X165203376Y-105666800D01*
X165203376Y-105666800D02*
X164403800Y-106466376D01*
D69*
X209680000Y-137850000D02*
X209680000Y-136470000D01*
D73*
X186412400Y-121952400D02*
X182430000Y-117970000D01*
X205646000Y-110404000D02*
X207084000Y-110404000D01*
X185689000Y-124420000D02*
X186412400Y-123696600D01*
X201850000Y-111400000D02*
X201850000Y-112369000D01*
D69*
X209680000Y-135277322D02*
X209908661Y-135048661D01*
D73*
X202139000Y-137730000D02*
X203815000Y-137730000D01*
D68*
X202191000Y-114440000D02*
X202191000Y-115155000D01*
X201380000Y-116165000D02*
X201330000Y-116215000D01*
D73*
X205646000Y-110404000D02*
X203972000Y-110404000D01*
X185689000Y-124420000D02*
X186200000Y-124420000D01*
D69*
X217166000Y-136610000D02*
X216016619Y-135460619D01*
D68*
X202069000Y-134642980D02*
X202069000Y-135700000D01*
D69*
X165295000Y-122735000D02*
X165295000Y-126835000D01*
D68*
X201330000Y-118115000D02*
X201455000Y-118240000D01*
X202191000Y-115966500D02*
X201992500Y-116165000D01*
D69*
X217250000Y-136610000D02*
X217166000Y-136610000D01*
D71*
X178145588Y-101790000D02*
X166241000Y-101790000D01*
D68*
X203755000Y-115290000D02*
X203755000Y-115902500D01*
D71*
X160358393Y-75626000D02*
X158430000Y-77554393D01*
D69*
X216016619Y-133071119D02*
X216016619Y-135460619D01*
D73*
X189910001Y-110040001D02*
X193320000Y-110040001D01*
D68*
X202191000Y-114440000D02*
X202191000Y-115966500D01*
D73*
X207084000Y-110404000D02*
X207190000Y-110510000D01*
D69*
X206195000Y-140110000D02*
X207420000Y-140110000D01*
X214581000Y-129880000D02*
X214581000Y-129775750D01*
D71*
X161002803Y-75687197D02*
X160941607Y-75626000D01*
D73*
X185222400Y-136674614D02*
X184462397Y-137434617D01*
D68*
X207456181Y-120770519D02*
X205930000Y-119244338D01*
D69*
X224155000Y-137775000D02*
X224070000Y-137690000D01*
D68*
X205126000Y-93893060D02*
X205126000Y-92945000D01*
X209760912Y-134990000D02*
X208163287Y-133392375D01*
D73*
X201850000Y-112369000D02*
X202161000Y-112680000D01*
X194249999Y-110970000D02*
X193320000Y-110040001D01*
D68*
X202191000Y-114440000D02*
X202191000Y-112710000D01*
D69*
X197484500Y-129095500D02*
X197689000Y-128891000D01*
D71*
X164403800Y-107472800D02*
X165791000Y-108860000D01*
D74*
X165295000Y-122735000D02*
X165295000Y-112285000D01*
D68*
X213497181Y-128796181D02*
X212759481Y-128796181D01*
D69*
X220410000Y-128720000D02*
X221715000Y-127415000D01*
D71*
X166241000Y-101790000D02*
X164403800Y-103627200D01*
D73*
X203815000Y-137730000D02*
X205290000Y-139205000D01*
D71*
X160941607Y-75626000D02*
X160358393Y-75626000D01*
X179950000Y-99985588D02*
X178145588Y-101790000D01*
D68*
X197689000Y-126531000D02*
X198146181Y-126073819D01*
D73*
X203972000Y-110404000D02*
X202161000Y-112215000D01*
D68*
X201330000Y-116215000D02*
X201330000Y-118115000D01*
D69*
X229640000Y-129730000D02*
X228405000Y-129730000D01*
D68*
X202276000Y-115240000D02*
X203705000Y-115240000D01*
X197689000Y-128240000D02*
X197689000Y-126531000D01*
X206905000Y-132953605D02*
X203818605Y-136040000D01*
X203818605Y-136040000D02*
X202409000Y-136040000D01*
D69*
X221715000Y-126205000D02*
X223450000Y-124470000D01*
X228405000Y-129730000D02*
X228000000Y-129325000D01*
X183588696Y-129095500D02*
X197484500Y-129095500D01*
D73*
X198874338Y-128240000D02*
X199428821Y-128794483D01*
D68*
X202944300Y-96074760D02*
X205126000Y-93893060D01*
D69*
X207420000Y-140110000D02*
X209680000Y-137850000D01*
X224155000Y-141215000D02*
X224155000Y-137775000D01*
D68*
X201455000Y-118240000D02*
X202442500Y-118240000D01*
D69*
X215965517Y-131368767D02*
X216031233Y-131368767D01*
D68*
X202442500Y-118240000D02*
X202755000Y-117927500D01*
D71*
X158430000Y-77554393D02*
X158430000Y-98893424D01*
D69*
X197689000Y-128891000D02*
X197689000Y-128240000D01*
D73*
X206040000Y-121460000D02*
X206040000Y-119079000D01*
D68*
X202139000Y-135770000D02*
X202069000Y-135700000D01*
D71*
X162080000Y-74610000D02*
X161002803Y-75687197D01*
D68*
X206905000Y-131419695D02*
X206905000Y-132953605D01*
D71*
X164403800Y-106466376D02*
X164403800Y-107472800D01*
D68*
X202139000Y-137730000D02*
X202139000Y-135770000D01*
D71*
X164403800Y-107472800D02*
X165295000Y-108364000D01*
D68*
X198146181Y-126073819D02*
X199430519Y-126073819D01*
D73*
X196480500Y-110970000D02*
X198645500Y-110970000D01*
D68*
X200624854Y-127900000D02*
X203719854Y-130995000D01*
D69*
X209680000Y-136470000D02*
X209680000Y-135277322D01*
D73*
X198645500Y-110970000D02*
X198755500Y-111080000D01*
D68*
X203705000Y-115240000D02*
X203755000Y-115290000D01*
D71*
X158430000Y-98893424D02*
X165203376Y-105666800D01*
D73*
X189650000Y-109780000D02*
X189910001Y-110040001D01*
D68*
X197689000Y-128240000D02*
X199485305Y-128240000D01*
D73*
X184537600Y-134660177D02*
X185222400Y-135344977D01*
D69*
X165686750Y-108860000D02*
X165791000Y-108860000D01*
D73*
X196480500Y-110970000D02*
X194249999Y-110970000D01*
D68*
X214581000Y-129880000D02*
X213497181Y-128796181D01*
D69*
X205290000Y-139205000D02*
X206195000Y-140110000D01*
D73*
X202161000Y-112215000D02*
X202161000Y-112680000D01*
X197689000Y-128240000D02*
X198874338Y-128240000D01*
D68*
X203719854Y-130995000D02*
X206480305Y-130995000D01*
D73*
X184537600Y-126920406D02*
X184537600Y-134660177D01*
D71*
X164403800Y-103627200D02*
X164403800Y-104867224D01*
D68*
X205930000Y-119244338D02*
X205930000Y-118969000D01*
X186039000Y-124770000D02*
X185689000Y-124420000D01*
D73*
X186200000Y-124420000D02*
X187050000Y-123570000D01*
D68*
X187285000Y-124770000D02*
X186039000Y-124770000D01*
X202191000Y-115155000D02*
X202276000Y-115240000D01*
X199825305Y-127900000D02*
X200624854Y-127900000D01*
D69*
X214581000Y-129880000D02*
X214581000Y-129984250D01*
D73*
X206040000Y-119079000D02*
X205930000Y-118969000D01*
D68*
X201992500Y-116165000D02*
X201380000Y-116165000D01*
D69*
X214581000Y-129775750D02*
X215636750Y-128720000D01*
X223450000Y-124470000D02*
X223450000Y-123650000D01*
D68*
X202409000Y-136040000D02*
X202069000Y-135700000D01*
D71*
X165295000Y-108364000D02*
X165295000Y-112285000D01*
D68*
X202191000Y-112710000D02*
X202161000Y-112680000D01*
X206480305Y-130995000D02*
X206905000Y-131419695D01*
D69*
X221715000Y-127415000D02*
X221715000Y-126205000D01*
D68*
X199485305Y-128240000D02*
X199825305Y-127900000D01*
X203673159Y-133038821D02*
X202069000Y-134642980D01*
D69*
X178944196Y-133740000D02*
X183588696Y-129095500D01*
D73*
X184670000Y-126788006D02*
X184537600Y-126920406D01*
D68*
X201483812Y-96074760D02*
X202944300Y-96074760D01*
X209971000Y-134990000D02*
X209760912Y-134990000D01*
D69*
X215636750Y-128720000D02*
X220410000Y-128720000D01*
D73*
X186412400Y-123696600D02*
X186412400Y-121952400D01*
D69*
X214560000Y-131614500D02*
X216016619Y-133071119D01*
X172200000Y-133740000D02*
X178944196Y-133740000D01*
D68*
%TO.N,/MCU/NRST*%
X196382200Y-132472800D02*
X197150151Y-131704849D01*
X193320000Y-118040000D02*
X193320000Y-118510000D01*
X200764491Y-131704849D02*
X201551839Y-130917501D01*
X197150151Y-131704849D02*
X200764491Y-131704849D01*
X196330000Y-134140000D02*
X196330000Y-132525000D01*
X193320000Y-118510000D02*
X192140000Y-119690000D01*
X196330000Y-132525000D02*
X196382200Y-132472800D01*
%TO.N,Net-(U1-PH1)*%
X192645000Y-134595000D02*
X192645000Y-133221827D01*
X194611978Y-131254849D02*
X200507385Y-131254849D01*
X200507385Y-131254849D02*
X201198286Y-130563948D01*
X191659600Y-136704600D02*
X191050000Y-136095000D01*
X191659600Y-138137400D02*
X191659600Y-136704600D01*
X191145000Y-136095000D02*
X192645000Y-134595000D01*
X191050000Y-136095000D02*
X191145000Y-136095000D01*
X192645000Y-133221827D02*
X194611978Y-131254849D01*
D73*
%TO.N,+5V*%
X192255500Y-126145500D02*
X192881000Y-125520000D01*
D69*
X174695000Y-128745000D02*
X171945000Y-128745000D01*
D73*
X174713800Y-113105400D02*
X180505400Y-113105400D01*
D68*
X222280000Y-131990000D02*
X222280000Y-131270000D01*
D69*
X171490000Y-113573300D02*
X171957900Y-113105400D01*
X171490000Y-128290000D02*
X171490000Y-113573300D01*
X218090000Y-104650000D02*
X225530602Y-97209398D01*
D73*
X180505400Y-113105400D02*
X180670000Y-113270000D01*
D69*
X218090000Y-104650000D02*
X219230500Y-103509500D01*
X161421000Y-105690000D02*
X161421000Y-110951000D01*
D73*
X159567600Y-115472400D02*
X162755000Y-112285000D01*
X190978570Y-125420000D02*
X190385000Y-125420000D01*
X191450000Y-125891430D02*
X190978570Y-125420000D01*
X183729030Y-151142400D02*
X159567600Y-126980970D01*
D68*
X226155000Y-141215000D02*
X226155000Y-137035000D01*
D69*
X170620000Y-112190800D02*
X171534600Y-113105400D01*
D73*
X223055000Y-130705000D02*
X223220000Y-130870000D01*
D69*
X171534600Y-113105400D02*
X174713800Y-113105400D01*
D68*
X222280000Y-131270000D02*
X221715000Y-130705000D01*
D69*
X162755000Y-112285000D02*
X162755000Y-115005000D01*
X171957900Y-113105400D02*
X174713800Y-113105400D01*
D73*
X226155000Y-143965000D02*
X218977600Y-151142400D01*
D69*
X170620000Y-107240000D02*
X170620000Y-112190800D01*
D73*
X217880000Y-106990000D02*
X217880000Y-104860000D01*
X226155000Y-141215000D02*
X226155000Y-143965000D01*
X185190000Y-105860000D02*
X187275000Y-103775000D01*
D69*
X171945000Y-128745000D02*
X171490000Y-128290000D01*
D73*
X217880000Y-104860000D02*
X218090000Y-104650000D01*
D69*
X225530602Y-97209398D02*
X225530602Y-96426000D01*
D73*
X159567600Y-126980970D02*
X159567600Y-115472400D01*
X221715000Y-130705000D02*
X223055000Y-130705000D01*
D68*
X226155000Y-137035000D02*
X222790000Y-133670000D01*
D69*
X161421000Y-110951000D02*
X162755000Y-112285000D01*
D73*
X191450000Y-126145500D02*
X191450000Y-125891430D01*
D69*
X219230500Y-90730500D02*
X213400000Y-84900000D01*
D73*
X191450000Y-126145500D02*
X192255500Y-126145500D01*
X187275000Y-103775000D02*
X188060000Y-103775000D01*
X218977600Y-151142400D02*
X183729030Y-151142400D01*
D69*
X162755000Y-115005000D02*
X163420000Y-115670000D01*
X170380000Y-114260000D02*
X171534600Y-113105400D01*
X219230500Y-103509500D02*
X219230500Y-90730500D01*
D68*
%TO.N,Net-(U3-GVDD)*%
X206031339Y-103878661D02*
X206031339Y-103888661D01*
X206031339Y-103878661D02*
X206031339Y-103245057D01*
D69*
X206031339Y-103888661D02*
X207091339Y-104948661D01*
D68*
X207626000Y-101650396D02*
X207626000Y-100385000D01*
X206031339Y-103245057D02*
X207626000Y-101650396D01*
%TO.N,Net-(C16-Pad2)*%
X189152800Y-101754100D02*
X190119100Y-101754100D01*
X190119100Y-101754100D02*
X191420000Y-103055000D01*
%TO.N,Net-(U3-DVDD)*%
X213070000Y-103211000D02*
X212626000Y-102767000D01*
X212626000Y-102767000D02*
X212626000Y-100385000D01*
%TO.N,Net-(U3-COMP)*%
X192980000Y-103055000D02*
X193630000Y-103055000D01*
X193042200Y-103642800D02*
X193630000Y-103055000D01*
X202126000Y-101263059D02*
X202126000Y-100385000D01*
X193630000Y-103055000D02*
X200334059Y-103055000D01*
X193042200Y-105052800D02*
X193042200Y-103642800D01*
X200334059Y-103055000D02*
X202126000Y-101263059D01*
%TO.N,Net-(U3-CP2)*%
X208626000Y-108010997D02*
X208163398Y-108473599D01*
X208626000Y-100385000D02*
X208626000Y-108010997D01*
%TO.N,Net-(U3-CP1)*%
X207210200Y-107829800D02*
X208126000Y-106914000D01*
X208126000Y-106914000D02*
X208126000Y-100385000D01*
X207210200Y-108473599D02*
X207210200Y-107829800D01*
%TO.N,Net-(U3-AVDD)*%
X214590000Y-103191000D02*
X214626000Y-103155000D01*
X213126000Y-101687000D02*
X213126000Y-100385000D01*
X214590000Y-103191000D02*
X214590000Y-103151000D01*
X214590000Y-103151000D02*
X213126000Y-101687000D01*
X214626000Y-103155000D02*
X214626000Y-100385000D01*
D73*
%TO.N,Net-(U3-SS_TR)*%
X199725797Y-92267400D02*
X200948400Y-92267400D01*
X200948400Y-92267400D02*
X201626000Y-92945000D01*
D68*
%TO.N,Net-(U3-BST_A)*%
X205626000Y-92066940D02*
X205626000Y-92945000D01*
X204831000Y-91271940D02*
X205626000Y-92066940D01*
X204831000Y-90770000D02*
X204831000Y-91271940D01*
D75*
%TO.N,/SH_A*%
X168798999Y-60517499D02*
X166640000Y-62676498D01*
D76*
X168798999Y-60517499D02*
X167842501Y-60517499D01*
D70*
X173199001Y-69222501D02*
X166602079Y-69222501D01*
D75*
X168798999Y-69222501D02*
X167706500Y-70315000D01*
D70*
X166540000Y-65360000D02*
X166530000Y-65780000D01*
D76*
X167842501Y-60517499D02*
X166640000Y-61720000D01*
D70*
X166602079Y-69222501D02*
X164874580Y-70950000D01*
D75*
X165539000Y-70315000D02*
X167075000Y-71851000D01*
D68*
X201211778Y-143170000D02*
X196560000Y-143170000D01*
D71*
X167950000Y-69170000D02*
X166534000Y-67754000D01*
D68*
X206249000Y-90532433D02*
X206249000Y-90770000D01*
D71*
X172790000Y-78710000D02*
X172790000Y-77566000D01*
D70*
X166174000Y-70950000D02*
X167075000Y-71851000D01*
X166534000Y-67754000D02*
X168002501Y-69222501D01*
D76*
X166640000Y-64400000D02*
X166640000Y-64920000D01*
X166640000Y-64340000D02*
X166610000Y-64370000D01*
D75*
X166640000Y-62676498D02*
X166640000Y-64920000D01*
D68*
X206626000Y-91147000D02*
X206626000Y-92945000D01*
D70*
X166480000Y-66370000D02*
X166600000Y-66500000D01*
D76*
X166640000Y-61720000D02*
X166640000Y-64340000D01*
D68*
X206249000Y-90770000D02*
X206626000Y-91147000D01*
X202268600Y-144848100D02*
X202268600Y-144226822D01*
D70*
X173199001Y-69222501D02*
X169703499Y-69222501D01*
D75*
X170999000Y-69222501D02*
X169703499Y-69222501D01*
D70*
X166530000Y-65780000D02*
X166480000Y-66370000D01*
D68*
X207018100Y-89763333D02*
X206249000Y-90532433D01*
D70*
X166640000Y-64920000D02*
X166540000Y-65360000D01*
X168002501Y-69222501D02*
X173199001Y-69222501D01*
D71*
X172790000Y-77566000D02*
X167075000Y-71851000D01*
D76*
X166610000Y-64370000D02*
X166640000Y-64400000D01*
D68*
X202268600Y-144226822D02*
X201211778Y-143170000D01*
D70*
X169703499Y-69222501D02*
X167075000Y-71851000D01*
X164874580Y-70950000D02*
X166174000Y-70950000D01*
D75*
X167706500Y-70315000D02*
X165539000Y-70315000D01*
D70*
X173199001Y-60517499D02*
X169049054Y-60517499D01*
D68*
%TO.N,Net-(U3-BST_B)*%
X208126000Y-92945000D02*
X208126000Y-90785000D01*
X208126000Y-90785000D02*
X208651000Y-90260000D01*
D71*
%TO.N,/DRV8301/SH_B*%
X201774000Y-80904000D02*
X201774000Y-85344000D01*
D75*
X179048999Y-69118701D02*
X183449001Y-69118701D01*
D77*
X179605000Y-70541000D02*
X179605000Y-69788701D01*
D70*
X176470000Y-65170000D02*
X176784000Y-65484000D01*
X176400000Y-64130000D02*
X176784000Y-64514000D01*
X176784000Y-64514000D02*
X176784000Y-64856000D01*
D71*
X184053701Y-69753701D02*
X185400000Y-71100000D01*
D68*
X209836194Y-90504426D02*
X209126000Y-91214620D01*
D77*
X182832299Y-69753701D02*
X183231770Y-69753701D01*
D70*
X176784000Y-62928754D02*
X179299055Y-60413699D01*
D68*
X208870000Y-88764992D02*
X208870000Y-89040000D01*
D71*
X184590000Y-103250000D02*
X185260000Y-102580000D01*
D68*
X208870000Y-89040000D02*
X209836194Y-90006194D01*
D70*
X176784000Y-63746000D02*
X176784000Y-62928754D01*
D68*
X209126000Y-91214620D02*
X209126000Y-92945000D01*
D71*
X179048999Y-69118701D02*
X181249000Y-69118701D01*
D77*
X179605000Y-69788701D02*
X179570000Y-69753701D01*
D70*
X176784000Y-64856000D02*
X176470000Y-65170000D01*
D68*
X209836194Y-90006194D02*
X209836194Y-90504426D01*
D71*
X200250000Y-79380000D02*
X201774000Y-80904000D01*
D70*
X176784000Y-67624000D02*
X178278701Y-69118701D01*
D71*
X205312376Y-88882376D02*
X205632376Y-88882376D01*
X201774000Y-85344000D02*
X205312376Y-88882376D01*
X183231770Y-69753701D02*
X184053701Y-69753701D01*
X182070000Y-103250000D02*
X184590000Y-103250000D01*
D70*
X176784000Y-65484000D02*
X176784000Y-65776000D01*
D71*
X183449001Y-69118701D02*
X181249000Y-69118701D01*
D70*
X176784000Y-66544000D02*
X176784000Y-67624000D01*
X179299055Y-60413699D02*
X183449001Y-60413699D01*
X176784000Y-65776000D02*
X176400000Y-66160000D01*
X176400000Y-66160000D02*
X176784000Y-66544000D01*
D68*
%TO.N,Net-(U3-BST_C)*%
X211661000Y-90240000D02*
X211661000Y-90969000D01*
X211661000Y-90969000D02*
X210626000Y-92004000D01*
X210626000Y-92004000D02*
X210626000Y-92945000D01*
D70*
%TO.N,/DRV8301/SH_C*%
X186325153Y-63110000D02*
X186584000Y-62851153D01*
D68*
X212491000Y-90839620D02*
X212175224Y-91155396D01*
D70*
X193249001Y-69041101D02*
X195311101Y-69041101D01*
X195566000Y-69840000D02*
X193655000Y-71751000D01*
D68*
X212339000Y-89189000D02*
X212339000Y-89488380D01*
D70*
X195311101Y-69041101D02*
X196110000Y-69840000D01*
D68*
X212111000Y-91155396D02*
X211626000Y-91640396D01*
D70*
X186584000Y-65804000D02*
X186584000Y-66186000D01*
D68*
X212491000Y-89640380D02*
X212491000Y-90839620D01*
D70*
X186584000Y-63116000D02*
X186290000Y-63410000D01*
X186584000Y-62851153D02*
X186584000Y-63116000D01*
X189099054Y-60336099D02*
X187390000Y-62045153D01*
X193249001Y-60336099D02*
X189099054Y-60336099D01*
D71*
X199400000Y-77496000D02*
X193655000Y-71751000D01*
D70*
X186290000Y-63410000D02*
X186584000Y-63704000D01*
D68*
X212175224Y-91155396D02*
X212111000Y-91155396D01*
D70*
X186584000Y-67474000D02*
X188151101Y-69041101D01*
D71*
X197700000Y-96690000D02*
X197839700Y-96550300D01*
D68*
X212339000Y-89488380D02*
X212491000Y-89640380D01*
D71*
X186336600Y-100842146D02*
X187369746Y-99809000D01*
X184230000Y-104277500D02*
X185032500Y-104277500D01*
X191241101Y-69041101D02*
X188151101Y-69041101D01*
X187369746Y-99809000D02*
X194581000Y-99809000D01*
D70*
X186584000Y-66694000D02*
X186584000Y-67474000D01*
X186584000Y-64854000D02*
X186584000Y-64996000D01*
X186180000Y-64450000D02*
X186584000Y-64854000D01*
D77*
X192435000Y-70191101D02*
X193188902Y-69437199D01*
D71*
X197839700Y-96550300D02*
X197839700Y-88322720D01*
D70*
X186180000Y-65400000D02*
X186584000Y-65804000D01*
D68*
X212090000Y-88940000D02*
X212339000Y-89189000D01*
D77*
X193655000Y-71751000D02*
X192435000Y-70531000D01*
D70*
X186584000Y-63704000D02*
X186584000Y-64046000D01*
X196110000Y-69840000D02*
X195566000Y-69840000D01*
X186584000Y-66186000D02*
X186330000Y-66440000D01*
D77*
X193188902Y-69437199D02*
X193249001Y-69437199D01*
D70*
X188151101Y-69041101D02*
X193249001Y-69041101D01*
D71*
X199400000Y-86762420D02*
X199400000Y-77496000D01*
D70*
X186584000Y-64996000D02*
X186180000Y-65400000D01*
D71*
X186336600Y-102973400D02*
X186336600Y-100842146D01*
D68*
X211626000Y-91640396D02*
X211626000Y-92945000D01*
D71*
X194581000Y-99809000D02*
X197700000Y-96690000D01*
D70*
X186584000Y-64046000D02*
X186180000Y-64450000D01*
D71*
X185032500Y-104277500D02*
X186336600Y-102973400D01*
D77*
X192435000Y-70531000D02*
X192435000Y-70191101D01*
D70*
X186330000Y-66440000D02*
X186584000Y-66694000D01*
D71*
X197839700Y-88322720D02*
X199400000Y-86762420D01*
D75*
%TO.N,SUPPLY*%
X197085000Y-55610000D02*
X203350000Y-49345000D01*
D68*
X202621000Y-92940000D02*
X202626000Y-92945000D01*
D73*
X217180000Y-92939000D02*
X217180000Y-91535945D01*
D75*
X197085000Y-55610000D02*
X205230000Y-63755000D01*
D68*
X202621000Y-91310000D02*
X202621000Y-92940000D01*
D75*
X160140000Y-65180000D02*
X160054999Y-65180000D01*
D68*
X215132000Y-92939000D02*
X215126000Y-92945000D01*
X202621000Y-89740000D02*
X202621000Y-91310000D01*
D76*
X201300000Y-87000000D02*
X201300000Y-88419000D01*
D75*
X169710000Y-55610000D02*
X197085000Y-55610000D01*
D76*
X201300000Y-88419000D02*
X202621000Y-89740000D01*
D73*
X217180000Y-91535945D02*
X212844055Y-87200000D01*
D75*
X169710000Y-55610000D02*
X160140000Y-65180000D01*
D71*
X215226000Y-92939000D02*
X215220000Y-92945000D01*
D68*
X203110000Y-91520000D02*
X203110000Y-92929000D01*
X202900000Y-91310000D02*
X203110000Y-91520000D01*
X202621000Y-91310000D02*
X202900000Y-91310000D01*
D75*
X203350000Y-49345000D02*
X205190000Y-49345000D01*
D71*
X217180000Y-92939000D02*
X215226000Y-92939000D01*
D68*
X203110000Y-92929000D02*
X203126000Y-92945000D01*
D73*
X212844055Y-87200000D02*
X211460000Y-87200000D01*
D68*
%TO.N,Net-(U3-BST_BK)*%
X203626000Y-93823060D02*
X203626000Y-92945000D01*
X202779481Y-94669579D02*
X203626000Y-93823060D01*
X202304079Y-94669579D02*
X202779481Y-94669579D01*
%TO.N,Net-(D4-K)*%
X202964902Y-87790000D02*
X203960000Y-88785098D01*
X204626000Y-92566940D02*
X204626000Y-92945000D01*
X203960000Y-91900940D02*
X204626000Y-92566940D01*
X204126000Y-92066940D02*
X204126000Y-92945000D01*
X203960000Y-91900940D02*
X204126000Y-92066940D01*
X203960000Y-88785098D02*
X203960000Y-91320000D01*
X203960000Y-91320000D02*
X203960000Y-91900940D01*
%TO.N,/MCU/CURRENT_1*%
X200747097Y-132429349D02*
X201905392Y-131271054D01*
X198400000Y-132429349D02*
X200747097Y-132429349D01*
%TO.N,/MCU/CURRENT_2*%
X200729705Y-133153849D02*
X202258946Y-131624608D01*
X199184559Y-133153849D02*
X200729705Y-133153849D01*
%TO.N,/MCU/ADC_TEMP*%
X207456181Y-135362819D02*
X206789000Y-136030000D01*
X206870000Y-137625000D02*
X206870000Y-139185000D01*
X206870000Y-139185000D02*
X206850000Y-139205000D01*
X207456181Y-134099481D02*
X207456181Y-135362819D01*
X206789000Y-136030000D02*
X206789000Y-137544000D01*
X206789000Y-137544000D02*
X206870000Y-137625000D01*
%TO.N,/MCU/CURRENT_3*%
X200712311Y-133878349D02*
X202612499Y-131978161D01*
X198331726Y-133878349D02*
X200712311Y-133878349D01*
%TO.N,/DRV8301/SENS_A*%
X203432258Y-133986830D02*
X204026713Y-133392375D01*
X203616650Y-135216650D02*
X203432258Y-135032258D01*
X203432258Y-135032258D02*
X203432258Y-133986830D01*
%TO.N,/EN_BUCK*%
X200670000Y-96141210D02*
X200670000Y-96510000D01*
X202126000Y-93823060D02*
X200950795Y-94998265D01*
X213058000Y-98882000D02*
X213267230Y-98672770D01*
D69*
X195832000Y-147202800D02*
X195832000Y-145037000D01*
X195670000Y-144875000D02*
X195670000Y-141805000D01*
X195832000Y-145037000D02*
X195670000Y-144875000D01*
D68*
X194470000Y-148564800D02*
X195832000Y-147202800D01*
X202126000Y-92945000D02*
X202126000Y-93823060D01*
X202300000Y-98140000D02*
X204060000Y-98140000D01*
X200670000Y-96510000D02*
X202300000Y-98140000D01*
D69*
X195832000Y-148247700D02*
X196429300Y-148845000D01*
D68*
X194470000Y-148920000D02*
X194470000Y-148564800D01*
X206226500Y-98882000D02*
X213058000Y-98882000D01*
D69*
X195832000Y-147202800D02*
X195832000Y-148247700D01*
D68*
X200950795Y-95860415D02*
X200670000Y-96141210D01*
X200950795Y-94998265D02*
X200950795Y-95860415D01*
D69*
X195670000Y-141805000D02*
X196010000Y-141465000D01*
%TO.N,Net-(D7-A)*%
X202690000Y-147530000D02*
X204473100Y-147530000D01*
X205351000Y-149930000D02*
X204476600Y-149055600D01*
X204473100Y-147530000D02*
X204476600Y-147533500D01*
X204476600Y-149055600D02*
X204476600Y-147533500D01*
X203275000Y-146945000D02*
X203275000Y-142159100D01*
X203275000Y-142159100D02*
X202568600Y-141452700D01*
X202690000Y-147530000D02*
X203275000Y-146945000D01*
D68*
%TO.N,/DRV8301/SENS_B*%
X205339351Y-132469351D02*
X205339351Y-132786843D01*
X205339351Y-132786843D02*
X204380266Y-133745928D01*
%TO.N,/MCU/TEMP_MOTOR*%
X235392602Y-129463301D02*
X232895903Y-131960000D01*
X227960000Y-131960000D02*
X227320000Y-131960000D01*
X236649902Y-129463301D02*
X235392602Y-129463301D01*
X228000000Y-130885000D02*
X228000000Y-131280000D01*
X217660000Y-137240000D02*
X215546446Y-137240000D01*
X226420000Y-132860000D02*
X222040000Y-132860000D01*
X227320000Y-131960000D02*
X226420000Y-132860000D01*
X228000000Y-131280000D02*
X227320000Y-131960000D01*
X222040000Y-132860000D02*
X217660000Y-137240000D01*
X227958400Y-133217800D02*
X227958400Y-132598400D01*
X227958400Y-132598400D02*
X227320000Y-131960000D01*
X215546446Y-137240000D02*
X209931054Y-131624608D01*
X232895903Y-131960000D02*
X227960000Y-131960000D01*
%TO.N,/DRV8301/SENS_C*%
X206180000Y-132653300D02*
X204733819Y-134099481D01*
X206180000Y-131720000D02*
X206180000Y-132653300D01*
%TO.N,/MCU/LED_RED*%
X212472157Y-133141041D02*
X211586169Y-132255053D01*
X211586169Y-131158403D02*
X210991714Y-130563948D01*
X211586169Y-132255053D02*
X211586169Y-131158403D01*
%TO.N,/MCU/LED_GREEN*%
X210043706Y-129568118D02*
X210043706Y-130323046D01*
X210067812Y-129544012D02*
X210043706Y-129568118D01*
X210043706Y-130323046D02*
X210638161Y-130917501D01*
D69*
%TO.N,Net-(D7-K)*%
X199254300Y-141465000D02*
X199266600Y-141452700D01*
X197600000Y-141435000D02*
X197570000Y-141465000D01*
X197570000Y-141465000D02*
X199254300Y-141465000D01*
X197600000Y-139255000D02*
X197600000Y-141435000D01*
%TO.N,Net-(D8-K)*%
X198939700Y-144875000D02*
X198966600Y-144848100D01*
X197230000Y-144875000D02*
X198939700Y-144875000D01*
D68*
%TO.N,Net-(P1-VBUS)*%
X231305201Y-96426000D02*
X232050700Y-95680501D01*
X227090602Y-96426000D02*
X231305201Y-96426000D01*
%TO.N,Net-(P1-D-)*%
X232000200Y-93731000D02*
X232050700Y-93680500D01*
X227780602Y-93731000D02*
X232000200Y-93731000D01*
%TO.N,Net-(P1-D+)*%
X227780602Y-90661000D02*
X228800101Y-91680499D01*
X228800101Y-91680499D02*
X232050700Y-91680499D01*
%TO.N,/CAN/CANL*%
X187285000Y-125420000D02*
X182628000Y-125420000D01*
X182628000Y-125420000D02*
X181620000Y-124412000D01*
X174695000Y-124745000D02*
X181287000Y-124745000D01*
X181287000Y-124745000D02*
X181620000Y-124412000D01*
%TO.N,/CAN/CANH*%
X187285000Y-126070000D02*
X182950000Y-126070000D01*
X174695000Y-126745000D02*
X180965000Y-126745000D01*
X182950000Y-126070000D02*
X181620000Y-127400000D01*
X180965000Y-126745000D02*
X181620000Y-127400000D01*
%TO.N,/MCU/HALL_3*%
X228442699Y-123463301D02*
X236649902Y-123463301D01*
X218426046Y-122740000D02*
X214833023Y-126333023D01*
X212046298Y-123379311D02*
X212025031Y-123358044D01*
X226401000Y-124611000D02*
X224530000Y-122740000D01*
X226401000Y-125505000D02*
X226401000Y-124611000D01*
X211232616Y-123358044D02*
X210638161Y-123952499D01*
X224530000Y-122740000D02*
X218426046Y-122740000D01*
X212025031Y-123358044D02*
X211232616Y-123358044D01*
X226401000Y-125505000D02*
X228442699Y-123463301D01*
%TO.N,/MCU/HALL_2*%
X226351000Y-127545000D02*
X229535299Y-124360701D01*
X212631448Y-127509293D02*
X212631448Y-127510000D01*
X238180000Y-120190000D02*
X219950741Y-120190000D01*
X238910000Y-120920000D02*
X238180000Y-120190000D01*
X219950741Y-120190000D02*
X212631448Y-127509293D01*
X236649902Y-125463302D02*
X237547801Y-125463302D01*
X212631448Y-127510000D02*
X211920000Y-127510000D01*
X210300813Y-125890813D02*
X210300813Y-124996953D01*
X237547801Y-125463302D02*
X238910000Y-124101103D01*
X211920000Y-127510000D02*
X210300813Y-125890813D01*
X210300813Y-124996953D02*
X210991714Y-124306052D01*
X229535299Y-124360701D02*
X235547301Y-124360701D01*
X235547301Y-124360701D02*
X236649902Y-125463302D01*
X238910000Y-124101103D02*
X238910000Y-120920000D01*
%TO.N,/MCU/HALL_1*%
X212190026Y-127060000D02*
X210750813Y-125620787D01*
X212340000Y-127060000D02*
X212190026Y-127060000D01*
X226411000Y-129385000D02*
X227246000Y-128550000D01*
X238420000Y-119740000D02*
X219764345Y-119740000D01*
X212445052Y-127060000D02*
X212340000Y-127060000D01*
X239400000Y-125970502D02*
X239400000Y-120720000D01*
X210750813Y-125254061D02*
X211345268Y-124659606D01*
X210750813Y-125620787D02*
X210750813Y-125254061D01*
X219764345Y-119740000D02*
X212444345Y-127060000D01*
X227246000Y-128550000D02*
X235563202Y-128550000D01*
X235563202Y-128550000D02*
X236649902Y-127463300D01*
X239400000Y-120720000D02*
X238420000Y-119740000D01*
X236649902Y-127463300D02*
X237907202Y-127463300D01*
X237907202Y-127463300D02*
X239400000Y-125970502D01*
X212444345Y-127060000D02*
X212340000Y-127060000D01*
X226411000Y-129595000D02*
X226411000Y-129385000D01*
%TO.N,Net-(P4-Pad6)*%
X224445000Y-125505000D02*
X224445000Y-129585000D01*
X224455000Y-129595000D02*
X224455000Y-130195000D01*
X221715000Y-129205000D02*
X224065000Y-129205000D01*
X235540000Y-132940000D02*
X235540000Y-132573202D01*
X224445000Y-129585000D02*
X224455000Y-129595000D01*
X224065000Y-129205000D02*
X224455000Y-129595000D01*
X235540000Y-132573202D02*
X236649902Y-131463300D01*
X224455000Y-130195000D02*
X225360000Y-131100000D01*
%TO.N,/MCU/SCK_ADC_EXT*%
X220155000Y-144035000D02*
X220155000Y-141215000D01*
X213330000Y-144290000D02*
X219900000Y-144290000D01*
X208870394Y-132685268D02*
X213330000Y-137144874D01*
X219900000Y-144290000D02*
X220155000Y-144035000D01*
X213330000Y-137144874D02*
X213330000Y-144290000D01*
%TO.N,/MCU/RX_SDA_NSS*%
X218120000Y-135590000D02*
X217129088Y-134599088D01*
X213589088Y-131040000D02*
X212052375Y-129503287D01*
X217129088Y-133279088D02*
X214890000Y-131040000D01*
X218155000Y-137855000D02*
X218155000Y-141215000D01*
X219770000Y-136240000D02*
X218155000Y-137855000D01*
X214890000Y-131040000D02*
X213589088Y-131040000D01*
X217129088Y-134599088D02*
X217129088Y-133279088D01*
%TO.N,/MCU/TX_SCL_MOSI*%
X213084670Y-135485330D02*
X209577501Y-131978161D01*
X215070000Y-137470660D02*
X215070000Y-140130000D01*
X208983046Y-131383706D02*
X208616320Y-131383706D01*
X210261980Y-128420000D02*
X211698821Y-129856841D01*
X207960000Y-130220000D02*
X209760000Y-128420000D01*
X215070000Y-140130000D02*
X216155000Y-141215000D01*
X208616320Y-131383706D02*
X207960000Y-130727386D01*
X207960000Y-130727386D02*
X207960000Y-130220000D01*
X215070000Y-137470660D02*
X213084670Y-135485330D01*
X209577501Y-131978161D02*
X208983046Y-131383706D01*
X209760000Y-128420000D02*
X210261980Y-128420000D01*
%TO.N,/MCU/MISO_ADC_EXT2*%
X209223948Y-132331714D02*
X214155000Y-137262766D01*
X214155000Y-137262766D02*
X214155000Y-141215000D01*
%TO.N,/CONN_SW*%
X204320000Y-141215000D02*
X212155000Y-141215000D01*
X202320000Y-139215000D02*
X204320000Y-141215000D01*
%TO.N,Net-(P6-Pad3)*%
X180984501Y-115105401D02*
X181042400Y-115163300D01*
X174713800Y-115105401D02*
X180984501Y-115105401D01*
%TO.N,/MCU/SWDIO*%
X204600000Y-125160000D02*
X204600000Y-124885000D01*
X205778274Y-122691726D02*
X206397920Y-122072080D01*
X206397920Y-122072080D02*
X207568832Y-122072080D01*
X198555499Y-116040001D02*
X193320000Y-116040001D01*
X205778274Y-123868122D02*
X205778274Y-122691726D01*
X198605500Y-115990000D02*
X198555499Y-116040001D01*
X204761396Y-124885000D02*
X205778274Y-123868122D01*
X204600000Y-124885000D02*
X204761396Y-124885000D01*
X207568832Y-122072080D02*
X208163287Y-121477625D01*
%TO.N,/MCU/SWCLK*%
X197780000Y-112390000D02*
X197429999Y-112039999D01*
X205328274Y-123681726D02*
X205328274Y-121364974D01*
X197429999Y-112039999D02*
X193320000Y-112039999D01*
X204575000Y-124435000D02*
X205328274Y-123681726D01*
X201965500Y-127274500D02*
X201965500Y-126824500D01*
X203875000Y-124859695D02*
X204299695Y-124435000D01*
X203875000Y-124915000D02*
X203875000Y-124859695D01*
X204299695Y-124435000D02*
X204575000Y-124435000D01*
X205328274Y-121364974D02*
X204733819Y-120770519D01*
X201965500Y-126824500D02*
X203875000Y-124915000D01*
D71*
%TO.N,Net-(Q1-G)*%
X174923001Y-77896869D02*
X174923001Y-67843001D01*
X173261000Y-87817130D02*
X173261000Y-79558870D01*
X200319500Y-82490000D02*
X200319500Y-83434500D01*
X173261000Y-79558870D02*
X174923001Y-77896869D01*
X183120000Y-89840000D02*
X183100585Y-89820585D01*
X183100585Y-89820585D02*
X175264455Y-89820585D01*
X174923001Y-67843001D02*
X174620000Y-67540000D01*
X175264455Y-89820585D02*
X173261000Y-87817130D01*
X200319500Y-83434500D02*
X200855000Y-83970000D01*
%TO.N,Net-(Q2-G)*%
X194890000Y-57860000D02*
X203940000Y-66910000D01*
X201450000Y-77280000D02*
X203499000Y-79329000D01*
X170999000Y-62767499D02*
X171354600Y-62411899D01*
X203940000Y-66910000D02*
X203940000Y-68520000D01*
X203499000Y-79329000D02*
X203499000Y-83950000D01*
X179310000Y-57860000D02*
X194890000Y-57860000D01*
X174758101Y-62411899D02*
X179310000Y-57860000D01*
X171354600Y-62411899D02*
X174758101Y-62411899D01*
%TO.N,Net-(Q3-G)*%
X201040000Y-74710000D02*
X205053000Y-78723000D01*
X205053000Y-78723000D02*
X205053000Y-83930000D01*
X201040000Y-74090000D02*
X201040000Y-74710000D01*
%TO.N,Net-(Q4-G)*%
X207170000Y-83367000D02*
X206587000Y-83950000D01*
X195512499Y-59912499D02*
X195512499Y-61522499D01*
X184333350Y-62663699D02*
X188384950Y-58612099D01*
X195512499Y-61522499D02*
X209640000Y-75650000D01*
X209640000Y-75650000D02*
X209640000Y-77860000D01*
X181249000Y-62663699D02*
X184333350Y-62663699D01*
X207170000Y-80030000D02*
X207170000Y-83367000D01*
X188384950Y-58612099D02*
X194212099Y-58612099D01*
X194212099Y-58612099D02*
X195512499Y-59912499D01*
%TO.N,Net-(Q5-G)*%
X208121000Y-78550002D02*
X208121000Y-83950000D01*
X208078000Y-78507002D02*
X208121000Y-78550002D01*
X208078000Y-76090528D02*
X208078000Y-78507002D01*
X202421471Y-70433999D02*
X208078000Y-76090528D01*
X201872032Y-70433999D02*
X202421471Y-70433999D01*
%TO.N,Net-(Q6-G)*%
X209585000Y-83930000D02*
X209585000Y-79012739D01*
X191404600Y-62230499D02*
X191049000Y-62586099D01*
X209585000Y-79012739D02*
X208786000Y-78213739D01*
X195219235Y-62230499D02*
X191404600Y-62230499D01*
X208786000Y-78213739D02*
X208786000Y-75797264D01*
X208786000Y-75797264D02*
X195219235Y-62230499D01*
D72*
%TO.N,/DRV8301/SENS_SUPPLY*%
X181600000Y-140250000D02*
X193030000Y-140250000D01*
X198956001Y-134323999D02*
X200973767Y-134323999D01*
X200973767Y-134323999D02*
X202966052Y-132331714D01*
X193030000Y-140250000D02*
X198956001Y-134323999D01*
D68*
%TO.N,/MCU/USB_DM*%
X208063695Y-123576305D02*
X208063695Y-122991431D01*
X224080000Y-94499602D02*
X224848602Y-93731000D01*
X208063695Y-122991431D02*
X208870394Y-122184732D01*
X224080000Y-95850000D02*
X224080000Y-94499602D01*
%TO.N,/MCU/USB_DP*%
X223194500Y-97858912D02*
X223204500Y-97848912D01*
X206672796Y-122821802D02*
X206972518Y-122522080D01*
X223204500Y-97848912D02*
X223204500Y-92305102D01*
X223204500Y-92305102D02*
X224848602Y-90661000D01*
X207825940Y-122522080D02*
X208516841Y-121831179D01*
X206972518Y-122522080D02*
X207825940Y-122522080D01*
%TO.N,/BMI160/SCL*%
X203255000Y-119998806D02*
X204380266Y-121124072D01*
X205646000Y-113336000D02*
X205646000Y-114436000D01*
X202520000Y-119150000D02*
X202520000Y-119263806D01*
X203255000Y-117927500D02*
X203255000Y-119998806D01*
X202520000Y-119263806D02*
X203255000Y-119998806D01*
X205646000Y-114436000D02*
X205910000Y-114700000D01*
%TO.N,Net-(U3-VSENSE)*%
X190125400Y-105860400D02*
X198165055Y-105860400D01*
X198165055Y-105860400D02*
X202626000Y-101399455D01*
X189630000Y-105365000D02*
X190125400Y-105860400D01*
X188060000Y-105335000D02*
X189600000Y-105335000D01*
X202626000Y-101399455D02*
X202626000Y-100385000D01*
X189600000Y-105335000D02*
X189630000Y-105365000D01*
%TO.N,Net-(U3-DTC)*%
X200160000Y-99865000D02*
X200160000Y-100840000D01*
X203120000Y-102570000D02*
X203493600Y-102570000D01*
X203493600Y-102570000D02*
X204626000Y-101437600D01*
X200160000Y-100840000D02*
X200320000Y-101000000D01*
X204626000Y-101437600D02*
X204626000Y-100385000D01*
%TO.N,Net-(U3-RT_CLK)*%
X201626000Y-100724000D02*
X201626000Y-100385000D01*
X200625000Y-101725000D02*
X201626000Y-100724000D01*
X192930000Y-101355000D02*
X193300000Y-101725000D01*
X193300000Y-101725000D02*
X200625000Y-101725000D01*
D75*
%TO.N,Net-(P8-Pin_1)*%
X167075000Y-77025000D02*
X162970000Y-81130000D01*
X167075000Y-76811000D02*
X167075000Y-77720714D01*
X168670000Y-85540000D02*
X168670000Y-86900000D01*
X163470000Y-80416000D02*
X163470000Y-86220000D01*
X167075000Y-78773572D02*
X167731428Y-79430000D01*
X167075000Y-76811000D02*
X167075000Y-77805000D01*
X167075000Y-76811000D02*
X168011000Y-76811000D01*
X167075000Y-83005000D02*
X169670000Y-85600000D01*
X167075000Y-76811000D02*
X167075000Y-77025000D01*
X167075000Y-79795000D02*
X165740000Y-81130000D01*
X165586666Y-84976666D02*
X165586666Y-83280000D01*
X167075000Y-76811000D02*
X165469000Y-76811000D01*
X165469000Y-76811000D02*
X164520000Y-77760000D01*
X168290000Y-86900000D02*
X167900000Y-87290000D01*
X166839999Y-85660000D02*
X165950000Y-85660000D01*
X167075000Y-76811000D02*
X164410000Y-79476000D01*
X164410000Y-79476000D02*
X164410000Y-85850000D01*
X167075000Y-77805000D02*
X171440000Y-82170000D01*
X168663332Y-86040000D02*
X168283332Y-85660000D01*
X162970000Y-81130000D02*
X162970000Y-79460000D01*
X167075000Y-87155000D02*
X167050000Y-87180000D01*
X162660000Y-81226000D02*
X162660000Y-87060000D01*
X165950000Y-85660000D02*
X164430000Y-87180000D01*
X168011000Y-76811000D02*
X171470000Y-80270000D01*
X167075000Y-78410000D02*
X164355000Y-81130000D01*
X171470000Y-80270000D02*
X171470000Y-82140000D01*
X165200000Y-82270000D02*
X165985000Y-82270000D01*
X167075000Y-81545000D02*
X171570000Y-86040000D01*
X168370000Y-87190000D02*
X168360000Y-87180000D01*
X167075000Y-76811000D02*
X167075000Y-83981666D01*
D68*
X169750000Y-87350000D02*
X169900000Y-87500000D01*
D75*
X171590000Y-87190000D02*
X168370000Y-87190000D01*
X165985000Y-82270000D02*
X167125000Y-81130000D01*
X167075000Y-76811000D02*
X167075000Y-87155000D01*
X167075000Y-76811000D02*
X167075000Y-81545000D01*
X167075000Y-80415000D02*
X171520000Y-84860000D01*
X167075000Y-76811000D02*
X167075000Y-78410000D01*
X167075000Y-76811000D02*
X167075000Y-78985000D01*
X166801857Y-76811000D02*
X164182857Y-79430000D01*
X167075000Y-78903571D02*
X166548571Y-79430000D01*
X167075000Y-76811000D02*
X167075000Y-82675000D01*
X167075000Y-82675000D02*
X171590000Y-87190000D01*
X167075000Y-76811000D02*
X163470000Y-80416000D01*
X171470000Y-82140000D02*
X171440000Y-82170000D01*
X168670000Y-78406000D02*
X168670000Y-85540000D01*
X163470000Y-86220000D02*
X164430000Y-87180000D01*
X162970000Y-79460000D02*
X163000000Y-79430000D01*
X164410000Y-85850000D02*
X165740000Y-87180000D01*
X171440000Y-81250000D02*
X170210000Y-80020000D01*
X167075000Y-76811000D02*
X162660000Y-81226000D01*
X167075000Y-76811000D02*
X167075000Y-80415000D01*
X171570000Y-86040000D02*
X168663332Y-86040000D01*
X165396666Y-85660000D02*
X165530000Y-85660000D01*
X165740000Y-87180000D02*
X167050000Y-87180000D01*
X167075000Y-83055000D02*
X165450000Y-84680000D01*
X167075000Y-76811000D02*
X167075000Y-78773572D01*
X167075000Y-76811000D02*
X168670000Y-78406000D01*
X164520000Y-78076868D02*
X163166868Y-79430000D01*
D68*
X168283332Y-85660000D02*
X168550000Y-85660000D01*
D75*
X163166868Y-79430000D02*
X163000000Y-79430000D01*
X167075000Y-76811000D02*
X167075000Y-78903571D01*
X167075000Y-76811000D02*
X167075000Y-83055000D01*
X165530000Y-85660000D02*
X167050000Y-87180000D01*
X168670000Y-86900000D02*
X168290000Y-86900000D01*
X165200000Y-78686000D02*
X165200000Y-82270000D01*
D68*
X169750000Y-82810000D02*
X169750000Y-87350000D01*
D75*
X167075000Y-76811000D02*
X167075000Y-76885000D01*
X171440000Y-82170000D02*
X171440000Y-81250000D01*
X167075000Y-76811000D02*
X167075000Y-83005000D01*
X167075000Y-77720714D02*
X165365714Y-79430000D01*
X164520000Y-77760000D02*
X164520000Y-78076868D01*
D77*
X167075000Y-76811000D02*
X167075000Y-84675000D01*
D68*
X168550000Y-85660000D02*
X168670000Y-85540000D01*
D75*
X167075000Y-76811000D02*
X165200000Y-78686000D01*
X167075000Y-76811000D02*
X166801857Y-76811000D01*
X167075000Y-78985000D02*
X171440000Y-83350000D01*
X167075000Y-76885000D02*
X170210000Y-80020000D01*
X162660000Y-87060000D02*
X163000000Y-87060000D01*
X163000000Y-87060000D02*
X163120000Y-87180000D01*
X167075000Y-76811000D02*
X167075000Y-79795000D01*
X167075000Y-83981666D02*
X165396666Y-85660000D01*
X167900000Y-87290000D02*
X165586666Y-84976666D01*
D69*
%TO.N,Net-(U5-IN-)*%
X163790000Y-75090000D02*
X163790000Y-75961000D01*
X163790000Y-75961000D02*
X162940000Y-76811000D01*
%TO.N,Net-(U5-IN+)*%
X163837768Y-72748768D02*
X162940000Y-71851000D01*
X163837768Y-73175304D02*
X163837768Y-72748768D01*
D73*
%TO.N,/DRV8301/GH_A*%
X198446100Y-89293900D02*
X198446100Y-96058023D01*
X205930000Y-94695100D02*
X206118400Y-94506700D01*
X200072400Y-97672400D02*
X201380000Y-98980000D01*
X200855000Y-85530000D02*
X200855000Y-86164999D01*
X201380000Y-98980000D02*
X204440000Y-98980000D01*
X204848600Y-94901530D02*
X205055030Y-94695100D01*
X205055030Y-94695100D02*
X205930000Y-94695100D01*
X200855000Y-86164999D02*
X198460000Y-88559999D01*
X198446100Y-96058023D02*
X200060477Y-97672400D01*
X206118400Y-94506700D02*
X206118400Y-93112546D01*
X204440000Y-98980000D02*
X204848600Y-98571400D01*
X204848600Y-98571400D02*
X204848600Y-94901530D01*
X198460000Y-88559999D02*
X198460000Y-89280000D01*
X200060477Y-97672400D02*
X200072400Y-97672400D01*
X198460000Y-89280000D02*
X198446100Y-89293900D01*
%TO.N,/DRV8301/GL_A*%
X207126000Y-92028190D02*
X207126000Y-92945000D01*
X204235600Y-86070970D02*
X204442030Y-86277400D01*
X203499000Y-85510000D02*
X204170000Y-85510000D01*
X207770000Y-89110000D02*
X207770000Y-90465854D01*
X204442030Y-86277400D02*
X204937400Y-86277400D01*
X207770000Y-90465854D02*
X207648599Y-90587255D01*
X207648599Y-90587255D02*
X207648600Y-91505590D01*
X204235600Y-85575600D02*
X204235600Y-86070970D01*
X204937400Y-86277400D02*
X207770000Y-89110000D01*
X207648600Y-91505590D02*
X207126000Y-92028190D01*
X204170000Y-85510000D02*
X204235600Y-85575600D01*
D77*
%TO.N,Net-(P9-Pin_1)*%
X176000000Y-84866667D02*
X177063333Y-85930000D01*
X180825000Y-76721000D02*
X183800000Y-79696000D01*
X180825000Y-78725000D02*
X176000000Y-83550000D01*
X183800000Y-86460000D02*
X177593333Y-86460000D01*
X180825000Y-77941000D02*
X178720000Y-80046000D01*
X183800000Y-79696000D02*
X183800000Y-86460000D01*
X178696666Y-84813334D02*
X178560000Y-84950000D01*
X178720000Y-80046000D02*
X176110000Y-80046000D01*
X178696666Y-83550000D02*
X178696666Y-84813334D01*
X180825000Y-76721000D02*
X180825000Y-78725000D01*
X180825000Y-76721000D02*
X180825000Y-85361668D01*
X180825000Y-76721000D02*
X180825000Y-77941000D01*
X180825000Y-85361668D02*
X181393332Y-85930000D01*
X177593333Y-86460000D02*
X177063333Y-85930000D01*
X176000000Y-83550000D02*
X176000000Y-84866667D01*
D69*
%TO.N,Net-(U6-IN-)*%
X178330000Y-74510000D02*
X176690000Y-76150000D01*
X176690000Y-76150000D02*
X176690000Y-77111000D01*
%TO.N,Net-(U6-IN+)*%
X177584381Y-73045381D02*
X176690000Y-72151000D01*
X177584381Y-73459913D02*
X177584381Y-73045381D01*
D73*
%TO.N,/DRV8301/GH_B*%
X207575592Y-88012592D02*
X205053000Y-85490000D01*
X209893783Y-88764777D02*
X209893783Y-88724720D01*
X208630000Y-94330000D02*
X208630000Y-92949000D01*
X209181655Y-88012592D02*
X207575592Y-88012592D01*
X209893783Y-88724720D02*
X209181655Y-88012592D01*
X208630000Y-92949000D02*
X208626000Y-92945000D01*
%TO.N,/DRV8301/GL_B*%
X210878578Y-88684917D02*
X210878578Y-88935611D01*
X206587000Y-85510000D02*
X208584792Y-87507792D01*
X209626000Y-94236000D02*
X209626000Y-92945000D01*
X209750000Y-94360000D02*
X209626000Y-94236000D01*
X208584792Y-87507792D02*
X209701453Y-87507792D01*
X209701453Y-87507792D02*
X210878578Y-88684917D01*
D77*
%TO.N,Net-(P10-Pin_1)*%
X195716290Y-87110000D02*
X190840000Y-87110000D01*
X195860000Y-79080000D02*
X193270000Y-81670000D01*
X190840000Y-87110000D02*
X189920000Y-86190000D01*
X193655000Y-77931000D02*
X193655000Y-76711000D01*
X197041000Y-80639000D02*
X197041000Y-85785290D01*
X197041000Y-85785290D02*
X195716290Y-87110000D01*
X189920000Y-80160000D02*
X191426000Y-80160000D01*
X193270000Y-81670000D02*
X193270000Y-84410000D01*
X195860000Y-78580000D02*
X195860000Y-79080000D01*
X191426000Y-80160000D02*
X193655000Y-77931000D01*
X189920000Y-86190000D02*
X189920000Y-80160000D01*
X193270000Y-84410000D02*
X197041000Y-80639000D01*
D69*
%TO.N,Net-(U7-IN-)*%
X190405500Y-75520000D02*
X190405500Y-75825500D01*
X190405500Y-75825500D02*
X189520000Y-76711000D01*
%TO.N,Net-(U7-IN+)*%
X190360000Y-73550000D02*
X190360000Y-72591000D01*
X190360000Y-72591000D02*
X189520000Y-71751000D01*
D73*
%TO.N,/DRV8301/GH_C*%
X209613992Y-87002992D02*
X209910549Y-87002992D01*
X211126000Y-94364000D02*
X211126000Y-92945000D01*
X208121000Y-85510000D02*
X209613992Y-87002992D01*
X214250000Y-89810000D02*
X214250000Y-90530000D01*
X209910549Y-87002992D02*
X211090768Y-88183211D01*
X211110000Y-94380000D02*
X211126000Y-94364000D01*
X211090768Y-88183211D02*
X212623211Y-88183211D01*
X212623211Y-88183211D02*
X214250000Y-89810000D01*
%TO.N,/DRV8301/GL_C*%
X209585000Y-85490000D02*
X211869370Y-85490000D01*
X212306655Y-94512600D02*
X212126000Y-94331945D01*
X211869370Y-85490000D02*
X218487400Y-92108030D01*
X218487400Y-92108030D02*
X218487400Y-94512600D01*
X218487400Y-94512600D02*
X212306655Y-94512600D01*
X212126000Y-94331945D02*
X212126000Y-92945000D01*
D68*
%TO.N,/Power/C_A*%
X180104695Y-105100000D02*
X179104695Y-104100000D01*
X179104695Y-104100000D02*
X174200000Y-104100000D01*
%TO.N,/Power/C_B*%
X180920000Y-100700000D02*
X180920000Y-107540000D01*
X180920000Y-107540000D02*
X184090000Y-110710000D01*
X186030000Y-73680000D02*
X186030000Y-95590000D01*
X186030000Y-95590000D02*
X180920000Y-100700000D01*
X184900000Y-72550000D02*
X186030000Y-73680000D01*
%TO.N,/Power/C_C*%
X184815000Y-112925000D02*
X184815000Y-110409695D01*
X181370000Y-101070000D02*
X181676500Y-100763500D01*
D69*
X187490000Y-72310000D02*
X187009500Y-72790500D01*
D68*
X184815000Y-110409695D02*
X181370000Y-106964695D01*
X181370000Y-106964695D02*
X181370000Y-101070000D01*
D69*
X187009500Y-95430500D02*
X181676500Y-100763500D01*
X187009500Y-72790500D02*
X187009500Y-95430500D01*
D68*
X184490000Y-113250000D02*
X184815000Y-112925000D01*
%TO.N,/BMI160/SDA*%
X212550000Y-131490000D02*
X212550000Y-131994000D01*
X203755000Y-118435000D02*
X203755000Y-117927500D01*
X204800000Y-119480000D02*
X203755000Y-118435000D01*
X212550000Y-131994000D02*
X213943381Y-133387381D01*
X212550000Y-131415126D02*
X211345268Y-130210394D01*
X212550000Y-131490000D02*
X212550000Y-131415126D01*
D69*
%TO.N,Net-(R45-Pad2)*%
X200720000Y-139255000D02*
X200760000Y-139215000D01*
X199160000Y-139255000D02*
X200720000Y-139255000D01*
D68*
%TO.N,/SHUTDOWN*%
X209459978Y-130446424D02*
X210284608Y-131271054D01*
X209017086Y-130446424D02*
X209459978Y-130446424D01*
D69*
X199702000Y-147530000D02*
X199702000Y-149092000D01*
X199702000Y-149092000D02*
X199810000Y-149200000D01*
D73*
%TO.N,/DRV8301/EN_GATE*%
X202787049Y-125327805D02*
X202787049Y-124462375D01*
X200877600Y-127477600D02*
X200877600Y-127237254D01*
D68*
X209126000Y-113224000D02*
X209126000Y-100385000D01*
D73*
X200877600Y-127237254D02*
X202787049Y-125327805D01*
D68*
X202787049Y-124462375D02*
X202768821Y-124462375D01*
D73*
X202970000Y-128860000D02*
X202260000Y-128860000D01*
D68*
X207755000Y-114595000D02*
X209126000Y-113224000D01*
D73*
X202260000Y-128860000D02*
X200877600Y-127477600D01*
D68*
X202768821Y-124462375D02*
X201905392Y-123598946D01*
%TO.N,/DRV8301/SENS_FILTERED*%
X186095055Y-130354849D02*
X198578957Y-130354849D01*
X198578957Y-130354849D02*
X199784072Y-129149734D01*
X186070000Y-130379904D02*
X186095055Y-130354849D01*
%TO.N,/DRV8301/INL_A*%
X214370000Y-123756194D02*
X212405928Y-125720266D01*
X210126000Y-113800604D02*
X214370000Y-118044604D01*
X214370000Y-118044604D02*
X214370000Y-123756194D01*
X210126000Y-100385000D02*
X210126000Y-113800604D01*
%TO.N,/DRV8301/INL_B*%
X213910000Y-115540000D02*
X213910000Y-115534701D01*
X213495798Y-123923290D02*
X212052375Y-125366713D01*
X213910000Y-115534701D02*
X211126000Y-112750701D01*
X211126000Y-112750701D02*
X211126000Y-100385000D01*
X213495798Y-123605798D02*
X213495798Y-123923290D01*
%TO.N,/DRV8301/INL_C*%
X212600000Y-111820000D02*
X212600000Y-111814195D01*
X212770798Y-123032876D02*
X212770798Y-123941182D01*
X212600000Y-111814195D02*
X212126000Y-111340195D01*
X212126000Y-111340195D02*
X212126000Y-100385000D01*
X213185500Y-122618174D02*
X212770798Y-123032876D01*
X212770798Y-123941182D02*
X211698821Y-125013159D01*
X214010000Y-113230000D02*
X212600000Y-111820000D01*
%TO.N,/DRV8301/CS*%
X212544061Y-117243264D02*
X212940000Y-117639203D01*
X200588200Y-109215500D02*
X200313700Y-109490000D01*
X205126000Y-100385000D02*
X205126000Y-101604812D01*
X200588200Y-106142612D02*
X200588200Y-109215500D01*
X205126000Y-101604812D02*
X200588200Y-106142612D01*
X212940000Y-117639203D02*
X212940000Y-120943554D01*
X212940000Y-120943554D02*
X210284608Y-123598946D01*
%TO.N,/DRV8301/INH_A*%
X212490000Y-120686446D02*
X209931054Y-123245392D01*
X209626000Y-100385000D02*
X209626000Y-113937000D01*
X211030000Y-117020000D02*
X212490000Y-118480000D01*
X212490000Y-118480000D02*
X212490000Y-120686446D01*
X211030000Y-115341000D02*
X211030000Y-117020000D01*
X209626000Y-113937000D02*
X211030000Y-115341000D01*
%TO.N,/DRV8301/INH_B*%
X210242666Y-122297384D02*
X210171956Y-122297384D01*
X211765500Y-120774550D02*
X210242666Y-122297384D01*
X210626000Y-113276006D02*
X210880247Y-113530253D01*
X210626000Y-100385000D02*
X210626000Y-113276006D01*
X211765500Y-120100000D02*
X211765500Y-120774550D01*
X210171956Y-122297384D02*
X209577501Y-122891839D01*
%TO.N,/DRV8301/INH_C*%
X211626000Y-100385000D02*
X211626000Y-111865500D01*
X210580000Y-121182234D02*
X209223948Y-122538286D01*
X210279951Y-115615549D02*
X210580000Y-115915598D01*
X211626000Y-111865500D02*
X211850500Y-112090000D01*
X210580000Y-115915598D02*
X210580000Y-121182234D01*
%TO.N,/DRV8301/SCLK*%
X200680000Y-118570000D02*
X202993171Y-120883171D01*
X202993171Y-120883171D02*
X203432259Y-120883171D01*
X203432259Y-120883171D02*
X204026713Y-121477625D01*
X201938200Y-106701800D02*
X201938200Y-110163597D01*
X206626000Y-100385000D02*
X206626000Y-102014000D01*
X201938200Y-110163597D02*
X200680000Y-111421797D01*
X206626000Y-102014000D02*
X201938200Y-106701800D01*
X200680000Y-111421797D02*
X200680000Y-118570000D01*
%TO.N,/MCU/CURR_FILTER_ON*%
X198334500Y-122020000D02*
X198444500Y-122130000D01*
X203969500Y-123541734D02*
X202966052Y-122538286D01*
X203969500Y-123590000D02*
X203969500Y-123541734D01*
X195880500Y-122020000D02*
X198334500Y-122020000D01*
%TO.N,/DRV8301/SDO*%
X201488200Y-106515404D02*
X201488200Y-109977201D01*
X206126000Y-100385000D02*
X206126000Y-101877604D01*
X200230000Y-111235401D02*
X200230000Y-120509340D01*
X206126000Y-101877604D02*
X201488200Y-106515404D01*
X200230000Y-120509340D02*
X202612499Y-122891839D01*
X201488200Y-109977201D02*
X200230000Y-111235401D01*
%TO.N,/DRV8301/SDI*%
X205626000Y-101741208D02*
X201038200Y-106329008D01*
X199780000Y-111049005D02*
X199780000Y-120766446D01*
X199780000Y-120766446D02*
X202258946Y-123245392D01*
X201038200Y-106329008D02*
X201038200Y-109790805D01*
X205626000Y-100385000D02*
X205626000Y-101741208D01*
X201038200Y-109790805D02*
X199780000Y-111049005D01*
%TO.N,/DRV8301/FAULT*%
X202395000Y-102605000D02*
X199330000Y-105670000D01*
X203569059Y-101820000D02*
X202844695Y-101820000D01*
X199330000Y-122437766D02*
X201198286Y-124306052D01*
X202844695Y-101820000D02*
X202395000Y-102269695D01*
X204126000Y-101263059D02*
X203569059Y-101820000D01*
X204126000Y-100385000D02*
X204126000Y-101263059D01*
X202395000Y-102269695D02*
X202395000Y-102605000D01*
X199330000Y-105670000D02*
X199330000Y-122437766D01*
%TO.N,/CAN/RX*%
X199800278Y-124322258D02*
X200491179Y-125013159D01*
X190545000Y-124610000D02*
X196702309Y-124610000D01*
X190385000Y-124770000D02*
X190545000Y-124610000D01*
X196702309Y-124610000D02*
X196990051Y-124322258D01*
X196990051Y-124322258D02*
X199800278Y-124322258D01*
%TO.N,/CAN/TX*%
X197176447Y-124772258D02*
X199543170Y-124772258D01*
X195228705Y-126720000D02*
X197176447Y-124772258D01*
X199543170Y-124772258D02*
X200137625Y-125366713D01*
X190385000Y-126720000D02*
X195228705Y-126720000D01*
%TD*%
M02*
