%TF.GenerationSoftware,KiCad,Pcbnew,7.0.8*%
%TF.CreationDate,2023-12-22T14:09:36-07:00*%
%TF.ProjectId,VESC-6-MK5,56455343-2d36-42d4-9d4b-352e6b696361,rev?*%
%TF.SameCoordinates,Original*%
%TF.FileFunction,Legend,Bot*%
%TF.FilePolarity,Positive*%
%FSLAX46Y46*%
G04 Gerber Fmt 4.6, Leading zero omitted, Abs format (unit mm)*
G04 Created by KiCad (PCBNEW 7.0.8) date 2023-12-22 14:09:36*
%MOMM*%
%LPD*%
G01*
G04 APERTURE LIST*
%ADD10C,0.152400*%
%ADD11C,0.150000*%
%ADD12C,0.254000*%
%ADD13C,0.508000*%
%ADD14C,0.127000*%
%ADD15C,0.200000*%
G04 APERTURE END LIST*
D10*
X186926932Y-53640361D02*
X186957170Y-53670600D01*
X186957170Y-53670600D02*
X187047884Y-53700838D01*
X187047884Y-53700838D02*
X187108360Y-53700838D01*
X187108360Y-53700838D02*
X187199075Y-53670600D01*
X187199075Y-53670600D02*
X187259551Y-53610123D01*
X187259551Y-53610123D02*
X187289789Y-53549647D01*
X187289789Y-53549647D02*
X187320027Y-53428695D01*
X187320027Y-53428695D02*
X187320027Y-53337980D01*
X187320027Y-53337980D02*
X187289789Y-53217028D01*
X187289789Y-53217028D02*
X187259551Y-53156552D01*
X187259551Y-53156552D02*
X187199075Y-53096076D01*
X187199075Y-53096076D02*
X187108360Y-53065838D01*
X187108360Y-53065838D02*
X187047884Y-53065838D01*
X187047884Y-53065838D02*
X186957170Y-53096076D01*
X186957170Y-53096076D02*
X186926932Y-53126314D01*
X186382646Y-53277504D02*
X186382646Y-53700838D01*
X186533837Y-53035600D02*
X186685027Y-53489171D01*
X186685027Y-53489171D02*
X186291932Y-53489171D01*
X186110503Y-53065838D02*
X185717408Y-53065838D01*
X185717408Y-53065838D02*
X185929075Y-53307742D01*
X185929075Y-53307742D02*
X185838360Y-53307742D01*
X185838360Y-53307742D02*
X185777884Y-53337980D01*
X185777884Y-53337980D02*
X185747646Y-53368219D01*
X185747646Y-53368219D02*
X185717408Y-53428695D01*
X185717408Y-53428695D02*
X185717408Y-53579885D01*
X185717408Y-53579885D02*
X185747646Y-53640361D01*
X185747646Y-53640361D02*
X185777884Y-53670600D01*
X185777884Y-53670600D02*
X185838360Y-53700838D01*
X185838360Y-53700838D02*
X186019789Y-53700838D01*
X186019789Y-53700838D02*
X186080265Y-53670600D01*
X186080265Y-53670600D02*
X186110503Y-53640361D01*
X206821492Y-75068138D02*
X206821492Y-74433138D01*
X206821492Y-74433138D02*
X206670302Y-74433138D01*
X206670302Y-74433138D02*
X206579587Y-74463376D01*
X206579587Y-74463376D02*
X206519111Y-74523852D01*
X206519111Y-74523852D02*
X206488873Y-74584328D01*
X206488873Y-74584328D02*
X206458635Y-74705280D01*
X206458635Y-74705280D02*
X206458635Y-74795995D01*
X206458635Y-74795995D02*
X206488873Y-74916947D01*
X206488873Y-74916947D02*
X206519111Y-74977423D01*
X206519111Y-74977423D02*
X206579587Y-75037900D01*
X206579587Y-75037900D02*
X206670302Y-75068138D01*
X206670302Y-75068138D02*
X206821492Y-75068138D01*
X205914349Y-74644804D02*
X205914349Y-75068138D01*
X206065540Y-74402900D02*
X206216730Y-74856471D01*
X206216730Y-74856471D02*
X205823635Y-74856471D01*
D11*
X203914401Y-75877119D02*
X203914401Y-76115214D01*
X204152496Y-76019976D02*
X203914401Y-76115214D01*
X203914401Y-76115214D02*
X203676306Y-76019976D01*
X204057258Y-76305690D02*
X203914401Y-76115214D01*
X203914401Y-76115214D02*
X203771544Y-76305690D01*
X203914402Y-76967480D02*
X203914402Y-76729385D01*
X203676307Y-76824623D02*
X203914402Y-76729385D01*
X203914402Y-76729385D02*
X204152497Y-76824623D01*
X203771545Y-76538909D02*
X203914402Y-76729385D01*
X203914402Y-76729385D02*
X204057259Y-76538909D01*
D10*
X192616102Y-76365361D02*
X192646340Y-76395600D01*
X192646340Y-76395600D02*
X192737054Y-76425838D01*
X192737054Y-76425838D02*
X192797530Y-76425838D01*
X192797530Y-76425838D02*
X192888245Y-76395600D01*
X192888245Y-76395600D02*
X192948721Y-76335123D01*
X192948721Y-76335123D02*
X192978959Y-76274647D01*
X192978959Y-76274647D02*
X193009197Y-76153695D01*
X193009197Y-76153695D02*
X193009197Y-76062980D01*
X193009197Y-76062980D02*
X192978959Y-75942028D01*
X192978959Y-75942028D02*
X192948721Y-75881552D01*
X192948721Y-75881552D02*
X192888245Y-75821076D01*
X192888245Y-75821076D02*
X192797530Y-75790838D01*
X192797530Y-75790838D02*
X192737054Y-75790838D01*
X192737054Y-75790838D02*
X192646340Y-75821076D01*
X192646340Y-75821076D02*
X192616102Y-75851314D01*
X192071816Y-76002504D02*
X192071816Y-76425838D01*
X192223007Y-75760600D02*
X192374197Y-76214171D01*
X192374197Y-76214171D02*
X191981102Y-76214171D01*
X191769435Y-75851314D02*
X191739197Y-75821076D01*
X191739197Y-75821076D02*
X191678721Y-75790838D01*
X191678721Y-75790838D02*
X191527530Y-75790838D01*
X191527530Y-75790838D02*
X191467054Y-75821076D01*
X191467054Y-75821076D02*
X191436816Y-75851314D01*
X191436816Y-75851314D02*
X191406578Y-75911790D01*
X191406578Y-75911790D02*
X191406578Y-75972266D01*
X191406578Y-75972266D02*
X191436816Y-76062980D01*
X191436816Y-76062980D02*
X191799673Y-76425838D01*
X191799673Y-76425838D02*
X191406578Y-76425838D01*
D11*
X160876792Y-73854819D02*
X160876792Y-74664342D01*
X160876792Y-74664342D02*
X160829173Y-74759580D01*
X160829173Y-74759580D02*
X160781554Y-74807200D01*
X160781554Y-74807200D02*
X160686316Y-74854819D01*
X160686316Y-74854819D02*
X160495840Y-74854819D01*
X160495840Y-74854819D02*
X160400602Y-74807200D01*
X160400602Y-74807200D02*
X160352983Y-74759580D01*
X160352983Y-74759580D02*
X160305364Y-74664342D01*
X160305364Y-74664342D02*
X160305364Y-73854819D01*
X159352983Y-73854819D02*
X159829173Y-73854819D01*
X159829173Y-73854819D02*
X159876792Y-74331009D01*
X159876792Y-74331009D02*
X159829173Y-74283390D01*
X159829173Y-74283390D02*
X159733935Y-74235771D01*
X159733935Y-74235771D02*
X159495840Y-74235771D01*
X159495840Y-74235771D02*
X159400602Y-74283390D01*
X159400602Y-74283390D02*
X159352983Y-74331009D01*
X159352983Y-74331009D02*
X159305364Y-74426247D01*
X159305364Y-74426247D02*
X159305364Y-74664342D01*
X159305364Y-74664342D02*
X159352983Y-74759580D01*
X159352983Y-74759580D02*
X159400602Y-74807200D01*
X159400602Y-74807200D02*
X159495840Y-74854819D01*
X159495840Y-74854819D02*
X159733935Y-74854819D01*
X159733935Y-74854819D02*
X159829173Y-74807200D01*
X159829173Y-74807200D02*
X159876792Y-74759580D01*
D12*
X195876666Y-90694318D02*
X195876666Y-89424318D01*
X195876666Y-89424318D02*
X195392856Y-89424318D01*
X195392856Y-89424318D02*
X195271904Y-89484794D01*
X195271904Y-89484794D02*
X195211427Y-89545270D01*
X195211427Y-89545270D02*
X195150951Y-89666222D01*
X195150951Y-89666222D02*
X195150951Y-89847651D01*
X195150951Y-89847651D02*
X195211427Y-89968603D01*
X195211427Y-89968603D02*
X195271904Y-90029080D01*
X195271904Y-90029080D02*
X195392856Y-90089556D01*
X195392856Y-90089556D02*
X195876666Y-90089556D01*
X194606666Y-90694318D02*
X194606666Y-89424318D01*
X194606666Y-90029080D02*
X193880951Y-90029080D01*
X193880951Y-90694318D02*
X193880951Y-89424318D01*
X193578571Y-90815270D02*
X192610951Y-90815270D01*
X191582856Y-90573365D02*
X191643332Y-90633842D01*
X191643332Y-90633842D02*
X191824761Y-90694318D01*
X191824761Y-90694318D02*
X191945713Y-90694318D01*
X191945713Y-90694318D02*
X192127142Y-90633842D01*
X192127142Y-90633842D02*
X192248094Y-90512889D01*
X192248094Y-90512889D02*
X192308571Y-90391937D01*
X192308571Y-90391937D02*
X192369047Y-90150032D01*
X192369047Y-90150032D02*
X192369047Y-89968603D01*
X192369047Y-89968603D02*
X192308571Y-89726699D01*
X192308571Y-89726699D02*
X192248094Y-89605746D01*
X192248094Y-89605746D02*
X192127142Y-89484794D01*
X192127142Y-89484794D02*
X191945713Y-89424318D01*
X191945713Y-89424318D02*
X191824761Y-89424318D01*
X191824761Y-89424318D02*
X191643332Y-89484794D01*
X191643332Y-89484794D02*
X191582856Y-89545270D01*
D10*
X191544338Y-129590161D02*
X191574576Y-129620400D01*
X191574576Y-129620400D02*
X191665290Y-129650638D01*
X191665290Y-129650638D02*
X191725766Y-129650638D01*
X191725766Y-129650638D02*
X191816481Y-129620400D01*
X191816481Y-129620400D02*
X191876957Y-129559923D01*
X191876957Y-129559923D02*
X191907195Y-129499447D01*
X191907195Y-129499447D02*
X191937433Y-129378495D01*
X191937433Y-129378495D02*
X191937433Y-129287780D01*
X191937433Y-129287780D02*
X191907195Y-129166828D01*
X191907195Y-129166828D02*
X191876957Y-129106352D01*
X191876957Y-129106352D02*
X191816481Y-129045876D01*
X191816481Y-129045876D02*
X191725766Y-129015638D01*
X191725766Y-129015638D02*
X191665290Y-129015638D01*
X191665290Y-129015638D02*
X191574576Y-129045876D01*
X191574576Y-129045876D02*
X191544338Y-129076114D01*
X190969814Y-129015638D02*
X191272195Y-129015638D01*
X191272195Y-129015638D02*
X191302433Y-129318019D01*
X191302433Y-129318019D02*
X191272195Y-129287780D01*
X191272195Y-129287780D02*
X191211719Y-129257542D01*
X191211719Y-129257542D02*
X191060528Y-129257542D01*
X191060528Y-129257542D02*
X191000052Y-129287780D01*
X191000052Y-129287780D02*
X190969814Y-129318019D01*
X190969814Y-129318019D02*
X190939576Y-129378495D01*
X190939576Y-129378495D02*
X190939576Y-129529685D01*
X190939576Y-129529685D02*
X190969814Y-129590161D01*
X190969814Y-129590161D02*
X191000052Y-129620400D01*
X191000052Y-129620400D02*
X191060528Y-129650638D01*
X191060528Y-129650638D02*
X191211719Y-129650638D01*
X191211719Y-129650638D02*
X191272195Y-129620400D01*
X191272195Y-129620400D02*
X191302433Y-129590161D01*
X190637195Y-129650638D02*
X190516243Y-129650638D01*
X190516243Y-129650638D02*
X190455766Y-129620400D01*
X190455766Y-129620400D02*
X190425528Y-129590161D01*
X190425528Y-129590161D02*
X190365052Y-129499447D01*
X190365052Y-129499447D02*
X190334814Y-129378495D01*
X190334814Y-129378495D02*
X190334814Y-129136590D01*
X190334814Y-129136590D02*
X190365052Y-129076114D01*
X190365052Y-129076114D02*
X190395290Y-129045876D01*
X190395290Y-129045876D02*
X190455766Y-129015638D01*
X190455766Y-129015638D02*
X190576719Y-129015638D01*
X190576719Y-129015638D02*
X190637195Y-129045876D01*
X190637195Y-129045876D02*
X190667433Y-129076114D01*
X190667433Y-129076114D02*
X190697671Y-129136590D01*
X190697671Y-129136590D02*
X190697671Y-129287780D01*
X190697671Y-129287780D02*
X190667433Y-129348257D01*
X190667433Y-129348257D02*
X190637195Y-129378495D01*
X190637195Y-129378495D02*
X190576719Y-129408733D01*
X190576719Y-129408733D02*
X190455766Y-129408733D01*
X190455766Y-129408733D02*
X190395290Y-129378495D01*
X190395290Y-129378495D02*
X190365052Y-129348257D01*
X190365052Y-129348257D02*
X190334814Y-129287780D01*
D12*
X152707618Y-52924794D02*
X152828571Y-52864318D01*
X152828571Y-52864318D02*
X153009999Y-52864318D01*
X153009999Y-52864318D02*
X153191428Y-52924794D01*
X153191428Y-52924794D02*
X153312380Y-53045746D01*
X153312380Y-53045746D02*
X153372857Y-53166699D01*
X153372857Y-53166699D02*
X153433333Y-53408603D01*
X153433333Y-53408603D02*
X153433333Y-53590032D01*
X153433333Y-53590032D02*
X153372857Y-53831937D01*
X153372857Y-53831937D02*
X153312380Y-53952889D01*
X153312380Y-53952889D02*
X153191428Y-54073842D01*
X153191428Y-54073842D02*
X153009999Y-54134318D01*
X153009999Y-54134318D02*
X152889047Y-54134318D01*
X152889047Y-54134318D02*
X152707618Y-54073842D01*
X152707618Y-54073842D02*
X152647142Y-54013365D01*
X152647142Y-54013365D02*
X152647142Y-53590032D01*
X152647142Y-53590032D02*
X152889047Y-53590032D01*
X152102857Y-54134318D02*
X152102857Y-52864318D01*
X152102857Y-52864318D02*
X151377142Y-54134318D01*
X151377142Y-54134318D02*
X151377142Y-52864318D01*
X150772381Y-54134318D02*
X150772381Y-52864318D01*
X150772381Y-52864318D02*
X150470000Y-52864318D01*
X150470000Y-52864318D02*
X150288571Y-52924794D01*
X150288571Y-52924794D02*
X150167619Y-53045746D01*
X150167619Y-53045746D02*
X150107142Y-53166699D01*
X150107142Y-53166699D02*
X150046666Y-53408603D01*
X150046666Y-53408603D02*
X150046666Y-53590032D01*
X150046666Y-53590032D02*
X150107142Y-53831937D01*
X150107142Y-53831937D02*
X150167619Y-53952889D01*
X150167619Y-53952889D02*
X150288571Y-54073842D01*
X150288571Y-54073842D02*
X150470000Y-54134318D01*
X150470000Y-54134318D02*
X150772381Y-54134318D01*
D10*
X188333428Y-110055838D02*
X188545095Y-109753457D01*
X188696285Y-110055838D02*
X188696285Y-109420838D01*
X188696285Y-109420838D02*
X188454380Y-109420838D01*
X188454380Y-109420838D02*
X188393904Y-109451076D01*
X188393904Y-109451076D02*
X188363666Y-109481314D01*
X188363666Y-109481314D02*
X188333428Y-109541790D01*
X188333428Y-109541790D02*
X188333428Y-109632504D01*
X188333428Y-109632504D02*
X188363666Y-109692980D01*
X188363666Y-109692980D02*
X188393904Y-109723219D01*
X188393904Y-109723219D02*
X188454380Y-109753457D01*
X188454380Y-109753457D02*
X188696285Y-109753457D01*
X188121761Y-109420838D02*
X187728666Y-109420838D01*
X187728666Y-109420838D02*
X187940333Y-109662742D01*
X187940333Y-109662742D02*
X187849618Y-109662742D01*
X187849618Y-109662742D02*
X187789142Y-109692980D01*
X187789142Y-109692980D02*
X187758904Y-109723219D01*
X187758904Y-109723219D02*
X187728666Y-109783695D01*
X187728666Y-109783695D02*
X187728666Y-109934885D01*
X187728666Y-109934885D02*
X187758904Y-109995361D01*
X187758904Y-109995361D02*
X187789142Y-110025600D01*
X187789142Y-110025600D02*
X187849618Y-110055838D01*
X187849618Y-110055838D02*
X188031047Y-110055838D01*
X188031047Y-110055838D02*
X188091523Y-110025600D01*
X188091523Y-110025600D02*
X188121761Y-109995361D01*
X187184380Y-109420838D02*
X187305333Y-109420838D01*
X187305333Y-109420838D02*
X187365809Y-109451076D01*
X187365809Y-109451076D02*
X187396047Y-109481314D01*
X187396047Y-109481314D02*
X187456523Y-109572028D01*
X187456523Y-109572028D02*
X187486761Y-109692980D01*
X187486761Y-109692980D02*
X187486761Y-109934885D01*
X187486761Y-109934885D02*
X187456523Y-109995361D01*
X187456523Y-109995361D02*
X187426285Y-110025600D01*
X187426285Y-110025600D02*
X187365809Y-110055838D01*
X187365809Y-110055838D02*
X187244856Y-110055838D01*
X187244856Y-110055838D02*
X187184380Y-110025600D01*
X187184380Y-110025600D02*
X187154142Y-109995361D01*
X187154142Y-109995361D02*
X187123904Y-109934885D01*
X187123904Y-109934885D02*
X187123904Y-109783695D01*
X187123904Y-109783695D02*
X187154142Y-109723219D01*
X187154142Y-109723219D02*
X187184380Y-109692980D01*
X187184380Y-109692980D02*
X187244856Y-109662742D01*
X187244856Y-109662742D02*
X187365809Y-109662742D01*
X187365809Y-109662742D02*
X187426285Y-109692980D01*
X187426285Y-109692980D02*
X187456523Y-109723219D01*
X187456523Y-109723219D02*
X187486761Y-109783695D01*
D12*
X153496428Y-64903842D02*
X153314999Y-64964318D01*
X153314999Y-64964318D02*
X153012618Y-64964318D01*
X153012618Y-64964318D02*
X152891666Y-64903842D01*
X152891666Y-64903842D02*
X152831190Y-64843365D01*
X152831190Y-64843365D02*
X152770713Y-64722413D01*
X152770713Y-64722413D02*
X152770713Y-64601461D01*
X152770713Y-64601461D02*
X152831190Y-64480508D01*
X152831190Y-64480508D02*
X152891666Y-64420032D01*
X152891666Y-64420032D02*
X153012618Y-64359556D01*
X153012618Y-64359556D02*
X153254523Y-64299080D01*
X153254523Y-64299080D02*
X153375475Y-64238603D01*
X153375475Y-64238603D02*
X153435952Y-64178127D01*
X153435952Y-64178127D02*
X153496428Y-64057175D01*
X153496428Y-64057175D02*
X153496428Y-63936222D01*
X153496428Y-63936222D02*
X153435952Y-63815270D01*
X153435952Y-63815270D02*
X153375475Y-63754794D01*
X153375475Y-63754794D02*
X153254523Y-63694318D01*
X153254523Y-63694318D02*
X152952142Y-63694318D01*
X152952142Y-63694318D02*
X152770713Y-63754794D01*
X152226428Y-63694318D02*
X152226428Y-64722413D01*
X152226428Y-64722413D02*
X152165951Y-64843365D01*
X152165951Y-64843365D02*
X152105475Y-64903842D01*
X152105475Y-64903842D02*
X151984523Y-64964318D01*
X151984523Y-64964318D02*
X151742618Y-64964318D01*
X151742618Y-64964318D02*
X151621666Y-64903842D01*
X151621666Y-64903842D02*
X151561189Y-64843365D01*
X151561189Y-64843365D02*
X151500713Y-64722413D01*
X151500713Y-64722413D02*
X151500713Y-63694318D01*
X150895952Y-64964318D02*
X150895952Y-63694318D01*
X150895952Y-63694318D02*
X150412142Y-63694318D01*
X150412142Y-63694318D02*
X150291190Y-63754794D01*
X150291190Y-63754794D02*
X150230713Y-63815270D01*
X150230713Y-63815270D02*
X150170237Y-63936222D01*
X150170237Y-63936222D02*
X150170237Y-64117651D01*
X150170237Y-64117651D02*
X150230713Y-64238603D01*
X150230713Y-64238603D02*
X150291190Y-64299080D01*
X150291190Y-64299080D02*
X150412142Y-64359556D01*
X150412142Y-64359556D02*
X150895952Y-64359556D01*
X149625952Y-64964318D02*
X149625952Y-63694318D01*
X149625952Y-63694318D02*
X149142142Y-63694318D01*
X149142142Y-63694318D02*
X149021190Y-63754794D01*
X149021190Y-63754794D02*
X148960713Y-63815270D01*
X148960713Y-63815270D02*
X148900237Y-63936222D01*
X148900237Y-63936222D02*
X148900237Y-64117651D01*
X148900237Y-64117651D02*
X148960713Y-64238603D01*
X148960713Y-64238603D02*
X149021190Y-64299080D01*
X149021190Y-64299080D02*
X149142142Y-64359556D01*
X149142142Y-64359556D02*
X149625952Y-64359556D01*
X147751190Y-64964318D02*
X148355952Y-64964318D01*
X148355952Y-64964318D02*
X148355952Y-63694318D01*
X147085952Y-64359556D02*
X147085952Y-64964318D01*
X147509285Y-63694318D02*
X147085952Y-64359556D01*
X147085952Y-64359556D02*
X146662618Y-63694318D01*
D10*
X191636428Y-117595361D02*
X191666666Y-117625600D01*
X191666666Y-117625600D02*
X191757380Y-117655838D01*
X191757380Y-117655838D02*
X191817856Y-117655838D01*
X191817856Y-117655838D02*
X191908571Y-117625600D01*
X191908571Y-117625600D02*
X191969047Y-117565123D01*
X191969047Y-117565123D02*
X191999285Y-117504647D01*
X191999285Y-117504647D02*
X192029523Y-117383695D01*
X192029523Y-117383695D02*
X192029523Y-117292980D01*
X192029523Y-117292980D02*
X191999285Y-117172028D01*
X191999285Y-117172028D02*
X191969047Y-117111552D01*
X191969047Y-117111552D02*
X191908571Y-117051076D01*
X191908571Y-117051076D02*
X191817856Y-117020838D01*
X191817856Y-117020838D02*
X191757380Y-117020838D01*
X191757380Y-117020838D02*
X191666666Y-117051076D01*
X191666666Y-117051076D02*
X191636428Y-117081314D01*
X191092142Y-117232504D02*
X191092142Y-117655838D01*
X191243333Y-116990600D02*
X191394523Y-117444171D01*
X191394523Y-117444171D02*
X191001428Y-117444171D01*
X190457142Y-117020838D02*
X190759523Y-117020838D01*
X190759523Y-117020838D02*
X190789761Y-117323219D01*
X190789761Y-117323219D02*
X190759523Y-117292980D01*
X190759523Y-117292980D02*
X190699047Y-117262742D01*
X190699047Y-117262742D02*
X190547856Y-117262742D01*
X190547856Y-117262742D02*
X190487380Y-117292980D01*
X190487380Y-117292980D02*
X190457142Y-117323219D01*
X190457142Y-117323219D02*
X190426904Y-117383695D01*
X190426904Y-117383695D02*
X190426904Y-117534885D01*
X190426904Y-117534885D02*
X190457142Y-117595361D01*
X190457142Y-117595361D02*
X190487380Y-117625600D01*
X190487380Y-117625600D02*
X190547856Y-117655838D01*
X190547856Y-117655838D02*
X190699047Y-117655838D01*
X190699047Y-117655838D02*
X190759523Y-117625600D01*
X190759523Y-117625600D02*
X190789761Y-117595361D01*
X232471590Y-136112438D02*
X232471590Y-135477438D01*
X232471590Y-135477438D02*
X232320400Y-135477438D01*
X232320400Y-135477438D02*
X232229685Y-135507676D01*
X232229685Y-135507676D02*
X232169209Y-135568152D01*
X232169209Y-135568152D02*
X232138971Y-135628628D01*
X232138971Y-135628628D02*
X232108733Y-135749580D01*
X232108733Y-135749580D02*
X232108733Y-135840295D01*
X232108733Y-135840295D02*
X232138971Y-135961247D01*
X232138971Y-135961247D02*
X232169209Y-136021723D01*
X232169209Y-136021723D02*
X232229685Y-136082200D01*
X232229685Y-136082200D02*
X232320400Y-136112438D01*
X232320400Y-136112438D02*
X232471590Y-136112438D01*
X231897066Y-135477438D02*
X231503971Y-135477438D01*
X231503971Y-135477438D02*
X231715638Y-135719342D01*
X231715638Y-135719342D02*
X231624923Y-135719342D01*
X231624923Y-135719342D02*
X231564447Y-135749580D01*
X231564447Y-135749580D02*
X231534209Y-135779819D01*
X231534209Y-135779819D02*
X231503971Y-135840295D01*
X231503971Y-135840295D02*
X231503971Y-135991485D01*
X231503971Y-135991485D02*
X231534209Y-136051961D01*
X231534209Y-136051961D02*
X231564447Y-136082200D01*
X231564447Y-136082200D02*
X231624923Y-136112438D01*
X231624923Y-136112438D02*
X231806352Y-136112438D01*
X231806352Y-136112438D02*
X231866828Y-136082200D01*
X231866828Y-136082200D02*
X231897066Y-136051961D01*
X192679230Y-105079564D02*
X192709468Y-105109803D01*
X192709468Y-105109803D02*
X192800182Y-105140041D01*
X192800182Y-105140041D02*
X192860658Y-105140041D01*
X192860658Y-105140041D02*
X192951373Y-105109803D01*
X192951373Y-105109803D02*
X193011849Y-105049326D01*
X193011849Y-105049326D02*
X193042087Y-104988850D01*
X193042087Y-104988850D02*
X193072325Y-104867898D01*
X193072325Y-104867898D02*
X193072325Y-104777183D01*
X193072325Y-104777183D02*
X193042087Y-104656231D01*
X193042087Y-104656231D02*
X193011849Y-104595755D01*
X193011849Y-104595755D02*
X192951373Y-104535279D01*
X192951373Y-104535279D02*
X192860658Y-104505041D01*
X192860658Y-104505041D02*
X192800182Y-104505041D01*
X192800182Y-104505041D02*
X192709468Y-104535279D01*
X192709468Y-104535279D02*
X192679230Y-104565517D01*
X192104706Y-104505041D02*
X192407087Y-104505041D01*
X192407087Y-104505041D02*
X192437325Y-104807422D01*
X192437325Y-104807422D02*
X192407087Y-104777183D01*
X192407087Y-104777183D02*
X192346611Y-104746945D01*
X192346611Y-104746945D02*
X192195420Y-104746945D01*
X192195420Y-104746945D02*
X192134944Y-104777183D01*
X192134944Y-104777183D02*
X192104706Y-104807422D01*
X192104706Y-104807422D02*
X192074468Y-104867898D01*
X192074468Y-104867898D02*
X192074468Y-105019088D01*
X192074468Y-105019088D02*
X192104706Y-105079564D01*
X192104706Y-105079564D02*
X192134944Y-105109803D01*
X192134944Y-105109803D02*
X192195420Y-105140041D01*
X192195420Y-105140041D02*
X192346611Y-105140041D01*
X192346611Y-105140041D02*
X192407087Y-105109803D01*
X192407087Y-105109803D02*
X192437325Y-105079564D01*
X191832563Y-104565517D02*
X191802325Y-104535279D01*
X191802325Y-104535279D02*
X191741849Y-104505041D01*
X191741849Y-104505041D02*
X191590658Y-104505041D01*
X191590658Y-104505041D02*
X191530182Y-104535279D01*
X191530182Y-104535279D02*
X191499944Y-104565517D01*
X191499944Y-104565517D02*
X191469706Y-104625993D01*
X191469706Y-104625993D02*
X191469706Y-104686469D01*
X191469706Y-104686469D02*
X191499944Y-104777183D01*
X191499944Y-104777183D02*
X191862801Y-105140041D01*
X191862801Y-105140041D02*
X191469706Y-105140041D01*
X235655833Y-146081838D02*
X235867500Y-145779457D01*
X236018690Y-146081838D02*
X236018690Y-145446838D01*
X236018690Y-145446838D02*
X235776785Y-145446838D01*
X235776785Y-145446838D02*
X235716309Y-145477076D01*
X235716309Y-145477076D02*
X235686071Y-145507314D01*
X235686071Y-145507314D02*
X235655833Y-145567790D01*
X235655833Y-145567790D02*
X235655833Y-145658504D01*
X235655833Y-145658504D02*
X235686071Y-145718980D01*
X235686071Y-145718980D02*
X235716309Y-145749219D01*
X235716309Y-145749219D02*
X235776785Y-145779457D01*
X235776785Y-145779457D02*
X236018690Y-145779457D01*
X235292976Y-145718980D02*
X235353452Y-145688742D01*
X235353452Y-145688742D02*
X235383690Y-145658504D01*
X235383690Y-145658504D02*
X235413928Y-145598028D01*
X235413928Y-145598028D02*
X235413928Y-145567790D01*
X235413928Y-145567790D02*
X235383690Y-145507314D01*
X235383690Y-145507314D02*
X235353452Y-145477076D01*
X235353452Y-145477076D02*
X235292976Y-145446838D01*
X235292976Y-145446838D02*
X235172023Y-145446838D01*
X235172023Y-145446838D02*
X235111547Y-145477076D01*
X235111547Y-145477076D02*
X235081309Y-145507314D01*
X235081309Y-145507314D02*
X235051071Y-145567790D01*
X235051071Y-145567790D02*
X235051071Y-145598028D01*
X235051071Y-145598028D02*
X235081309Y-145658504D01*
X235081309Y-145658504D02*
X235111547Y-145688742D01*
X235111547Y-145688742D02*
X235172023Y-145718980D01*
X235172023Y-145718980D02*
X235292976Y-145718980D01*
X235292976Y-145718980D02*
X235353452Y-145749219D01*
X235353452Y-145749219D02*
X235383690Y-145779457D01*
X235383690Y-145779457D02*
X235413928Y-145839933D01*
X235413928Y-145839933D02*
X235413928Y-145960885D01*
X235413928Y-145960885D02*
X235383690Y-146021361D01*
X235383690Y-146021361D02*
X235353452Y-146051600D01*
X235353452Y-146051600D02*
X235292976Y-146081838D01*
X235292976Y-146081838D02*
X235172023Y-146081838D01*
X235172023Y-146081838D02*
X235111547Y-146051600D01*
X235111547Y-146051600D02*
X235081309Y-146021361D01*
X235081309Y-146021361D02*
X235051071Y-145960885D01*
X235051071Y-145960885D02*
X235051071Y-145839933D01*
X235051071Y-145839933D02*
X235081309Y-145779457D01*
X235081309Y-145779457D02*
X235111547Y-145749219D01*
X235111547Y-145749219D02*
X235172023Y-145718980D01*
X165826102Y-76105361D02*
X165856340Y-76135600D01*
X165856340Y-76135600D02*
X165947054Y-76165838D01*
X165947054Y-76165838D02*
X166007530Y-76165838D01*
X166007530Y-76165838D02*
X166098245Y-76135600D01*
X166098245Y-76135600D02*
X166158721Y-76075123D01*
X166158721Y-76075123D02*
X166188959Y-76014647D01*
X166188959Y-76014647D02*
X166219197Y-75893695D01*
X166219197Y-75893695D02*
X166219197Y-75802980D01*
X166219197Y-75802980D02*
X166188959Y-75682028D01*
X166188959Y-75682028D02*
X166158721Y-75621552D01*
X166158721Y-75621552D02*
X166098245Y-75561076D01*
X166098245Y-75561076D02*
X166007530Y-75530838D01*
X166007530Y-75530838D02*
X165947054Y-75530838D01*
X165947054Y-75530838D02*
X165856340Y-75561076D01*
X165856340Y-75561076D02*
X165826102Y-75591314D01*
X165614435Y-75530838D02*
X165221340Y-75530838D01*
X165221340Y-75530838D02*
X165433007Y-75772742D01*
X165433007Y-75772742D02*
X165342292Y-75772742D01*
X165342292Y-75772742D02*
X165281816Y-75802980D01*
X165281816Y-75802980D02*
X165251578Y-75833219D01*
X165251578Y-75833219D02*
X165221340Y-75893695D01*
X165221340Y-75893695D02*
X165221340Y-76044885D01*
X165221340Y-76044885D02*
X165251578Y-76105361D01*
X165251578Y-76105361D02*
X165281816Y-76135600D01*
X165281816Y-76135600D02*
X165342292Y-76165838D01*
X165342292Y-76165838D02*
X165523721Y-76165838D01*
X165523721Y-76165838D02*
X165584197Y-76135600D01*
X165584197Y-76135600D02*
X165614435Y-76105361D01*
X164646816Y-75530838D02*
X164949197Y-75530838D01*
X164949197Y-75530838D02*
X164979435Y-75833219D01*
X164979435Y-75833219D02*
X164949197Y-75802980D01*
X164949197Y-75802980D02*
X164888721Y-75772742D01*
X164888721Y-75772742D02*
X164737530Y-75772742D01*
X164737530Y-75772742D02*
X164677054Y-75802980D01*
X164677054Y-75802980D02*
X164646816Y-75833219D01*
X164646816Y-75833219D02*
X164616578Y-75893695D01*
X164616578Y-75893695D02*
X164616578Y-76044885D01*
X164616578Y-76044885D02*
X164646816Y-76105361D01*
X164646816Y-76105361D02*
X164677054Y-76135600D01*
X164677054Y-76135600D02*
X164737530Y-76165838D01*
X164737530Y-76165838D02*
X164888721Y-76165838D01*
X164888721Y-76165838D02*
X164949197Y-76135600D01*
X164949197Y-76135600D02*
X164979435Y-76105361D01*
X195296428Y-112339361D02*
X195326666Y-112369600D01*
X195326666Y-112369600D02*
X195417380Y-112399838D01*
X195417380Y-112399838D02*
X195477856Y-112399838D01*
X195477856Y-112399838D02*
X195568571Y-112369600D01*
X195568571Y-112369600D02*
X195629047Y-112309123D01*
X195629047Y-112309123D02*
X195659285Y-112248647D01*
X195659285Y-112248647D02*
X195689523Y-112127695D01*
X195689523Y-112127695D02*
X195689523Y-112036980D01*
X195689523Y-112036980D02*
X195659285Y-111916028D01*
X195659285Y-111916028D02*
X195629047Y-111855552D01*
X195629047Y-111855552D02*
X195568571Y-111795076D01*
X195568571Y-111795076D02*
X195477856Y-111764838D01*
X195477856Y-111764838D02*
X195417380Y-111764838D01*
X195417380Y-111764838D02*
X195326666Y-111795076D01*
X195326666Y-111795076D02*
X195296428Y-111825314D01*
X195084761Y-111764838D02*
X194691666Y-111764838D01*
X194691666Y-111764838D02*
X194903333Y-112006742D01*
X194903333Y-112006742D02*
X194812618Y-112006742D01*
X194812618Y-112006742D02*
X194752142Y-112036980D01*
X194752142Y-112036980D02*
X194721904Y-112067219D01*
X194721904Y-112067219D02*
X194691666Y-112127695D01*
X194691666Y-112127695D02*
X194691666Y-112278885D01*
X194691666Y-112278885D02*
X194721904Y-112339361D01*
X194721904Y-112339361D02*
X194752142Y-112369600D01*
X194752142Y-112369600D02*
X194812618Y-112399838D01*
X194812618Y-112399838D02*
X194994047Y-112399838D01*
X194994047Y-112399838D02*
X195054523Y-112369600D01*
X195054523Y-112369600D02*
X195084761Y-112339361D01*
X194298571Y-111764838D02*
X194238094Y-111764838D01*
X194238094Y-111764838D02*
X194177618Y-111795076D01*
X194177618Y-111795076D02*
X194147380Y-111825314D01*
X194147380Y-111825314D02*
X194117142Y-111885790D01*
X194117142Y-111885790D02*
X194086904Y-112006742D01*
X194086904Y-112006742D02*
X194086904Y-112157933D01*
X194086904Y-112157933D02*
X194117142Y-112278885D01*
X194117142Y-112278885D02*
X194147380Y-112339361D01*
X194147380Y-112339361D02*
X194177618Y-112369600D01*
X194177618Y-112369600D02*
X194238094Y-112399838D01*
X194238094Y-112399838D02*
X194298571Y-112399838D01*
X194298571Y-112399838D02*
X194359047Y-112369600D01*
X194359047Y-112369600D02*
X194389285Y-112339361D01*
X194389285Y-112339361D02*
X194419523Y-112278885D01*
X194419523Y-112278885D02*
X194449761Y-112157933D01*
X194449761Y-112157933D02*
X194449761Y-112006742D01*
X194449761Y-112006742D02*
X194419523Y-111885790D01*
X194419523Y-111885790D02*
X194389285Y-111825314D01*
X194389285Y-111825314D02*
X194359047Y-111795076D01*
X194359047Y-111795076D02*
X194298571Y-111764838D01*
X191562238Y-136030838D02*
X191773905Y-135728457D01*
X191925095Y-136030838D02*
X191925095Y-135395838D01*
X191925095Y-135395838D02*
X191683190Y-135395838D01*
X191683190Y-135395838D02*
X191622714Y-135426076D01*
X191622714Y-135426076D02*
X191592476Y-135456314D01*
X191592476Y-135456314D02*
X191562238Y-135516790D01*
X191562238Y-135516790D02*
X191562238Y-135607504D01*
X191562238Y-135607504D02*
X191592476Y-135667980D01*
X191592476Y-135667980D02*
X191622714Y-135698219D01*
X191622714Y-135698219D02*
X191683190Y-135728457D01*
X191683190Y-135728457D02*
X191925095Y-135728457D01*
X191320333Y-135456314D02*
X191290095Y-135426076D01*
X191290095Y-135426076D02*
X191229619Y-135395838D01*
X191229619Y-135395838D02*
X191078428Y-135395838D01*
X191078428Y-135395838D02*
X191017952Y-135426076D01*
X191017952Y-135426076D02*
X190987714Y-135456314D01*
X190987714Y-135456314D02*
X190957476Y-135516790D01*
X190957476Y-135516790D02*
X190957476Y-135577266D01*
X190957476Y-135577266D02*
X190987714Y-135667980D01*
X190987714Y-135667980D02*
X191350571Y-136030838D01*
X191350571Y-136030838D02*
X190957476Y-136030838D01*
X190564381Y-135395838D02*
X190503904Y-135395838D01*
X190503904Y-135395838D02*
X190443428Y-135426076D01*
X190443428Y-135426076D02*
X190413190Y-135456314D01*
X190413190Y-135456314D02*
X190382952Y-135516790D01*
X190382952Y-135516790D02*
X190352714Y-135637742D01*
X190352714Y-135637742D02*
X190352714Y-135788933D01*
X190352714Y-135788933D02*
X190382952Y-135909885D01*
X190382952Y-135909885D02*
X190413190Y-135970361D01*
X190413190Y-135970361D02*
X190443428Y-136000600D01*
X190443428Y-136000600D02*
X190503904Y-136030838D01*
X190503904Y-136030838D02*
X190564381Y-136030838D01*
X190564381Y-136030838D02*
X190624857Y-136000600D01*
X190624857Y-136000600D02*
X190655095Y-135970361D01*
X190655095Y-135970361D02*
X190685333Y-135909885D01*
X190685333Y-135909885D02*
X190715571Y-135788933D01*
X190715571Y-135788933D02*
X190715571Y-135637742D01*
X190715571Y-135637742D02*
X190685333Y-135516790D01*
X190685333Y-135516790D02*
X190655095Y-135456314D01*
X190655095Y-135456314D02*
X190624857Y-135426076D01*
X190624857Y-135426076D02*
X190564381Y-135395838D01*
X188085238Y-130807838D02*
X188296905Y-130505457D01*
X188448095Y-130807838D02*
X188448095Y-130172838D01*
X188448095Y-130172838D02*
X188206190Y-130172838D01*
X188206190Y-130172838D02*
X188145714Y-130203076D01*
X188145714Y-130203076D02*
X188115476Y-130233314D01*
X188115476Y-130233314D02*
X188085238Y-130293790D01*
X188085238Y-130293790D02*
X188085238Y-130384504D01*
X188085238Y-130384504D02*
X188115476Y-130444980D01*
X188115476Y-130444980D02*
X188145714Y-130475219D01*
X188145714Y-130475219D02*
X188206190Y-130505457D01*
X188206190Y-130505457D02*
X188448095Y-130505457D01*
X187480476Y-130807838D02*
X187843333Y-130807838D01*
X187661905Y-130807838D02*
X187661905Y-130172838D01*
X187661905Y-130172838D02*
X187722381Y-130263552D01*
X187722381Y-130263552D02*
X187782857Y-130324028D01*
X187782857Y-130324028D02*
X187843333Y-130354266D01*
X187178095Y-130807838D02*
X187057143Y-130807838D01*
X187057143Y-130807838D02*
X186996666Y-130777600D01*
X186996666Y-130777600D02*
X186966428Y-130747361D01*
X186966428Y-130747361D02*
X186905952Y-130656647D01*
X186905952Y-130656647D02*
X186875714Y-130535695D01*
X186875714Y-130535695D02*
X186875714Y-130293790D01*
X186875714Y-130293790D02*
X186905952Y-130233314D01*
X186905952Y-130233314D02*
X186936190Y-130203076D01*
X186936190Y-130203076D02*
X186996666Y-130172838D01*
X186996666Y-130172838D02*
X187117619Y-130172838D01*
X187117619Y-130172838D02*
X187178095Y-130203076D01*
X187178095Y-130203076D02*
X187208333Y-130233314D01*
X187208333Y-130233314D02*
X187238571Y-130293790D01*
X187238571Y-130293790D02*
X187238571Y-130444980D01*
X187238571Y-130444980D02*
X187208333Y-130505457D01*
X187208333Y-130505457D02*
X187178095Y-130535695D01*
X187178095Y-130535695D02*
X187117619Y-130565933D01*
X187117619Y-130565933D02*
X186996666Y-130565933D01*
X186996666Y-130565933D02*
X186936190Y-130535695D01*
X186936190Y-130535695D02*
X186905952Y-130505457D01*
X186905952Y-130505457D02*
X186875714Y-130444980D01*
X189534338Y-147461361D02*
X189564576Y-147491600D01*
X189564576Y-147491600D02*
X189655290Y-147521838D01*
X189655290Y-147521838D02*
X189715766Y-147521838D01*
X189715766Y-147521838D02*
X189806481Y-147491600D01*
X189806481Y-147491600D02*
X189866957Y-147431123D01*
X189866957Y-147431123D02*
X189897195Y-147370647D01*
X189897195Y-147370647D02*
X189927433Y-147249695D01*
X189927433Y-147249695D02*
X189927433Y-147158980D01*
X189927433Y-147158980D02*
X189897195Y-147038028D01*
X189897195Y-147038028D02*
X189866957Y-146977552D01*
X189866957Y-146977552D02*
X189806481Y-146917076D01*
X189806481Y-146917076D02*
X189715766Y-146886838D01*
X189715766Y-146886838D02*
X189655290Y-146886838D01*
X189655290Y-146886838D02*
X189564576Y-146917076D01*
X189564576Y-146917076D02*
X189534338Y-146947314D01*
X188990052Y-147098504D02*
X188990052Y-147521838D01*
X189141243Y-146856600D02*
X189292433Y-147310171D01*
X189292433Y-147310171D02*
X188899338Y-147310171D01*
X188627195Y-147521838D02*
X188506243Y-147521838D01*
X188506243Y-147521838D02*
X188445766Y-147491600D01*
X188445766Y-147491600D02*
X188415528Y-147461361D01*
X188415528Y-147461361D02*
X188355052Y-147370647D01*
X188355052Y-147370647D02*
X188324814Y-147249695D01*
X188324814Y-147249695D02*
X188324814Y-147007790D01*
X188324814Y-147007790D02*
X188355052Y-146947314D01*
X188355052Y-146947314D02*
X188385290Y-146917076D01*
X188385290Y-146917076D02*
X188445766Y-146886838D01*
X188445766Y-146886838D02*
X188566719Y-146886838D01*
X188566719Y-146886838D02*
X188627195Y-146917076D01*
X188627195Y-146917076D02*
X188657433Y-146947314D01*
X188657433Y-146947314D02*
X188687671Y-147007790D01*
X188687671Y-147007790D02*
X188687671Y-147158980D01*
X188687671Y-147158980D02*
X188657433Y-147219457D01*
X188657433Y-147219457D02*
X188627195Y-147249695D01*
X188627195Y-147249695D02*
X188566719Y-147279933D01*
X188566719Y-147279933D02*
X188445766Y-147279933D01*
X188445766Y-147279933D02*
X188385290Y-147249695D01*
X188385290Y-147249695D02*
X188355052Y-147219457D01*
X188355052Y-147219457D02*
X188324814Y-147158980D01*
X233241833Y-146075838D02*
X233453500Y-145773457D01*
X233604690Y-146075838D02*
X233604690Y-145440838D01*
X233604690Y-145440838D02*
X233362785Y-145440838D01*
X233362785Y-145440838D02*
X233302309Y-145471076D01*
X233302309Y-145471076D02*
X233272071Y-145501314D01*
X233272071Y-145501314D02*
X233241833Y-145561790D01*
X233241833Y-145561790D02*
X233241833Y-145652504D01*
X233241833Y-145652504D02*
X233272071Y-145712980D01*
X233272071Y-145712980D02*
X233302309Y-145743219D01*
X233302309Y-145743219D02*
X233362785Y-145773457D01*
X233362785Y-145773457D02*
X233604690Y-145773457D01*
X233030166Y-145440838D02*
X232606833Y-145440838D01*
X232606833Y-145440838D02*
X232878976Y-146075838D01*
X187135238Y-139029838D02*
X187346905Y-138727457D01*
X187498095Y-139029838D02*
X187498095Y-138394838D01*
X187498095Y-138394838D02*
X187256190Y-138394838D01*
X187256190Y-138394838D02*
X187195714Y-138425076D01*
X187195714Y-138425076D02*
X187165476Y-138455314D01*
X187165476Y-138455314D02*
X187135238Y-138515790D01*
X187135238Y-138515790D02*
X187135238Y-138606504D01*
X187135238Y-138606504D02*
X187165476Y-138666980D01*
X187165476Y-138666980D02*
X187195714Y-138697219D01*
X187195714Y-138697219D02*
X187256190Y-138727457D01*
X187256190Y-138727457D02*
X187498095Y-138727457D01*
X186530476Y-139029838D02*
X186893333Y-139029838D01*
X186711905Y-139029838D02*
X186711905Y-138394838D01*
X186711905Y-138394838D02*
X186772381Y-138485552D01*
X186772381Y-138485552D02*
X186832857Y-138546028D01*
X186832857Y-138546028D02*
X186893333Y-138576266D01*
X186318809Y-138394838D02*
X185895476Y-138394838D01*
X185895476Y-138394838D02*
X186167619Y-139029838D01*
X183726904Y-120512833D02*
X183726904Y-121026880D01*
X183726904Y-121026880D02*
X183696666Y-121087356D01*
X183696666Y-121087356D02*
X183666428Y-121117595D01*
X183666428Y-121117595D02*
X183605952Y-121147833D01*
X183605952Y-121147833D02*
X183484999Y-121147833D01*
X183484999Y-121147833D02*
X183424523Y-121117595D01*
X183424523Y-121117595D02*
X183394285Y-121087356D01*
X183394285Y-121087356D02*
X183364047Y-121026880D01*
X183364047Y-121026880D02*
X183364047Y-120512833D01*
X182729047Y-121147833D02*
X183091904Y-121147833D01*
X182910476Y-121147833D02*
X182910476Y-120512833D01*
X182910476Y-120512833D02*
X182970952Y-120603547D01*
X182970952Y-120603547D02*
X183031428Y-120664023D01*
X183031428Y-120664023D02*
X183091904Y-120694261D01*
X182517380Y-120512833D02*
X182124285Y-120512833D01*
X182124285Y-120512833D02*
X182335952Y-120754737D01*
X182335952Y-120754737D02*
X182245237Y-120754737D01*
X182245237Y-120754737D02*
X182184761Y-120784975D01*
X182184761Y-120784975D02*
X182154523Y-120815214D01*
X182154523Y-120815214D02*
X182124285Y-120875690D01*
X182124285Y-120875690D02*
X182124285Y-121026880D01*
X182124285Y-121026880D02*
X182154523Y-121087356D01*
X182154523Y-121087356D02*
X182184761Y-121117595D01*
X182184761Y-121117595D02*
X182245237Y-121147833D01*
X182245237Y-121147833D02*
X182426666Y-121147833D01*
X182426666Y-121147833D02*
X182487142Y-121117595D01*
X182487142Y-121117595D02*
X182517380Y-121087356D01*
X238135833Y-146021838D02*
X238347500Y-145719457D01*
X238498690Y-146021838D02*
X238498690Y-145386838D01*
X238498690Y-145386838D02*
X238256785Y-145386838D01*
X238256785Y-145386838D02*
X238196309Y-145417076D01*
X238196309Y-145417076D02*
X238166071Y-145447314D01*
X238166071Y-145447314D02*
X238135833Y-145507790D01*
X238135833Y-145507790D02*
X238135833Y-145598504D01*
X238135833Y-145598504D02*
X238166071Y-145658980D01*
X238166071Y-145658980D02*
X238196309Y-145689219D01*
X238196309Y-145689219D02*
X238256785Y-145719457D01*
X238256785Y-145719457D02*
X238498690Y-145719457D01*
X237833452Y-146021838D02*
X237712500Y-146021838D01*
X237712500Y-146021838D02*
X237652023Y-145991600D01*
X237652023Y-145991600D02*
X237621785Y-145961361D01*
X237621785Y-145961361D02*
X237561309Y-145870647D01*
X237561309Y-145870647D02*
X237531071Y-145749695D01*
X237531071Y-145749695D02*
X237531071Y-145507790D01*
X237531071Y-145507790D02*
X237561309Y-145447314D01*
X237561309Y-145447314D02*
X237591547Y-145417076D01*
X237591547Y-145417076D02*
X237652023Y-145386838D01*
X237652023Y-145386838D02*
X237772976Y-145386838D01*
X237772976Y-145386838D02*
X237833452Y-145417076D01*
X237833452Y-145417076D02*
X237863690Y-145447314D01*
X237863690Y-145447314D02*
X237893928Y-145507790D01*
X237893928Y-145507790D02*
X237893928Y-145658980D01*
X237893928Y-145658980D02*
X237863690Y-145719457D01*
X237863690Y-145719457D02*
X237833452Y-145749695D01*
X237833452Y-145749695D02*
X237772976Y-145779933D01*
X237772976Y-145779933D02*
X237652023Y-145779933D01*
X237652023Y-145779933D02*
X237591547Y-145749695D01*
X237591547Y-145749695D02*
X237561309Y-145719457D01*
X237561309Y-145719457D02*
X237531071Y-145658980D01*
D11*
X192632838Y-58429057D02*
X192728076Y-58381438D01*
X192728076Y-58381438D02*
X192823314Y-58286200D01*
X192823314Y-58286200D02*
X192966171Y-58143342D01*
X192966171Y-58143342D02*
X193061409Y-58095723D01*
X193061409Y-58095723D02*
X193156647Y-58095723D01*
X193109028Y-58333819D02*
X193204266Y-58286200D01*
X193204266Y-58286200D02*
X193299504Y-58190961D01*
X193299504Y-58190961D02*
X193347123Y-58000485D01*
X193347123Y-58000485D02*
X193347123Y-57667152D01*
X193347123Y-57667152D02*
X193299504Y-57476676D01*
X193299504Y-57476676D02*
X193204266Y-57381438D01*
X193204266Y-57381438D02*
X193109028Y-57333819D01*
X193109028Y-57333819D02*
X192918552Y-57333819D01*
X192918552Y-57333819D02*
X192823314Y-57381438D01*
X192823314Y-57381438D02*
X192728076Y-57476676D01*
X192728076Y-57476676D02*
X192680457Y-57667152D01*
X192680457Y-57667152D02*
X192680457Y-58000485D01*
X192680457Y-58000485D02*
X192728076Y-58190961D01*
X192728076Y-58190961D02*
X192823314Y-58286200D01*
X192823314Y-58286200D02*
X192918552Y-58333819D01*
X192918552Y-58333819D02*
X193109028Y-58333819D01*
X191775695Y-57333819D02*
X192251885Y-57333819D01*
X192251885Y-57333819D02*
X192299504Y-57810009D01*
X192299504Y-57810009D02*
X192251885Y-57762390D01*
X192251885Y-57762390D02*
X192156647Y-57714771D01*
X192156647Y-57714771D02*
X191918552Y-57714771D01*
X191918552Y-57714771D02*
X191823314Y-57762390D01*
X191823314Y-57762390D02*
X191775695Y-57810009D01*
X191775695Y-57810009D02*
X191728076Y-57905247D01*
X191728076Y-57905247D02*
X191728076Y-58143342D01*
X191728076Y-58143342D02*
X191775695Y-58238580D01*
X191775695Y-58238580D02*
X191823314Y-58286200D01*
X191823314Y-58286200D02*
X191918552Y-58333819D01*
X191918552Y-58333819D02*
X192156647Y-58333819D01*
X192156647Y-58333819D02*
X192251885Y-58286200D01*
X192251885Y-58286200D02*
X192299504Y-58238580D01*
D10*
X179541972Y-53650361D02*
X179572210Y-53680600D01*
X179572210Y-53680600D02*
X179662924Y-53710838D01*
X179662924Y-53710838D02*
X179723400Y-53710838D01*
X179723400Y-53710838D02*
X179814115Y-53680600D01*
X179814115Y-53680600D02*
X179874591Y-53620123D01*
X179874591Y-53620123D02*
X179904829Y-53559647D01*
X179904829Y-53559647D02*
X179935067Y-53438695D01*
X179935067Y-53438695D02*
X179935067Y-53347980D01*
X179935067Y-53347980D02*
X179904829Y-53227028D01*
X179904829Y-53227028D02*
X179874591Y-53166552D01*
X179874591Y-53166552D02*
X179814115Y-53106076D01*
X179814115Y-53106076D02*
X179723400Y-53075838D01*
X179723400Y-53075838D02*
X179662924Y-53075838D01*
X179662924Y-53075838D02*
X179572210Y-53106076D01*
X179572210Y-53106076D02*
X179541972Y-53136314D01*
X178997686Y-53287504D02*
X178997686Y-53710838D01*
X179148877Y-53045600D02*
X179300067Y-53499171D01*
X179300067Y-53499171D02*
X178906972Y-53499171D01*
X178544115Y-53075838D02*
X178483638Y-53075838D01*
X178483638Y-53075838D02*
X178423162Y-53106076D01*
X178423162Y-53106076D02*
X178392924Y-53136314D01*
X178392924Y-53136314D02*
X178362686Y-53196790D01*
X178362686Y-53196790D02*
X178332448Y-53317742D01*
X178332448Y-53317742D02*
X178332448Y-53468933D01*
X178332448Y-53468933D02*
X178362686Y-53589885D01*
X178362686Y-53589885D02*
X178392924Y-53650361D01*
X178392924Y-53650361D02*
X178423162Y-53680600D01*
X178423162Y-53680600D02*
X178483638Y-53710838D01*
X178483638Y-53710838D02*
X178544115Y-53710838D01*
X178544115Y-53710838D02*
X178604591Y-53680600D01*
X178604591Y-53680600D02*
X178634829Y-53650361D01*
X178634829Y-53650361D02*
X178665067Y-53589885D01*
X178665067Y-53589885D02*
X178695305Y-53468933D01*
X178695305Y-53468933D02*
X178695305Y-53317742D01*
X178695305Y-53317742D02*
X178665067Y-53196790D01*
X178665067Y-53196790D02*
X178634829Y-53136314D01*
X178634829Y-53136314D02*
X178604591Y-53106076D01*
X178604591Y-53106076D02*
X178544115Y-53075838D01*
X232452790Y-137785638D02*
X232452790Y-137150638D01*
X232452790Y-137150638D02*
X232301600Y-137150638D01*
X232301600Y-137150638D02*
X232210885Y-137180876D01*
X232210885Y-137180876D02*
X232150409Y-137241352D01*
X232150409Y-137241352D02*
X232120171Y-137301828D01*
X232120171Y-137301828D02*
X232089933Y-137422780D01*
X232089933Y-137422780D02*
X232089933Y-137513495D01*
X232089933Y-137513495D02*
X232120171Y-137634447D01*
X232120171Y-137634447D02*
X232150409Y-137694923D01*
X232150409Y-137694923D02*
X232210885Y-137755400D01*
X232210885Y-137755400D02*
X232301600Y-137785638D01*
X232301600Y-137785638D02*
X232452790Y-137785638D01*
X231848028Y-137211114D02*
X231817790Y-137180876D01*
X231817790Y-137180876D02*
X231757314Y-137150638D01*
X231757314Y-137150638D02*
X231606123Y-137150638D01*
X231606123Y-137150638D02*
X231545647Y-137180876D01*
X231545647Y-137180876D02*
X231515409Y-137211114D01*
X231515409Y-137211114D02*
X231485171Y-137271590D01*
X231485171Y-137271590D02*
X231485171Y-137332066D01*
X231485171Y-137332066D02*
X231515409Y-137422780D01*
X231515409Y-137422780D02*
X231878266Y-137785638D01*
X231878266Y-137785638D02*
X231485171Y-137785638D01*
X232429790Y-139473438D02*
X232429790Y-138838438D01*
X232429790Y-138838438D02*
X232278600Y-138838438D01*
X232278600Y-138838438D02*
X232187885Y-138868676D01*
X232187885Y-138868676D02*
X232127409Y-138929152D01*
X232127409Y-138929152D02*
X232097171Y-138989628D01*
X232097171Y-138989628D02*
X232066933Y-139110580D01*
X232066933Y-139110580D02*
X232066933Y-139201295D01*
X232066933Y-139201295D02*
X232097171Y-139322247D01*
X232097171Y-139322247D02*
X232127409Y-139382723D01*
X232127409Y-139382723D02*
X232187885Y-139443200D01*
X232187885Y-139443200D02*
X232278600Y-139473438D01*
X232278600Y-139473438D02*
X232429790Y-139473438D01*
X231462171Y-139473438D02*
X231825028Y-139473438D01*
X231643600Y-139473438D02*
X231643600Y-138838438D01*
X231643600Y-138838438D02*
X231704076Y-138929152D01*
X231704076Y-138929152D02*
X231764552Y-138989628D01*
X231764552Y-138989628D02*
X231825028Y-139019866D01*
X183200714Y-128238843D02*
X183200714Y-128752890D01*
X183200714Y-128752890D02*
X183170476Y-128813366D01*
X183170476Y-128813366D02*
X183140238Y-128843605D01*
X183140238Y-128843605D02*
X183079762Y-128873843D01*
X183079762Y-128873843D02*
X182958809Y-128873843D01*
X182958809Y-128873843D02*
X182898333Y-128843605D01*
X182898333Y-128843605D02*
X182868095Y-128813366D01*
X182868095Y-128813366D02*
X182837857Y-128752890D01*
X182837857Y-128752890D02*
X182837857Y-128238843D01*
X182202857Y-128873843D02*
X182565714Y-128873843D01*
X182384286Y-128873843D02*
X182384286Y-128238843D01*
X182384286Y-128238843D02*
X182444762Y-128329557D01*
X182444762Y-128329557D02*
X182505238Y-128390033D01*
X182505238Y-128390033D02*
X182565714Y-128420271D01*
X181658571Y-128238843D02*
X181779524Y-128238843D01*
X181779524Y-128238843D02*
X181840000Y-128269081D01*
X181840000Y-128269081D02*
X181870238Y-128299319D01*
X181870238Y-128299319D02*
X181930714Y-128390033D01*
X181930714Y-128390033D02*
X181960952Y-128510985D01*
X181960952Y-128510985D02*
X181960952Y-128752890D01*
X181960952Y-128752890D02*
X181930714Y-128813366D01*
X181930714Y-128813366D02*
X181900476Y-128843605D01*
X181900476Y-128843605D02*
X181840000Y-128873843D01*
X181840000Y-128873843D02*
X181719047Y-128873843D01*
X181719047Y-128873843D02*
X181658571Y-128843605D01*
X181658571Y-128843605D02*
X181628333Y-128813366D01*
X181628333Y-128813366D02*
X181598095Y-128752890D01*
X181598095Y-128752890D02*
X181598095Y-128601700D01*
X181598095Y-128601700D02*
X181628333Y-128541224D01*
X181628333Y-128541224D02*
X181658571Y-128510985D01*
X181658571Y-128510985D02*
X181719047Y-128480747D01*
X181719047Y-128480747D02*
X181840000Y-128480747D01*
X181840000Y-128480747D02*
X181900476Y-128510985D01*
X181900476Y-128510985D02*
X181930714Y-128541224D01*
X181930714Y-128541224D02*
X181960952Y-128601700D01*
X191822238Y-144640838D02*
X192033905Y-144338457D01*
X192185095Y-144640838D02*
X192185095Y-144005838D01*
X192185095Y-144005838D02*
X191943190Y-144005838D01*
X191943190Y-144005838D02*
X191882714Y-144036076D01*
X191882714Y-144036076D02*
X191852476Y-144066314D01*
X191852476Y-144066314D02*
X191822238Y-144126790D01*
X191822238Y-144126790D02*
X191822238Y-144217504D01*
X191822238Y-144217504D02*
X191852476Y-144277980D01*
X191852476Y-144277980D02*
X191882714Y-144308219D01*
X191882714Y-144308219D02*
X191943190Y-144338457D01*
X191943190Y-144338457D02*
X192185095Y-144338457D01*
X191217476Y-144640838D02*
X191580333Y-144640838D01*
X191398905Y-144640838D02*
X191398905Y-144005838D01*
X191398905Y-144005838D02*
X191459381Y-144096552D01*
X191459381Y-144096552D02*
X191519857Y-144157028D01*
X191519857Y-144157028D02*
X191580333Y-144187266D01*
X190854619Y-144277980D02*
X190915095Y-144247742D01*
X190915095Y-144247742D02*
X190945333Y-144217504D01*
X190945333Y-144217504D02*
X190975571Y-144157028D01*
X190975571Y-144157028D02*
X190975571Y-144126790D01*
X190975571Y-144126790D02*
X190945333Y-144066314D01*
X190945333Y-144066314D02*
X190915095Y-144036076D01*
X190915095Y-144036076D02*
X190854619Y-144005838D01*
X190854619Y-144005838D02*
X190733666Y-144005838D01*
X190733666Y-144005838D02*
X190673190Y-144036076D01*
X190673190Y-144036076D02*
X190642952Y-144066314D01*
X190642952Y-144066314D02*
X190612714Y-144126790D01*
X190612714Y-144126790D02*
X190612714Y-144157028D01*
X190612714Y-144157028D02*
X190642952Y-144217504D01*
X190642952Y-144217504D02*
X190673190Y-144247742D01*
X190673190Y-144247742D02*
X190733666Y-144277980D01*
X190733666Y-144277980D02*
X190854619Y-144277980D01*
X190854619Y-144277980D02*
X190915095Y-144308219D01*
X190915095Y-144308219D02*
X190945333Y-144338457D01*
X190945333Y-144338457D02*
X190975571Y-144398933D01*
X190975571Y-144398933D02*
X190975571Y-144519885D01*
X190975571Y-144519885D02*
X190945333Y-144580361D01*
X190945333Y-144580361D02*
X190915095Y-144610600D01*
X190915095Y-144610600D02*
X190854619Y-144640838D01*
X190854619Y-144640838D02*
X190733666Y-144640838D01*
X190733666Y-144640838D02*
X190673190Y-144610600D01*
X190673190Y-144610600D02*
X190642952Y-144580361D01*
X190642952Y-144580361D02*
X190612714Y-144519885D01*
X190612714Y-144519885D02*
X190612714Y-144398933D01*
X190612714Y-144398933D02*
X190642952Y-144338457D01*
X190642952Y-144338457D02*
X190673190Y-144308219D01*
X190673190Y-144308219D02*
X190733666Y-144277980D01*
D11*
X167685438Y-58749057D02*
X167780676Y-58701438D01*
X167780676Y-58701438D02*
X167875914Y-58606200D01*
X167875914Y-58606200D02*
X168018771Y-58463342D01*
X168018771Y-58463342D02*
X168114009Y-58415723D01*
X168114009Y-58415723D02*
X168209247Y-58415723D01*
X168161628Y-58653819D02*
X168256866Y-58606200D01*
X168256866Y-58606200D02*
X168352104Y-58510961D01*
X168352104Y-58510961D02*
X168399723Y-58320485D01*
X168399723Y-58320485D02*
X168399723Y-57987152D01*
X168399723Y-57987152D02*
X168352104Y-57796676D01*
X168352104Y-57796676D02*
X168256866Y-57701438D01*
X168256866Y-57701438D02*
X168161628Y-57653819D01*
X168161628Y-57653819D02*
X167971152Y-57653819D01*
X167971152Y-57653819D02*
X167875914Y-57701438D01*
X167875914Y-57701438D02*
X167780676Y-57796676D01*
X167780676Y-57796676D02*
X167733057Y-57987152D01*
X167733057Y-57987152D02*
X167733057Y-58320485D01*
X167733057Y-58320485D02*
X167780676Y-58510961D01*
X167780676Y-58510961D02*
X167875914Y-58606200D01*
X167875914Y-58606200D02*
X167971152Y-58653819D01*
X167971152Y-58653819D02*
X168161628Y-58653819D01*
X166780676Y-58653819D02*
X167352104Y-58653819D01*
X167066390Y-58653819D02*
X167066390Y-57653819D01*
X167066390Y-57653819D02*
X167161628Y-57796676D01*
X167161628Y-57796676D02*
X167256866Y-57891914D01*
X167256866Y-57891914D02*
X167352104Y-57939533D01*
D10*
X186476904Y-107013237D02*
X186476904Y-107527284D01*
X186476904Y-107527284D02*
X186446666Y-107587760D01*
X186446666Y-107587760D02*
X186416428Y-107617999D01*
X186416428Y-107617999D02*
X186355952Y-107648237D01*
X186355952Y-107648237D02*
X186234999Y-107648237D01*
X186234999Y-107648237D02*
X186174523Y-107617999D01*
X186174523Y-107617999D02*
X186144285Y-107587760D01*
X186144285Y-107587760D02*
X186114047Y-107527284D01*
X186114047Y-107527284D02*
X186114047Y-107013237D01*
X185479047Y-107648237D02*
X185841904Y-107648237D01*
X185660476Y-107648237D02*
X185660476Y-107013237D01*
X185660476Y-107013237D02*
X185720952Y-107103951D01*
X185720952Y-107103951D02*
X185781428Y-107164427D01*
X185781428Y-107164427D02*
X185841904Y-107194665D01*
X185085952Y-107013237D02*
X185025475Y-107013237D01*
X185025475Y-107013237D02*
X184964999Y-107043475D01*
X184964999Y-107043475D02*
X184934761Y-107073713D01*
X184934761Y-107073713D02*
X184904523Y-107134189D01*
X184904523Y-107134189D02*
X184874285Y-107255141D01*
X184874285Y-107255141D02*
X184874285Y-107406332D01*
X184874285Y-107406332D02*
X184904523Y-107527284D01*
X184904523Y-107527284D02*
X184934761Y-107587760D01*
X184934761Y-107587760D02*
X184964999Y-107617999D01*
X184964999Y-107617999D02*
X185025475Y-107648237D01*
X185025475Y-107648237D02*
X185085952Y-107648237D01*
X185085952Y-107648237D02*
X185146428Y-107617999D01*
X185146428Y-107617999D02*
X185176666Y-107587760D01*
X185176666Y-107587760D02*
X185206904Y-107527284D01*
X185206904Y-107527284D02*
X185237142Y-107406332D01*
X185237142Y-107406332D02*
X185237142Y-107255141D01*
X185237142Y-107255141D02*
X185206904Y-107134189D01*
X185206904Y-107134189D02*
X185176666Y-107073713D01*
X185176666Y-107073713D02*
X185146428Y-107043475D01*
X185146428Y-107043475D02*
X185085952Y-107013237D01*
X175739492Y-53700361D02*
X175769730Y-53730600D01*
X175769730Y-53730600D02*
X175860444Y-53760838D01*
X175860444Y-53760838D02*
X175920920Y-53760838D01*
X175920920Y-53760838D02*
X176011635Y-53730600D01*
X176011635Y-53730600D02*
X176072111Y-53670123D01*
X176072111Y-53670123D02*
X176102349Y-53609647D01*
X176102349Y-53609647D02*
X176132587Y-53488695D01*
X176132587Y-53488695D02*
X176132587Y-53397980D01*
X176132587Y-53397980D02*
X176102349Y-53277028D01*
X176102349Y-53277028D02*
X176072111Y-53216552D01*
X176072111Y-53216552D02*
X176011635Y-53156076D01*
X176011635Y-53156076D02*
X175920920Y-53125838D01*
X175920920Y-53125838D02*
X175860444Y-53125838D01*
X175860444Y-53125838D02*
X175769730Y-53156076D01*
X175769730Y-53156076D02*
X175739492Y-53186314D01*
X175527825Y-53125838D02*
X175134730Y-53125838D01*
X175134730Y-53125838D02*
X175346397Y-53367742D01*
X175346397Y-53367742D02*
X175255682Y-53367742D01*
X175255682Y-53367742D02*
X175195206Y-53397980D01*
X175195206Y-53397980D02*
X175164968Y-53428219D01*
X175164968Y-53428219D02*
X175134730Y-53488695D01*
X175134730Y-53488695D02*
X175134730Y-53639885D01*
X175134730Y-53639885D02*
X175164968Y-53700361D01*
X175164968Y-53700361D02*
X175195206Y-53730600D01*
X175195206Y-53730600D02*
X175255682Y-53760838D01*
X175255682Y-53760838D02*
X175437111Y-53760838D01*
X175437111Y-53760838D02*
X175497587Y-53730600D01*
X175497587Y-53730600D02*
X175527825Y-53700361D01*
X174832349Y-53760838D02*
X174711397Y-53760838D01*
X174711397Y-53760838D02*
X174650920Y-53730600D01*
X174650920Y-53730600D02*
X174620682Y-53700361D01*
X174620682Y-53700361D02*
X174560206Y-53609647D01*
X174560206Y-53609647D02*
X174529968Y-53488695D01*
X174529968Y-53488695D02*
X174529968Y-53246790D01*
X174529968Y-53246790D02*
X174560206Y-53186314D01*
X174560206Y-53186314D02*
X174590444Y-53156076D01*
X174590444Y-53156076D02*
X174650920Y-53125838D01*
X174650920Y-53125838D02*
X174771873Y-53125838D01*
X174771873Y-53125838D02*
X174832349Y-53156076D01*
X174832349Y-53156076D02*
X174862587Y-53186314D01*
X174862587Y-53186314D02*
X174892825Y-53246790D01*
X174892825Y-53246790D02*
X174892825Y-53397980D01*
X174892825Y-53397980D02*
X174862587Y-53458457D01*
X174862587Y-53458457D02*
X174832349Y-53488695D01*
X174832349Y-53488695D02*
X174771873Y-53518933D01*
X174771873Y-53518933D02*
X174650920Y-53518933D01*
X174650920Y-53518933D02*
X174590444Y-53488695D01*
X174590444Y-53488695D02*
X174560206Y-53458457D01*
X174560206Y-53458457D02*
X174529968Y-53397980D01*
X183673428Y-115315838D02*
X183885095Y-115013457D01*
X184036285Y-115315838D02*
X184036285Y-114680838D01*
X184036285Y-114680838D02*
X183794380Y-114680838D01*
X183794380Y-114680838D02*
X183733904Y-114711076D01*
X183733904Y-114711076D02*
X183703666Y-114741314D01*
X183703666Y-114741314D02*
X183673428Y-114801790D01*
X183673428Y-114801790D02*
X183673428Y-114892504D01*
X183673428Y-114892504D02*
X183703666Y-114952980D01*
X183703666Y-114952980D02*
X183733904Y-114983219D01*
X183733904Y-114983219D02*
X183794380Y-115013457D01*
X183794380Y-115013457D02*
X184036285Y-115013457D01*
X183461761Y-114680838D02*
X183068666Y-114680838D01*
X183068666Y-114680838D02*
X183280333Y-114922742D01*
X183280333Y-114922742D02*
X183189618Y-114922742D01*
X183189618Y-114922742D02*
X183129142Y-114952980D01*
X183129142Y-114952980D02*
X183098904Y-114983219D01*
X183098904Y-114983219D02*
X183068666Y-115043695D01*
X183068666Y-115043695D02*
X183068666Y-115194885D01*
X183068666Y-115194885D02*
X183098904Y-115255361D01*
X183098904Y-115255361D02*
X183129142Y-115285600D01*
X183129142Y-115285600D02*
X183189618Y-115315838D01*
X183189618Y-115315838D02*
X183371047Y-115315838D01*
X183371047Y-115315838D02*
X183431523Y-115285600D01*
X183431523Y-115285600D02*
X183461761Y-115255361D01*
X182856999Y-114680838D02*
X182433666Y-114680838D01*
X182433666Y-114680838D02*
X182705809Y-115315838D01*
X187453631Y-117106351D02*
X187483869Y-117136590D01*
X187483869Y-117136590D02*
X187574583Y-117166828D01*
X187574583Y-117166828D02*
X187635059Y-117166828D01*
X187635059Y-117166828D02*
X187725774Y-117136590D01*
X187725774Y-117136590D02*
X187786250Y-117076113D01*
X187786250Y-117076113D02*
X187816488Y-117015637D01*
X187816488Y-117015637D02*
X187846726Y-116894685D01*
X187846726Y-116894685D02*
X187846726Y-116803970D01*
X187846726Y-116803970D02*
X187816488Y-116683018D01*
X187816488Y-116683018D02*
X187786250Y-116622542D01*
X187786250Y-116622542D02*
X187725774Y-116562066D01*
X187725774Y-116562066D02*
X187635059Y-116531828D01*
X187635059Y-116531828D02*
X187574583Y-116531828D01*
X187574583Y-116531828D02*
X187483869Y-116562066D01*
X187483869Y-116562066D02*
X187453631Y-116592304D01*
X186879107Y-116531828D02*
X187181488Y-116531828D01*
X187181488Y-116531828D02*
X187211726Y-116834209D01*
X187211726Y-116834209D02*
X187181488Y-116803970D01*
X187181488Y-116803970D02*
X187121012Y-116773732D01*
X187121012Y-116773732D02*
X186969821Y-116773732D01*
X186969821Y-116773732D02*
X186909345Y-116803970D01*
X186909345Y-116803970D02*
X186879107Y-116834209D01*
X186879107Y-116834209D02*
X186848869Y-116894685D01*
X186848869Y-116894685D02*
X186848869Y-117045875D01*
X186848869Y-117045875D02*
X186879107Y-117106351D01*
X186879107Y-117106351D02*
X186909345Y-117136590D01*
X186909345Y-117136590D02*
X186969821Y-117166828D01*
X186969821Y-117166828D02*
X187121012Y-117166828D01*
X187121012Y-117166828D02*
X187181488Y-117136590D01*
X187181488Y-117136590D02*
X187211726Y-117106351D01*
X186304583Y-116743494D02*
X186304583Y-117166828D01*
X186455774Y-116501590D02*
X186606964Y-116955161D01*
X186606964Y-116955161D02*
X186213869Y-116955161D01*
D11*
X175039792Y-73931819D02*
X175039792Y-74741342D01*
X175039792Y-74741342D02*
X174992173Y-74836580D01*
X174992173Y-74836580D02*
X174944554Y-74884200D01*
X174944554Y-74884200D02*
X174849316Y-74931819D01*
X174849316Y-74931819D02*
X174658840Y-74931819D01*
X174658840Y-74931819D02*
X174563602Y-74884200D01*
X174563602Y-74884200D02*
X174515983Y-74836580D01*
X174515983Y-74836580D02*
X174468364Y-74741342D01*
X174468364Y-74741342D02*
X174468364Y-73931819D01*
X173563602Y-73931819D02*
X173754078Y-73931819D01*
X173754078Y-73931819D02*
X173849316Y-73979438D01*
X173849316Y-73979438D02*
X173896935Y-74027057D01*
X173896935Y-74027057D02*
X173992173Y-74169914D01*
X173992173Y-74169914D02*
X174039792Y-74360390D01*
X174039792Y-74360390D02*
X174039792Y-74741342D01*
X174039792Y-74741342D02*
X173992173Y-74836580D01*
X173992173Y-74836580D02*
X173944554Y-74884200D01*
X173944554Y-74884200D02*
X173849316Y-74931819D01*
X173849316Y-74931819D02*
X173658840Y-74931819D01*
X173658840Y-74931819D02*
X173563602Y-74884200D01*
X173563602Y-74884200D02*
X173515983Y-74836580D01*
X173515983Y-74836580D02*
X173468364Y-74741342D01*
X173468364Y-74741342D02*
X173468364Y-74503247D01*
X173468364Y-74503247D02*
X173515983Y-74408009D01*
X173515983Y-74408009D02*
X173563602Y-74360390D01*
X173563602Y-74360390D02*
X173658840Y-74312771D01*
X173658840Y-74312771D02*
X173849316Y-74312771D01*
X173849316Y-74312771D02*
X173944554Y-74360390D01*
X173944554Y-74360390D02*
X173992173Y-74408009D01*
X173992173Y-74408009D02*
X174039792Y-74503247D01*
D10*
X188213428Y-103615838D02*
X188425095Y-103313457D01*
X188576285Y-103615838D02*
X188576285Y-102980838D01*
X188576285Y-102980838D02*
X188334380Y-102980838D01*
X188334380Y-102980838D02*
X188273904Y-103011076D01*
X188273904Y-103011076D02*
X188243666Y-103041314D01*
X188243666Y-103041314D02*
X188213428Y-103101790D01*
X188213428Y-103101790D02*
X188213428Y-103192504D01*
X188213428Y-103192504D02*
X188243666Y-103252980D01*
X188243666Y-103252980D02*
X188273904Y-103283219D01*
X188273904Y-103283219D02*
X188334380Y-103313457D01*
X188334380Y-103313457D02*
X188576285Y-103313457D01*
X188001761Y-102980838D02*
X187608666Y-102980838D01*
X187608666Y-102980838D02*
X187820333Y-103222742D01*
X187820333Y-103222742D02*
X187729618Y-103222742D01*
X187729618Y-103222742D02*
X187669142Y-103252980D01*
X187669142Y-103252980D02*
X187638904Y-103283219D01*
X187638904Y-103283219D02*
X187608666Y-103343695D01*
X187608666Y-103343695D02*
X187608666Y-103494885D01*
X187608666Y-103494885D02*
X187638904Y-103555361D01*
X187638904Y-103555361D02*
X187669142Y-103585600D01*
X187669142Y-103585600D02*
X187729618Y-103615838D01*
X187729618Y-103615838D02*
X187911047Y-103615838D01*
X187911047Y-103615838D02*
X187971523Y-103585600D01*
X187971523Y-103585600D02*
X188001761Y-103555361D01*
X187034142Y-102980838D02*
X187336523Y-102980838D01*
X187336523Y-102980838D02*
X187366761Y-103283219D01*
X187366761Y-103283219D02*
X187336523Y-103252980D01*
X187336523Y-103252980D02*
X187276047Y-103222742D01*
X187276047Y-103222742D02*
X187124856Y-103222742D01*
X187124856Y-103222742D02*
X187064380Y-103252980D01*
X187064380Y-103252980D02*
X187034142Y-103283219D01*
X187034142Y-103283219D02*
X187003904Y-103343695D01*
X187003904Y-103343695D02*
X187003904Y-103494885D01*
X187003904Y-103494885D02*
X187034142Y-103555361D01*
X187034142Y-103555361D02*
X187064380Y-103585600D01*
X187064380Y-103585600D02*
X187124856Y-103615838D01*
X187124856Y-103615838D02*
X187276047Y-103615838D01*
X187276047Y-103615838D02*
X187336523Y-103585600D01*
X187336523Y-103585600D02*
X187366761Y-103555361D01*
X191602238Y-127840838D02*
X191813905Y-127538457D01*
X191965095Y-127840838D02*
X191965095Y-127205838D01*
X191965095Y-127205838D02*
X191723190Y-127205838D01*
X191723190Y-127205838D02*
X191662714Y-127236076D01*
X191662714Y-127236076D02*
X191632476Y-127266314D01*
X191632476Y-127266314D02*
X191602238Y-127326790D01*
X191602238Y-127326790D02*
X191602238Y-127417504D01*
X191602238Y-127417504D02*
X191632476Y-127477980D01*
X191632476Y-127477980D02*
X191662714Y-127508219D01*
X191662714Y-127508219D02*
X191723190Y-127538457D01*
X191723190Y-127538457D02*
X191965095Y-127538457D01*
X191360333Y-127266314D02*
X191330095Y-127236076D01*
X191330095Y-127236076D02*
X191269619Y-127205838D01*
X191269619Y-127205838D02*
X191118428Y-127205838D01*
X191118428Y-127205838D02*
X191057952Y-127236076D01*
X191057952Y-127236076D02*
X191027714Y-127266314D01*
X191027714Y-127266314D02*
X190997476Y-127326790D01*
X190997476Y-127326790D02*
X190997476Y-127387266D01*
X190997476Y-127387266D02*
X191027714Y-127477980D01*
X191027714Y-127477980D02*
X191390571Y-127840838D01*
X191390571Y-127840838D02*
X190997476Y-127840838D01*
X190755571Y-127266314D02*
X190725333Y-127236076D01*
X190725333Y-127236076D02*
X190664857Y-127205838D01*
X190664857Y-127205838D02*
X190513666Y-127205838D01*
X190513666Y-127205838D02*
X190453190Y-127236076D01*
X190453190Y-127236076D02*
X190422952Y-127266314D01*
X190422952Y-127266314D02*
X190392714Y-127326790D01*
X190392714Y-127326790D02*
X190392714Y-127387266D01*
X190392714Y-127387266D02*
X190422952Y-127477980D01*
X190422952Y-127477980D02*
X190785809Y-127840838D01*
X190785809Y-127840838D02*
X190392714Y-127840838D01*
X184720714Y-146278439D02*
X184720714Y-146792486D01*
X184720714Y-146792486D02*
X184690476Y-146852962D01*
X184690476Y-146852962D02*
X184660238Y-146883201D01*
X184660238Y-146883201D02*
X184599762Y-146913439D01*
X184599762Y-146913439D02*
X184478809Y-146913439D01*
X184478809Y-146913439D02*
X184418333Y-146883201D01*
X184418333Y-146883201D02*
X184388095Y-146852962D01*
X184388095Y-146852962D02*
X184357857Y-146792486D01*
X184357857Y-146792486D02*
X184357857Y-146278439D01*
X183722857Y-146913439D02*
X184085714Y-146913439D01*
X183904286Y-146913439D02*
X183904286Y-146278439D01*
X183904286Y-146278439D02*
X183964762Y-146369153D01*
X183964762Y-146369153D02*
X184025238Y-146429629D01*
X184025238Y-146429629D02*
X184085714Y-146459867D01*
X183178571Y-146490105D02*
X183178571Y-146913439D01*
X183329762Y-146248201D02*
X183480952Y-146701772D01*
X183480952Y-146701772D02*
X183087857Y-146701772D01*
X204115516Y-73171961D02*
X204145754Y-73202200D01*
X204145754Y-73202200D02*
X204236468Y-73232438D01*
X204236468Y-73232438D02*
X204296944Y-73232438D01*
X204296944Y-73232438D02*
X204387659Y-73202200D01*
X204387659Y-73202200D02*
X204448135Y-73141723D01*
X204448135Y-73141723D02*
X204478373Y-73081247D01*
X204478373Y-73081247D02*
X204508611Y-72960295D01*
X204508611Y-72960295D02*
X204508611Y-72869580D01*
X204508611Y-72869580D02*
X204478373Y-72748628D01*
X204478373Y-72748628D02*
X204448135Y-72688152D01*
X204448135Y-72688152D02*
X204387659Y-72627676D01*
X204387659Y-72627676D02*
X204296944Y-72597438D01*
X204296944Y-72597438D02*
X204236468Y-72597438D01*
X204236468Y-72597438D02*
X204145754Y-72627676D01*
X204145754Y-72627676D02*
X204115516Y-72657914D01*
X203873611Y-72657914D02*
X203843373Y-72627676D01*
X203843373Y-72627676D02*
X203782897Y-72597438D01*
X203782897Y-72597438D02*
X203631706Y-72597438D01*
X203631706Y-72597438D02*
X203571230Y-72627676D01*
X203571230Y-72627676D02*
X203540992Y-72657914D01*
X203540992Y-72657914D02*
X203510754Y-72718390D01*
X203510754Y-72718390D02*
X203510754Y-72778866D01*
X203510754Y-72778866D02*
X203540992Y-72869580D01*
X203540992Y-72869580D02*
X203903849Y-73232438D01*
X203903849Y-73232438D02*
X203510754Y-73232438D01*
X203147897Y-72869580D02*
X203208373Y-72839342D01*
X203208373Y-72839342D02*
X203238611Y-72809104D01*
X203238611Y-72809104D02*
X203268849Y-72748628D01*
X203268849Y-72748628D02*
X203268849Y-72718390D01*
X203268849Y-72718390D02*
X203238611Y-72657914D01*
X203238611Y-72657914D02*
X203208373Y-72627676D01*
X203208373Y-72627676D02*
X203147897Y-72597438D01*
X203147897Y-72597438D02*
X203026944Y-72597438D01*
X203026944Y-72597438D02*
X202966468Y-72627676D01*
X202966468Y-72627676D02*
X202936230Y-72657914D01*
X202936230Y-72657914D02*
X202905992Y-72718390D01*
X202905992Y-72718390D02*
X202905992Y-72748628D01*
X202905992Y-72748628D02*
X202936230Y-72809104D01*
X202936230Y-72809104D02*
X202966468Y-72839342D01*
X202966468Y-72839342D02*
X203026944Y-72869580D01*
X203026944Y-72869580D02*
X203147897Y-72869580D01*
X203147897Y-72869580D02*
X203208373Y-72899819D01*
X203208373Y-72899819D02*
X203238611Y-72930057D01*
X203238611Y-72930057D02*
X203268849Y-72990533D01*
X203268849Y-72990533D02*
X203268849Y-73111485D01*
X203268849Y-73111485D02*
X203238611Y-73171961D01*
X203238611Y-73171961D02*
X203208373Y-73202200D01*
X203208373Y-73202200D02*
X203147897Y-73232438D01*
X203147897Y-73232438D02*
X203026944Y-73232438D01*
X203026944Y-73232438D02*
X202966468Y-73202200D01*
X202966468Y-73202200D02*
X202936230Y-73171961D01*
X202936230Y-73171961D02*
X202905992Y-73111485D01*
X202905992Y-73111485D02*
X202905992Y-72990533D01*
X202905992Y-72990533D02*
X202936230Y-72930057D01*
X202936230Y-72930057D02*
X202966468Y-72899819D01*
X202966468Y-72899819D02*
X203026944Y-72869580D01*
X214720216Y-78793961D02*
X214750454Y-78824200D01*
X214750454Y-78824200D02*
X214841168Y-78854438D01*
X214841168Y-78854438D02*
X214901644Y-78854438D01*
X214901644Y-78854438D02*
X214992359Y-78824200D01*
X214992359Y-78824200D02*
X215052835Y-78763723D01*
X215052835Y-78763723D02*
X215083073Y-78703247D01*
X215083073Y-78703247D02*
X215113311Y-78582295D01*
X215113311Y-78582295D02*
X215113311Y-78491580D01*
X215113311Y-78491580D02*
X215083073Y-78370628D01*
X215083073Y-78370628D02*
X215052835Y-78310152D01*
X215052835Y-78310152D02*
X214992359Y-78249676D01*
X214992359Y-78249676D02*
X214901644Y-78219438D01*
X214901644Y-78219438D02*
X214841168Y-78219438D01*
X214841168Y-78219438D02*
X214750454Y-78249676D01*
X214750454Y-78249676D02*
X214720216Y-78279914D01*
X214508549Y-78219438D02*
X214115454Y-78219438D01*
X214115454Y-78219438D02*
X214327121Y-78461342D01*
X214327121Y-78461342D02*
X214236406Y-78461342D01*
X214236406Y-78461342D02*
X214175930Y-78491580D01*
X214175930Y-78491580D02*
X214145692Y-78521819D01*
X214145692Y-78521819D02*
X214115454Y-78582295D01*
X214115454Y-78582295D02*
X214115454Y-78733485D01*
X214115454Y-78733485D02*
X214145692Y-78793961D01*
X214145692Y-78793961D02*
X214175930Y-78824200D01*
X214175930Y-78824200D02*
X214236406Y-78854438D01*
X214236406Y-78854438D02*
X214417835Y-78854438D01*
X214417835Y-78854438D02*
X214478311Y-78824200D01*
X214478311Y-78824200D02*
X214508549Y-78793961D01*
X213873549Y-78279914D02*
X213843311Y-78249676D01*
X213843311Y-78249676D02*
X213782835Y-78219438D01*
X213782835Y-78219438D02*
X213631644Y-78219438D01*
X213631644Y-78219438D02*
X213571168Y-78249676D01*
X213571168Y-78249676D02*
X213540930Y-78279914D01*
X213540930Y-78279914D02*
X213510692Y-78340390D01*
X213510692Y-78340390D02*
X213510692Y-78400866D01*
X213510692Y-78400866D02*
X213540930Y-78491580D01*
X213540930Y-78491580D02*
X213903787Y-78854438D01*
X213903787Y-78854438D02*
X213510692Y-78854438D01*
X192553631Y-111665955D02*
X192583869Y-111696194D01*
X192583869Y-111696194D02*
X192674583Y-111726432D01*
X192674583Y-111726432D02*
X192735059Y-111726432D01*
X192735059Y-111726432D02*
X192825774Y-111696194D01*
X192825774Y-111696194D02*
X192886250Y-111635717D01*
X192886250Y-111635717D02*
X192916488Y-111575241D01*
X192916488Y-111575241D02*
X192946726Y-111454289D01*
X192946726Y-111454289D02*
X192946726Y-111363574D01*
X192946726Y-111363574D02*
X192916488Y-111242622D01*
X192916488Y-111242622D02*
X192886250Y-111182146D01*
X192886250Y-111182146D02*
X192825774Y-111121670D01*
X192825774Y-111121670D02*
X192735059Y-111091432D01*
X192735059Y-111091432D02*
X192674583Y-111091432D01*
X192674583Y-111091432D02*
X192583869Y-111121670D01*
X192583869Y-111121670D02*
X192553631Y-111151908D01*
X191979107Y-111091432D02*
X192281488Y-111091432D01*
X192281488Y-111091432D02*
X192311726Y-111393813D01*
X192311726Y-111393813D02*
X192281488Y-111363574D01*
X192281488Y-111363574D02*
X192221012Y-111333336D01*
X192221012Y-111333336D02*
X192069821Y-111333336D01*
X192069821Y-111333336D02*
X192009345Y-111363574D01*
X192009345Y-111363574D02*
X191979107Y-111393813D01*
X191979107Y-111393813D02*
X191948869Y-111454289D01*
X191948869Y-111454289D02*
X191948869Y-111605479D01*
X191948869Y-111605479D02*
X191979107Y-111665955D01*
X191979107Y-111665955D02*
X192009345Y-111696194D01*
X192009345Y-111696194D02*
X192069821Y-111726432D01*
X192069821Y-111726432D02*
X192221012Y-111726432D01*
X192221012Y-111726432D02*
X192281488Y-111696194D01*
X192281488Y-111696194D02*
X192311726Y-111665955D01*
X191737202Y-111091432D02*
X191344107Y-111091432D01*
X191344107Y-111091432D02*
X191555774Y-111333336D01*
X191555774Y-111333336D02*
X191465059Y-111333336D01*
X191465059Y-111333336D02*
X191404583Y-111363574D01*
X191404583Y-111363574D02*
X191374345Y-111393813D01*
X191374345Y-111393813D02*
X191344107Y-111454289D01*
X191344107Y-111454289D02*
X191344107Y-111605479D01*
X191344107Y-111605479D02*
X191374345Y-111665955D01*
X191374345Y-111665955D02*
X191404583Y-111696194D01*
X191404583Y-111696194D02*
X191465059Y-111726432D01*
X191465059Y-111726432D02*
X191646488Y-111726432D01*
X191646488Y-111726432D02*
X191706964Y-111696194D01*
X191706964Y-111696194D02*
X191737202Y-111665955D01*
X183204452Y-53650361D02*
X183234690Y-53680600D01*
X183234690Y-53680600D02*
X183325404Y-53710838D01*
X183325404Y-53710838D02*
X183385880Y-53710838D01*
X183385880Y-53710838D02*
X183476595Y-53680600D01*
X183476595Y-53680600D02*
X183537071Y-53620123D01*
X183537071Y-53620123D02*
X183567309Y-53559647D01*
X183567309Y-53559647D02*
X183597547Y-53438695D01*
X183597547Y-53438695D02*
X183597547Y-53347980D01*
X183597547Y-53347980D02*
X183567309Y-53227028D01*
X183567309Y-53227028D02*
X183537071Y-53166552D01*
X183537071Y-53166552D02*
X183476595Y-53106076D01*
X183476595Y-53106076D02*
X183385880Y-53075838D01*
X183385880Y-53075838D02*
X183325404Y-53075838D01*
X183325404Y-53075838D02*
X183234690Y-53106076D01*
X183234690Y-53106076D02*
X183204452Y-53136314D01*
X182660166Y-53287504D02*
X182660166Y-53710838D01*
X182811357Y-53045600D02*
X182962547Y-53499171D01*
X182962547Y-53499171D02*
X182569452Y-53499171D01*
X181994928Y-53710838D02*
X182357785Y-53710838D01*
X182176357Y-53710838D02*
X182176357Y-53075838D01*
X182176357Y-53075838D02*
X182236833Y-53166552D01*
X182236833Y-53166552D02*
X182297309Y-53227028D01*
X182297309Y-53227028D02*
X182357785Y-53257266D01*
X191694338Y-137785761D02*
X191724576Y-137816000D01*
X191724576Y-137816000D02*
X191815290Y-137846238D01*
X191815290Y-137846238D02*
X191875766Y-137846238D01*
X191875766Y-137846238D02*
X191966481Y-137816000D01*
X191966481Y-137816000D02*
X192026957Y-137755523D01*
X192026957Y-137755523D02*
X192057195Y-137695047D01*
X192057195Y-137695047D02*
X192087433Y-137574095D01*
X192087433Y-137574095D02*
X192087433Y-137483380D01*
X192087433Y-137483380D02*
X192057195Y-137362428D01*
X192057195Y-137362428D02*
X192026957Y-137301952D01*
X192026957Y-137301952D02*
X191966481Y-137241476D01*
X191966481Y-137241476D02*
X191875766Y-137211238D01*
X191875766Y-137211238D02*
X191815290Y-137211238D01*
X191815290Y-137211238D02*
X191724576Y-137241476D01*
X191724576Y-137241476D02*
X191694338Y-137271714D01*
X191119814Y-137211238D02*
X191422195Y-137211238D01*
X191422195Y-137211238D02*
X191452433Y-137513619D01*
X191452433Y-137513619D02*
X191422195Y-137483380D01*
X191422195Y-137483380D02*
X191361719Y-137453142D01*
X191361719Y-137453142D02*
X191210528Y-137453142D01*
X191210528Y-137453142D02*
X191150052Y-137483380D01*
X191150052Y-137483380D02*
X191119814Y-137513619D01*
X191119814Y-137513619D02*
X191089576Y-137574095D01*
X191089576Y-137574095D02*
X191089576Y-137725285D01*
X191089576Y-137725285D02*
X191119814Y-137785761D01*
X191119814Y-137785761D02*
X191150052Y-137816000D01*
X191150052Y-137816000D02*
X191210528Y-137846238D01*
X191210528Y-137846238D02*
X191361719Y-137846238D01*
X191361719Y-137846238D02*
X191422195Y-137816000D01*
X191422195Y-137816000D02*
X191452433Y-137785761D01*
X190877909Y-137211238D02*
X190454576Y-137211238D01*
X190454576Y-137211238D02*
X190726719Y-137846238D01*
X204838214Y-128450838D02*
X205049881Y-128148457D01*
X205201071Y-128450838D02*
X205201071Y-127815838D01*
X205201071Y-127815838D02*
X204959166Y-127815838D01*
X204959166Y-127815838D02*
X204898690Y-127846076D01*
X204898690Y-127846076D02*
X204868452Y-127876314D01*
X204868452Y-127876314D02*
X204838214Y-127936790D01*
X204838214Y-127936790D02*
X204838214Y-128027504D01*
X204838214Y-128027504D02*
X204868452Y-128087980D01*
X204868452Y-128087980D02*
X204898690Y-128118219D01*
X204898690Y-128118219D02*
X204959166Y-128148457D01*
X204959166Y-128148457D02*
X205201071Y-128148457D01*
X204293928Y-128027504D02*
X204293928Y-128450838D01*
X204445119Y-127785600D02*
X204596309Y-128239171D01*
X204596309Y-128239171D02*
X204203214Y-128239171D01*
X203870595Y-128087980D02*
X203931071Y-128057742D01*
X203931071Y-128057742D02*
X203961309Y-128027504D01*
X203961309Y-128027504D02*
X203991547Y-127967028D01*
X203991547Y-127967028D02*
X203991547Y-127936790D01*
X203991547Y-127936790D02*
X203961309Y-127876314D01*
X203961309Y-127876314D02*
X203931071Y-127846076D01*
X203931071Y-127846076D02*
X203870595Y-127815838D01*
X203870595Y-127815838D02*
X203749642Y-127815838D01*
X203749642Y-127815838D02*
X203689166Y-127846076D01*
X203689166Y-127846076D02*
X203658928Y-127876314D01*
X203658928Y-127876314D02*
X203628690Y-127936790D01*
X203628690Y-127936790D02*
X203628690Y-127967028D01*
X203628690Y-127967028D02*
X203658928Y-128027504D01*
X203658928Y-128027504D02*
X203689166Y-128057742D01*
X203689166Y-128057742D02*
X203749642Y-128087980D01*
X203749642Y-128087980D02*
X203870595Y-128087980D01*
X203870595Y-128087980D02*
X203931071Y-128118219D01*
X203931071Y-128118219D02*
X203961309Y-128148457D01*
X203961309Y-128148457D02*
X203991547Y-128208933D01*
X203991547Y-128208933D02*
X203991547Y-128329885D01*
X203991547Y-128329885D02*
X203961309Y-128390361D01*
X203961309Y-128390361D02*
X203931071Y-128420600D01*
X203931071Y-128420600D02*
X203870595Y-128450838D01*
X203870595Y-128450838D02*
X203749642Y-128450838D01*
X203749642Y-128450838D02*
X203689166Y-128420600D01*
X203689166Y-128420600D02*
X203658928Y-128390361D01*
X203658928Y-128390361D02*
X203628690Y-128329885D01*
X203628690Y-128329885D02*
X203628690Y-128208933D01*
X203628690Y-128208933D02*
X203658928Y-128148457D01*
X203658928Y-128148457D02*
X203689166Y-128118219D01*
X203689166Y-128118219D02*
X203749642Y-128087980D01*
D11*
X187386792Y-73894819D02*
X187386792Y-74704342D01*
X187386792Y-74704342D02*
X187339173Y-74799580D01*
X187339173Y-74799580D02*
X187291554Y-74847200D01*
X187291554Y-74847200D02*
X187196316Y-74894819D01*
X187196316Y-74894819D02*
X187005840Y-74894819D01*
X187005840Y-74894819D02*
X186910602Y-74847200D01*
X186910602Y-74847200D02*
X186862983Y-74799580D01*
X186862983Y-74799580D02*
X186815364Y-74704342D01*
X186815364Y-74704342D02*
X186815364Y-73894819D01*
X186434411Y-73894819D02*
X185767745Y-73894819D01*
X185767745Y-73894819D02*
X186196316Y-74894819D01*
D10*
X186466904Y-113708035D02*
X186466904Y-114222082D01*
X186466904Y-114222082D02*
X186436666Y-114282558D01*
X186436666Y-114282558D02*
X186406428Y-114312797D01*
X186406428Y-114312797D02*
X186345952Y-114343035D01*
X186345952Y-114343035D02*
X186224999Y-114343035D01*
X186224999Y-114343035D02*
X186164523Y-114312797D01*
X186164523Y-114312797D02*
X186134285Y-114282558D01*
X186134285Y-114282558D02*
X186104047Y-114222082D01*
X186104047Y-114222082D02*
X186104047Y-113708035D01*
X185469047Y-114343035D02*
X185831904Y-114343035D01*
X185650476Y-114343035D02*
X185650476Y-113708035D01*
X185650476Y-113708035D02*
X185710952Y-113798749D01*
X185710952Y-113798749D02*
X185771428Y-113859225D01*
X185771428Y-113859225D02*
X185831904Y-113889463D01*
X185227142Y-113768511D02*
X185196904Y-113738273D01*
X185196904Y-113738273D02*
X185136428Y-113708035D01*
X185136428Y-113708035D02*
X184985237Y-113708035D01*
X184985237Y-113708035D02*
X184924761Y-113738273D01*
X184924761Y-113738273D02*
X184894523Y-113768511D01*
X184894523Y-113768511D02*
X184864285Y-113828987D01*
X184864285Y-113828987D02*
X184864285Y-113889463D01*
X184864285Y-113889463D02*
X184894523Y-113980177D01*
X184894523Y-113980177D02*
X185257380Y-114343035D01*
X185257380Y-114343035D02*
X184864285Y-114343035D01*
X180126102Y-76085361D02*
X180156340Y-76115600D01*
X180156340Y-76115600D02*
X180247054Y-76145838D01*
X180247054Y-76145838D02*
X180307530Y-76145838D01*
X180307530Y-76145838D02*
X180398245Y-76115600D01*
X180398245Y-76115600D02*
X180458721Y-76055123D01*
X180458721Y-76055123D02*
X180488959Y-75994647D01*
X180488959Y-75994647D02*
X180519197Y-75873695D01*
X180519197Y-75873695D02*
X180519197Y-75782980D01*
X180519197Y-75782980D02*
X180488959Y-75662028D01*
X180488959Y-75662028D02*
X180458721Y-75601552D01*
X180458721Y-75601552D02*
X180398245Y-75541076D01*
X180398245Y-75541076D02*
X180307530Y-75510838D01*
X180307530Y-75510838D02*
X180247054Y-75510838D01*
X180247054Y-75510838D02*
X180156340Y-75541076D01*
X180156340Y-75541076D02*
X180126102Y-75571314D01*
X179914435Y-75510838D02*
X179521340Y-75510838D01*
X179521340Y-75510838D02*
X179733007Y-75752742D01*
X179733007Y-75752742D02*
X179642292Y-75752742D01*
X179642292Y-75752742D02*
X179581816Y-75782980D01*
X179581816Y-75782980D02*
X179551578Y-75813219D01*
X179551578Y-75813219D02*
X179521340Y-75873695D01*
X179521340Y-75873695D02*
X179521340Y-76024885D01*
X179521340Y-76024885D02*
X179551578Y-76085361D01*
X179551578Y-76085361D02*
X179581816Y-76115600D01*
X179581816Y-76115600D02*
X179642292Y-76145838D01*
X179642292Y-76145838D02*
X179823721Y-76145838D01*
X179823721Y-76145838D02*
X179884197Y-76115600D01*
X179884197Y-76115600D02*
X179914435Y-76085361D01*
X179158483Y-75782980D02*
X179218959Y-75752742D01*
X179218959Y-75752742D02*
X179249197Y-75722504D01*
X179249197Y-75722504D02*
X179279435Y-75662028D01*
X179279435Y-75662028D02*
X179279435Y-75631790D01*
X179279435Y-75631790D02*
X179249197Y-75571314D01*
X179249197Y-75571314D02*
X179218959Y-75541076D01*
X179218959Y-75541076D02*
X179158483Y-75510838D01*
X179158483Y-75510838D02*
X179037530Y-75510838D01*
X179037530Y-75510838D02*
X178977054Y-75541076D01*
X178977054Y-75541076D02*
X178946816Y-75571314D01*
X178946816Y-75571314D02*
X178916578Y-75631790D01*
X178916578Y-75631790D02*
X178916578Y-75662028D01*
X178916578Y-75662028D02*
X178946816Y-75722504D01*
X178946816Y-75722504D02*
X178977054Y-75752742D01*
X178977054Y-75752742D02*
X179037530Y-75782980D01*
X179037530Y-75782980D02*
X179158483Y-75782980D01*
X179158483Y-75782980D02*
X179218959Y-75813219D01*
X179218959Y-75813219D02*
X179249197Y-75843457D01*
X179249197Y-75843457D02*
X179279435Y-75903933D01*
X179279435Y-75903933D02*
X179279435Y-76024885D01*
X179279435Y-76024885D02*
X179249197Y-76085361D01*
X179249197Y-76085361D02*
X179218959Y-76115600D01*
X179218959Y-76115600D02*
X179158483Y-76145838D01*
X179158483Y-76145838D02*
X179037530Y-76145838D01*
X179037530Y-76145838D02*
X178977054Y-76115600D01*
X178977054Y-76115600D02*
X178946816Y-76085361D01*
X178946816Y-76085361D02*
X178916578Y-76024885D01*
X178916578Y-76024885D02*
X178916578Y-75903933D01*
X178916578Y-75903933D02*
X178946816Y-75843457D01*
X178946816Y-75843457D02*
X178977054Y-75813219D01*
X178977054Y-75813219D02*
X179037530Y-75782980D01*
X189795238Y-122165838D02*
X190006905Y-121863457D01*
X190158095Y-122165838D02*
X190158095Y-121530838D01*
X190158095Y-121530838D02*
X189916190Y-121530838D01*
X189916190Y-121530838D02*
X189855714Y-121561076D01*
X189855714Y-121561076D02*
X189825476Y-121591314D01*
X189825476Y-121591314D02*
X189795238Y-121651790D01*
X189795238Y-121651790D02*
X189795238Y-121742504D01*
X189795238Y-121742504D02*
X189825476Y-121802980D01*
X189825476Y-121802980D02*
X189855714Y-121833219D01*
X189855714Y-121833219D02*
X189916190Y-121863457D01*
X189916190Y-121863457D02*
X190158095Y-121863457D01*
X189553333Y-121591314D02*
X189523095Y-121561076D01*
X189523095Y-121561076D02*
X189462619Y-121530838D01*
X189462619Y-121530838D02*
X189311428Y-121530838D01*
X189311428Y-121530838D02*
X189250952Y-121561076D01*
X189250952Y-121561076D02*
X189220714Y-121591314D01*
X189220714Y-121591314D02*
X189190476Y-121651790D01*
X189190476Y-121651790D02*
X189190476Y-121712266D01*
X189190476Y-121712266D02*
X189220714Y-121802980D01*
X189220714Y-121802980D02*
X189583571Y-122165838D01*
X189583571Y-122165838D02*
X189190476Y-122165838D01*
X188585714Y-122165838D02*
X188948571Y-122165838D01*
X188767143Y-122165838D02*
X188767143Y-121530838D01*
X188767143Y-121530838D02*
X188827619Y-121621552D01*
X188827619Y-121621552D02*
X188888095Y-121682028D01*
X188888095Y-121682028D02*
X188948571Y-121712266D01*
X216783416Y-83710361D02*
X216813654Y-83740600D01*
X216813654Y-83740600D02*
X216904368Y-83770838D01*
X216904368Y-83770838D02*
X216964844Y-83770838D01*
X216964844Y-83770838D02*
X217055559Y-83740600D01*
X217055559Y-83740600D02*
X217116035Y-83680123D01*
X217116035Y-83680123D02*
X217146273Y-83619647D01*
X217146273Y-83619647D02*
X217176511Y-83498695D01*
X217176511Y-83498695D02*
X217176511Y-83407980D01*
X217176511Y-83407980D02*
X217146273Y-83287028D01*
X217146273Y-83287028D02*
X217116035Y-83226552D01*
X217116035Y-83226552D02*
X217055559Y-83166076D01*
X217055559Y-83166076D02*
X216964844Y-83135838D01*
X216964844Y-83135838D02*
X216904368Y-83135838D01*
X216904368Y-83135838D02*
X216813654Y-83166076D01*
X216813654Y-83166076D02*
X216783416Y-83196314D01*
X216571749Y-83135838D02*
X216178654Y-83135838D01*
X216178654Y-83135838D02*
X216390321Y-83377742D01*
X216390321Y-83377742D02*
X216299606Y-83377742D01*
X216299606Y-83377742D02*
X216239130Y-83407980D01*
X216239130Y-83407980D02*
X216208892Y-83438219D01*
X216208892Y-83438219D02*
X216178654Y-83498695D01*
X216178654Y-83498695D02*
X216178654Y-83649885D01*
X216178654Y-83649885D02*
X216208892Y-83710361D01*
X216208892Y-83710361D02*
X216239130Y-83740600D01*
X216239130Y-83740600D02*
X216299606Y-83770838D01*
X216299606Y-83770838D02*
X216481035Y-83770838D01*
X216481035Y-83770838D02*
X216541511Y-83740600D01*
X216541511Y-83740600D02*
X216571749Y-83710361D01*
X215573892Y-83770838D02*
X215936749Y-83770838D01*
X215755321Y-83770838D02*
X215755321Y-83135838D01*
X215755321Y-83135838D02*
X215815797Y-83226552D01*
X215815797Y-83226552D02*
X215876273Y-83287028D01*
X215876273Y-83287028D02*
X215936749Y-83317266D01*
X171957012Y-53710361D02*
X171987250Y-53740600D01*
X171987250Y-53740600D02*
X172077964Y-53770838D01*
X172077964Y-53770838D02*
X172138440Y-53770838D01*
X172138440Y-53770838D02*
X172229155Y-53740600D01*
X172229155Y-53740600D02*
X172289631Y-53680123D01*
X172289631Y-53680123D02*
X172319869Y-53619647D01*
X172319869Y-53619647D02*
X172350107Y-53498695D01*
X172350107Y-53498695D02*
X172350107Y-53407980D01*
X172350107Y-53407980D02*
X172319869Y-53287028D01*
X172319869Y-53287028D02*
X172289631Y-53226552D01*
X172289631Y-53226552D02*
X172229155Y-53166076D01*
X172229155Y-53166076D02*
X172138440Y-53135838D01*
X172138440Y-53135838D02*
X172077964Y-53135838D01*
X172077964Y-53135838D02*
X171987250Y-53166076D01*
X171987250Y-53166076D02*
X171957012Y-53196314D01*
X171745345Y-53135838D02*
X171352250Y-53135838D01*
X171352250Y-53135838D02*
X171563917Y-53377742D01*
X171563917Y-53377742D02*
X171473202Y-53377742D01*
X171473202Y-53377742D02*
X171412726Y-53407980D01*
X171412726Y-53407980D02*
X171382488Y-53438219D01*
X171382488Y-53438219D02*
X171352250Y-53498695D01*
X171352250Y-53498695D02*
X171352250Y-53649885D01*
X171352250Y-53649885D02*
X171382488Y-53710361D01*
X171382488Y-53710361D02*
X171412726Y-53740600D01*
X171412726Y-53740600D02*
X171473202Y-53770838D01*
X171473202Y-53770838D02*
X171654631Y-53770838D01*
X171654631Y-53770838D02*
X171715107Y-53740600D01*
X171715107Y-53740600D02*
X171745345Y-53710361D01*
X171140583Y-53135838D02*
X170717250Y-53135838D01*
X170717250Y-53135838D02*
X170989393Y-53770838D01*
X190659416Y-53640361D02*
X190689654Y-53670600D01*
X190689654Y-53670600D02*
X190780368Y-53700838D01*
X190780368Y-53700838D02*
X190840844Y-53700838D01*
X190840844Y-53700838D02*
X190931559Y-53670600D01*
X190931559Y-53670600D02*
X190992035Y-53610123D01*
X190992035Y-53610123D02*
X191022273Y-53549647D01*
X191022273Y-53549647D02*
X191052511Y-53428695D01*
X191052511Y-53428695D02*
X191052511Y-53337980D01*
X191052511Y-53337980D02*
X191022273Y-53217028D01*
X191022273Y-53217028D02*
X190992035Y-53156552D01*
X190992035Y-53156552D02*
X190931559Y-53096076D01*
X190931559Y-53096076D02*
X190840844Y-53065838D01*
X190840844Y-53065838D02*
X190780368Y-53065838D01*
X190780368Y-53065838D02*
X190689654Y-53096076D01*
X190689654Y-53096076D02*
X190659416Y-53126314D01*
X190115130Y-53277504D02*
X190115130Y-53700838D01*
X190266321Y-53035600D02*
X190417511Y-53489171D01*
X190417511Y-53489171D02*
X190024416Y-53489171D01*
X189510368Y-53277504D02*
X189510368Y-53700838D01*
X189661559Y-53035600D02*
X189812749Y-53489171D01*
X189812749Y-53489171D02*
X189419654Y-53489171D01*
X182730714Y-136173641D02*
X182730714Y-136687688D01*
X182730714Y-136687688D02*
X182700476Y-136748164D01*
X182700476Y-136748164D02*
X182670238Y-136778403D01*
X182670238Y-136778403D02*
X182609762Y-136808641D01*
X182609762Y-136808641D02*
X182488809Y-136808641D01*
X182488809Y-136808641D02*
X182428333Y-136778403D01*
X182428333Y-136778403D02*
X182398095Y-136748164D01*
X182398095Y-136748164D02*
X182367857Y-136687688D01*
X182367857Y-136687688D02*
X182367857Y-136173641D01*
X181732857Y-136808641D02*
X182095714Y-136808641D01*
X181914286Y-136808641D02*
X181914286Y-136173641D01*
X181914286Y-136173641D02*
X181974762Y-136264355D01*
X181974762Y-136264355D02*
X182035238Y-136324831D01*
X182035238Y-136324831D02*
X182095714Y-136355069D01*
X181158333Y-136173641D02*
X181460714Y-136173641D01*
X181460714Y-136173641D02*
X181490952Y-136476022D01*
X181490952Y-136476022D02*
X181460714Y-136445783D01*
X181460714Y-136445783D02*
X181400238Y-136415545D01*
X181400238Y-136415545D02*
X181249047Y-136415545D01*
X181249047Y-136415545D02*
X181188571Y-136445783D01*
X181188571Y-136445783D02*
X181158333Y-136476022D01*
X181158333Y-136476022D02*
X181128095Y-136536498D01*
X181128095Y-136536498D02*
X181128095Y-136687688D01*
X181128095Y-136687688D02*
X181158333Y-136748164D01*
X181158333Y-136748164D02*
X181188571Y-136778403D01*
X181188571Y-136778403D02*
X181249047Y-136808641D01*
X181249047Y-136808641D02*
X181400238Y-136808641D01*
X181400238Y-136808641D02*
X181460714Y-136778403D01*
X181460714Y-136778403D02*
X181490952Y-136748164D01*
X171469414Y-103405838D02*
X171681081Y-103103457D01*
X171832271Y-103405838D02*
X171832271Y-102770838D01*
X171832271Y-102770838D02*
X171590366Y-102770838D01*
X171590366Y-102770838D02*
X171529890Y-102801076D01*
X171529890Y-102801076D02*
X171499652Y-102831314D01*
X171499652Y-102831314D02*
X171469414Y-102891790D01*
X171469414Y-102891790D02*
X171469414Y-102982504D01*
X171469414Y-102982504D02*
X171499652Y-103042980D01*
X171499652Y-103042980D02*
X171529890Y-103073219D01*
X171529890Y-103073219D02*
X171590366Y-103103457D01*
X171590366Y-103103457D02*
X171832271Y-103103457D01*
X170864652Y-103405838D02*
X171227509Y-103405838D01*
X171046081Y-103405838D02*
X171046081Y-102770838D01*
X171046081Y-102770838D02*
X171106557Y-102861552D01*
X171106557Y-102861552D02*
X171167033Y-102922028D01*
X171167033Y-102922028D02*
X171227509Y-102952266D01*
X170290128Y-102770838D02*
X170592509Y-102770838D01*
X170592509Y-102770838D02*
X170622747Y-103073219D01*
X170622747Y-103073219D02*
X170592509Y-103042980D01*
X170592509Y-103042980D02*
X170532033Y-103012742D01*
X170532033Y-103012742D02*
X170380842Y-103012742D01*
X170380842Y-103012742D02*
X170320366Y-103042980D01*
X170320366Y-103042980D02*
X170290128Y-103073219D01*
X170290128Y-103073219D02*
X170259890Y-103133695D01*
X170259890Y-103133695D02*
X170259890Y-103284885D01*
X170259890Y-103284885D02*
X170290128Y-103345361D01*
X170290128Y-103345361D02*
X170320366Y-103375600D01*
X170320366Y-103375600D02*
X170380842Y-103405838D01*
X170380842Y-103405838D02*
X170532033Y-103405838D01*
X170532033Y-103405838D02*
X170592509Y-103375600D01*
X170592509Y-103375600D02*
X170622747Y-103345361D01*
D12*
X168810952Y-90604318D02*
X168810952Y-89334318D01*
X168810952Y-89334318D02*
X168327142Y-89334318D01*
X168327142Y-89334318D02*
X168206190Y-89394794D01*
X168206190Y-89394794D02*
X168145713Y-89455270D01*
X168145713Y-89455270D02*
X168085237Y-89576222D01*
X168085237Y-89576222D02*
X168085237Y-89757651D01*
X168085237Y-89757651D02*
X168145713Y-89878603D01*
X168145713Y-89878603D02*
X168206190Y-89939080D01*
X168206190Y-89939080D02*
X168327142Y-89999556D01*
X168327142Y-89999556D02*
X168810952Y-89999556D01*
X167540952Y-90604318D02*
X167540952Y-89334318D01*
X167540952Y-89939080D02*
X166815237Y-89939080D01*
X166815237Y-90604318D02*
X166815237Y-89334318D01*
X166512857Y-90725270D02*
X165545237Y-90725270D01*
X165303333Y-90241461D02*
X164698571Y-90241461D01*
X165424285Y-90604318D02*
X165000952Y-89334318D01*
X165000952Y-89334318D02*
X164577618Y-90604318D01*
D10*
X168928576Y-107631314D02*
X168989052Y-107601076D01*
X168989052Y-107601076D02*
X169049528Y-107540600D01*
X169049528Y-107540600D02*
X169140242Y-107449885D01*
X169140242Y-107449885D02*
X169200719Y-107419647D01*
X169200719Y-107419647D02*
X169261195Y-107419647D01*
X169230957Y-107570838D02*
X169291433Y-107540600D01*
X169291433Y-107540600D02*
X169351909Y-107480123D01*
X169351909Y-107480123D02*
X169382147Y-107359171D01*
X169382147Y-107359171D02*
X169382147Y-107147504D01*
X169382147Y-107147504D02*
X169351909Y-107026552D01*
X169351909Y-107026552D02*
X169291433Y-106966076D01*
X169291433Y-106966076D02*
X169230957Y-106935838D01*
X169230957Y-106935838D02*
X169110004Y-106935838D01*
X169110004Y-106935838D02*
X169049528Y-106966076D01*
X169049528Y-106966076D02*
X168989052Y-107026552D01*
X168989052Y-107026552D02*
X168958814Y-107147504D01*
X168958814Y-107147504D02*
X168958814Y-107359171D01*
X168958814Y-107359171D02*
X168989052Y-107480123D01*
X168989052Y-107480123D02*
X169049528Y-107540600D01*
X169049528Y-107540600D02*
X169110004Y-107570838D01*
X169110004Y-107570838D02*
X169230957Y-107570838D01*
X168747147Y-106935838D02*
X168323814Y-106935838D01*
X168323814Y-106935838D02*
X168595957Y-107570838D01*
X165409414Y-105325838D02*
X165621081Y-105023457D01*
X165772271Y-105325838D02*
X165772271Y-104690838D01*
X165772271Y-104690838D02*
X165530366Y-104690838D01*
X165530366Y-104690838D02*
X165469890Y-104721076D01*
X165469890Y-104721076D02*
X165439652Y-104751314D01*
X165439652Y-104751314D02*
X165409414Y-104811790D01*
X165409414Y-104811790D02*
X165409414Y-104902504D01*
X165409414Y-104902504D02*
X165439652Y-104962980D01*
X165439652Y-104962980D02*
X165469890Y-104993219D01*
X165469890Y-104993219D02*
X165530366Y-105023457D01*
X165530366Y-105023457D02*
X165772271Y-105023457D01*
X164804652Y-105325838D02*
X165167509Y-105325838D01*
X164986081Y-105325838D02*
X164986081Y-104690838D01*
X164986081Y-104690838D02*
X165046557Y-104781552D01*
X165046557Y-104781552D02*
X165107033Y-104842028D01*
X165107033Y-104842028D02*
X165167509Y-104872266D01*
X164260366Y-104690838D02*
X164381319Y-104690838D01*
X164381319Y-104690838D02*
X164441795Y-104721076D01*
X164441795Y-104721076D02*
X164472033Y-104751314D01*
X164472033Y-104751314D02*
X164532509Y-104842028D01*
X164532509Y-104842028D02*
X164562747Y-104962980D01*
X164562747Y-104962980D02*
X164562747Y-105204885D01*
X164562747Y-105204885D02*
X164532509Y-105265361D01*
X164532509Y-105265361D02*
X164502271Y-105295600D01*
X164502271Y-105295600D02*
X164441795Y-105325838D01*
X164441795Y-105325838D02*
X164320842Y-105325838D01*
X164320842Y-105325838D02*
X164260366Y-105295600D01*
X164260366Y-105295600D02*
X164230128Y-105265361D01*
X164230128Y-105265361D02*
X164199890Y-105204885D01*
X164199890Y-105204885D02*
X164199890Y-105053695D01*
X164199890Y-105053695D02*
X164230128Y-104993219D01*
X164230128Y-104993219D02*
X164260366Y-104962980D01*
X164260366Y-104962980D02*
X164320842Y-104932742D01*
X164320842Y-104932742D02*
X164441795Y-104932742D01*
X164441795Y-104932742D02*
X164502271Y-104962980D01*
X164502271Y-104962980D02*
X164532509Y-104993219D01*
X164532509Y-104993219D02*
X164562747Y-105053695D01*
X195307428Y-105418361D02*
X195337666Y-105448600D01*
X195337666Y-105448600D02*
X195428380Y-105478838D01*
X195428380Y-105478838D02*
X195488856Y-105478838D01*
X195488856Y-105478838D02*
X195579571Y-105448600D01*
X195579571Y-105448600D02*
X195640047Y-105388123D01*
X195640047Y-105388123D02*
X195670285Y-105327647D01*
X195670285Y-105327647D02*
X195700523Y-105206695D01*
X195700523Y-105206695D02*
X195700523Y-105115980D01*
X195700523Y-105115980D02*
X195670285Y-104995028D01*
X195670285Y-104995028D02*
X195640047Y-104934552D01*
X195640047Y-104934552D02*
X195579571Y-104874076D01*
X195579571Y-104874076D02*
X195488856Y-104843838D01*
X195488856Y-104843838D02*
X195428380Y-104843838D01*
X195428380Y-104843838D02*
X195337666Y-104874076D01*
X195337666Y-104874076D02*
X195307428Y-104904314D01*
X195065523Y-104904314D02*
X195035285Y-104874076D01*
X195035285Y-104874076D02*
X194974809Y-104843838D01*
X194974809Y-104843838D02*
X194823618Y-104843838D01*
X194823618Y-104843838D02*
X194763142Y-104874076D01*
X194763142Y-104874076D02*
X194732904Y-104904314D01*
X194732904Y-104904314D02*
X194702666Y-104964790D01*
X194702666Y-104964790D02*
X194702666Y-105025266D01*
X194702666Y-105025266D02*
X194732904Y-105115980D01*
X194732904Y-105115980D02*
X195095761Y-105478838D01*
X195095761Y-105478838D02*
X194702666Y-105478838D01*
X194400285Y-105478838D02*
X194279333Y-105478838D01*
X194279333Y-105478838D02*
X194218856Y-105448600D01*
X194218856Y-105448600D02*
X194188618Y-105418361D01*
X194188618Y-105418361D02*
X194128142Y-105327647D01*
X194128142Y-105327647D02*
X194097904Y-105206695D01*
X194097904Y-105206695D02*
X194097904Y-104964790D01*
X194097904Y-104964790D02*
X194128142Y-104904314D01*
X194128142Y-104904314D02*
X194158380Y-104874076D01*
X194158380Y-104874076D02*
X194218856Y-104843838D01*
X194218856Y-104843838D02*
X194339809Y-104843838D01*
X194339809Y-104843838D02*
X194400285Y-104874076D01*
X194400285Y-104874076D02*
X194430523Y-104904314D01*
X194430523Y-104904314D02*
X194460761Y-104964790D01*
X194460761Y-104964790D02*
X194460761Y-105115980D01*
X194460761Y-105115980D02*
X194430523Y-105176457D01*
X194430523Y-105176457D02*
X194400285Y-105206695D01*
X194400285Y-105206695D02*
X194339809Y-105236933D01*
X194339809Y-105236933D02*
X194218856Y-105236933D01*
X194218856Y-105236933D02*
X194158380Y-105206695D01*
X194158380Y-105206695D02*
X194128142Y-105176457D01*
X194128142Y-105176457D02*
X194097904Y-105115980D01*
D11*
X181057838Y-71349057D02*
X181153076Y-71301438D01*
X181153076Y-71301438D02*
X181248314Y-71206200D01*
X181248314Y-71206200D02*
X181391171Y-71063342D01*
X181391171Y-71063342D02*
X181486409Y-71015723D01*
X181486409Y-71015723D02*
X181581647Y-71015723D01*
X181534028Y-71253819D02*
X181629266Y-71206200D01*
X181629266Y-71206200D02*
X181724504Y-71110961D01*
X181724504Y-71110961D02*
X181772123Y-70920485D01*
X181772123Y-70920485D02*
X181772123Y-70587152D01*
X181772123Y-70587152D02*
X181724504Y-70396676D01*
X181724504Y-70396676D02*
X181629266Y-70301438D01*
X181629266Y-70301438D02*
X181534028Y-70253819D01*
X181534028Y-70253819D02*
X181343552Y-70253819D01*
X181343552Y-70253819D02*
X181248314Y-70301438D01*
X181248314Y-70301438D02*
X181153076Y-70396676D01*
X181153076Y-70396676D02*
X181105457Y-70587152D01*
X181105457Y-70587152D02*
X181105457Y-70920485D01*
X181105457Y-70920485D02*
X181153076Y-71110961D01*
X181153076Y-71110961D02*
X181248314Y-71206200D01*
X181248314Y-71206200D02*
X181343552Y-71253819D01*
X181343552Y-71253819D02*
X181534028Y-71253819D01*
X180772123Y-70253819D02*
X180153076Y-70253819D01*
X180153076Y-70253819D02*
X180486409Y-70634771D01*
X180486409Y-70634771D02*
X180343552Y-70634771D01*
X180343552Y-70634771D02*
X180248314Y-70682390D01*
X180248314Y-70682390D02*
X180200695Y-70730009D01*
X180200695Y-70730009D02*
X180153076Y-70825247D01*
X180153076Y-70825247D02*
X180153076Y-71063342D01*
X180153076Y-71063342D02*
X180200695Y-71158580D01*
X180200695Y-71158580D02*
X180248314Y-71206200D01*
X180248314Y-71206200D02*
X180343552Y-71253819D01*
X180343552Y-71253819D02*
X180629266Y-71253819D01*
X180629266Y-71253819D02*
X180724504Y-71206200D01*
X180724504Y-71206200D02*
X180772123Y-71158580D01*
D12*
X182011666Y-90734318D02*
X182011666Y-89464318D01*
X182011666Y-89464318D02*
X181527856Y-89464318D01*
X181527856Y-89464318D02*
X181406904Y-89524794D01*
X181406904Y-89524794D02*
X181346427Y-89585270D01*
X181346427Y-89585270D02*
X181285951Y-89706222D01*
X181285951Y-89706222D02*
X181285951Y-89887651D01*
X181285951Y-89887651D02*
X181346427Y-90008603D01*
X181346427Y-90008603D02*
X181406904Y-90069080D01*
X181406904Y-90069080D02*
X181527856Y-90129556D01*
X181527856Y-90129556D02*
X182011666Y-90129556D01*
X180741666Y-90734318D02*
X180741666Y-89464318D01*
X180741666Y-90069080D02*
X180015951Y-90069080D01*
X180015951Y-90734318D02*
X180015951Y-89464318D01*
X179713571Y-90855270D02*
X178745951Y-90855270D01*
X178020237Y-90069080D02*
X177838809Y-90129556D01*
X177838809Y-90129556D02*
X177778332Y-90190032D01*
X177778332Y-90190032D02*
X177717856Y-90310984D01*
X177717856Y-90310984D02*
X177717856Y-90492413D01*
X177717856Y-90492413D02*
X177778332Y-90613365D01*
X177778332Y-90613365D02*
X177838809Y-90673842D01*
X177838809Y-90673842D02*
X177959761Y-90734318D01*
X177959761Y-90734318D02*
X178443571Y-90734318D01*
X178443571Y-90734318D02*
X178443571Y-89464318D01*
X178443571Y-89464318D02*
X178020237Y-89464318D01*
X178020237Y-89464318D02*
X177899285Y-89524794D01*
X177899285Y-89524794D02*
X177838809Y-89585270D01*
X177838809Y-89585270D02*
X177778332Y-89706222D01*
X177778332Y-89706222D02*
X177778332Y-89827175D01*
X177778332Y-89827175D02*
X177838809Y-89948127D01*
X177838809Y-89948127D02*
X177899285Y-90008603D01*
X177899285Y-90008603D02*
X178020237Y-90069080D01*
X178020237Y-90069080D02*
X178443571Y-90069080D01*
D11*
X201658918Y-80859119D02*
X202135108Y-80859119D01*
X202135108Y-80859119D02*
X202135108Y-79859119D01*
X201373203Y-79954357D02*
X201325584Y-79906738D01*
X201325584Y-79906738D02*
X201230346Y-79859119D01*
X201230346Y-79859119D02*
X200992251Y-79859119D01*
X200992251Y-79859119D02*
X200897013Y-79906738D01*
X200897013Y-79906738D02*
X200849394Y-79954357D01*
X200849394Y-79954357D02*
X200801775Y-80049595D01*
X200801775Y-80049595D02*
X200801775Y-80144833D01*
X200801775Y-80144833D02*
X200849394Y-80287690D01*
X200849394Y-80287690D02*
X201420822Y-80859119D01*
X201420822Y-80859119D02*
X200801775Y-80859119D01*
X201657352Y-83459480D02*
X201657352Y-83221385D01*
X201419257Y-83316623D02*
X201657352Y-83221385D01*
X201657352Y-83221385D02*
X201895447Y-83316623D01*
X201514495Y-83030909D02*
X201657352Y-83221385D01*
X201657352Y-83221385D02*
X201800209Y-83030909D01*
X201657351Y-82369119D02*
X201657351Y-82607214D01*
X201895446Y-82511976D02*
X201657351Y-82607214D01*
X201657351Y-82607214D02*
X201419256Y-82511976D01*
X201800208Y-82797690D02*
X201657351Y-82607214D01*
X201657351Y-82607214D02*
X201514494Y-82797690D01*
D13*
%TO.C,Q2*%
X173580000Y-59536000D02*
G75*
G03*
X173580000Y-59536000I-381000J0D01*
G01*
%TO.C,P4*%
X237030902Y-117700701D02*
G75*
G03*
X237030902Y-117700701I-381000J0D01*
G01*
%TO.C,P1*%
X232431700Y-99443100D02*
G75*
G03*
X232431700Y-99443100I-381000J0D01*
G01*
%TO.C,Q6*%
X193630000Y-59354600D02*
G75*
G03*
X193630000Y-59354600I-381000J0D01*
G01*
%TO.C,Q4*%
X183830000Y-59432200D02*
G75*
G03*
X183830000Y-59432200I-381000J0D01*
G01*
%TO.C,P7*%
X193701000Y-122485000D02*
G75*
G03*
X193701000Y-122485000I-381000J0D01*
G01*
%TO.C,P6*%
X175094800Y-106222000D02*
G75*
G03*
X175094800Y-106222000I-381000J0D01*
G01*
D14*
%TO.C,C43*%
X187458718Y-55995000D02*
X187458718Y-56835000D01*
X185558718Y-55995000D02*
X185558718Y-56835000D01*
D10*
%TO.C,D4*%
X204828802Y-75342800D02*
X207876802Y-75342800D01*
X204828802Y-75568860D02*
X204828802Y-75342800D01*
X204828802Y-77501800D02*
X204828802Y-77275740D01*
X207876802Y-75342800D02*
X207876802Y-75568860D01*
X207876802Y-77275740D02*
X207876802Y-77501800D01*
X207876802Y-77501800D02*
X204828802Y-77501800D01*
D14*
%TO.C,U5*%
X161242888Y-75835000D02*
X161242888Y-72635000D01*
X164442888Y-75835000D02*
X164442888Y-72635000D01*
D15*
X164417888Y-77940000D02*
G75*
G03*
X164417888Y-77940000I-100000J0D01*
G01*
D14*
%TO.C,R36*%
X187435214Y-110420000D02*
X188495214Y-110420000D01*
X187435214Y-112180000D02*
X188495214Y-112180000D01*
D10*
%TO.C,D3*%
X236143800Y-135846600D02*
G75*
G03*
X236143800Y-135846600I-76200J0D01*
G01*
%TO.C,C52*%
X193278014Y-107241754D02*
X193278014Y-108126652D01*
X191224018Y-108126652D02*
X191224018Y-107241754D01*
D14*
%TO.C,R8*%
X236550000Y-142306000D02*
X236550000Y-143486000D01*
X234790000Y-142306000D02*
X234790000Y-143486000D01*
%TO.C,R19*%
X184587024Y-131032000D02*
X188507024Y-131032000D01*
X184587024Y-134492000D02*
X188507024Y-134492000D01*
%TO.C,R7*%
X234070000Y-142366000D02*
X234070000Y-143426000D01*
X232310000Y-142366000D02*
X232310000Y-143426000D01*
%TO.C,R17*%
X184697024Y-139384000D02*
X188617024Y-139384000D01*
X184697024Y-142844000D02*
X188617024Y-142844000D01*
%TO.C,R9*%
X238960000Y-142266000D02*
X238960000Y-143446000D01*
X237200000Y-142266000D02*
X237200000Y-143446000D01*
D10*
%TO.C,Q5*%
X194742000Y-59963400D02*
X194742000Y-69361400D01*
X194442641Y-59963400D02*
X194742000Y-59963400D01*
X187376000Y-59963400D02*
X187675359Y-59963400D01*
X194742000Y-69361400D02*
X194442641Y-69361400D01*
X187675359Y-69361400D02*
X187376000Y-69361400D01*
X187376000Y-69361400D02*
X187376000Y-59963400D01*
D13*
X189232517Y-59253259D02*
G75*
G03*
X188485483Y-59253259I-373517J-75141D01*
G01*
D14*
%TO.C,C40*%
X179973758Y-55995000D02*
X179973758Y-56835000D01*
X178073758Y-55995000D02*
X178073758Y-56835000D01*
D10*
%TO.C,D2*%
X234146547Y-138033200D02*
X233921653Y-138033200D01*
X233921653Y-136966400D02*
X234146547Y-136966400D01*
%TO.C,D1*%
X234103547Y-139711000D02*
X233878653Y-139711000D01*
X233878653Y-138644200D02*
X234103547Y-138644200D01*
%TO.C,Q1*%
X174663200Y-60170000D02*
X174663200Y-69568000D01*
X174363841Y-60170000D02*
X174663200Y-60170000D01*
X167297200Y-60170000D02*
X167596559Y-60170000D01*
X174663200Y-69568000D02*
X174363841Y-69568000D01*
X167596559Y-69568000D02*
X167297200Y-69568000D01*
X167297200Y-69568000D02*
X167297200Y-60170000D01*
D13*
X169153717Y-59459859D02*
G75*
G03*
X168406683Y-59459859I-373517J-75141D01*
G01*
D14*
%TO.C,C39*%
X176231278Y-55995000D02*
X176231278Y-56835000D01*
X174331278Y-55995000D02*
X174331278Y-56835000D01*
%TO.C,R37*%
X182595214Y-115740000D02*
X183655214Y-115740000D01*
X182595214Y-117500000D02*
X183655214Y-117500000D01*
D10*
%TO.C,C54*%
X188052415Y-119178541D02*
X188052415Y-120063439D01*
X185998419Y-120063439D02*
X185998419Y-119178541D01*
D14*
%TO.C,U6*%
X175372888Y-75995000D02*
X175372888Y-72795000D01*
X178572888Y-75995000D02*
X178572888Y-72795000D01*
D15*
X178547888Y-78100000D02*
G75*
G03*
X178547888Y-78100000I-100000J0D01*
G01*
D14*
%TO.C,R35*%
X187275214Y-104130000D02*
X188335214Y-104130000D01*
X187275214Y-105890000D02*
X188335214Y-105890000D01*
D10*
%TO.C,C32*%
X212260802Y-79133000D02*
X216223202Y-79133000D01*
X216223202Y-82384200D02*
X212260802Y-82384200D01*
%TO.C,C53*%
X193102415Y-113758145D02*
X193102415Y-114643043D01*
X191048419Y-114643043D02*
X191048419Y-113758145D01*
D14*
%TO.C,C41*%
X183716238Y-55995000D02*
X183716238Y-56835000D01*
X181816238Y-55995000D02*
X181816238Y-56835000D01*
%TO.C,U7*%
X187772888Y-76185000D02*
X187772888Y-72985000D01*
X190972888Y-76185000D02*
X190972888Y-72985000D01*
D15*
X190947888Y-78290000D02*
G75*
G03*
X190947888Y-78290000I-100000J0D01*
G01*
D14*
%TO.C,R21*%
X184577024Y-122630000D02*
X188497024Y-122630000D01*
X184577024Y-126090000D02*
X188497024Y-126090000D01*
%TO.C,C37*%
X172488798Y-55995000D02*
X172488798Y-56835000D01*
X170588798Y-55995000D02*
X170588798Y-56835000D01*
%TO.C,C44*%
X191201202Y-55995000D02*
X191201202Y-56835000D01*
X189301202Y-55995000D02*
X189301202Y-56835000D01*
D10*
%TO.C,Q7*%
X170100000Y-104064900D02*
X170100000Y-105665100D01*
X169429440Y-104064900D02*
X170100000Y-104064900D01*
X168956759Y-105665100D02*
X168779441Y-105665100D01*
X167636200Y-105665100D02*
X167636200Y-104064900D01*
X167636200Y-104064900D02*
X168306760Y-104064900D01*
X171370000Y-106084200D02*
G75*
G03*
X171370000Y-106084200I-127000J0D01*
G01*
%TO.C,Q3*%
X184905600Y-60060000D02*
X184905600Y-69458000D01*
X184606241Y-60060000D02*
X184905600Y-60060000D01*
X177539600Y-60060000D02*
X177838959Y-60060000D01*
X184905600Y-69458000D02*
X184606241Y-69458000D01*
X177838959Y-69458000D02*
X177539600Y-69458000D01*
X177539600Y-69458000D02*
X177539600Y-60060000D01*
D13*
X179396117Y-59349859D02*
G75*
G03*
X178649083Y-59349859I-373517J-75141D01*
G01*
D10*
%TO.C,L2*%
X205602271Y-78888400D02*
X207542233Y-78888400D01*
X207542233Y-86940200D02*
X205602271Y-86940200D01*
%TD*%
M02*
