%TF.GenerationSoftware,KiCad,Pcbnew,7.0.8*%
%TF.CreationDate,2023-12-22T14:09:36-07:00*%
%TF.ProjectId,VESC-6-MK5,56455343-2d36-42d4-9d4b-352e6b696361,rev?*%
%TF.SameCoordinates,Original*%
%TF.FileFunction,Soldermask,Bot*%
%TF.FilePolarity,Negative*%
%FSLAX46Y46*%
G04 Gerber Fmt 4.6, Leading zero omitted, Abs format (unit mm)*
G04 Created by KiCad (PCBNEW 7.0.8) date 2023-12-22 14:09:36*
%MOMM*%
%LPD*%
G01*
G04 APERTURE LIST*
G04 Aperture macros list*
%AMRoundRect*
0 Rectangle with rounded corners*
0 $1 Rounding radius*
0 $2 $3 $4 $5 $6 $7 $8 $9 X,Y pos of 4 corners*
0 Add a 4 corners polygon primitive as box body*
4,1,4,$2,$3,$4,$5,$6,$7,$8,$9,$2,$3,0*
0 Add four circle primitives for the rounded corners*
1,1,$1+$1,$2,$3*
1,1,$1+$1,$4,$5*
1,1,$1+$1,$6,$7*
1,1,$1+$1,$8,$9*
0 Add four rect primitives between the rounded corners*
20,1,$1+$1,$2,$3,$4,$5,0*
20,1,$1+$1,$4,$5,$6,$7,0*
20,1,$1+$1,$6,$7,$8,$9,0*
20,1,$1+$1,$8,$9,$2,$3,0*%
G04 Aperture macros list end*
%ADD10RoundRect,0.102000X0.700000X-0.700000X0.700000X0.700000X-0.700000X0.700000X-0.700000X-0.700000X0*%
%ADD11C,1.604000*%
%ADD12C,4.064000*%
%ADD13C,0.900000*%
%ADD14RoundRect,0.102000X-0.955000X0.685000X-0.955000X-0.685000X0.955000X-0.685000X0.955000X0.685000X0*%
%ADD15R,0.812800X1.041400*%
%ADD16RoundRect,0.102000X0.465000X-0.505000X0.465000X0.505000X-0.465000X0.505000X-0.465000X-0.505000X0*%
%ADD17RoundRect,0.132000X0.220000X-0.745000X0.220000X0.745000X-0.220000X0.745000X-0.220000X-0.745000X0*%
%ADD18RoundRect,2.667500X3.157500X2.667500X-3.157500X2.667500X-3.157500X-2.667500X3.157500X-2.667500X0*%
%ADD19R,0.863600X0.965200*%
%ADD20RoundRect,0.102000X-0.615000X-0.885000X0.615000X-0.885000X0.615000X0.885000X-0.615000X0.885000X0*%
%ADD21RoundRect,0.102000X-0.735000X0.580000X-0.735000X-0.580000X0.735000X-0.580000X0.735000X0.580000X0*%
%ADD22R,0.762000X0.711200*%
%ADD23R,1.799996X1.305598*%
%ADD24RoundRect,0.102000X-0.885000X0.585000X-0.885000X-0.585000X0.885000X-0.585000X0.885000X0.585000X0*%
%ADD25RoundRect,0.102000X-0.435000X-0.465000X0.435000X-0.465000X0.435000X0.465000X-0.435000X0.465000X0*%
%ADD26RoundRect,0.102000X-0.665000X-1.730000X0.665000X-1.730000X0.665000X1.730000X-0.665000X1.730000X0*%
%ADD27RoundRect,0.102000X-0.885000X0.615000X-0.885000X-0.615000X0.885000X-0.615000X0.885000X0.615000X0*%
%ADD28R,0.838200X0.304800*%
%ADD29R,1.701800X1.092200*%
%ADD30R,1.295400X0.711200*%
%ADD31R,0.838200X1.092200*%
%ADD32R,1.497552X2.413000*%
%ADD33RoundRect,0.102000X-0.505000X-0.465000X0.505000X-0.465000X0.505000X0.465000X-0.505000X0.465000X0*%
%ADD34RoundRect,0.102000X0.465000X-0.435000X0.465000X0.435000X-0.465000X0.435000X-0.465000X-0.435000X0*%
%ADD35R,0.457200X1.168400*%
%ADD36R,2.705100X8.001000*%
G04 APERTURE END LIST*
D10*
%TO.C,C47*%
X205230000Y-63755000D03*
D11*
X205230000Y-58755000D03*
%TD*%
D12*
%TO.C,*%
X154430000Y-143920000D03*
%TD*%
%TO.C,*%
X224920000Y-75410000D03*
%TD*%
D13*
%TO.C,U11*%
X219965000Y-126955000D03*
X219965000Y-129955000D03*
%TD*%
D12*
%TO.C,*%
X185844000Y-42600000D03*
%TD*%
%TO.C,*%
X170376000Y-42600000D03*
%TD*%
D10*
%TO.C,C46*%
X205190000Y-49345000D03*
D11*
X205190000Y-44345000D03*
%TD*%
D14*
%TO.C,C43*%
X186508718Y-54994000D03*
X186508718Y-57836000D03*
%TD*%
D15*
%TO.C,D4*%
X204701802Y-76422300D03*
X208003802Y-76422300D03*
%TD*%
D16*
%TO.C,C42*%
X192257888Y-74919000D03*
X192257888Y-73501000D03*
%TD*%
D17*
%TO.C,U5*%
X163817888Y-76390000D03*
X163167888Y-76390000D03*
X162517888Y-76390000D03*
X161867888Y-76390000D03*
X161867888Y-72080000D03*
X162517888Y-72080000D03*
X163167888Y-72080000D03*
X163817888Y-72080000D03*
%TD*%
D18*
%TO.C,P10*%
X193365000Y-83585000D03*
%TD*%
D19*
%TO.C,C59*%
X187926024Y-129294800D03*
X189526224Y-129294800D03*
%TD*%
D18*
%TO.C,P12*%
X159675000Y-53785000D03*
%TD*%
D20*
%TO.C,R36*%
X186499214Y-111300000D03*
X189431214Y-111300000D03*
%TD*%
D18*
%TO.C,P11*%
X159835000Y-64995000D03*
%TD*%
D21*
%TO.C,C45*%
X189838214Y-118675000D03*
X189838214Y-120425000D03*
%TD*%
D22*
%TO.C,D3*%
X234797600Y-135846600D03*
X233248200Y-135846600D03*
%TD*%
D23*
%TO.C,C52*%
X192251016Y-106281405D03*
X192251016Y-109087001D03*
%TD*%
D24*
%TO.C,R8*%
X235670000Y-141402000D03*
X235670000Y-144390000D03*
%TD*%
D16*
%TO.C,C35*%
X165437888Y-74649000D03*
X165437888Y-73231000D03*
%TD*%
D21*
%TO.C,C30*%
X194928214Y-113319000D03*
X194928214Y-115069000D03*
%TD*%
D25*
%TO.C,R20*%
X187974024Y-135715000D03*
X189534024Y-135715000D03*
%TD*%
D26*
%TO.C,R19*%
X183603024Y-132762000D03*
X189491024Y-132762000D03*
%TD*%
D19*
%TO.C,C49*%
X188306024Y-145966000D03*
X189906224Y-145966000D03*
%TD*%
D27*
%TO.C,R7*%
X233190000Y-141430000D03*
X233190000Y-144362000D03*
%TD*%
D26*
%TO.C,R17*%
X183713024Y-141114000D03*
X189601024Y-141114000D03*
%TD*%
D28*
%TO.C,U13*%
X184532114Y-118641996D03*
X184532114Y-119291995D03*
X184532114Y-119941994D03*
X182449314Y-119941994D03*
X182449314Y-118641996D03*
%TD*%
D24*
%TO.C,R9*%
X238080000Y-141362000D03*
X238080000Y-144350000D03*
%TD*%
D29*
%TO.C,Q5*%
X193259001Y-60309899D03*
X191059000Y-60309899D03*
X188858999Y-60309899D03*
X193259001Y-69014901D03*
X191059000Y-69014901D03*
X188858999Y-69014901D03*
D30*
X191059000Y-62559899D03*
D31*
X192784000Y-63959899D03*
X191634000Y-63959899D03*
X190484000Y-63959899D03*
X189334000Y-63959899D03*
X192784000Y-66759899D03*
X191634000Y-66759899D03*
X190484000Y-66759899D03*
X189334000Y-66759899D03*
%TD*%
D14*
%TO.C,C40*%
X179023758Y-54994000D03*
X179023758Y-57836000D03*
%TD*%
D22*
%TO.C,D2*%
X234808800Y-137499800D03*
X233259400Y-137499800D03*
%TD*%
%TO.C,D1*%
X234765800Y-139177600D03*
X233216400Y-139177600D03*
%TD*%
D28*
%TO.C,U16*%
X184083124Y-129178004D03*
X184083124Y-128528005D03*
X184083124Y-127878006D03*
X186165924Y-127878006D03*
X186165924Y-129178004D03*
%TD*%
D25*
%TO.C,R18*%
X188214024Y-144305000D03*
X189774024Y-144305000D03*
%TD*%
D29*
%TO.C,Q1*%
X173180201Y-60516499D03*
X170980200Y-60516499D03*
X168780199Y-60516499D03*
X173180201Y-69221501D03*
X170980200Y-69221501D03*
X168780199Y-69221501D03*
D30*
X170980200Y-62766499D03*
D31*
X172705200Y-64166499D03*
X171555200Y-64166499D03*
X170405200Y-64166499D03*
X169255200Y-64166499D03*
X172705200Y-66966499D03*
X171555200Y-66966499D03*
X170405200Y-66966499D03*
X169255200Y-66966499D03*
%TD*%
D28*
%TO.C,U10*%
X189332114Y-106702400D03*
X189332114Y-107352399D03*
X189332114Y-108002398D03*
X187249314Y-108002398D03*
X187249314Y-106702400D03*
%TD*%
D14*
%TO.C,C39*%
X175281278Y-54994000D03*
X175281278Y-57836000D03*
%TD*%
D20*
%TO.C,R37*%
X181659214Y-116620000D03*
X184591214Y-116620000D03*
%TD*%
D23*
%TO.C,C54*%
X187025417Y-118218192D03*
X187025417Y-121023788D03*
%TD*%
D17*
%TO.C,U6*%
X177947888Y-76550000D03*
X177297888Y-76550000D03*
X176647888Y-76550000D03*
X175997888Y-76550000D03*
X175997888Y-72240000D03*
X176647888Y-72240000D03*
X177297888Y-72240000D03*
X177947888Y-72240000D03*
%TD*%
D20*
%TO.C,R35*%
X186339214Y-105010000D03*
X189271214Y-105010000D03*
%TD*%
D25*
%TO.C,R22*%
X188024024Y-127535000D03*
X189584024Y-127535000D03*
%TD*%
D28*
%TO.C,U14*%
X183033124Y-145667600D03*
X183033124Y-145017601D03*
X183033124Y-144367602D03*
X185115924Y-144367602D03*
X185115924Y-145667600D03*
%TD*%
D19*
%TO.C,C28*%
X202867202Y-74056600D03*
X204467402Y-74056600D03*
%TD*%
D32*
%TO.C,C32*%
X212984178Y-80758600D03*
X215499826Y-80758600D03*
%TD*%
D23*
%TO.C,C53*%
X192075417Y-112797796D03*
X192075417Y-115603392D03*
%TD*%
D14*
%TO.C,C41*%
X182766238Y-54994000D03*
X182766238Y-57836000D03*
%TD*%
D19*
%TO.C,C57*%
X187906024Y-137530400D03*
X189506224Y-137530400D03*
%TD*%
D25*
%TO.C,R48*%
X203000000Y-126935000D03*
X204560000Y-126935000D03*
%TD*%
D17*
%TO.C,U7*%
X190347888Y-76740000D03*
X189697888Y-76740000D03*
X189047888Y-76740000D03*
X188397888Y-76740000D03*
X188397888Y-72430000D03*
X189047888Y-72430000D03*
X189697888Y-72430000D03*
X190347888Y-72430000D03*
%TD*%
D28*
%TO.C,U12*%
X189372114Y-113417198D03*
X189372114Y-114067197D03*
X189372114Y-114717196D03*
X187289314Y-114717196D03*
X187289314Y-113417198D03*
%TD*%
D16*
%TO.C,C38*%
X179717888Y-74589000D03*
X179717888Y-73171000D03*
%TD*%
D26*
%TO.C,R21*%
X183593024Y-124360000D03*
X189481024Y-124360000D03*
%TD*%
D33*
%TO.C,C31*%
X213396202Y-83555000D03*
X214814202Y-83555000D03*
%TD*%
D14*
%TO.C,C37*%
X171538798Y-54994000D03*
X171538798Y-57836000D03*
%TD*%
%TO.C,C44*%
X190251202Y-54994000D03*
X190251202Y-57836000D03*
%TD*%
D28*
%TO.C,U15*%
X183563124Y-137062802D03*
X183563124Y-136412803D03*
X183563124Y-135762804D03*
X185645924Y-135762804D03*
X185645924Y-137062802D03*
%TD*%
D34*
%TO.C,R15*%
X171181200Y-105800000D03*
X171181200Y-104240000D03*
%TD*%
D18*
%TO.C,P8*%
X166790000Y-83585000D03*
%TD*%
D35*
%TO.C,Q7*%
X169518099Y-105855600D03*
X168218101Y-105855600D03*
X168868100Y-103874400D03*
%TD*%
D34*
%TO.C,R16*%
X166621200Y-105830000D03*
X166621200Y-104270000D03*
%TD*%
D21*
%TO.C,C29*%
X194869214Y-106488000D03*
X194869214Y-108238000D03*
%TD*%
D29*
%TO.C,Q3*%
X183422601Y-60406499D03*
X181222600Y-60406499D03*
X179022599Y-60406499D03*
X183422601Y-69111501D03*
X181222600Y-69111501D03*
X179022599Y-69111501D03*
D30*
X181222600Y-62656499D03*
D31*
X182947600Y-64056499D03*
X181797600Y-64056499D03*
X180647600Y-64056499D03*
X179497600Y-64056499D03*
X182947600Y-66856499D03*
X181797600Y-66856499D03*
X180647600Y-66856499D03*
X179497600Y-66856499D03*
%TD*%
D18*
%TO.C,P9*%
X180080000Y-83585000D03*
%TD*%
D36*
%TO.C,L2*%
X203917952Y-82914300D03*
X209226552Y-82914300D03*
%TD*%
M02*
