M48
; DRILL file {KiCad 7.0.8} date Thu Feb 15 00:12:34 2024
; FORMAT={-:-/ absolute / metric / decimal}
; #@! TF.CreationDate,2024-02-15T00:12:34-06:00
; #@! TF.GenerationSoftware,Kicad,Pcbnew,7.0.8
; #@! TF.FileFunction,Plated,1,2,PTH
FMAT,2
METRIC
; #@! TA.AperFunction,Plated,PTH,ViaDrill
T1C0.400
; #@! TA.AperFunction,Plated,PTH,ComponentDrill
T2C0.800
; #@! TA.AperFunction,Plated,PTH,ComponentDrill
T3C1.000
; #@! TA.AperFunction,Plated,PTH,ComponentDrill
T4C1.100
; #@! TA.AperFunction,Plated,PTH,ComponentDrill
T5C1.143
%
G90
G05
T1
X158.15Y-129.055
X159.75Y-125.96
X159.84Y-123.644
X163.49Y-125.95
X164.56Y-121.44
X165.63Y-125.45
X165.75Y-130.58
X165.89Y-122.32
X166.305Y-126.425
X169.96Y-122.67
X172.71Y-128.77
X173.93Y-123.94
X174.54Y-131.67
X175.96Y-121.71
T2
X152.35Y-118.53
X154.35Y-118.53
X156.35Y-118.53
X158.35Y-118.53
X160.35Y-118.53
T3
X153.335Y-125.145
X153.335Y-127.685
X153.335Y-130.225
X153.335Y-132.765
X155.875Y-125.145
X155.875Y-127.685
X155.875Y-130.225
X155.875Y-132.765
X174.015Y-143.945
X176.515Y-143.945
X179.015Y-143.945
T4
X147.96Y-125.905
X147.96Y-128.445
X147.96Y-130.985
T5
X169.99Y-119.56
X172.53Y-119.56
X175.07Y-119.56
X177.61Y-119.56
X180.15Y-119.56
T0
M30
