%TF.GenerationSoftware,KiCad,Pcbnew,7.0.8*%
%TF.CreationDate,2024-02-15T00:13:21-06:00*%
%TF.ProjectId,Receiver_KiCad,52656365-6976-4657-925f-4b694361642e,rev?*%
%TF.SameCoordinates,Original*%
%TF.FileFunction,Drillmap*%
%TF.FilePolarity,Positive*%
%FSLAX45Y45*%
G04 Gerber Fmt 4.5, Leading zero omitted, Abs format (unit mm)*
G04 Created by KiCad (PCBNEW 7.0.8) date 2024-02-15 00:13:21*
%MOMM*%
%LPD*%
G01*
G04 APERTURE LIST*
%ADD10C,0.100000*%
%ADD11C,0.200000*%
G04 APERTURE END LIST*
D10*
X17925000Y-14848000D02*
G75*
G03*
X18350630Y-14422370I0J425630D01*
G01*
X18351000Y-11707000D02*
X18350630Y-14422370D01*
X17925000Y-14848000D02*
X14925630Y-14847630D01*
X18351000Y-11707000D02*
G75*
G03*
X17925370Y-11281370I-425630J0D01*
G01*
X14500000Y-14422000D02*
X14500370Y-11707000D01*
X14500000Y-14422000D02*
G75*
G03*
X14925630Y-14847630I425630J0D01*
G01*
X14926000Y-11281370D02*
X17925370Y-11281370D01*
X14926000Y-11281370D02*
G75*
G03*
X14500370Y-11707000I0J-425630D01*
G01*
D11*
X14755777Y-15164484D02*
X14755777Y-14964484D01*
X14755777Y-14964484D02*
X14803396Y-14964484D01*
X14803396Y-14964484D02*
X14831967Y-14974008D01*
X14831967Y-14974008D02*
X14851015Y-14993055D01*
X14851015Y-14993055D02*
X14860539Y-15012103D01*
X14860539Y-15012103D02*
X14870062Y-15050198D01*
X14870062Y-15050198D02*
X14870062Y-15078770D01*
X14870062Y-15078770D02*
X14860539Y-15116865D01*
X14860539Y-15116865D02*
X14851015Y-15135912D01*
X14851015Y-15135912D02*
X14831967Y-15154960D01*
X14831967Y-15154960D02*
X14803396Y-15164484D01*
X14803396Y-15164484D02*
X14755777Y-15164484D01*
X14955777Y-15164484D02*
X14955777Y-15031150D01*
X14955777Y-15069246D02*
X14965301Y-15050198D01*
X14965301Y-15050198D02*
X14974824Y-15040674D01*
X14974824Y-15040674D02*
X14993872Y-15031150D01*
X14993872Y-15031150D02*
X15012920Y-15031150D01*
X15079586Y-15164484D02*
X15079586Y-15031150D01*
X15079586Y-14964484D02*
X15070062Y-14974008D01*
X15070062Y-14974008D02*
X15079586Y-14983531D01*
X15079586Y-14983531D02*
X15089110Y-14974008D01*
X15089110Y-14974008D02*
X15079586Y-14964484D01*
X15079586Y-14964484D02*
X15079586Y-14983531D01*
X15203396Y-15164484D02*
X15184348Y-15154960D01*
X15184348Y-15154960D02*
X15174824Y-15135912D01*
X15174824Y-15135912D02*
X15174824Y-14964484D01*
X15308158Y-15164484D02*
X15289110Y-15154960D01*
X15289110Y-15154960D02*
X15279586Y-15135912D01*
X15279586Y-15135912D02*
X15279586Y-14964484D01*
X15536729Y-15164484D02*
X15536729Y-14964484D01*
X15536729Y-14964484D02*
X15603396Y-15107341D01*
X15603396Y-15107341D02*
X15670062Y-14964484D01*
X15670062Y-14964484D02*
X15670062Y-15164484D01*
X15851015Y-15164484D02*
X15851015Y-15059722D01*
X15851015Y-15059722D02*
X15841491Y-15040674D01*
X15841491Y-15040674D02*
X15822443Y-15031150D01*
X15822443Y-15031150D02*
X15784348Y-15031150D01*
X15784348Y-15031150D02*
X15765301Y-15040674D01*
X15851015Y-15154960D02*
X15831967Y-15164484D01*
X15831967Y-15164484D02*
X15784348Y-15164484D01*
X15784348Y-15164484D02*
X15765301Y-15154960D01*
X15765301Y-15154960D02*
X15755777Y-15135912D01*
X15755777Y-15135912D02*
X15755777Y-15116865D01*
X15755777Y-15116865D02*
X15765301Y-15097817D01*
X15765301Y-15097817D02*
X15784348Y-15088293D01*
X15784348Y-15088293D02*
X15831967Y-15088293D01*
X15831967Y-15088293D02*
X15851015Y-15078770D01*
X15946253Y-15031150D02*
X15946253Y-15231150D01*
X15946253Y-15040674D02*
X15965301Y-15031150D01*
X15965301Y-15031150D02*
X16003396Y-15031150D01*
X16003396Y-15031150D02*
X16022443Y-15040674D01*
X16022443Y-15040674D02*
X16031967Y-15050198D01*
X16031967Y-15050198D02*
X16041491Y-15069246D01*
X16041491Y-15069246D02*
X16041491Y-15126389D01*
X16041491Y-15126389D02*
X16031967Y-15145436D01*
X16031967Y-15145436D02*
X16022443Y-15154960D01*
X16022443Y-15154960D02*
X16003396Y-15164484D01*
X16003396Y-15164484D02*
X15965301Y-15164484D01*
X15965301Y-15164484D02*
X15946253Y-15154960D01*
X16127205Y-15145436D02*
X16136729Y-15154960D01*
X16136729Y-15154960D02*
X16127205Y-15164484D01*
X16127205Y-15164484D02*
X16117682Y-15154960D01*
X16117682Y-15154960D02*
X16127205Y-15145436D01*
X16127205Y-15145436D02*
X16127205Y-15164484D01*
X16127205Y-15040674D02*
X16136729Y-15050198D01*
X16136729Y-15050198D02*
X16127205Y-15059722D01*
X16127205Y-15059722D02*
X16117682Y-15050198D01*
X16117682Y-15050198D02*
X16127205Y-15040674D01*
X16127205Y-15040674D02*
X16127205Y-15059722D01*
M02*
