%TF.GenerationSoftware,KiCad,Pcbnew,7.0.8*%
%TF.CreationDate,2024-02-15T00:13:21-06:00*%
%TF.ProjectId,Receiver_KiCad,52656365-6976-4657-925f-4b694361642e,rev?*%
%TF.SameCoordinates,Original*%
%TF.FileFunction,Drillmap*%
%TF.FilePolarity,Positive*%
%FSLAX45Y45*%
G04 Gerber Fmt 4.5, Leading zero omitted, Abs format (unit mm)*
G04 Created by KiCad (PCBNEW 7.0.8) date 2024-02-15 00:13:21*
%MOMM*%
%LPD*%
G01*
G04 APERTURE LIST*
%ADD10C,0.100000*%
%ADD11C,0.200000*%
%ADD12C,0.040000*%
%ADD13C,0.080000*%
%ADD14C,0.110000*%
%ADD15C,0.114300*%
G04 APERTURE END LIST*
D10*
X17925000Y-14848000D02*
G75*
G03*
X18350630Y-14422370I0J425630D01*
G01*
X18351000Y-11707000D02*
X18350630Y-14422370D01*
X17925000Y-14848000D02*
X14925630Y-14847630D01*
X18351000Y-11707000D02*
G75*
G03*
X17925370Y-11281370I-425630J0D01*
G01*
X14500000Y-14422000D02*
X14500370Y-11707000D01*
X14500000Y-14422000D02*
G75*
G03*
X14925630Y-14847630I425630J0D01*
G01*
X14926000Y-11281370D02*
X17925370Y-11281370D01*
X14926000Y-11281370D02*
G75*
G03*
X14500370Y-11707000I0J-425630D01*
G01*
D11*
D12*
X15795000Y-12885550D02*
X15835000Y-12925550D01*
X15835000Y-12885550D02*
X15795000Y-12925550D01*
X15955000Y-12576000D02*
X15995000Y-12616000D01*
X15995000Y-12576000D02*
X15955000Y-12616000D01*
X15964000Y-12344450D02*
X16004000Y-12384450D01*
X16004000Y-12344450D02*
X15964000Y-12384450D01*
X16329000Y-12575000D02*
X16369000Y-12615000D01*
X16369000Y-12575000D02*
X16329000Y-12615000D01*
X16436000Y-12124000D02*
X16476000Y-12164000D01*
X16476000Y-12124000D02*
X16436000Y-12164000D01*
X16543000Y-12525000D02*
X16583000Y-12565000D01*
X16583000Y-12525000D02*
X16543000Y-12565000D01*
X16555000Y-13038000D02*
X16595000Y-13078000D01*
X16595000Y-13038000D02*
X16555000Y-13078000D01*
X16569000Y-12212000D02*
X16609000Y-12252000D01*
X16609000Y-12212000D02*
X16569000Y-12252000D01*
X16610500Y-12622500D02*
X16650500Y-12662500D01*
X16650500Y-12622500D02*
X16610500Y-12662500D01*
X16976000Y-12247000D02*
X17016000Y-12287000D01*
X17016000Y-12247000D02*
X16976000Y-12287000D01*
X17251000Y-12857000D02*
X17291000Y-12897000D01*
X17291000Y-12857000D02*
X17251000Y-12897000D01*
X17373000Y-12374000D02*
X17413000Y-12414000D01*
X17413000Y-12374000D02*
X17373000Y-12414000D01*
X17434000Y-13147000D02*
X17474000Y-13187000D01*
X17474000Y-13147000D02*
X17434000Y-13187000D01*
X17576000Y-12151000D02*
X17616000Y-12191000D01*
X17616000Y-12151000D02*
X17576000Y-12191000D01*
D13*
X15275000Y-11853000D02*
G75*
G03*
X15275000Y-11853000I-40000J0D01*
G01*
X15475000Y-11853000D02*
G75*
G03*
X15475000Y-11853000I-40000J0D01*
G01*
X15675000Y-11853000D02*
G75*
G03*
X15675000Y-11853000I-40000J0D01*
G01*
X15875000Y-11853000D02*
G75*
G03*
X15875000Y-11853000I-40000J0D01*
G01*
X16075000Y-11853000D02*
G75*
G03*
X16075000Y-11853000I-40000J0D01*
G01*
D10*
X15333500Y-12464500D02*
X15333500Y-12564500D01*
X15283500Y-12514500D02*
X15383500Y-12514500D01*
X15333500Y-12718500D02*
X15333500Y-12818500D01*
X15283500Y-12768500D02*
X15383500Y-12768500D01*
X15333500Y-12972500D02*
X15333500Y-13072500D01*
X15283500Y-13022500D02*
X15383500Y-13022500D01*
X15333500Y-13226500D02*
X15333500Y-13326500D01*
X15283500Y-13276500D02*
X15383500Y-13276500D01*
X15587500Y-12464500D02*
X15587500Y-12564500D01*
X15537500Y-12514500D02*
X15637500Y-12514500D01*
X15587500Y-12718500D02*
X15587500Y-12818500D01*
X15537500Y-12768500D02*
X15637500Y-12768500D01*
X15587500Y-12972500D02*
X15587500Y-13072500D01*
X15537500Y-13022500D02*
X15637500Y-13022500D01*
X15587500Y-13226500D02*
X15587500Y-13326500D01*
X15537500Y-13276500D02*
X15637500Y-13276500D01*
X17401500Y-14344500D02*
X17401500Y-14444500D01*
X17351500Y-14394500D02*
X17451500Y-14394500D01*
X17651500Y-14344500D02*
X17651500Y-14444500D01*
X17601500Y-14394500D02*
X17701500Y-14394500D01*
X17901500Y-14344500D02*
X17901500Y-14444500D01*
X17851500Y-14394500D02*
X17951500Y-14394500D01*
D14*
X14834891Y-12629391D02*
X14834891Y-12551609D01*
X14757109Y-12551609D01*
X14757109Y-12629391D01*
X14834891Y-12629391D01*
X14834891Y-12883391D02*
X14834891Y-12805609D01*
X14757109Y-12805609D01*
X14757109Y-12883391D01*
X14834891Y-12883391D01*
X14834891Y-13137391D02*
X14834891Y-13059609D01*
X14757109Y-13059609D01*
X14757109Y-13137391D01*
X14834891Y-13137391D01*
D15*
X16999000Y-12013170D02*
X17056150Y-11956020D01*
X16999000Y-11898870D01*
X16941850Y-11956020D01*
X16999000Y-12013170D01*
X17253000Y-12013170D02*
X17310150Y-11956020D01*
X17253000Y-11898870D01*
X17195850Y-11956020D01*
X17253000Y-12013170D01*
X17507000Y-12013170D02*
X17564150Y-11956020D01*
X17507000Y-11898870D01*
X17449850Y-11956020D01*
X17507000Y-12013170D01*
X17761000Y-12013170D02*
X17818150Y-11956020D01*
X17761000Y-11898870D01*
X17703850Y-11956020D01*
X17761000Y-12013170D01*
X18015000Y-12013170D02*
X18072150Y-11956020D01*
X18015000Y-11898870D01*
X17957850Y-11956020D01*
X18015000Y-12013170D01*
D11*
X14755777Y-15164484D02*
X14755777Y-14964484D01*
X14755777Y-14964484D02*
X14803396Y-14964484D01*
X14803396Y-14964484D02*
X14831967Y-14974008D01*
X14831967Y-14974008D02*
X14851015Y-14993055D01*
X14851015Y-14993055D02*
X14860539Y-15012103D01*
X14860539Y-15012103D02*
X14870062Y-15050198D01*
X14870062Y-15050198D02*
X14870062Y-15078770D01*
X14870062Y-15078770D02*
X14860539Y-15116865D01*
X14860539Y-15116865D02*
X14851015Y-15135912D01*
X14851015Y-15135912D02*
X14831967Y-15154960D01*
X14831967Y-15154960D02*
X14803396Y-15164484D01*
X14803396Y-15164484D02*
X14755777Y-15164484D01*
X14955777Y-15164484D02*
X14955777Y-15031150D01*
X14955777Y-15069246D02*
X14965301Y-15050198D01*
X14965301Y-15050198D02*
X14974824Y-15040674D01*
X14974824Y-15040674D02*
X14993872Y-15031150D01*
X14993872Y-15031150D02*
X15012920Y-15031150D01*
X15079586Y-15164484D02*
X15079586Y-15031150D01*
X15079586Y-14964484D02*
X15070062Y-14974008D01*
X15070062Y-14974008D02*
X15079586Y-14983531D01*
X15079586Y-14983531D02*
X15089110Y-14974008D01*
X15089110Y-14974008D02*
X15079586Y-14964484D01*
X15079586Y-14964484D02*
X15079586Y-14983531D01*
X15203396Y-15164484D02*
X15184348Y-15154960D01*
X15184348Y-15154960D02*
X15174824Y-15135912D01*
X15174824Y-15135912D02*
X15174824Y-14964484D01*
X15308158Y-15164484D02*
X15289110Y-15154960D01*
X15289110Y-15154960D02*
X15279586Y-15135912D01*
X15279586Y-15135912D02*
X15279586Y-14964484D01*
X15536729Y-15164484D02*
X15536729Y-14964484D01*
X15536729Y-14964484D02*
X15603396Y-15107341D01*
X15603396Y-15107341D02*
X15670062Y-14964484D01*
X15670062Y-14964484D02*
X15670062Y-15164484D01*
X15851015Y-15164484D02*
X15851015Y-15059722D01*
X15851015Y-15059722D02*
X15841491Y-15040674D01*
X15841491Y-15040674D02*
X15822443Y-15031150D01*
X15822443Y-15031150D02*
X15784348Y-15031150D01*
X15784348Y-15031150D02*
X15765301Y-15040674D01*
X15851015Y-15154960D02*
X15831967Y-15164484D01*
X15831967Y-15164484D02*
X15784348Y-15164484D01*
X15784348Y-15164484D02*
X15765301Y-15154960D01*
X15765301Y-15154960D02*
X15755777Y-15135912D01*
X15755777Y-15135912D02*
X15755777Y-15116865D01*
X15755777Y-15116865D02*
X15765301Y-15097817D01*
X15765301Y-15097817D02*
X15784348Y-15088293D01*
X15784348Y-15088293D02*
X15831967Y-15088293D01*
X15831967Y-15088293D02*
X15851015Y-15078770D01*
X15946253Y-15031150D02*
X15946253Y-15231150D01*
X15946253Y-15040674D02*
X15965301Y-15031150D01*
X15965301Y-15031150D02*
X16003396Y-15031150D01*
X16003396Y-15031150D02*
X16022443Y-15040674D01*
X16022443Y-15040674D02*
X16031967Y-15050198D01*
X16031967Y-15050198D02*
X16041491Y-15069246D01*
X16041491Y-15069246D02*
X16041491Y-15126389D01*
X16041491Y-15126389D02*
X16031967Y-15145436D01*
X16031967Y-15145436D02*
X16022443Y-15154960D01*
X16022443Y-15154960D02*
X16003396Y-15164484D01*
X16003396Y-15164484D02*
X15965301Y-15164484D01*
X15965301Y-15164484D02*
X15946253Y-15154960D01*
X16127205Y-15145436D02*
X16136729Y-15154960D01*
X16136729Y-15154960D02*
X16127205Y-15164484D01*
X16127205Y-15164484D02*
X16117682Y-15154960D01*
X16117682Y-15154960D02*
X16127205Y-15145436D01*
X16127205Y-15145436D02*
X16127205Y-15164484D01*
X16127205Y-15040674D02*
X16136729Y-15050198D01*
X16136729Y-15050198D02*
X16127205Y-15059722D01*
X16127205Y-15059722D02*
X16117682Y-15050198D01*
X16117682Y-15050198D02*
X16127205Y-15040674D01*
X16127205Y-15040674D02*
X16127205Y-15059722D01*
D12*
X14455000Y-15473000D02*
X14495000Y-15513000D01*
X14495000Y-15473000D02*
X14455000Y-15513000D01*
D11*
X14793872Y-15384484D02*
X14812920Y-15384484D01*
X14812920Y-15384484D02*
X14831967Y-15394008D01*
X14831967Y-15394008D02*
X14841491Y-15403531D01*
X14841491Y-15403531D02*
X14851015Y-15422579D01*
X14851015Y-15422579D02*
X14860539Y-15460674D01*
X14860539Y-15460674D02*
X14860539Y-15508293D01*
X14860539Y-15508293D02*
X14851015Y-15546389D01*
X14851015Y-15546389D02*
X14841491Y-15565436D01*
X14841491Y-15565436D02*
X14831967Y-15574960D01*
X14831967Y-15574960D02*
X14812920Y-15584484D01*
X14812920Y-15584484D02*
X14793872Y-15584484D01*
X14793872Y-15584484D02*
X14774824Y-15574960D01*
X14774824Y-15574960D02*
X14765301Y-15565436D01*
X14765301Y-15565436D02*
X14755777Y-15546389D01*
X14755777Y-15546389D02*
X14746253Y-15508293D01*
X14746253Y-15508293D02*
X14746253Y-15460674D01*
X14746253Y-15460674D02*
X14755777Y-15422579D01*
X14755777Y-15422579D02*
X14765301Y-15403531D01*
X14765301Y-15403531D02*
X14774824Y-15394008D01*
X14774824Y-15394008D02*
X14793872Y-15384484D01*
X14946253Y-15565436D02*
X14955777Y-15574960D01*
X14955777Y-15574960D02*
X14946253Y-15584484D01*
X14946253Y-15584484D02*
X14936729Y-15574960D01*
X14936729Y-15574960D02*
X14946253Y-15565436D01*
X14946253Y-15565436D02*
X14946253Y-15584484D01*
X15127205Y-15451150D02*
X15127205Y-15584484D01*
X15079586Y-15374960D02*
X15031967Y-15517817D01*
X15031967Y-15517817D02*
X15155777Y-15517817D01*
X15270062Y-15384484D02*
X15289110Y-15384484D01*
X15289110Y-15384484D02*
X15308158Y-15394008D01*
X15308158Y-15394008D02*
X15317682Y-15403531D01*
X15317682Y-15403531D02*
X15327205Y-15422579D01*
X15327205Y-15422579D02*
X15336729Y-15460674D01*
X15336729Y-15460674D02*
X15336729Y-15508293D01*
X15336729Y-15508293D02*
X15327205Y-15546389D01*
X15327205Y-15546389D02*
X15317682Y-15565436D01*
X15317682Y-15565436D02*
X15308158Y-15574960D01*
X15308158Y-15574960D02*
X15289110Y-15584484D01*
X15289110Y-15584484D02*
X15270062Y-15584484D01*
X15270062Y-15584484D02*
X15251015Y-15574960D01*
X15251015Y-15574960D02*
X15241491Y-15565436D01*
X15241491Y-15565436D02*
X15231967Y-15546389D01*
X15231967Y-15546389D02*
X15222443Y-15508293D01*
X15222443Y-15508293D02*
X15222443Y-15460674D01*
X15222443Y-15460674D02*
X15231967Y-15422579D01*
X15231967Y-15422579D02*
X15241491Y-15403531D01*
X15241491Y-15403531D02*
X15251015Y-15394008D01*
X15251015Y-15394008D02*
X15270062Y-15384484D01*
X15460539Y-15384484D02*
X15479586Y-15384484D01*
X15479586Y-15384484D02*
X15498634Y-15394008D01*
X15498634Y-15394008D02*
X15508158Y-15403531D01*
X15508158Y-15403531D02*
X15517682Y-15422579D01*
X15517682Y-15422579D02*
X15527205Y-15460674D01*
X15527205Y-15460674D02*
X15527205Y-15508293D01*
X15527205Y-15508293D02*
X15517682Y-15546389D01*
X15517682Y-15546389D02*
X15508158Y-15565436D01*
X15508158Y-15565436D02*
X15498634Y-15574960D01*
X15498634Y-15574960D02*
X15479586Y-15584484D01*
X15479586Y-15584484D02*
X15460539Y-15584484D01*
X15460539Y-15584484D02*
X15441491Y-15574960D01*
X15441491Y-15574960D02*
X15431967Y-15565436D01*
X15431967Y-15565436D02*
X15422443Y-15546389D01*
X15422443Y-15546389D02*
X15412920Y-15508293D01*
X15412920Y-15508293D02*
X15412920Y-15460674D01*
X15412920Y-15460674D02*
X15422443Y-15422579D01*
X15422443Y-15422579D02*
X15431967Y-15403531D01*
X15431967Y-15403531D02*
X15441491Y-15394008D01*
X15441491Y-15394008D02*
X15460539Y-15384484D01*
X15612920Y-15584484D02*
X15612920Y-15451150D01*
X15612920Y-15470198D02*
X15622443Y-15460674D01*
X15622443Y-15460674D02*
X15641491Y-15451150D01*
X15641491Y-15451150D02*
X15670063Y-15451150D01*
X15670063Y-15451150D02*
X15689110Y-15460674D01*
X15689110Y-15460674D02*
X15698634Y-15479722D01*
X15698634Y-15479722D02*
X15698634Y-15584484D01*
X15698634Y-15479722D02*
X15708158Y-15460674D01*
X15708158Y-15460674D02*
X15727205Y-15451150D01*
X15727205Y-15451150D02*
X15755777Y-15451150D01*
X15755777Y-15451150D02*
X15774824Y-15460674D01*
X15774824Y-15460674D02*
X15784348Y-15479722D01*
X15784348Y-15479722D02*
X15784348Y-15584484D01*
X15879586Y-15584484D02*
X15879586Y-15451150D01*
X15879586Y-15470198D02*
X15889110Y-15460674D01*
X15889110Y-15460674D02*
X15908158Y-15451150D01*
X15908158Y-15451150D02*
X15936729Y-15451150D01*
X15936729Y-15451150D02*
X15955777Y-15460674D01*
X15955777Y-15460674D02*
X15965301Y-15479722D01*
X15965301Y-15479722D02*
X15965301Y-15584484D01*
X15965301Y-15479722D02*
X15974824Y-15460674D01*
X15974824Y-15460674D02*
X15993872Y-15451150D01*
X15993872Y-15451150D02*
X16022443Y-15451150D01*
X16022443Y-15451150D02*
X16041491Y-15460674D01*
X16041491Y-15460674D02*
X16051015Y-15479722D01*
X16051015Y-15479722D02*
X16051015Y-15584484D01*
X16441491Y-15374960D02*
X16270063Y-15632103D01*
X16698634Y-15384484D02*
X16717682Y-15384484D01*
X16717682Y-15384484D02*
X16736729Y-15394008D01*
X16736729Y-15394008D02*
X16746253Y-15403531D01*
X16746253Y-15403531D02*
X16755777Y-15422579D01*
X16755777Y-15422579D02*
X16765301Y-15460674D01*
X16765301Y-15460674D02*
X16765301Y-15508293D01*
X16765301Y-15508293D02*
X16755777Y-15546389D01*
X16755777Y-15546389D02*
X16746253Y-15565436D01*
X16746253Y-15565436D02*
X16736729Y-15574960D01*
X16736729Y-15574960D02*
X16717682Y-15584484D01*
X16717682Y-15584484D02*
X16698634Y-15584484D01*
X16698634Y-15584484D02*
X16679586Y-15574960D01*
X16679586Y-15574960D02*
X16670063Y-15565436D01*
X16670063Y-15565436D02*
X16660539Y-15546389D01*
X16660539Y-15546389D02*
X16651015Y-15508293D01*
X16651015Y-15508293D02*
X16651015Y-15460674D01*
X16651015Y-15460674D02*
X16660539Y-15422579D01*
X16660539Y-15422579D02*
X16670063Y-15403531D01*
X16670063Y-15403531D02*
X16679586Y-15394008D01*
X16679586Y-15394008D02*
X16698634Y-15384484D01*
X16851015Y-15565436D02*
X16860539Y-15574960D01*
X16860539Y-15574960D02*
X16851015Y-15584484D01*
X16851015Y-15584484D02*
X16841491Y-15574960D01*
X16841491Y-15574960D02*
X16851015Y-15565436D01*
X16851015Y-15565436D02*
X16851015Y-15584484D01*
X16984348Y-15384484D02*
X17003396Y-15384484D01*
X17003396Y-15384484D02*
X17022444Y-15394008D01*
X17022444Y-15394008D02*
X17031968Y-15403531D01*
X17031968Y-15403531D02*
X17041491Y-15422579D01*
X17041491Y-15422579D02*
X17051015Y-15460674D01*
X17051015Y-15460674D02*
X17051015Y-15508293D01*
X17051015Y-15508293D02*
X17041491Y-15546389D01*
X17041491Y-15546389D02*
X17031968Y-15565436D01*
X17031968Y-15565436D02*
X17022444Y-15574960D01*
X17022444Y-15574960D02*
X17003396Y-15584484D01*
X17003396Y-15584484D02*
X16984348Y-15584484D01*
X16984348Y-15584484D02*
X16965301Y-15574960D01*
X16965301Y-15574960D02*
X16955777Y-15565436D01*
X16955777Y-15565436D02*
X16946253Y-15546389D01*
X16946253Y-15546389D02*
X16936729Y-15508293D01*
X16936729Y-15508293D02*
X16936729Y-15460674D01*
X16936729Y-15460674D02*
X16946253Y-15422579D01*
X16946253Y-15422579D02*
X16955777Y-15403531D01*
X16955777Y-15403531D02*
X16965301Y-15394008D01*
X16965301Y-15394008D02*
X16984348Y-15384484D01*
X17241491Y-15584484D02*
X17127206Y-15584484D01*
X17184348Y-15584484D02*
X17184348Y-15384484D01*
X17184348Y-15384484D02*
X17165301Y-15413055D01*
X17165301Y-15413055D02*
X17146253Y-15432103D01*
X17146253Y-15432103D02*
X17127206Y-15441627D01*
X17422444Y-15384484D02*
X17327206Y-15384484D01*
X17327206Y-15384484D02*
X17317682Y-15479722D01*
X17317682Y-15479722D02*
X17327206Y-15470198D01*
X17327206Y-15470198D02*
X17346253Y-15460674D01*
X17346253Y-15460674D02*
X17393872Y-15460674D01*
X17393872Y-15460674D02*
X17412920Y-15470198D01*
X17412920Y-15470198D02*
X17422444Y-15479722D01*
X17422444Y-15479722D02*
X17431968Y-15498770D01*
X17431968Y-15498770D02*
X17431968Y-15546389D01*
X17431968Y-15546389D02*
X17422444Y-15565436D01*
X17422444Y-15565436D02*
X17412920Y-15574960D01*
X17412920Y-15574960D02*
X17393872Y-15584484D01*
X17393872Y-15584484D02*
X17346253Y-15584484D01*
X17346253Y-15584484D02*
X17327206Y-15574960D01*
X17327206Y-15574960D02*
X17317682Y-15565436D01*
X17498634Y-15384484D02*
X17631968Y-15384484D01*
X17631968Y-15384484D02*
X17546253Y-15584484D01*
X17698634Y-15384484D02*
X17698634Y-15422579D01*
X17774825Y-15384484D02*
X17774825Y-15422579D01*
X18070063Y-15660674D02*
X18060539Y-15651150D01*
X18060539Y-15651150D02*
X18041491Y-15622579D01*
X18041491Y-15622579D02*
X18031968Y-15603531D01*
X18031968Y-15603531D02*
X18022444Y-15574960D01*
X18022444Y-15574960D02*
X18012920Y-15527341D01*
X18012920Y-15527341D02*
X18012920Y-15489246D01*
X18012920Y-15489246D02*
X18022444Y-15441627D01*
X18022444Y-15441627D02*
X18031968Y-15413055D01*
X18031968Y-15413055D02*
X18041491Y-15394008D01*
X18041491Y-15394008D02*
X18060539Y-15365436D01*
X18060539Y-15365436D02*
X18070063Y-15355912D01*
X18251015Y-15584484D02*
X18136730Y-15584484D01*
X18193872Y-15584484D02*
X18193872Y-15384484D01*
X18193872Y-15384484D02*
X18174825Y-15413055D01*
X18174825Y-15413055D02*
X18155777Y-15432103D01*
X18155777Y-15432103D02*
X18136730Y-15441627D01*
X18422444Y-15451150D02*
X18422444Y-15584484D01*
X18374825Y-15374960D02*
X18327206Y-15517817D01*
X18327206Y-15517817D02*
X18451015Y-15517817D01*
X18679587Y-15584484D02*
X18679587Y-15384484D01*
X18765301Y-15584484D02*
X18765301Y-15479722D01*
X18765301Y-15479722D02*
X18755777Y-15460674D01*
X18755777Y-15460674D02*
X18736730Y-15451150D01*
X18736730Y-15451150D02*
X18708158Y-15451150D01*
X18708158Y-15451150D02*
X18689111Y-15460674D01*
X18689111Y-15460674D02*
X18679587Y-15470198D01*
X18889111Y-15584484D02*
X18870063Y-15574960D01*
X18870063Y-15574960D02*
X18860539Y-15565436D01*
X18860539Y-15565436D02*
X18851015Y-15546389D01*
X18851015Y-15546389D02*
X18851015Y-15489246D01*
X18851015Y-15489246D02*
X18860539Y-15470198D01*
X18860539Y-15470198D02*
X18870063Y-15460674D01*
X18870063Y-15460674D02*
X18889111Y-15451150D01*
X18889111Y-15451150D02*
X18917682Y-15451150D01*
X18917682Y-15451150D02*
X18936730Y-15460674D01*
X18936730Y-15460674D02*
X18946253Y-15470198D01*
X18946253Y-15470198D02*
X18955777Y-15489246D01*
X18955777Y-15489246D02*
X18955777Y-15546389D01*
X18955777Y-15546389D02*
X18946253Y-15565436D01*
X18946253Y-15565436D02*
X18936730Y-15574960D01*
X18936730Y-15574960D02*
X18917682Y-15584484D01*
X18917682Y-15584484D02*
X18889111Y-15584484D01*
X19070063Y-15584484D02*
X19051015Y-15574960D01*
X19051015Y-15574960D02*
X19041492Y-15555912D01*
X19041492Y-15555912D02*
X19041492Y-15384484D01*
X19222444Y-15574960D02*
X19203396Y-15584484D01*
X19203396Y-15584484D02*
X19165301Y-15584484D01*
X19165301Y-15584484D02*
X19146253Y-15574960D01*
X19146253Y-15574960D02*
X19136730Y-15555912D01*
X19136730Y-15555912D02*
X19136730Y-15479722D01*
X19136730Y-15479722D02*
X19146253Y-15460674D01*
X19146253Y-15460674D02*
X19165301Y-15451150D01*
X19165301Y-15451150D02*
X19203396Y-15451150D01*
X19203396Y-15451150D02*
X19222444Y-15460674D01*
X19222444Y-15460674D02*
X19231968Y-15479722D01*
X19231968Y-15479722D02*
X19231968Y-15498770D01*
X19231968Y-15498770D02*
X19136730Y-15517817D01*
X19308158Y-15574960D02*
X19327206Y-15584484D01*
X19327206Y-15584484D02*
X19365301Y-15584484D01*
X19365301Y-15584484D02*
X19384349Y-15574960D01*
X19384349Y-15574960D02*
X19393873Y-15555912D01*
X19393873Y-15555912D02*
X19393873Y-15546389D01*
X19393873Y-15546389D02*
X19384349Y-15527341D01*
X19384349Y-15527341D02*
X19365301Y-15517817D01*
X19365301Y-15517817D02*
X19336730Y-15517817D01*
X19336730Y-15517817D02*
X19317682Y-15508293D01*
X19317682Y-15508293D02*
X19308158Y-15489246D01*
X19308158Y-15489246D02*
X19308158Y-15479722D01*
X19308158Y-15479722D02*
X19317682Y-15460674D01*
X19317682Y-15460674D02*
X19336730Y-15451150D01*
X19336730Y-15451150D02*
X19365301Y-15451150D01*
X19365301Y-15451150D02*
X19384349Y-15460674D01*
X19460539Y-15660674D02*
X19470063Y-15651150D01*
X19470063Y-15651150D02*
X19489111Y-15622579D01*
X19489111Y-15622579D02*
X19498634Y-15603531D01*
X19498634Y-15603531D02*
X19508158Y-15574960D01*
X19508158Y-15574960D02*
X19517682Y-15527341D01*
X19517682Y-15527341D02*
X19517682Y-15489246D01*
X19517682Y-15489246D02*
X19508158Y-15441627D01*
X19508158Y-15441627D02*
X19498634Y-15413055D01*
X19498634Y-15413055D02*
X19489111Y-15394008D01*
X19489111Y-15394008D02*
X19470063Y-15365436D01*
X19470063Y-15365436D02*
X19460539Y-15355912D01*
D13*
X14495000Y-15757000D02*
G75*
G03*
X14495000Y-15757000I-40000J0D01*
G01*
D11*
X14793872Y-15648484D02*
X14812920Y-15648484D01*
X14812920Y-15648484D02*
X14831967Y-15658008D01*
X14831967Y-15658008D02*
X14841491Y-15667531D01*
X14841491Y-15667531D02*
X14851015Y-15686579D01*
X14851015Y-15686579D02*
X14860539Y-15724674D01*
X14860539Y-15724674D02*
X14860539Y-15772293D01*
X14860539Y-15772293D02*
X14851015Y-15810389D01*
X14851015Y-15810389D02*
X14841491Y-15829436D01*
X14841491Y-15829436D02*
X14831967Y-15838960D01*
X14831967Y-15838960D02*
X14812920Y-15848484D01*
X14812920Y-15848484D02*
X14793872Y-15848484D01*
X14793872Y-15848484D02*
X14774824Y-15838960D01*
X14774824Y-15838960D02*
X14765301Y-15829436D01*
X14765301Y-15829436D02*
X14755777Y-15810389D01*
X14755777Y-15810389D02*
X14746253Y-15772293D01*
X14746253Y-15772293D02*
X14746253Y-15724674D01*
X14746253Y-15724674D02*
X14755777Y-15686579D01*
X14755777Y-15686579D02*
X14765301Y-15667531D01*
X14765301Y-15667531D02*
X14774824Y-15658008D01*
X14774824Y-15658008D02*
X14793872Y-15648484D01*
X14946253Y-15829436D02*
X14955777Y-15838960D01*
X14955777Y-15838960D02*
X14946253Y-15848484D01*
X14946253Y-15848484D02*
X14936729Y-15838960D01*
X14936729Y-15838960D02*
X14946253Y-15829436D01*
X14946253Y-15829436D02*
X14946253Y-15848484D01*
X15070062Y-15734198D02*
X15051015Y-15724674D01*
X15051015Y-15724674D02*
X15041491Y-15715150D01*
X15041491Y-15715150D02*
X15031967Y-15696103D01*
X15031967Y-15696103D02*
X15031967Y-15686579D01*
X15031967Y-15686579D02*
X15041491Y-15667531D01*
X15041491Y-15667531D02*
X15051015Y-15658008D01*
X15051015Y-15658008D02*
X15070062Y-15648484D01*
X15070062Y-15648484D02*
X15108158Y-15648484D01*
X15108158Y-15648484D02*
X15127205Y-15658008D01*
X15127205Y-15658008D02*
X15136729Y-15667531D01*
X15136729Y-15667531D02*
X15146253Y-15686579D01*
X15146253Y-15686579D02*
X15146253Y-15696103D01*
X15146253Y-15696103D02*
X15136729Y-15715150D01*
X15136729Y-15715150D02*
X15127205Y-15724674D01*
X15127205Y-15724674D02*
X15108158Y-15734198D01*
X15108158Y-15734198D02*
X15070062Y-15734198D01*
X15070062Y-15734198D02*
X15051015Y-15743722D01*
X15051015Y-15743722D02*
X15041491Y-15753246D01*
X15041491Y-15753246D02*
X15031967Y-15772293D01*
X15031967Y-15772293D02*
X15031967Y-15810389D01*
X15031967Y-15810389D02*
X15041491Y-15829436D01*
X15041491Y-15829436D02*
X15051015Y-15838960D01*
X15051015Y-15838960D02*
X15070062Y-15848484D01*
X15070062Y-15848484D02*
X15108158Y-15848484D01*
X15108158Y-15848484D02*
X15127205Y-15838960D01*
X15127205Y-15838960D02*
X15136729Y-15829436D01*
X15136729Y-15829436D02*
X15146253Y-15810389D01*
X15146253Y-15810389D02*
X15146253Y-15772293D01*
X15146253Y-15772293D02*
X15136729Y-15753246D01*
X15136729Y-15753246D02*
X15127205Y-15743722D01*
X15127205Y-15743722D02*
X15108158Y-15734198D01*
X15270062Y-15648484D02*
X15289110Y-15648484D01*
X15289110Y-15648484D02*
X15308158Y-15658008D01*
X15308158Y-15658008D02*
X15317682Y-15667531D01*
X15317682Y-15667531D02*
X15327205Y-15686579D01*
X15327205Y-15686579D02*
X15336729Y-15724674D01*
X15336729Y-15724674D02*
X15336729Y-15772293D01*
X15336729Y-15772293D02*
X15327205Y-15810389D01*
X15327205Y-15810389D02*
X15317682Y-15829436D01*
X15317682Y-15829436D02*
X15308158Y-15838960D01*
X15308158Y-15838960D02*
X15289110Y-15848484D01*
X15289110Y-15848484D02*
X15270062Y-15848484D01*
X15270062Y-15848484D02*
X15251015Y-15838960D01*
X15251015Y-15838960D02*
X15241491Y-15829436D01*
X15241491Y-15829436D02*
X15231967Y-15810389D01*
X15231967Y-15810389D02*
X15222443Y-15772293D01*
X15222443Y-15772293D02*
X15222443Y-15724674D01*
X15222443Y-15724674D02*
X15231967Y-15686579D01*
X15231967Y-15686579D02*
X15241491Y-15667531D01*
X15241491Y-15667531D02*
X15251015Y-15658008D01*
X15251015Y-15658008D02*
X15270062Y-15648484D01*
X15460539Y-15648484D02*
X15479586Y-15648484D01*
X15479586Y-15648484D02*
X15498634Y-15658008D01*
X15498634Y-15658008D02*
X15508158Y-15667531D01*
X15508158Y-15667531D02*
X15517682Y-15686579D01*
X15517682Y-15686579D02*
X15527205Y-15724674D01*
X15527205Y-15724674D02*
X15527205Y-15772293D01*
X15527205Y-15772293D02*
X15517682Y-15810389D01*
X15517682Y-15810389D02*
X15508158Y-15829436D01*
X15508158Y-15829436D02*
X15498634Y-15838960D01*
X15498634Y-15838960D02*
X15479586Y-15848484D01*
X15479586Y-15848484D02*
X15460539Y-15848484D01*
X15460539Y-15848484D02*
X15441491Y-15838960D01*
X15441491Y-15838960D02*
X15431967Y-15829436D01*
X15431967Y-15829436D02*
X15422443Y-15810389D01*
X15422443Y-15810389D02*
X15412920Y-15772293D01*
X15412920Y-15772293D02*
X15412920Y-15724674D01*
X15412920Y-15724674D02*
X15422443Y-15686579D01*
X15422443Y-15686579D02*
X15431967Y-15667531D01*
X15431967Y-15667531D02*
X15441491Y-15658008D01*
X15441491Y-15658008D02*
X15460539Y-15648484D01*
X15612920Y-15848484D02*
X15612920Y-15715150D01*
X15612920Y-15734198D02*
X15622443Y-15724674D01*
X15622443Y-15724674D02*
X15641491Y-15715150D01*
X15641491Y-15715150D02*
X15670063Y-15715150D01*
X15670063Y-15715150D02*
X15689110Y-15724674D01*
X15689110Y-15724674D02*
X15698634Y-15743722D01*
X15698634Y-15743722D02*
X15698634Y-15848484D01*
X15698634Y-15743722D02*
X15708158Y-15724674D01*
X15708158Y-15724674D02*
X15727205Y-15715150D01*
X15727205Y-15715150D02*
X15755777Y-15715150D01*
X15755777Y-15715150D02*
X15774824Y-15724674D01*
X15774824Y-15724674D02*
X15784348Y-15743722D01*
X15784348Y-15743722D02*
X15784348Y-15848484D01*
X15879586Y-15848484D02*
X15879586Y-15715150D01*
X15879586Y-15734198D02*
X15889110Y-15724674D01*
X15889110Y-15724674D02*
X15908158Y-15715150D01*
X15908158Y-15715150D02*
X15936729Y-15715150D01*
X15936729Y-15715150D02*
X15955777Y-15724674D01*
X15955777Y-15724674D02*
X15965301Y-15743722D01*
X15965301Y-15743722D02*
X15965301Y-15848484D01*
X15965301Y-15743722D02*
X15974824Y-15724674D01*
X15974824Y-15724674D02*
X15993872Y-15715150D01*
X15993872Y-15715150D02*
X16022443Y-15715150D01*
X16022443Y-15715150D02*
X16041491Y-15724674D01*
X16041491Y-15724674D02*
X16051015Y-15743722D01*
X16051015Y-15743722D02*
X16051015Y-15848484D01*
X16441491Y-15638960D02*
X16270063Y-15896103D01*
X16698634Y-15648484D02*
X16717682Y-15648484D01*
X16717682Y-15648484D02*
X16736729Y-15658008D01*
X16736729Y-15658008D02*
X16746253Y-15667531D01*
X16746253Y-15667531D02*
X16755777Y-15686579D01*
X16755777Y-15686579D02*
X16765301Y-15724674D01*
X16765301Y-15724674D02*
X16765301Y-15772293D01*
X16765301Y-15772293D02*
X16755777Y-15810389D01*
X16755777Y-15810389D02*
X16746253Y-15829436D01*
X16746253Y-15829436D02*
X16736729Y-15838960D01*
X16736729Y-15838960D02*
X16717682Y-15848484D01*
X16717682Y-15848484D02*
X16698634Y-15848484D01*
X16698634Y-15848484D02*
X16679586Y-15838960D01*
X16679586Y-15838960D02*
X16670063Y-15829436D01*
X16670063Y-15829436D02*
X16660539Y-15810389D01*
X16660539Y-15810389D02*
X16651015Y-15772293D01*
X16651015Y-15772293D02*
X16651015Y-15724674D01*
X16651015Y-15724674D02*
X16660539Y-15686579D01*
X16660539Y-15686579D02*
X16670063Y-15667531D01*
X16670063Y-15667531D02*
X16679586Y-15658008D01*
X16679586Y-15658008D02*
X16698634Y-15648484D01*
X16851015Y-15829436D02*
X16860539Y-15838960D01*
X16860539Y-15838960D02*
X16851015Y-15848484D01*
X16851015Y-15848484D02*
X16841491Y-15838960D01*
X16841491Y-15838960D02*
X16851015Y-15829436D01*
X16851015Y-15829436D02*
X16851015Y-15848484D01*
X16984348Y-15648484D02*
X17003396Y-15648484D01*
X17003396Y-15648484D02*
X17022444Y-15658008D01*
X17022444Y-15658008D02*
X17031968Y-15667531D01*
X17031968Y-15667531D02*
X17041491Y-15686579D01*
X17041491Y-15686579D02*
X17051015Y-15724674D01*
X17051015Y-15724674D02*
X17051015Y-15772293D01*
X17051015Y-15772293D02*
X17041491Y-15810389D01*
X17041491Y-15810389D02*
X17031968Y-15829436D01*
X17031968Y-15829436D02*
X17022444Y-15838960D01*
X17022444Y-15838960D02*
X17003396Y-15848484D01*
X17003396Y-15848484D02*
X16984348Y-15848484D01*
X16984348Y-15848484D02*
X16965301Y-15838960D01*
X16965301Y-15838960D02*
X16955777Y-15829436D01*
X16955777Y-15829436D02*
X16946253Y-15810389D01*
X16946253Y-15810389D02*
X16936729Y-15772293D01*
X16936729Y-15772293D02*
X16936729Y-15724674D01*
X16936729Y-15724674D02*
X16946253Y-15686579D01*
X16946253Y-15686579D02*
X16955777Y-15667531D01*
X16955777Y-15667531D02*
X16965301Y-15658008D01*
X16965301Y-15658008D02*
X16984348Y-15648484D01*
X17117682Y-15648484D02*
X17241491Y-15648484D01*
X17241491Y-15648484D02*
X17174825Y-15724674D01*
X17174825Y-15724674D02*
X17203396Y-15724674D01*
X17203396Y-15724674D02*
X17222444Y-15734198D01*
X17222444Y-15734198D02*
X17231968Y-15743722D01*
X17231968Y-15743722D02*
X17241491Y-15762770D01*
X17241491Y-15762770D02*
X17241491Y-15810389D01*
X17241491Y-15810389D02*
X17231968Y-15829436D01*
X17231968Y-15829436D02*
X17222444Y-15838960D01*
X17222444Y-15838960D02*
X17203396Y-15848484D01*
X17203396Y-15848484D02*
X17146253Y-15848484D01*
X17146253Y-15848484D02*
X17127206Y-15838960D01*
X17127206Y-15838960D02*
X17117682Y-15829436D01*
X17431968Y-15848484D02*
X17317682Y-15848484D01*
X17374825Y-15848484D02*
X17374825Y-15648484D01*
X17374825Y-15648484D02*
X17355777Y-15677055D01*
X17355777Y-15677055D02*
X17336729Y-15696103D01*
X17336729Y-15696103D02*
X17317682Y-15705627D01*
X17612920Y-15648484D02*
X17517682Y-15648484D01*
X17517682Y-15648484D02*
X17508158Y-15743722D01*
X17508158Y-15743722D02*
X17517682Y-15734198D01*
X17517682Y-15734198D02*
X17536729Y-15724674D01*
X17536729Y-15724674D02*
X17584349Y-15724674D01*
X17584349Y-15724674D02*
X17603396Y-15734198D01*
X17603396Y-15734198D02*
X17612920Y-15743722D01*
X17612920Y-15743722D02*
X17622444Y-15762770D01*
X17622444Y-15762770D02*
X17622444Y-15810389D01*
X17622444Y-15810389D02*
X17612920Y-15829436D01*
X17612920Y-15829436D02*
X17603396Y-15838960D01*
X17603396Y-15838960D02*
X17584349Y-15848484D01*
X17584349Y-15848484D02*
X17536729Y-15848484D01*
X17536729Y-15848484D02*
X17517682Y-15838960D01*
X17517682Y-15838960D02*
X17508158Y-15829436D01*
X17698634Y-15648484D02*
X17698634Y-15686579D01*
X17774825Y-15648484D02*
X17774825Y-15686579D01*
X18070063Y-15924674D02*
X18060539Y-15915150D01*
X18060539Y-15915150D02*
X18041491Y-15886579D01*
X18041491Y-15886579D02*
X18031968Y-15867531D01*
X18031968Y-15867531D02*
X18022444Y-15838960D01*
X18022444Y-15838960D02*
X18012920Y-15791341D01*
X18012920Y-15791341D02*
X18012920Y-15753246D01*
X18012920Y-15753246D02*
X18022444Y-15705627D01*
X18022444Y-15705627D02*
X18031968Y-15677055D01*
X18031968Y-15677055D02*
X18041491Y-15658008D01*
X18041491Y-15658008D02*
X18060539Y-15629436D01*
X18060539Y-15629436D02*
X18070063Y-15619912D01*
X18241491Y-15648484D02*
X18146253Y-15648484D01*
X18146253Y-15648484D02*
X18136730Y-15743722D01*
X18136730Y-15743722D02*
X18146253Y-15734198D01*
X18146253Y-15734198D02*
X18165301Y-15724674D01*
X18165301Y-15724674D02*
X18212920Y-15724674D01*
X18212920Y-15724674D02*
X18231968Y-15734198D01*
X18231968Y-15734198D02*
X18241491Y-15743722D01*
X18241491Y-15743722D02*
X18251015Y-15762770D01*
X18251015Y-15762770D02*
X18251015Y-15810389D01*
X18251015Y-15810389D02*
X18241491Y-15829436D01*
X18241491Y-15829436D02*
X18231968Y-15838960D01*
X18231968Y-15838960D02*
X18212920Y-15848484D01*
X18212920Y-15848484D02*
X18165301Y-15848484D01*
X18165301Y-15848484D02*
X18146253Y-15838960D01*
X18146253Y-15838960D02*
X18136730Y-15829436D01*
X18489111Y-15848484D02*
X18489111Y-15648484D01*
X18574825Y-15848484D02*
X18574825Y-15743722D01*
X18574825Y-15743722D02*
X18565301Y-15724674D01*
X18565301Y-15724674D02*
X18546253Y-15715150D01*
X18546253Y-15715150D02*
X18517682Y-15715150D01*
X18517682Y-15715150D02*
X18498634Y-15724674D01*
X18498634Y-15724674D02*
X18489111Y-15734198D01*
X18698634Y-15848484D02*
X18679587Y-15838960D01*
X18679587Y-15838960D02*
X18670063Y-15829436D01*
X18670063Y-15829436D02*
X18660539Y-15810389D01*
X18660539Y-15810389D02*
X18660539Y-15753246D01*
X18660539Y-15753246D02*
X18670063Y-15734198D01*
X18670063Y-15734198D02*
X18679587Y-15724674D01*
X18679587Y-15724674D02*
X18698634Y-15715150D01*
X18698634Y-15715150D02*
X18727206Y-15715150D01*
X18727206Y-15715150D02*
X18746253Y-15724674D01*
X18746253Y-15724674D02*
X18755777Y-15734198D01*
X18755777Y-15734198D02*
X18765301Y-15753246D01*
X18765301Y-15753246D02*
X18765301Y-15810389D01*
X18765301Y-15810389D02*
X18755777Y-15829436D01*
X18755777Y-15829436D02*
X18746253Y-15838960D01*
X18746253Y-15838960D02*
X18727206Y-15848484D01*
X18727206Y-15848484D02*
X18698634Y-15848484D01*
X18879587Y-15848484D02*
X18860539Y-15838960D01*
X18860539Y-15838960D02*
X18851015Y-15819912D01*
X18851015Y-15819912D02*
X18851015Y-15648484D01*
X19031968Y-15838960D02*
X19012920Y-15848484D01*
X19012920Y-15848484D02*
X18974825Y-15848484D01*
X18974825Y-15848484D02*
X18955777Y-15838960D01*
X18955777Y-15838960D02*
X18946253Y-15819912D01*
X18946253Y-15819912D02*
X18946253Y-15743722D01*
X18946253Y-15743722D02*
X18955777Y-15724674D01*
X18955777Y-15724674D02*
X18974825Y-15715150D01*
X18974825Y-15715150D02*
X19012920Y-15715150D01*
X19012920Y-15715150D02*
X19031968Y-15724674D01*
X19031968Y-15724674D02*
X19041492Y-15743722D01*
X19041492Y-15743722D02*
X19041492Y-15762770D01*
X19041492Y-15762770D02*
X18946253Y-15781817D01*
X19117682Y-15838960D02*
X19136730Y-15848484D01*
X19136730Y-15848484D02*
X19174825Y-15848484D01*
X19174825Y-15848484D02*
X19193873Y-15838960D01*
X19193873Y-15838960D02*
X19203396Y-15819912D01*
X19203396Y-15819912D02*
X19203396Y-15810389D01*
X19203396Y-15810389D02*
X19193873Y-15791341D01*
X19193873Y-15791341D02*
X19174825Y-15781817D01*
X19174825Y-15781817D02*
X19146253Y-15781817D01*
X19146253Y-15781817D02*
X19127206Y-15772293D01*
X19127206Y-15772293D02*
X19117682Y-15753246D01*
X19117682Y-15753246D02*
X19117682Y-15743722D01*
X19117682Y-15743722D02*
X19127206Y-15724674D01*
X19127206Y-15724674D02*
X19146253Y-15715150D01*
X19146253Y-15715150D02*
X19174825Y-15715150D01*
X19174825Y-15715150D02*
X19193873Y-15724674D01*
X19270063Y-15924674D02*
X19279587Y-15915150D01*
X19279587Y-15915150D02*
X19298634Y-15886579D01*
X19298634Y-15886579D02*
X19308158Y-15867531D01*
X19308158Y-15867531D02*
X19317682Y-15838960D01*
X19317682Y-15838960D02*
X19327206Y-15791341D01*
X19327206Y-15791341D02*
X19327206Y-15753246D01*
X19327206Y-15753246D02*
X19317682Y-15705627D01*
X19317682Y-15705627D02*
X19308158Y-15677055D01*
X19308158Y-15677055D02*
X19298634Y-15658008D01*
X19298634Y-15658008D02*
X19279587Y-15629436D01*
X19279587Y-15629436D02*
X19270063Y-15619912D01*
D10*
X14445000Y-15971000D02*
X14445000Y-16071000D01*
X14395000Y-16021000D02*
X14495000Y-16021000D01*
D11*
X14860539Y-16112484D02*
X14746253Y-16112484D01*
X14803396Y-16112484D02*
X14803396Y-15912484D01*
X14803396Y-15912484D02*
X14784348Y-15941055D01*
X14784348Y-15941055D02*
X14765301Y-15960103D01*
X14765301Y-15960103D02*
X14746253Y-15969627D01*
X14946253Y-16093436D02*
X14955777Y-16102960D01*
X14955777Y-16102960D02*
X14946253Y-16112484D01*
X14946253Y-16112484D02*
X14936729Y-16102960D01*
X14936729Y-16102960D02*
X14946253Y-16093436D01*
X14946253Y-16093436D02*
X14946253Y-16112484D01*
X15079586Y-15912484D02*
X15098634Y-15912484D01*
X15098634Y-15912484D02*
X15117682Y-15922008D01*
X15117682Y-15922008D02*
X15127205Y-15931531D01*
X15127205Y-15931531D02*
X15136729Y-15950579D01*
X15136729Y-15950579D02*
X15146253Y-15988674D01*
X15146253Y-15988674D02*
X15146253Y-16036293D01*
X15146253Y-16036293D02*
X15136729Y-16074389D01*
X15136729Y-16074389D02*
X15127205Y-16093436D01*
X15127205Y-16093436D02*
X15117682Y-16102960D01*
X15117682Y-16102960D02*
X15098634Y-16112484D01*
X15098634Y-16112484D02*
X15079586Y-16112484D01*
X15079586Y-16112484D02*
X15060539Y-16102960D01*
X15060539Y-16102960D02*
X15051015Y-16093436D01*
X15051015Y-16093436D02*
X15041491Y-16074389D01*
X15041491Y-16074389D02*
X15031967Y-16036293D01*
X15031967Y-16036293D02*
X15031967Y-15988674D01*
X15031967Y-15988674D02*
X15041491Y-15950579D01*
X15041491Y-15950579D02*
X15051015Y-15931531D01*
X15051015Y-15931531D02*
X15060539Y-15922008D01*
X15060539Y-15922008D02*
X15079586Y-15912484D01*
X15270062Y-15912484D02*
X15289110Y-15912484D01*
X15289110Y-15912484D02*
X15308158Y-15922008D01*
X15308158Y-15922008D02*
X15317682Y-15931531D01*
X15317682Y-15931531D02*
X15327205Y-15950579D01*
X15327205Y-15950579D02*
X15336729Y-15988674D01*
X15336729Y-15988674D02*
X15336729Y-16036293D01*
X15336729Y-16036293D02*
X15327205Y-16074389D01*
X15327205Y-16074389D02*
X15317682Y-16093436D01*
X15317682Y-16093436D02*
X15308158Y-16102960D01*
X15308158Y-16102960D02*
X15289110Y-16112484D01*
X15289110Y-16112484D02*
X15270062Y-16112484D01*
X15270062Y-16112484D02*
X15251015Y-16102960D01*
X15251015Y-16102960D02*
X15241491Y-16093436D01*
X15241491Y-16093436D02*
X15231967Y-16074389D01*
X15231967Y-16074389D02*
X15222443Y-16036293D01*
X15222443Y-16036293D02*
X15222443Y-15988674D01*
X15222443Y-15988674D02*
X15231967Y-15950579D01*
X15231967Y-15950579D02*
X15241491Y-15931531D01*
X15241491Y-15931531D02*
X15251015Y-15922008D01*
X15251015Y-15922008D02*
X15270062Y-15912484D01*
X15460539Y-15912484D02*
X15479586Y-15912484D01*
X15479586Y-15912484D02*
X15498634Y-15922008D01*
X15498634Y-15922008D02*
X15508158Y-15931531D01*
X15508158Y-15931531D02*
X15517682Y-15950579D01*
X15517682Y-15950579D02*
X15527205Y-15988674D01*
X15527205Y-15988674D02*
X15527205Y-16036293D01*
X15527205Y-16036293D02*
X15517682Y-16074389D01*
X15517682Y-16074389D02*
X15508158Y-16093436D01*
X15508158Y-16093436D02*
X15498634Y-16102960D01*
X15498634Y-16102960D02*
X15479586Y-16112484D01*
X15479586Y-16112484D02*
X15460539Y-16112484D01*
X15460539Y-16112484D02*
X15441491Y-16102960D01*
X15441491Y-16102960D02*
X15431967Y-16093436D01*
X15431967Y-16093436D02*
X15422443Y-16074389D01*
X15422443Y-16074389D02*
X15412920Y-16036293D01*
X15412920Y-16036293D02*
X15412920Y-15988674D01*
X15412920Y-15988674D02*
X15422443Y-15950579D01*
X15422443Y-15950579D02*
X15431967Y-15931531D01*
X15431967Y-15931531D02*
X15441491Y-15922008D01*
X15441491Y-15922008D02*
X15460539Y-15912484D01*
X15612920Y-16112484D02*
X15612920Y-15979150D01*
X15612920Y-15998198D02*
X15622443Y-15988674D01*
X15622443Y-15988674D02*
X15641491Y-15979150D01*
X15641491Y-15979150D02*
X15670063Y-15979150D01*
X15670063Y-15979150D02*
X15689110Y-15988674D01*
X15689110Y-15988674D02*
X15698634Y-16007722D01*
X15698634Y-16007722D02*
X15698634Y-16112484D01*
X15698634Y-16007722D02*
X15708158Y-15988674D01*
X15708158Y-15988674D02*
X15727205Y-15979150D01*
X15727205Y-15979150D02*
X15755777Y-15979150D01*
X15755777Y-15979150D02*
X15774824Y-15988674D01*
X15774824Y-15988674D02*
X15784348Y-16007722D01*
X15784348Y-16007722D02*
X15784348Y-16112484D01*
X15879586Y-16112484D02*
X15879586Y-15979150D01*
X15879586Y-15998198D02*
X15889110Y-15988674D01*
X15889110Y-15988674D02*
X15908158Y-15979150D01*
X15908158Y-15979150D02*
X15936729Y-15979150D01*
X15936729Y-15979150D02*
X15955777Y-15988674D01*
X15955777Y-15988674D02*
X15965301Y-16007722D01*
X15965301Y-16007722D02*
X15965301Y-16112484D01*
X15965301Y-16007722D02*
X15974824Y-15988674D01*
X15974824Y-15988674D02*
X15993872Y-15979150D01*
X15993872Y-15979150D02*
X16022443Y-15979150D01*
X16022443Y-15979150D02*
X16041491Y-15988674D01*
X16041491Y-15988674D02*
X16051015Y-16007722D01*
X16051015Y-16007722D02*
X16051015Y-16112484D01*
X16441491Y-15902960D02*
X16270063Y-16160103D01*
X16698634Y-15912484D02*
X16717682Y-15912484D01*
X16717682Y-15912484D02*
X16736729Y-15922008D01*
X16736729Y-15922008D02*
X16746253Y-15931531D01*
X16746253Y-15931531D02*
X16755777Y-15950579D01*
X16755777Y-15950579D02*
X16765301Y-15988674D01*
X16765301Y-15988674D02*
X16765301Y-16036293D01*
X16765301Y-16036293D02*
X16755777Y-16074389D01*
X16755777Y-16074389D02*
X16746253Y-16093436D01*
X16746253Y-16093436D02*
X16736729Y-16102960D01*
X16736729Y-16102960D02*
X16717682Y-16112484D01*
X16717682Y-16112484D02*
X16698634Y-16112484D01*
X16698634Y-16112484D02*
X16679586Y-16102960D01*
X16679586Y-16102960D02*
X16670063Y-16093436D01*
X16670063Y-16093436D02*
X16660539Y-16074389D01*
X16660539Y-16074389D02*
X16651015Y-16036293D01*
X16651015Y-16036293D02*
X16651015Y-15988674D01*
X16651015Y-15988674D02*
X16660539Y-15950579D01*
X16660539Y-15950579D02*
X16670063Y-15931531D01*
X16670063Y-15931531D02*
X16679586Y-15922008D01*
X16679586Y-15922008D02*
X16698634Y-15912484D01*
X16851015Y-16093436D02*
X16860539Y-16102960D01*
X16860539Y-16102960D02*
X16851015Y-16112484D01*
X16851015Y-16112484D02*
X16841491Y-16102960D01*
X16841491Y-16102960D02*
X16851015Y-16093436D01*
X16851015Y-16093436D02*
X16851015Y-16112484D01*
X16984348Y-15912484D02*
X17003396Y-15912484D01*
X17003396Y-15912484D02*
X17022444Y-15922008D01*
X17022444Y-15922008D02*
X17031968Y-15931531D01*
X17031968Y-15931531D02*
X17041491Y-15950579D01*
X17041491Y-15950579D02*
X17051015Y-15988674D01*
X17051015Y-15988674D02*
X17051015Y-16036293D01*
X17051015Y-16036293D02*
X17041491Y-16074389D01*
X17041491Y-16074389D02*
X17031968Y-16093436D01*
X17031968Y-16093436D02*
X17022444Y-16102960D01*
X17022444Y-16102960D02*
X17003396Y-16112484D01*
X17003396Y-16112484D02*
X16984348Y-16112484D01*
X16984348Y-16112484D02*
X16965301Y-16102960D01*
X16965301Y-16102960D02*
X16955777Y-16093436D01*
X16955777Y-16093436D02*
X16946253Y-16074389D01*
X16946253Y-16074389D02*
X16936729Y-16036293D01*
X16936729Y-16036293D02*
X16936729Y-15988674D01*
X16936729Y-15988674D02*
X16946253Y-15950579D01*
X16946253Y-15950579D02*
X16955777Y-15931531D01*
X16955777Y-15931531D02*
X16965301Y-15922008D01*
X16965301Y-15922008D02*
X16984348Y-15912484D01*
X17117682Y-15912484D02*
X17241491Y-15912484D01*
X17241491Y-15912484D02*
X17174825Y-15988674D01*
X17174825Y-15988674D02*
X17203396Y-15988674D01*
X17203396Y-15988674D02*
X17222444Y-15998198D01*
X17222444Y-15998198D02*
X17231968Y-16007722D01*
X17231968Y-16007722D02*
X17241491Y-16026770D01*
X17241491Y-16026770D02*
X17241491Y-16074389D01*
X17241491Y-16074389D02*
X17231968Y-16093436D01*
X17231968Y-16093436D02*
X17222444Y-16102960D01*
X17222444Y-16102960D02*
X17203396Y-16112484D01*
X17203396Y-16112484D02*
X17146253Y-16112484D01*
X17146253Y-16112484D02*
X17127206Y-16102960D01*
X17127206Y-16102960D02*
X17117682Y-16093436D01*
X17336729Y-16112484D02*
X17374825Y-16112484D01*
X17374825Y-16112484D02*
X17393872Y-16102960D01*
X17393872Y-16102960D02*
X17403396Y-16093436D01*
X17403396Y-16093436D02*
X17422444Y-16064865D01*
X17422444Y-16064865D02*
X17431968Y-16026770D01*
X17431968Y-16026770D02*
X17431968Y-15950579D01*
X17431968Y-15950579D02*
X17422444Y-15931531D01*
X17422444Y-15931531D02*
X17412920Y-15922008D01*
X17412920Y-15922008D02*
X17393872Y-15912484D01*
X17393872Y-15912484D02*
X17355777Y-15912484D01*
X17355777Y-15912484D02*
X17336729Y-15922008D01*
X17336729Y-15922008D02*
X17327206Y-15931531D01*
X17327206Y-15931531D02*
X17317682Y-15950579D01*
X17317682Y-15950579D02*
X17317682Y-15998198D01*
X17317682Y-15998198D02*
X17327206Y-16017246D01*
X17327206Y-16017246D02*
X17336729Y-16026770D01*
X17336729Y-16026770D02*
X17355777Y-16036293D01*
X17355777Y-16036293D02*
X17393872Y-16036293D01*
X17393872Y-16036293D02*
X17412920Y-16026770D01*
X17412920Y-16026770D02*
X17422444Y-16017246D01*
X17422444Y-16017246D02*
X17431968Y-15998198D01*
X17603396Y-15979150D02*
X17603396Y-16112484D01*
X17555777Y-15902960D02*
X17508158Y-16045817D01*
X17508158Y-16045817D02*
X17631968Y-16045817D01*
X17698634Y-15912484D02*
X17698634Y-15950579D01*
X17774825Y-15912484D02*
X17774825Y-15950579D01*
X18070063Y-16188674D02*
X18060539Y-16179150D01*
X18060539Y-16179150D02*
X18041491Y-16150579D01*
X18041491Y-16150579D02*
X18031968Y-16131531D01*
X18031968Y-16131531D02*
X18022444Y-16102960D01*
X18022444Y-16102960D02*
X18012920Y-16055341D01*
X18012920Y-16055341D02*
X18012920Y-16017246D01*
X18012920Y-16017246D02*
X18022444Y-15969627D01*
X18022444Y-15969627D02*
X18031968Y-15941055D01*
X18031968Y-15941055D02*
X18041491Y-15922008D01*
X18041491Y-15922008D02*
X18060539Y-15893436D01*
X18060539Y-15893436D02*
X18070063Y-15883912D01*
X18251015Y-16112484D02*
X18136730Y-16112484D01*
X18193872Y-16112484D02*
X18193872Y-15912484D01*
X18193872Y-15912484D02*
X18174825Y-15941055D01*
X18174825Y-15941055D02*
X18155777Y-15960103D01*
X18155777Y-15960103D02*
X18136730Y-15969627D01*
X18441491Y-16112484D02*
X18327206Y-16112484D01*
X18384349Y-16112484D02*
X18384349Y-15912484D01*
X18384349Y-15912484D02*
X18365301Y-15941055D01*
X18365301Y-15941055D02*
X18346253Y-15960103D01*
X18346253Y-15960103D02*
X18327206Y-15969627D01*
X18679587Y-16112484D02*
X18679587Y-15912484D01*
X18765301Y-16112484D02*
X18765301Y-16007722D01*
X18765301Y-16007722D02*
X18755777Y-15988674D01*
X18755777Y-15988674D02*
X18736730Y-15979150D01*
X18736730Y-15979150D02*
X18708158Y-15979150D01*
X18708158Y-15979150D02*
X18689111Y-15988674D01*
X18689111Y-15988674D02*
X18679587Y-15998198D01*
X18889111Y-16112484D02*
X18870063Y-16102960D01*
X18870063Y-16102960D02*
X18860539Y-16093436D01*
X18860539Y-16093436D02*
X18851015Y-16074389D01*
X18851015Y-16074389D02*
X18851015Y-16017246D01*
X18851015Y-16017246D02*
X18860539Y-15998198D01*
X18860539Y-15998198D02*
X18870063Y-15988674D01*
X18870063Y-15988674D02*
X18889111Y-15979150D01*
X18889111Y-15979150D02*
X18917682Y-15979150D01*
X18917682Y-15979150D02*
X18936730Y-15988674D01*
X18936730Y-15988674D02*
X18946253Y-15998198D01*
X18946253Y-15998198D02*
X18955777Y-16017246D01*
X18955777Y-16017246D02*
X18955777Y-16074389D01*
X18955777Y-16074389D02*
X18946253Y-16093436D01*
X18946253Y-16093436D02*
X18936730Y-16102960D01*
X18936730Y-16102960D02*
X18917682Y-16112484D01*
X18917682Y-16112484D02*
X18889111Y-16112484D01*
X19070063Y-16112484D02*
X19051015Y-16102960D01*
X19051015Y-16102960D02*
X19041492Y-16083912D01*
X19041492Y-16083912D02*
X19041492Y-15912484D01*
X19222444Y-16102960D02*
X19203396Y-16112484D01*
X19203396Y-16112484D02*
X19165301Y-16112484D01*
X19165301Y-16112484D02*
X19146253Y-16102960D01*
X19146253Y-16102960D02*
X19136730Y-16083912D01*
X19136730Y-16083912D02*
X19136730Y-16007722D01*
X19136730Y-16007722D02*
X19146253Y-15988674D01*
X19146253Y-15988674D02*
X19165301Y-15979150D01*
X19165301Y-15979150D02*
X19203396Y-15979150D01*
X19203396Y-15979150D02*
X19222444Y-15988674D01*
X19222444Y-15988674D02*
X19231968Y-16007722D01*
X19231968Y-16007722D02*
X19231968Y-16026770D01*
X19231968Y-16026770D02*
X19136730Y-16045817D01*
X19308158Y-16102960D02*
X19327206Y-16112484D01*
X19327206Y-16112484D02*
X19365301Y-16112484D01*
X19365301Y-16112484D02*
X19384349Y-16102960D01*
X19384349Y-16102960D02*
X19393873Y-16083912D01*
X19393873Y-16083912D02*
X19393873Y-16074389D01*
X19393873Y-16074389D02*
X19384349Y-16055341D01*
X19384349Y-16055341D02*
X19365301Y-16045817D01*
X19365301Y-16045817D02*
X19336730Y-16045817D01*
X19336730Y-16045817D02*
X19317682Y-16036293D01*
X19317682Y-16036293D02*
X19308158Y-16017246D01*
X19308158Y-16017246D02*
X19308158Y-16007722D01*
X19308158Y-16007722D02*
X19317682Y-15988674D01*
X19317682Y-15988674D02*
X19336730Y-15979150D01*
X19336730Y-15979150D02*
X19365301Y-15979150D01*
X19365301Y-15979150D02*
X19384349Y-15988674D01*
X19460539Y-16188674D02*
X19470063Y-16179150D01*
X19470063Y-16179150D02*
X19489111Y-16150579D01*
X19489111Y-16150579D02*
X19498634Y-16131531D01*
X19498634Y-16131531D02*
X19508158Y-16102960D01*
X19508158Y-16102960D02*
X19517682Y-16055341D01*
X19517682Y-16055341D02*
X19517682Y-16017246D01*
X19517682Y-16017246D02*
X19508158Y-15969627D01*
X19508158Y-15969627D02*
X19498634Y-15941055D01*
X19498634Y-15941055D02*
X19489111Y-15922008D01*
X19489111Y-15922008D02*
X19470063Y-15893436D01*
X19470063Y-15893436D02*
X19460539Y-15883912D01*
D14*
X14478891Y-16323891D02*
X14478891Y-16246109D01*
X14401109Y-16246109D01*
X14401109Y-16323891D01*
X14478891Y-16323891D01*
D11*
X14860539Y-16376484D02*
X14746253Y-16376484D01*
X14803396Y-16376484D02*
X14803396Y-16176484D01*
X14803396Y-16176484D02*
X14784348Y-16205055D01*
X14784348Y-16205055D02*
X14765301Y-16224103D01*
X14765301Y-16224103D02*
X14746253Y-16233627D01*
X14946253Y-16357436D02*
X14955777Y-16366960D01*
X14955777Y-16366960D02*
X14946253Y-16376484D01*
X14946253Y-16376484D02*
X14936729Y-16366960D01*
X14936729Y-16366960D02*
X14946253Y-16357436D01*
X14946253Y-16357436D02*
X14946253Y-16376484D01*
X15146253Y-16376484D02*
X15031967Y-16376484D01*
X15089110Y-16376484D02*
X15089110Y-16176484D01*
X15089110Y-16176484D02*
X15070062Y-16205055D01*
X15070062Y-16205055D02*
X15051015Y-16224103D01*
X15051015Y-16224103D02*
X15031967Y-16233627D01*
X15270062Y-16176484D02*
X15289110Y-16176484D01*
X15289110Y-16176484D02*
X15308158Y-16186008D01*
X15308158Y-16186008D02*
X15317682Y-16195531D01*
X15317682Y-16195531D02*
X15327205Y-16214579D01*
X15327205Y-16214579D02*
X15336729Y-16252674D01*
X15336729Y-16252674D02*
X15336729Y-16300293D01*
X15336729Y-16300293D02*
X15327205Y-16338389D01*
X15327205Y-16338389D02*
X15317682Y-16357436D01*
X15317682Y-16357436D02*
X15308158Y-16366960D01*
X15308158Y-16366960D02*
X15289110Y-16376484D01*
X15289110Y-16376484D02*
X15270062Y-16376484D01*
X15270062Y-16376484D02*
X15251015Y-16366960D01*
X15251015Y-16366960D02*
X15241491Y-16357436D01*
X15241491Y-16357436D02*
X15231967Y-16338389D01*
X15231967Y-16338389D02*
X15222443Y-16300293D01*
X15222443Y-16300293D02*
X15222443Y-16252674D01*
X15222443Y-16252674D02*
X15231967Y-16214579D01*
X15231967Y-16214579D02*
X15241491Y-16195531D01*
X15241491Y-16195531D02*
X15251015Y-16186008D01*
X15251015Y-16186008D02*
X15270062Y-16176484D01*
X15460539Y-16176484D02*
X15479586Y-16176484D01*
X15479586Y-16176484D02*
X15498634Y-16186008D01*
X15498634Y-16186008D02*
X15508158Y-16195531D01*
X15508158Y-16195531D02*
X15517682Y-16214579D01*
X15517682Y-16214579D02*
X15527205Y-16252674D01*
X15527205Y-16252674D02*
X15527205Y-16300293D01*
X15527205Y-16300293D02*
X15517682Y-16338389D01*
X15517682Y-16338389D02*
X15508158Y-16357436D01*
X15508158Y-16357436D02*
X15498634Y-16366960D01*
X15498634Y-16366960D02*
X15479586Y-16376484D01*
X15479586Y-16376484D02*
X15460539Y-16376484D01*
X15460539Y-16376484D02*
X15441491Y-16366960D01*
X15441491Y-16366960D02*
X15431967Y-16357436D01*
X15431967Y-16357436D02*
X15422443Y-16338389D01*
X15422443Y-16338389D02*
X15412920Y-16300293D01*
X15412920Y-16300293D02*
X15412920Y-16252674D01*
X15412920Y-16252674D02*
X15422443Y-16214579D01*
X15422443Y-16214579D02*
X15431967Y-16195531D01*
X15431967Y-16195531D02*
X15441491Y-16186008D01*
X15441491Y-16186008D02*
X15460539Y-16176484D01*
X15612920Y-16376484D02*
X15612920Y-16243150D01*
X15612920Y-16262198D02*
X15622443Y-16252674D01*
X15622443Y-16252674D02*
X15641491Y-16243150D01*
X15641491Y-16243150D02*
X15670063Y-16243150D01*
X15670063Y-16243150D02*
X15689110Y-16252674D01*
X15689110Y-16252674D02*
X15698634Y-16271722D01*
X15698634Y-16271722D02*
X15698634Y-16376484D01*
X15698634Y-16271722D02*
X15708158Y-16252674D01*
X15708158Y-16252674D02*
X15727205Y-16243150D01*
X15727205Y-16243150D02*
X15755777Y-16243150D01*
X15755777Y-16243150D02*
X15774824Y-16252674D01*
X15774824Y-16252674D02*
X15784348Y-16271722D01*
X15784348Y-16271722D02*
X15784348Y-16376484D01*
X15879586Y-16376484D02*
X15879586Y-16243150D01*
X15879586Y-16262198D02*
X15889110Y-16252674D01*
X15889110Y-16252674D02*
X15908158Y-16243150D01*
X15908158Y-16243150D02*
X15936729Y-16243150D01*
X15936729Y-16243150D02*
X15955777Y-16252674D01*
X15955777Y-16252674D02*
X15965301Y-16271722D01*
X15965301Y-16271722D02*
X15965301Y-16376484D01*
X15965301Y-16271722D02*
X15974824Y-16252674D01*
X15974824Y-16252674D02*
X15993872Y-16243150D01*
X15993872Y-16243150D02*
X16022443Y-16243150D01*
X16022443Y-16243150D02*
X16041491Y-16252674D01*
X16041491Y-16252674D02*
X16051015Y-16271722D01*
X16051015Y-16271722D02*
X16051015Y-16376484D01*
X16441491Y-16166960D02*
X16270063Y-16424103D01*
X16698634Y-16176484D02*
X16717682Y-16176484D01*
X16717682Y-16176484D02*
X16736729Y-16186008D01*
X16736729Y-16186008D02*
X16746253Y-16195531D01*
X16746253Y-16195531D02*
X16755777Y-16214579D01*
X16755777Y-16214579D02*
X16765301Y-16252674D01*
X16765301Y-16252674D02*
X16765301Y-16300293D01*
X16765301Y-16300293D02*
X16755777Y-16338389D01*
X16755777Y-16338389D02*
X16746253Y-16357436D01*
X16746253Y-16357436D02*
X16736729Y-16366960D01*
X16736729Y-16366960D02*
X16717682Y-16376484D01*
X16717682Y-16376484D02*
X16698634Y-16376484D01*
X16698634Y-16376484D02*
X16679586Y-16366960D01*
X16679586Y-16366960D02*
X16670063Y-16357436D01*
X16670063Y-16357436D02*
X16660539Y-16338389D01*
X16660539Y-16338389D02*
X16651015Y-16300293D01*
X16651015Y-16300293D02*
X16651015Y-16252674D01*
X16651015Y-16252674D02*
X16660539Y-16214579D01*
X16660539Y-16214579D02*
X16670063Y-16195531D01*
X16670063Y-16195531D02*
X16679586Y-16186008D01*
X16679586Y-16186008D02*
X16698634Y-16176484D01*
X16851015Y-16357436D02*
X16860539Y-16366960D01*
X16860539Y-16366960D02*
X16851015Y-16376484D01*
X16851015Y-16376484D02*
X16841491Y-16366960D01*
X16841491Y-16366960D02*
X16851015Y-16357436D01*
X16851015Y-16357436D02*
X16851015Y-16376484D01*
X16984348Y-16176484D02*
X17003396Y-16176484D01*
X17003396Y-16176484D02*
X17022444Y-16186008D01*
X17022444Y-16186008D02*
X17031968Y-16195531D01*
X17031968Y-16195531D02*
X17041491Y-16214579D01*
X17041491Y-16214579D02*
X17051015Y-16252674D01*
X17051015Y-16252674D02*
X17051015Y-16300293D01*
X17051015Y-16300293D02*
X17041491Y-16338389D01*
X17041491Y-16338389D02*
X17031968Y-16357436D01*
X17031968Y-16357436D02*
X17022444Y-16366960D01*
X17022444Y-16366960D02*
X17003396Y-16376484D01*
X17003396Y-16376484D02*
X16984348Y-16376484D01*
X16984348Y-16376484D02*
X16965301Y-16366960D01*
X16965301Y-16366960D02*
X16955777Y-16357436D01*
X16955777Y-16357436D02*
X16946253Y-16338389D01*
X16946253Y-16338389D02*
X16936729Y-16300293D01*
X16936729Y-16300293D02*
X16936729Y-16252674D01*
X16936729Y-16252674D02*
X16946253Y-16214579D01*
X16946253Y-16214579D02*
X16955777Y-16195531D01*
X16955777Y-16195531D02*
X16965301Y-16186008D01*
X16965301Y-16186008D02*
X16984348Y-16176484D01*
X17222444Y-16243150D02*
X17222444Y-16376484D01*
X17174825Y-16166960D02*
X17127206Y-16309817D01*
X17127206Y-16309817D02*
X17251015Y-16309817D01*
X17308158Y-16176484D02*
X17431968Y-16176484D01*
X17431968Y-16176484D02*
X17365301Y-16252674D01*
X17365301Y-16252674D02*
X17393872Y-16252674D01*
X17393872Y-16252674D02*
X17412920Y-16262198D01*
X17412920Y-16262198D02*
X17422444Y-16271722D01*
X17422444Y-16271722D02*
X17431968Y-16290770D01*
X17431968Y-16290770D02*
X17431968Y-16338389D01*
X17431968Y-16338389D02*
X17422444Y-16357436D01*
X17422444Y-16357436D02*
X17412920Y-16366960D01*
X17412920Y-16366960D02*
X17393872Y-16376484D01*
X17393872Y-16376484D02*
X17336729Y-16376484D01*
X17336729Y-16376484D02*
X17317682Y-16366960D01*
X17317682Y-16366960D02*
X17308158Y-16357436D01*
X17498634Y-16176484D02*
X17622444Y-16176484D01*
X17622444Y-16176484D02*
X17555777Y-16252674D01*
X17555777Y-16252674D02*
X17584349Y-16252674D01*
X17584349Y-16252674D02*
X17603396Y-16262198D01*
X17603396Y-16262198D02*
X17612920Y-16271722D01*
X17612920Y-16271722D02*
X17622444Y-16290770D01*
X17622444Y-16290770D02*
X17622444Y-16338389D01*
X17622444Y-16338389D02*
X17612920Y-16357436D01*
X17612920Y-16357436D02*
X17603396Y-16366960D01*
X17603396Y-16366960D02*
X17584349Y-16376484D01*
X17584349Y-16376484D02*
X17527206Y-16376484D01*
X17527206Y-16376484D02*
X17508158Y-16366960D01*
X17508158Y-16366960D02*
X17498634Y-16357436D01*
X17698634Y-16176484D02*
X17698634Y-16214579D01*
X17774825Y-16176484D02*
X17774825Y-16214579D01*
X18070063Y-16452674D02*
X18060539Y-16443150D01*
X18060539Y-16443150D02*
X18041491Y-16414579D01*
X18041491Y-16414579D02*
X18031968Y-16395531D01*
X18031968Y-16395531D02*
X18022444Y-16366960D01*
X18022444Y-16366960D02*
X18012920Y-16319341D01*
X18012920Y-16319341D02*
X18012920Y-16281246D01*
X18012920Y-16281246D02*
X18022444Y-16233627D01*
X18022444Y-16233627D02*
X18031968Y-16205055D01*
X18031968Y-16205055D02*
X18041491Y-16186008D01*
X18041491Y-16186008D02*
X18060539Y-16157436D01*
X18060539Y-16157436D02*
X18070063Y-16147912D01*
X18127206Y-16176484D02*
X18251015Y-16176484D01*
X18251015Y-16176484D02*
X18184349Y-16252674D01*
X18184349Y-16252674D02*
X18212920Y-16252674D01*
X18212920Y-16252674D02*
X18231968Y-16262198D01*
X18231968Y-16262198D02*
X18241491Y-16271722D01*
X18241491Y-16271722D02*
X18251015Y-16290770D01*
X18251015Y-16290770D02*
X18251015Y-16338389D01*
X18251015Y-16338389D02*
X18241491Y-16357436D01*
X18241491Y-16357436D02*
X18231968Y-16366960D01*
X18231968Y-16366960D02*
X18212920Y-16376484D01*
X18212920Y-16376484D02*
X18155777Y-16376484D01*
X18155777Y-16376484D02*
X18136730Y-16366960D01*
X18136730Y-16366960D02*
X18127206Y-16357436D01*
X18489111Y-16376484D02*
X18489111Y-16176484D01*
X18574825Y-16376484D02*
X18574825Y-16271722D01*
X18574825Y-16271722D02*
X18565301Y-16252674D01*
X18565301Y-16252674D02*
X18546253Y-16243150D01*
X18546253Y-16243150D02*
X18517682Y-16243150D01*
X18517682Y-16243150D02*
X18498634Y-16252674D01*
X18498634Y-16252674D02*
X18489111Y-16262198D01*
X18698634Y-16376484D02*
X18679587Y-16366960D01*
X18679587Y-16366960D02*
X18670063Y-16357436D01*
X18670063Y-16357436D02*
X18660539Y-16338389D01*
X18660539Y-16338389D02*
X18660539Y-16281246D01*
X18660539Y-16281246D02*
X18670063Y-16262198D01*
X18670063Y-16262198D02*
X18679587Y-16252674D01*
X18679587Y-16252674D02*
X18698634Y-16243150D01*
X18698634Y-16243150D02*
X18727206Y-16243150D01*
X18727206Y-16243150D02*
X18746253Y-16252674D01*
X18746253Y-16252674D02*
X18755777Y-16262198D01*
X18755777Y-16262198D02*
X18765301Y-16281246D01*
X18765301Y-16281246D02*
X18765301Y-16338389D01*
X18765301Y-16338389D02*
X18755777Y-16357436D01*
X18755777Y-16357436D02*
X18746253Y-16366960D01*
X18746253Y-16366960D02*
X18727206Y-16376484D01*
X18727206Y-16376484D02*
X18698634Y-16376484D01*
X18879587Y-16376484D02*
X18860539Y-16366960D01*
X18860539Y-16366960D02*
X18851015Y-16347912D01*
X18851015Y-16347912D02*
X18851015Y-16176484D01*
X19031968Y-16366960D02*
X19012920Y-16376484D01*
X19012920Y-16376484D02*
X18974825Y-16376484D01*
X18974825Y-16376484D02*
X18955777Y-16366960D01*
X18955777Y-16366960D02*
X18946253Y-16347912D01*
X18946253Y-16347912D02*
X18946253Y-16271722D01*
X18946253Y-16271722D02*
X18955777Y-16252674D01*
X18955777Y-16252674D02*
X18974825Y-16243150D01*
X18974825Y-16243150D02*
X19012920Y-16243150D01*
X19012920Y-16243150D02*
X19031968Y-16252674D01*
X19031968Y-16252674D02*
X19041492Y-16271722D01*
X19041492Y-16271722D02*
X19041492Y-16290770D01*
X19041492Y-16290770D02*
X18946253Y-16309817D01*
X19117682Y-16366960D02*
X19136730Y-16376484D01*
X19136730Y-16376484D02*
X19174825Y-16376484D01*
X19174825Y-16376484D02*
X19193873Y-16366960D01*
X19193873Y-16366960D02*
X19203396Y-16347912D01*
X19203396Y-16347912D02*
X19203396Y-16338389D01*
X19203396Y-16338389D02*
X19193873Y-16319341D01*
X19193873Y-16319341D02*
X19174825Y-16309817D01*
X19174825Y-16309817D02*
X19146253Y-16309817D01*
X19146253Y-16309817D02*
X19127206Y-16300293D01*
X19127206Y-16300293D02*
X19117682Y-16281246D01*
X19117682Y-16281246D02*
X19117682Y-16271722D01*
X19117682Y-16271722D02*
X19127206Y-16252674D01*
X19127206Y-16252674D02*
X19146253Y-16243150D01*
X19146253Y-16243150D02*
X19174825Y-16243150D01*
X19174825Y-16243150D02*
X19193873Y-16252674D01*
X19270063Y-16452674D02*
X19279587Y-16443150D01*
X19279587Y-16443150D02*
X19298634Y-16414579D01*
X19298634Y-16414579D02*
X19308158Y-16395531D01*
X19308158Y-16395531D02*
X19317682Y-16366960D01*
X19317682Y-16366960D02*
X19327206Y-16319341D01*
X19327206Y-16319341D02*
X19327206Y-16281246D01*
X19327206Y-16281246D02*
X19317682Y-16233627D01*
X19317682Y-16233627D02*
X19308158Y-16205055D01*
X19308158Y-16205055D02*
X19298634Y-16186008D01*
X19298634Y-16186008D02*
X19279587Y-16157436D01*
X19279587Y-16157436D02*
X19270063Y-16147912D01*
D15*
X14437850Y-16606150D02*
X14495000Y-16549000D01*
X14437850Y-16491850D01*
X14380700Y-16549000D01*
X14437850Y-16606150D01*
D11*
X14860539Y-16640484D02*
X14746253Y-16640484D01*
X14803396Y-16640484D02*
X14803396Y-16440484D01*
X14803396Y-16440484D02*
X14784348Y-16469055D01*
X14784348Y-16469055D02*
X14765301Y-16488103D01*
X14765301Y-16488103D02*
X14746253Y-16497627D01*
X14946253Y-16621436D02*
X14955777Y-16630960D01*
X14955777Y-16630960D02*
X14946253Y-16640484D01*
X14946253Y-16640484D02*
X14936729Y-16630960D01*
X14936729Y-16630960D02*
X14946253Y-16621436D01*
X14946253Y-16621436D02*
X14946253Y-16640484D01*
X15146253Y-16640484D02*
X15031967Y-16640484D01*
X15089110Y-16640484D02*
X15089110Y-16440484D01*
X15089110Y-16440484D02*
X15070062Y-16469055D01*
X15070062Y-16469055D02*
X15051015Y-16488103D01*
X15051015Y-16488103D02*
X15031967Y-16497627D01*
X15317682Y-16507150D02*
X15317682Y-16640484D01*
X15270062Y-16430960D02*
X15222443Y-16573817D01*
X15222443Y-16573817D02*
X15346253Y-16573817D01*
X15403396Y-16440484D02*
X15527205Y-16440484D01*
X15527205Y-16440484D02*
X15460539Y-16516674D01*
X15460539Y-16516674D02*
X15489110Y-16516674D01*
X15489110Y-16516674D02*
X15508158Y-16526198D01*
X15508158Y-16526198D02*
X15517682Y-16535722D01*
X15517682Y-16535722D02*
X15527205Y-16554770D01*
X15527205Y-16554770D02*
X15527205Y-16602389D01*
X15527205Y-16602389D02*
X15517682Y-16621436D01*
X15517682Y-16621436D02*
X15508158Y-16630960D01*
X15508158Y-16630960D02*
X15489110Y-16640484D01*
X15489110Y-16640484D02*
X15431967Y-16640484D01*
X15431967Y-16640484D02*
X15412920Y-16630960D01*
X15412920Y-16630960D02*
X15403396Y-16621436D01*
X15612920Y-16640484D02*
X15612920Y-16507150D01*
X15612920Y-16526198D02*
X15622443Y-16516674D01*
X15622443Y-16516674D02*
X15641491Y-16507150D01*
X15641491Y-16507150D02*
X15670063Y-16507150D01*
X15670063Y-16507150D02*
X15689110Y-16516674D01*
X15689110Y-16516674D02*
X15698634Y-16535722D01*
X15698634Y-16535722D02*
X15698634Y-16640484D01*
X15698634Y-16535722D02*
X15708158Y-16516674D01*
X15708158Y-16516674D02*
X15727205Y-16507150D01*
X15727205Y-16507150D02*
X15755777Y-16507150D01*
X15755777Y-16507150D02*
X15774824Y-16516674D01*
X15774824Y-16516674D02*
X15784348Y-16535722D01*
X15784348Y-16535722D02*
X15784348Y-16640484D01*
X15879586Y-16640484D02*
X15879586Y-16507150D01*
X15879586Y-16526198D02*
X15889110Y-16516674D01*
X15889110Y-16516674D02*
X15908158Y-16507150D01*
X15908158Y-16507150D02*
X15936729Y-16507150D01*
X15936729Y-16507150D02*
X15955777Y-16516674D01*
X15955777Y-16516674D02*
X15965301Y-16535722D01*
X15965301Y-16535722D02*
X15965301Y-16640484D01*
X15965301Y-16535722D02*
X15974824Y-16516674D01*
X15974824Y-16516674D02*
X15993872Y-16507150D01*
X15993872Y-16507150D02*
X16022443Y-16507150D01*
X16022443Y-16507150D02*
X16041491Y-16516674D01*
X16041491Y-16516674D02*
X16051015Y-16535722D01*
X16051015Y-16535722D02*
X16051015Y-16640484D01*
X16441491Y-16430960D02*
X16270063Y-16688103D01*
X16698634Y-16440484D02*
X16717682Y-16440484D01*
X16717682Y-16440484D02*
X16736729Y-16450008D01*
X16736729Y-16450008D02*
X16746253Y-16459531D01*
X16746253Y-16459531D02*
X16755777Y-16478579D01*
X16755777Y-16478579D02*
X16765301Y-16516674D01*
X16765301Y-16516674D02*
X16765301Y-16564293D01*
X16765301Y-16564293D02*
X16755777Y-16602389D01*
X16755777Y-16602389D02*
X16746253Y-16621436D01*
X16746253Y-16621436D02*
X16736729Y-16630960D01*
X16736729Y-16630960D02*
X16717682Y-16640484D01*
X16717682Y-16640484D02*
X16698634Y-16640484D01*
X16698634Y-16640484D02*
X16679586Y-16630960D01*
X16679586Y-16630960D02*
X16670063Y-16621436D01*
X16670063Y-16621436D02*
X16660539Y-16602389D01*
X16660539Y-16602389D02*
X16651015Y-16564293D01*
X16651015Y-16564293D02*
X16651015Y-16516674D01*
X16651015Y-16516674D02*
X16660539Y-16478579D01*
X16660539Y-16478579D02*
X16670063Y-16459531D01*
X16670063Y-16459531D02*
X16679586Y-16450008D01*
X16679586Y-16450008D02*
X16698634Y-16440484D01*
X16851015Y-16621436D02*
X16860539Y-16630960D01*
X16860539Y-16630960D02*
X16851015Y-16640484D01*
X16851015Y-16640484D02*
X16841491Y-16630960D01*
X16841491Y-16630960D02*
X16851015Y-16621436D01*
X16851015Y-16621436D02*
X16851015Y-16640484D01*
X16984348Y-16440484D02*
X17003396Y-16440484D01*
X17003396Y-16440484D02*
X17022444Y-16450008D01*
X17022444Y-16450008D02*
X17031968Y-16459531D01*
X17031968Y-16459531D02*
X17041491Y-16478579D01*
X17041491Y-16478579D02*
X17051015Y-16516674D01*
X17051015Y-16516674D02*
X17051015Y-16564293D01*
X17051015Y-16564293D02*
X17041491Y-16602389D01*
X17041491Y-16602389D02*
X17031968Y-16621436D01*
X17031968Y-16621436D02*
X17022444Y-16630960D01*
X17022444Y-16630960D02*
X17003396Y-16640484D01*
X17003396Y-16640484D02*
X16984348Y-16640484D01*
X16984348Y-16640484D02*
X16965301Y-16630960D01*
X16965301Y-16630960D02*
X16955777Y-16621436D01*
X16955777Y-16621436D02*
X16946253Y-16602389D01*
X16946253Y-16602389D02*
X16936729Y-16564293D01*
X16936729Y-16564293D02*
X16936729Y-16516674D01*
X16936729Y-16516674D02*
X16946253Y-16478579D01*
X16946253Y-16478579D02*
X16955777Y-16459531D01*
X16955777Y-16459531D02*
X16965301Y-16450008D01*
X16965301Y-16450008D02*
X16984348Y-16440484D01*
X17222444Y-16507150D02*
X17222444Y-16640484D01*
X17174825Y-16430960D02*
X17127206Y-16573817D01*
X17127206Y-16573817D02*
X17251015Y-16573817D01*
X17422444Y-16440484D02*
X17327206Y-16440484D01*
X17327206Y-16440484D02*
X17317682Y-16535722D01*
X17317682Y-16535722D02*
X17327206Y-16526198D01*
X17327206Y-16526198D02*
X17346253Y-16516674D01*
X17346253Y-16516674D02*
X17393872Y-16516674D01*
X17393872Y-16516674D02*
X17412920Y-16526198D01*
X17412920Y-16526198D02*
X17422444Y-16535722D01*
X17422444Y-16535722D02*
X17431968Y-16554770D01*
X17431968Y-16554770D02*
X17431968Y-16602389D01*
X17431968Y-16602389D02*
X17422444Y-16621436D01*
X17422444Y-16621436D02*
X17412920Y-16630960D01*
X17412920Y-16630960D02*
X17393872Y-16640484D01*
X17393872Y-16640484D02*
X17346253Y-16640484D01*
X17346253Y-16640484D02*
X17327206Y-16630960D01*
X17327206Y-16630960D02*
X17317682Y-16621436D01*
X17555777Y-16440484D02*
X17574825Y-16440484D01*
X17574825Y-16440484D02*
X17593872Y-16450008D01*
X17593872Y-16450008D02*
X17603396Y-16459531D01*
X17603396Y-16459531D02*
X17612920Y-16478579D01*
X17612920Y-16478579D02*
X17622444Y-16516674D01*
X17622444Y-16516674D02*
X17622444Y-16564293D01*
X17622444Y-16564293D02*
X17612920Y-16602389D01*
X17612920Y-16602389D02*
X17603396Y-16621436D01*
X17603396Y-16621436D02*
X17593872Y-16630960D01*
X17593872Y-16630960D02*
X17574825Y-16640484D01*
X17574825Y-16640484D02*
X17555777Y-16640484D01*
X17555777Y-16640484D02*
X17536729Y-16630960D01*
X17536729Y-16630960D02*
X17527206Y-16621436D01*
X17527206Y-16621436D02*
X17517682Y-16602389D01*
X17517682Y-16602389D02*
X17508158Y-16564293D01*
X17508158Y-16564293D02*
X17508158Y-16516674D01*
X17508158Y-16516674D02*
X17517682Y-16478579D01*
X17517682Y-16478579D02*
X17527206Y-16459531D01*
X17527206Y-16459531D02*
X17536729Y-16450008D01*
X17536729Y-16450008D02*
X17555777Y-16440484D01*
X17698634Y-16440484D02*
X17698634Y-16478579D01*
X17774825Y-16440484D02*
X17774825Y-16478579D01*
X18070063Y-16716674D02*
X18060539Y-16707150D01*
X18060539Y-16707150D02*
X18041491Y-16678579D01*
X18041491Y-16678579D02*
X18031968Y-16659531D01*
X18031968Y-16659531D02*
X18022444Y-16630960D01*
X18022444Y-16630960D02*
X18012920Y-16583341D01*
X18012920Y-16583341D02*
X18012920Y-16545246D01*
X18012920Y-16545246D02*
X18022444Y-16497627D01*
X18022444Y-16497627D02*
X18031968Y-16469055D01*
X18031968Y-16469055D02*
X18041491Y-16450008D01*
X18041491Y-16450008D02*
X18060539Y-16421436D01*
X18060539Y-16421436D02*
X18070063Y-16411912D01*
X18241491Y-16440484D02*
X18146253Y-16440484D01*
X18146253Y-16440484D02*
X18136730Y-16535722D01*
X18136730Y-16535722D02*
X18146253Y-16526198D01*
X18146253Y-16526198D02*
X18165301Y-16516674D01*
X18165301Y-16516674D02*
X18212920Y-16516674D01*
X18212920Y-16516674D02*
X18231968Y-16526198D01*
X18231968Y-16526198D02*
X18241491Y-16535722D01*
X18241491Y-16535722D02*
X18251015Y-16554770D01*
X18251015Y-16554770D02*
X18251015Y-16602389D01*
X18251015Y-16602389D02*
X18241491Y-16621436D01*
X18241491Y-16621436D02*
X18231968Y-16630960D01*
X18231968Y-16630960D02*
X18212920Y-16640484D01*
X18212920Y-16640484D02*
X18165301Y-16640484D01*
X18165301Y-16640484D02*
X18146253Y-16630960D01*
X18146253Y-16630960D02*
X18136730Y-16621436D01*
X18489111Y-16640484D02*
X18489111Y-16440484D01*
X18574825Y-16640484D02*
X18574825Y-16535722D01*
X18574825Y-16535722D02*
X18565301Y-16516674D01*
X18565301Y-16516674D02*
X18546253Y-16507150D01*
X18546253Y-16507150D02*
X18517682Y-16507150D01*
X18517682Y-16507150D02*
X18498634Y-16516674D01*
X18498634Y-16516674D02*
X18489111Y-16526198D01*
X18698634Y-16640484D02*
X18679587Y-16630960D01*
X18679587Y-16630960D02*
X18670063Y-16621436D01*
X18670063Y-16621436D02*
X18660539Y-16602389D01*
X18660539Y-16602389D02*
X18660539Y-16545246D01*
X18660539Y-16545246D02*
X18670063Y-16526198D01*
X18670063Y-16526198D02*
X18679587Y-16516674D01*
X18679587Y-16516674D02*
X18698634Y-16507150D01*
X18698634Y-16507150D02*
X18727206Y-16507150D01*
X18727206Y-16507150D02*
X18746253Y-16516674D01*
X18746253Y-16516674D02*
X18755777Y-16526198D01*
X18755777Y-16526198D02*
X18765301Y-16545246D01*
X18765301Y-16545246D02*
X18765301Y-16602389D01*
X18765301Y-16602389D02*
X18755777Y-16621436D01*
X18755777Y-16621436D02*
X18746253Y-16630960D01*
X18746253Y-16630960D02*
X18727206Y-16640484D01*
X18727206Y-16640484D02*
X18698634Y-16640484D01*
X18879587Y-16640484D02*
X18860539Y-16630960D01*
X18860539Y-16630960D02*
X18851015Y-16611912D01*
X18851015Y-16611912D02*
X18851015Y-16440484D01*
X19031968Y-16630960D02*
X19012920Y-16640484D01*
X19012920Y-16640484D02*
X18974825Y-16640484D01*
X18974825Y-16640484D02*
X18955777Y-16630960D01*
X18955777Y-16630960D02*
X18946253Y-16611912D01*
X18946253Y-16611912D02*
X18946253Y-16535722D01*
X18946253Y-16535722D02*
X18955777Y-16516674D01*
X18955777Y-16516674D02*
X18974825Y-16507150D01*
X18974825Y-16507150D02*
X19012920Y-16507150D01*
X19012920Y-16507150D02*
X19031968Y-16516674D01*
X19031968Y-16516674D02*
X19041492Y-16535722D01*
X19041492Y-16535722D02*
X19041492Y-16554770D01*
X19041492Y-16554770D02*
X18946253Y-16573817D01*
X19117682Y-16630960D02*
X19136730Y-16640484D01*
X19136730Y-16640484D02*
X19174825Y-16640484D01*
X19174825Y-16640484D02*
X19193873Y-16630960D01*
X19193873Y-16630960D02*
X19203396Y-16611912D01*
X19203396Y-16611912D02*
X19203396Y-16602389D01*
X19203396Y-16602389D02*
X19193873Y-16583341D01*
X19193873Y-16583341D02*
X19174825Y-16573817D01*
X19174825Y-16573817D02*
X19146253Y-16573817D01*
X19146253Y-16573817D02*
X19127206Y-16564293D01*
X19127206Y-16564293D02*
X19117682Y-16545246D01*
X19117682Y-16545246D02*
X19117682Y-16535722D01*
X19117682Y-16535722D02*
X19127206Y-16516674D01*
X19127206Y-16516674D02*
X19146253Y-16507150D01*
X19146253Y-16507150D02*
X19174825Y-16507150D01*
X19174825Y-16507150D02*
X19193873Y-16516674D01*
X19270063Y-16716674D02*
X19279587Y-16707150D01*
X19279587Y-16707150D02*
X19298634Y-16678579D01*
X19298634Y-16678579D02*
X19308158Y-16659531D01*
X19308158Y-16659531D02*
X19317682Y-16630960D01*
X19317682Y-16630960D02*
X19327206Y-16583341D01*
X19327206Y-16583341D02*
X19327206Y-16545246D01*
X19327206Y-16545246D02*
X19317682Y-16497627D01*
X19317682Y-16497627D02*
X19308158Y-16469055D01*
X19308158Y-16469055D02*
X19298634Y-16450008D01*
X19298634Y-16450008D02*
X19279587Y-16421436D01*
X19279587Y-16421436D02*
X19270063Y-16411912D01*
M02*
