%TF.GenerationSoftware,KiCad,Pcbnew,7.0.8*%
%TF.CreationDate,2024-02-15T00:03:28-06:00*%
%TF.ProjectId,Receiver_KiCad,52656365-6976-4657-925f-4b694361642e,rev?*%
%TF.SameCoordinates,Original*%
%TF.FileFunction,Paste,Top*%
%TF.FilePolarity,Positive*%
%FSLAX46Y46*%
G04 Gerber Fmt 4.6, Leading zero omitted, Abs format (unit mm)*
G04 Created by KiCad (PCBNEW 7.0.8) date 2024-02-15 00:03:28*
%MOMM*%
%LPD*%
G01*
G04 APERTURE LIST*
G04 Aperture macros list*
%AMRoundRect*
0 Rectangle with rounded corners*
0 $1 Rounding radius*
0 $2 $3 $4 $5 $6 $7 $8 $9 X,Y pos of 4 corners*
0 Add a 4 corners polygon primitive as box body*
4,1,4,$2,$3,$4,$5,$6,$7,$8,$9,$2,$3,0*
0 Add four circle primitives for the rounded corners*
1,1,$1+$1,$2,$3*
1,1,$1+$1,$4,$5*
1,1,$1+$1,$6,$7*
1,1,$1+$1,$8,$9*
0 Add four rect primitives between the rounded corners*
20,1,$1+$1,$2,$3,$4,$5,0*
20,1,$1+$1,$4,$5,$6,$7,0*
20,1,$1+$1,$6,$7,$8,$9,0*
20,1,$1+$1,$8,$9,$2,$3,0*%
G04 Aperture macros list end*
%ADD10RoundRect,0.150000X0.825000X0.150000X-0.825000X0.150000X-0.825000X-0.150000X0.825000X-0.150000X0*%
%ADD11RoundRect,0.100000X-0.637500X-0.100000X0.637500X-0.100000X0.637500X0.100000X-0.637500X0.100000X0*%
%ADD12R,0.810000X0.930000*%
%ADD13R,0.970000X0.900000*%
%ADD14RoundRect,0.075600X0.224400X0.194400X-0.224400X0.194400X-0.224400X-0.194400X0.224400X-0.194400X0*%
%ADD15R,0.970000X1.380000*%
%ADD16R,0.939800X0.660400*%
G04 APERTURE END LIST*
D10*
%TO.C,U2*%
X179490000Y-130060000D03*
X179490000Y-128790000D03*
X179490000Y-127520000D03*
X179490000Y-126250000D03*
X174540000Y-126250000D03*
X174540000Y-127520000D03*
X174540000Y-128790000D03*
X174540000Y-130060000D03*
%TD*%
D11*
%TO.C,U1*%
X161822500Y-125230000D03*
X161822500Y-125880000D03*
X161822500Y-126530000D03*
X161822500Y-127180000D03*
X161822500Y-127830000D03*
X161822500Y-128480000D03*
X161822500Y-129130000D03*
X161822500Y-129780000D03*
X161822500Y-130430000D03*
X161822500Y-131080000D03*
X167547500Y-131080000D03*
X167547500Y-130430000D03*
X167547500Y-129780000D03*
X167547500Y-129130000D03*
X167547500Y-128480000D03*
X167547500Y-127830000D03*
X167547500Y-127180000D03*
X167547500Y-126530000D03*
X167547500Y-125880000D03*
X167547500Y-125230000D03*
%TD*%
D12*
%TO.C,D1*%
X166350000Y-145110000D03*
X164730000Y-145110000D03*
%TD*%
D13*
%TO.C,R2*%
X169930000Y-123975000D03*
X169930000Y-125495000D03*
%TD*%
%TO.C,R1*%
X172170000Y-123905000D03*
X172170000Y-125425000D03*
%TD*%
D14*
%TO.C,C2*%
X158165000Y-128065000D03*
X158165000Y-127205000D03*
%TD*%
D15*
%TO.C,R3*%
X164460000Y-140205000D03*
X166320000Y-140205000D03*
%TD*%
D16*
%TO.C,C1*%
X159751400Y-127001400D03*
X159751400Y-128423800D03*
%TD*%
M02*
